<?xml version="1.0" encoding="utf-8"?>
<!-- Generator: Adobe Illustrator 14.0.0, SVG Export Plug-In . SVG Version: 6.00 Build 43363)  -->
<!DOCTYPE svg PUBLIC "-//W3C//DTD SVG 1.0//EN" "http://www.w3.org/TR/2001/REC-SVG-20010904/DTD/svg10.dtd">
<svg version="1.0" id="Layer_1" xmlns="http://www.w3.org/2000/svg" xmlns:xlink="http://www.w3.org/1999/xlink" x="0px" y="0px"
	 width="100px" height="99.999px" viewBox="0 0 100 99.999" enable-background="new 0 0 100 99.999" xml:space="preserve">
<path d="M49.973,99.999H49.97c-13.356-0.007-25.908-5.212-35.347-14.657C5.181,75.89-0.012,63.328,0,49.966
	c-0.012-13.335,5.177-25.884,14.614-35.327C24.049,5.201,36.594,0,49.94,0h0.062c13.351,0,25.907,5.201,35.348,14.638
	C94.789,24.077,99.991,36.623,100,49.97c-0.009,13.37-5.216,25.927-14.661,35.373C75.893,94.787,63.335,99.992,49.973,99.999
	L49.973,99.999z M49.94,11.494c-10.273,0-19.931,4.003-27.196,11.273c-7.262,7.27-11.258,16.928-11.25,27.2
	c-0.008,10.298,3.992,19.972,11.262,27.248c7.267,7.276,16.932,11.283,27.215,11.289c21.233-0.011,38.52-17.296,38.533-38.533
	c-0.013-21.213-17.283-38.477-38.501-38.477H49.94L49.94,11.494z"/>
<path d="M54.323,44.643V33.436c3.194,0.23,5.688,3.401,5.983,6.637h10.607c0.012-10.883-9.883-16.604-16.7-17.025v-7.344H44.097
	v7.344c-2.977,0.023-16.39,3.817-16.375,15.989c-0.016,10.835,9.657,13.791,16.375,14.742v12.24
	c-4.894-1.386-5.789-5.154-6.473-8.268H26.853c0.69,12.18,11.393,17.849,17.244,18.713v7.505h10.227v-7.396
	c8.087-0.436,17.666-7.419,17.679-16.972C71.989,48.612,62.447,45.497,54.323,44.643z M44.151,42.845
	c-7.202-0.112-7.345-8.004,0-9.302V42.845z M54.433,66.074V55.521C63.354,55.765,64.346,64.66,54.433,66.074z"/>
</svg>
