<?xml version="1.0" encoding="utf-8"?>
<!-- Generator: Adobe Illustrator 15.1.0, SVG Export Plug-In . SVG Version: 6.00 Build 0)  -->
<!DOCTYPE svg PUBLIC "-//W3C//DTD SVG 1.1//EN" "http://www.w3.org/Graphics/SVG/1.1/DTD/svg11.dtd">
<svg version="1.1" id="Layer_1" xmlns="http://www.w3.org/2000/svg" xmlns:xlink="http://www.w3.org/1999/xlink" x="0px" y="0px"
	 width="72.224px" height="100px" viewBox="0 0 72.224 100" enable-background="new 0 0 72.224 100" xml:space="preserve">
<path d="M22.223,0c-2.778,0-5.556,2.777-5.556,5.555v5.556h38.89V5.555C55.557,2.777,52.778,0,49.999,0H22.223z"/>
<path d="M16.667,16.667v2.777c0,10.739,8.706,19.445,19.445,19.445s19.445-8.706,19.445-19.445v-2.777H16.667z"/>
<path d="M11.111,44.445C2.778,44.445,0,58.333,0,66.667V100h14.931l37.848-55.555H11.111z"/>
<path d="M61.111,44.445L23.264,100h48.959V66.667C72.224,58.333,69.444,44.445,61.111,44.445z"/>
</svg>
