<?xml version="1.0" encoding="utf-8"?>
<!-- Generator: Adobe Illustrator 15.1.0, SVG Export Plug-In . SVG Version: 6.00 Build 0)  -->
<!DOCTYPE svg PUBLIC "-//W3C//DTD SVG 1.1//EN" "http://www.w3.org/Graphics/SVG/1.1/DTD/svg11.dtd">
<svg version="1.1" id="Layer_1" xmlns="http://www.w3.org/2000/svg" xmlns:xlink="http://www.w3.org/1999/xlink" x="0px" y="0px"
	 width="72.224px" height="100px" viewBox="0 0 72.224 100" enable-background="new 0 0 72.224 100" xml:space="preserve">
<path id="rect8138-7" d="M19.444,0c-1.897,0-2.778,0-2.778,2.778v80.208C5.556,83.331,0,91.667,0,97.222C0,100,2.778,100,2.778,100
	h66.667c0,0,2.779,0,2.779-2.778c0-13.889-8.334-25-16.667-25c-8.737,0-13.573,15.446-22.224,16.666
	c-3.792,0.534-7.458-1.916-11.11-3.818V33.333l38.889-16.667L25.009,1.195C22.918,0.298,20.834,0,19.444,0z"/>
</svg>
