<?xml version="1.0" encoding="utf-8"?>
<!-- Generator: Adobe Illustrator 15.1.0, SVG Export Plug-In . SVG Version: 6.00 Build 0)  -->
<!DOCTYPE svg PUBLIC "-//W3C//DTD SVG 1.1//EN" "http://www.w3.org/Graphics/SVG/1.1/DTD/svg11.dtd">
<svg version="1.1" id="Layer_1" xmlns="http://www.w3.org/2000/svg" xmlns:xlink="http://www.w3.org/1999/xlink" x="0px" y="0px"
	 width="100px" height="100.001px" viewBox="0 0 100 100.001" enable-background="new 0 0 100 100.001" xml:space="preserve">
<path d="M11.765,0C4.398,0,0,4.433,0,11.765c0,5.882,11.765,14.706,17.647,20.589c11.765,11.764,31.188,22.365,50,41.176
	l17.647,17.646l-2.942,2.942c0,2.941,2.942,5.882,5.884,5.882l5.882-5.882L100,88.236c0-2.94-2.939-5.883-5.882-5.883l-2.942,2.942
	L73.53,67.648C56.687,50.805,44.118,29.413,32.354,17.647C26.471,11.765,17.647,0,11.765,0L11.765,0z"/>
<circle cx="32.354" cy="67.648" r="8.823"/>
</svg>
