<?xml version="1.0" encoding="utf-8"?>
<!-- Generator: Adobe Illustrator 15.1.0, SVG Export Plug-In . SVG Version: 6.00 Build 0)  -->
<!DOCTYPE svg PUBLIC "-//W3C//DTD SVG 1.1//EN" "http://www.w3.org/Graphics/SVG/1.1/DTD/svg11.dtd">
<svg version="1.1" id="Layer_1" xmlns="http://www.w3.org/2000/svg" xmlns:xlink="http://www.w3.org/1999/xlink" x="0px" y="0px"
	 width="100px" height="100px" viewBox="0 0 100 100" enable-background="new 0 0 100 100" xml:space="preserve">
<path id="path10041-3" d="M50,0L29.412,29.412L17.647,11.765C13.749,18.619,0,35.294,0,52.941C0,78.931,24.01,100,50,100
	c25.991,0,50-21.069,50-47.06c0-17.647-13.749-34.321-17.647-41.176L70.59,29.412L50,0z M50,47.059c0,0,20.59,15.792,20.59,29.412
	c0,5.883-8.824,11.765-20.59,11.765c-11.765,0-20.588-5.883-20.588-11.765C29.412,63.319,50,47.059,50,47.059L50,47.059z"/>
</svg>
