<?xml version="1.0" encoding="utf-8"?>
<!-- Generator: Adobe Illustrator 15.1.0, SVG Export Plug-In . SVG Version: 6.00 Build 0)  -->
<!DOCTYPE svg PUBLIC "-//W3C//DTD SVG 1.1//EN" "http://www.w3.org/Graphics/SVG/1.1/DTD/svg11.dtd">
<svg version="1.1" id="Layer_1" xmlns="http://www.w3.org/2000/svg" xmlns:xlink="http://www.w3.org/1999/xlink" x="0px" y="0px"
	 width="100px" height="71.428px" viewBox="0 0 100 71.428" enable-background="new 0 0 100 71.428" xml:space="preserve">
<g id="layer1" transform="translate(0,-952.362)">
	<path id="path4181" d="M45.238,954.743L0,980.933h9.524v4.762v28.571v4.763c0,2.381,2.124,4.762,4.762,4.762h14.286v-23.81
		c0-2.638,2.124-4.762,4.762-4.762h33.334c2.638,0,4.679,2.125,4.762,4.762v23.81h14.285c2.639,0,4.762-2.123,4.762-4.762v-4.763
		v-28.571v-4.762H100l-45.239-26.19c-2.034-1.178-4.037-2.378-4.761-2.381C49.277,952.36,47.305,953.546,45.238,954.743
		L45.238,954.743z M33.333,999.981v4.762h33.334v-4.762H33.333z M33.333,1009.505v4.761h33.334v-4.761H33.333z M33.333,1019.029
		v4.762h33.334v-4.762H33.333z"/>
</g>
</svg>
