<?xml version="1.0" encoding="utf-8"?>
<!-- Generator: Adobe Illustrator 15.1.0, SVG Export Plug-In . SVG Version: 6.00 Build 0)  -->
<!DOCTYPE svg PUBLIC "-//W3C//DTD SVG 1.1//EN" "http://www.w3.org/Graphics/SVG/1.1/DTD/svg11.dtd">
<svg version="1.1" id="Layer_1" xmlns="http://www.w3.org/2000/svg" xmlns:xlink="http://www.w3.org/1999/xlink" x="0px" y="0px"
	 width="100px" height="88.236px" viewBox="0 0 100 88.236" enable-background="new 0 0 100 88.236" xml:space="preserve">
<path d="M50,0L35.295,41.177L0,17.647l11.765,38.235c2.696,8.762,5.883,8.823,11.765,8.823h11.765v-5.883h29.411v5.883h11.766
	c5.882,0,8.862-2.532,11.766-8.823L100,17.647L64.706,41.177L50,0z"/>
<path d="M41.177,64.706v5.883c-13.035,0-23.529,3.935-23.529,8.824c0,4.889,10.494,8.823,23.529,8.823h17.648
	c13.035,0,23.528-3.935,23.528-8.823c0-4.89-10.493-8.824-23.528-8.824v-5.883H41.177z"/>
</svg>
