<?xml version="1.0" encoding="utf-8"?>
<!-- Generator: Adobe Illustrator 15.1.0, SVG Export Plug-In . SVG Version: 6.00 Build 0)  -->
<!DOCTYPE svg PUBLIC "-//W3C//DTD SVG 1.1//EN" "http://www.w3.org/Graphics/SVG/1.1/DTD/svg11.dtd">
<svg version="1.1" id="Layer_1" xmlns="http://www.w3.org/2000/svg" xmlns:xlink="http://www.w3.org/1999/xlink" x="0px" y="0px"
	 width="100px" height="88.236px" viewBox="0 0 100 88.236" enable-background="new 0 0 100 88.236" xml:space="preserve">
<path id="path9151" d="M70.59,5.882c0,7.843,0,23.53,0,23.53H52.943V11.765L29.412,29.412V11.765L5.882,29.412
	C3.275,31.367,0,32.353,0,38.236v44.118c0,3.259,2.623,5.883,5.882,5.883h88.236c3.26,0,5.882-2.624,5.882-5.883V35.294
	c0-3.259-2.622-5.883-5.882-5.883H82.353c0,0,0-15.686,0-23.529C82.353,2.941,79.246,0,76.471,0C73.698,0,70.59,2.941,70.59,5.882
	L70.59,5.882z"/>
</svg>
