<?xml version="1.0" encoding="utf-8"?>
<!-- Generator: Adobe Illustrator 15.1.0, SVG Export Plug-In . SVG Version: 6.00 Build 0)  -->
<!DOCTYPE svg PUBLIC "-//W3C//DTD SVG 1.1//EN" "http://www.w3.org/Graphics/SVG/1.1/DTD/svg11.dtd">
<svg version="1.1" id="Layer_1" xmlns="http://www.w3.org/2000/svg" xmlns:xlink="http://www.w3.org/1999/xlink" x="0px" y="0px"
	 width="57.894px" height="100px" viewBox="0 0 57.894 100" enable-background="new 0 0 57.894 100" xml:space="preserve">
<path d="M28.947,0C12.96,0,0,5.891,0,13.158v15.79c0,7.267,12.96,13.158,28.947,13.158s28.946-5.891,28.946-13.158v-15.79
	C57.894,5.891,44.935,0,28.947,0z"/>
<path d="M28.947,52.631C12.96,52.631,0,46.74,0,39.474v47.368C0,94.109,12.96,100,28.947,100s28.946-5.891,28.946-13.158V39.474
	C57.894,46.74,44.935,52.631,28.947,52.631z M42.104,84.21c-3.957,0.924-8.403,1.481-13.157,1.481s-9.2-0.558-13.158-1.481V63.157
	c3.958,0.924,8.404,1.481,13.158,1.481s9.2-0.558,13.157-1.481V84.21z"/>
</svg>
