<?xml version="1.0" encoding="utf-8"?>
<!-- Generator: Adobe Illustrator 14.0.0, SVG Export Plug-In . SVG Version: 6.00 Build 43363)  -->
<!DOCTYPE svg PUBLIC "-//W3C//DTD SVG 1.0//EN" "http://www.w3.org/TR/2001/REC-SVG-20010904/DTD/svg10.dtd">
<svg version="1.0" id="Layer_1" xmlns="http://www.w3.org/2000/svg" xmlns:xlink="http://www.w3.org/1999/xlink" x="0px" y="0px"
	 width="100px" height="100px" viewBox="0 0 100 100" enable-background="new 0 0 100 100" xml:space="preserve">
<g>
	<path d="M77.745,49.936h-3v-4.108c0-3.57-2.735-4.319-5.031-4.319h-8.057c-2.495,0-4.634-1.238-5.868-3.397
		c-0.981-1.717-1.267-3.828-0.854-5.745c-2.671-0.315-4.462-1.48-5.562-2.518c-1.779-1.678-2.799-4.02-2.799-6.427
		c0-4.53,3.085-9.117,8.981-9.117v3c-4.731,0-5.981,4.001-5.981,6.117c0,1.584,0.677,3.131,1.857,4.244
		c1.365,1.288,3.287,1.898,5.556,1.765c0.555-0.034,1.079,0.242,1.368,0.715s0.294,1.066,0.013,1.543
		c-0.835,1.418-0.824,3.447,0.026,4.934c0.492,0.86,1.457,1.886,3.264,1.886h8.057c4.954,0,8.031,2.805,8.031,7.319V49.936
		L77.745,49.936z"/>
</g>
<g>
	<path d="M82.418,49.936h-3.001v-5.516c0-4.873-3.349-10.052-9.555-10.052h-4.764c-0.563,0-1.08-0.316-1.336-0.818
		c-0.256-0.502-0.209-1.105,0.122-1.562c1.086-1.498,1.734-3.335,1.734-4.915c0-3.968-3.147-6.848-7.483-6.848v-3
		c5.977,0,10.483,4.233,10.483,9.848c0,1.399-0.333,2.883-0.947,4.295h2.19c7.859,0,12.556,6.636,12.556,13.052V49.936
		L82.418,49.936z"/>
</g>
<g>
	<polygon points="77.745,60.476 74.745,60.476 74.745,51.416 77.745,51.416 77.745,60.476 	"/>
</g>
<g>
	<polygon points="82.436,60.476 79.435,60.476 79.435,51.416 82.436,51.416 82.436,60.476 	"/>
</g>
<polygon points="73.069,60.511 73.069,51.558 60.742,51.558 69.695,60.511 "/>
<polygon points="17.097,51.558 17.097,60.511 51.883,60.511 42.929,51.558 "/>
<path d="M85.355,14.645C75.911,5.201,63.355,0,50,0S24.088,5.201,14.645,14.645C5.201,24.088,0,36.645,0,50
	c0,13.356,5.201,25.912,14.645,35.355C24.088,94.799,36.645,100,50,100s25.911-5.2,35.355-14.645C94.799,75.912,100,63.356,100,50
	C100,36.645,94.799,24.088,85.355,14.645z M88.852,50c0,8.547-2.776,16.457-7.471,22.878L27.121,18.62
	c6.422-4.695,14.332-7.472,22.879-7.472C71.423,11.148,88.852,28.577,88.852,50z M11.147,50c0-8.689,2.868-16.721,7.706-23.2
	L73.2,81.146c-6.479,4.838-14.511,7.706-23.2,7.706C28.577,88.852,11.147,71.423,11.147,50z"/>
</svg>
