<?xml version="1.0" encoding="utf-8"?>
<!-- Generator: Adobe Illustrator 15.1.0, SVG Export Plug-In . SVG Version: 6.00 Build 0)  -->
<!DOCTYPE svg PUBLIC "-//W3C//DTD SVG 1.1//EN" "http://www.w3.org/Graphics/SVG/1.1/DTD/svg11.dtd">
<svg version="1.1" id="Layer_1" xmlns="http://www.w3.org/2000/svg" xmlns:xlink="http://www.w3.org/1999/xlink" x="0px" y="0px"
	 width="100px" height="100px" viewBox="0 0 100 100" enable-background="new 0 0 100 100" xml:space="preserve">
<path id="rect8206-4" d="M40,0c-3.693,0-6.667,2.974-6.667,6.667v26.667H6.667C2.974,33.333,0,36.307,0,40v20
	c0,3.693,2.974,6.666,6.667,6.666h26.667v26.667c0,3.693,2.974,6.667,6.667,6.667h20c3.693,0,6.666-2.974,6.666-6.667V66.666h26.668
	c3.692,0,6.666-2.973,6.666-6.666V40c0-3.694-2.974-6.667-6.666-6.667H66.666V6.667C66.666,2.974,63.693,0,60,0H40z"/>
</svg>
