<?xml version="1.0" encoding="utf-8"?>
<!-- Generator: Adobe Illustrator 15.1.0, SVG Export Plug-In . SVG Version: 6.00 Build 0)  -->
<!DOCTYPE svg PUBLIC "-//W3C//DTD SVG 1.1//EN" "http://www.w3.org/Graphics/SVG/1.1/DTD/svg11.dtd">
<svg version="1.1" id="Layer_1" xmlns="http://www.w3.org/2000/svg" xmlns:xlink="http://www.w3.org/1999/xlink" x="0px" y="0px"
	 width="94.119px" height="100px" viewBox="0 0 94.119 100" enable-background="new 0 0 94.119 100" xml:space="preserve">
<polygon points="82.354,0 69.118,3.861 75.552,21.324 88.235,17.647 "/>
<polygon points="61.031,6.067 43.75,11.029 44.118,11.765 47.427,20.772 50.368,28.493 67.648,23.53 "/>
<polygon points="35.846,13.235 20.589,17.647 27.207,35.111 42.464,30.699 38.604,20.772 "/>
<polygon points="12.684,19.853 0,23.53 5.883,41.177 19.118,37.317 "/>
<path d="M5.883,41.177v52.941c0,3.259,2.623,5.882,5.882,5.882h76.47c3.259,0,5.884-2.623,5.884-5.882V41.177H5.883z M82.354,70.588
	H17.647V52.942h64.706V70.588z"/>
</svg>
