<?xml version="1.0" encoding="utf-8"?>
<!-- Generator: Adobe Illustrator 15.1.0, SVG Export Plug-In . SVG Version: 6.00 Build 0)  -->
<!DOCTYPE svg PUBLIC "-//W3C//DTD SVG 1.1//EN" "http://www.w3.org/Graphics/SVG/1.1/DTD/svg11.dtd">
<svg version="1.1" id="Layer_1" xmlns="http://www.w3.org/2000/svg" xmlns:xlink="http://www.w3.org/1999/xlink" x="0px" y="0px"
	 width="68.421px" height="100px" viewBox="0 0 68.421 100" enable-background="new 0 0 68.421 100" xml:space="preserve">
<circle cx="31.579" cy="10.526" r="10.526"/>
<path d="M1.316,21.052l2.631,10.527c1.316,5.263,4.458,5.263,8.388,5.263h8.717c3.125,5.264,1.656,13.009,2.631,21.053h-4.77
	c-5.263,0-13.651,5.263-8.388,15.789l7.895,15.79c5.263,10.525,13.158,2.631,10.526-2.633l-7.895-15.788
	c-1.316-2.631,1.391-2.631,2.631-2.631h12.988c0,0,6.23,13.828,13.569,23.307c2.709,3.499,5.71,8.271,9.466,8.271
	c2.633,0,7.141-4.068,2.342-9.795c-8.988-10.726-14.682-21.783-14.682-27.047c0-6.122-1.075-19.015-2.63-26.316h7.895
	C55.201,41.989,59.209,50,59.209,50c2.91,5.039,9.212,4.658,9.212,0c0-0.639,0-2.046-0.735-3.562l-8.477-17.49
	c-0.54-1.116-1.332-2.632-5.263-2.632H13.158L9.211,13.158C7.632,7.895,0,7.895,0,13.158C0,15.79,0.933,18.984,1.316,21.052
	L1.316,21.052z"/>
</svg>
