<?xml version="1.0" encoding="utf-8"?>
<!-- Generator: Adobe Illustrator 15.1.0, SVG Export Plug-In . SVG Version: 6.00 Build 0)  -->
<!DOCTYPE svg PUBLIC "-//W3C//DTD SVG 1.1//EN" "http://www.w3.org/Graphics/SVG/1.1/DTD/svg11.dtd">
<svg version="1.1" id="Layer_1" xmlns="http://www.w3.org/2000/svg" xmlns:xlink="http://www.w3.org/1999/xlink" x="0px" y="0px"
	 width="100px" height="94.118px" viewBox="0 0 100 94.118" enable-background="new 0 0 100 94.118" xml:space="preserve">
<path d="M94.119,0c-3.432,0-6.476,0.962-8.639,3.125c-2.165,2.164-3.127,5.208-3.127,8.64H0l11.765,52.942h70.588v5.882H17.647
	c-5.883,0-5.883,5.883,0,5.883h8.824H73.53h8.823c2.942,0,5.884-2.941,5.884-5.883v-5.882v-47.06v-5.882
	c0,0,0.509-3.818,1.285-4.596c0.777-0.777,2.146-1.287,4.597-1.287c0.653,0,1.72,0,2.353,0c2.941,0,3.529-1.463,3.529-2.941
	C100,1.486,99.413,0,96.471,0C95.702,0,94.926,0,94.119,0L94.119,0z"/>
<path d="M73.53,76.472c-4.873,0-8.824,3.949-8.824,8.823s3.951,8.823,8.824,8.823c4.875,0,8.823-3.949,8.823-8.823
	S78.405,76.472,73.53,76.472L73.53,76.472z"/>
<path d="M26.471,76.472c-4.874,0-8.824,3.949-8.824,8.823s3.95,8.823,8.824,8.823c4.873,0,8.824-3.949,8.824-8.823
	S31.344,76.472,26.471,76.472L26.471,76.472z"/>
</svg>
