<?xml version="1.0" encoding="utf-8"?>
<!-- Generator: Adobe Illustrator 15.1.0, SVG Export Plug-In . SVG Version: 6.00 Build 0)  -->
<!DOCTYPE svg PUBLIC "-//W3C//DTD SVG 1.1//EN" "http://www.w3.org/Graphics/SVG/1.1/DTD/svg11.dtd">
<svg version="1.1" id="Layer_1" xmlns="http://www.w3.org/2000/svg" xmlns:xlink="http://www.w3.org/1999/xlink" x="0px" y="0px"
	 width="100px" height="68.42px" viewBox="0 0 100 68.42" enable-background="new 0 0 100 68.42" xml:space="preserve">
<path d="M63.157,0H36.842C21.053,0,5.263,7.895,5.263,21.052v10.526h89.472V21.052C94.735,7.895,78.946,0,63.157,0z M28.947,21.052
	c-1.458,0-2.632-1.173-2.632-2.631s1.174-2.632,2.632-2.632c1.458,0,2.631,1.174,2.631,2.632S30.405,21.052,28.947,21.052z
	 M39.473,10.526c-1.458,0-2.631-1.173-2.631-2.631c0-1.458,1.174-2.632,2.631-2.632c1.458,0,2.632,1.174,2.632,2.632
	C42.105,9.353,40.931,10.526,39.473,10.526z M50,21.052c-1.458,0-2.632-1.173-2.632-2.631S48.542,15.79,50,15.79
	s2.632,1.174,2.632,2.632S51.458,21.052,50,21.052z M60.527,10.526c-1.458,0-2.633-1.173-2.633-2.631
	c0-1.458,1.175-2.632,2.633-2.632c1.456,0,2.63,1.174,2.63,2.632C63.157,9.353,61.983,10.526,60.527,10.526z M71.051,21.052
	c-1.457,0-2.63-1.173-2.63-2.631s1.173-2.632,2.63-2.632c1.458,0,2.632,1.174,2.632,2.632S72.509,21.052,71.051,21.052z"/>
<path d="M5.263,36.841C2.631,36.841,0,39.473,0,42.105c0,2.631,2.631,5.263,5.263,5.263h89.472c2.633,0,5.265-2.632,5.265-5.263
	c0-2.632-2.632-5.264-5.265-5.264H5.263z"/>
<path d="M5.263,52.631v5.263c0,5.263,5.263,10.526,10.526,10.526H84.21c5.263,0,10.524-5.264,10.524-10.526v-5.263H5.263z"/>
</svg>
