<?xml version="1.0" encoding="utf-8"?>
<!-- Generator: Adobe Illustrator 15.1.0, SVG Export Plug-In . SVG Version: 6.00 Build 0)  -->
<!DOCTYPE svg PUBLIC "-//W3C//DTD SVG 1.1//EN" "http://www.w3.org/Graphics/SVG/1.1/DTD/svg11.dtd">
<svg version="1.1" id="Layer_1" xmlns="http://www.w3.org/2000/svg" xmlns:xlink="http://www.w3.org/1999/xlink" x="0px" y="0px"
	 width="88.235px" height="100px" viewBox="0 0 88.235 100" enable-background="new 0 0 88.235 100" xml:space="preserve">
<path id="rect13131-6" d="M35.294,0c-5.882,0-11.095,5.92-11.765,11.764l-2.022,17.647h-9.742c-2.941,0-5.883,2.941-5.883,5.883
	L0,94.117C0,97.058,2.941,100,5.882,100h76.472c2.939,0,5.881-2.94,5.881-5.883l-5.881-58.823c0-2.941-2.942-5.883-5.885-5.883
	h-9.741l-2.021-17.647C64.037,5.92,58.823,0,52.941,0H35.294z M35.294,5.882h17.647c2.942,0,5.548,2.961,5.882,5.882l2.023,17.647
	H27.39l2.022-17.647C29.747,8.843,32.353,5.882,35.294,5.882z"/>
</svg>
