<?xml version="1.0" encoding="utf-8"?>
<!-- Generator: Adobe Illustrator 15.1.0, SVG Export Plug-In . SVG Version: 6.00 Build 0)  -->
<!DOCTYPE svg PUBLIC "-//W3C//DTD SVG 1.1//EN" "http://www.w3.org/Graphics/SVG/1.1/DTD/svg11.dtd">
<svg version="1.1" id="Layer_1" xmlns="http://www.w3.org/2000/svg" xmlns:xlink="http://www.w3.org/1999/xlink" x="0px" y="0px"
	 width="100px" height="73.683px" viewBox="0 0 100 73.683" enable-background="new 0 0 100 73.683" xml:space="preserve">
<path id="rect9826-2-1" d="M15.789,0c-2.916,0-5.263,2.347-5.263,5.263v47.368c0,2.916,2.347,5.263,5.263,5.263h57.894
	c2.916,0,5.263-2.347,5.263-5.263v-5.263h2.632c2.633,0,2.633-2.632,2.633-2.632v-2.632h5.263c5.262,0,10.526-5.263,10.526-10.526
	v-5.263V15.789c0-2.631-2.632-5.263-5.265-5.263H78.946V5.263C78.946,2.347,76.599,0,73.683,0H15.789z M78.946,15.789h13.159
	c2.63,0,2.63,2.632,2.63,2.632v13.158c0,2.631-2.63,5.263-5.262,5.263H78.946V15.789z M0,63.158l7.895,7.894
	c1.305,1.305,2.632,2.631,5.263,2.631c21.93,0,63.158,0,63.158,0c2.63,0,3.952-1.322,5.262-2.631l7.896-7.895L0,63.158z"/>
</svg>
