<?xml version="1.0" encoding="utf-8"?>
<!-- Generator: Adobe Illustrator 15.1.0, SVG Export Plug-In . SVG Version: 6.00 Build 0)  -->
<!DOCTYPE svg PUBLIC "-//W3C//DTD SVG 1.1//EN" "http://www.w3.org/Graphics/SVG/1.1/DTD/svg11.dtd">
<svg version="1.1" id="Layer_1" xmlns="http://www.w3.org/2000/svg" xmlns:xlink="http://www.w3.org/1999/xlink" x="0px" y="0px"
	 width="61.11px" height="100px" viewBox="0 0 61.11 100" enable-background="new 0 0 61.11 100" xml:space="preserve">
<path d="M5.555,0C2.777,0,0,2.778,0,5.555V25v8.333c0,5.555,5.555,5.555,5.555,11.111v50c0,2.776,2.778,5.555,5.556,5.555h5.556
	c2.777,0,5.556-2.777,5.556-5.555v-50c0-5.556,5.555-5.556,5.555-11.111V25v-2.778V5.555C27.777,2.778,25,0,22.222,0
	c-1.389,0-1.389,1.694-1.389,2.778V25c0,1.084,0,2.778-1.39,2.778c-1.389,0-1.389-1.694-1.389-2.778V2.778
	c0-1.084,0-2.778-1.389-2.778h-1.389h-4.167C9.722,0,9.722,1.694,9.722,2.778V25c0,1.084,0,2.778-1.389,2.778
	c-1.39,0-1.39-1.694-1.39-2.778V2.778C6.944,1.694,6.944,0,5.555,0z"/>
<path d="M61.11,0c-5.555,0-15.93,1.306-19.442,8.333c-2.779,5.555-2.779,19.444-2.779,25v22.221c0,2.778,2.779,5.558,5.555,5.558
	v33.332c0,2.777,2.779,5.556,5.558,5.556h5.555c2.778,0,5.555-2.778,5.555-5.556V0z"/>
</svg>
