<?xml version="1.0" encoding="utf-8"?>
<!-- Generator: Adobe Illustrator 14.0.0, SVG Export Plug-In . SVG Version: 6.00 Build 43363)  -->
<!DOCTYPE svg PUBLIC "-//W3C//DTD SVG 1.0//EN" "http://www.w3.org/TR/2001/REC-SVG-20010904/DTD/svg10.dtd">
<svg version="1.0" id="Layer_1" xmlns="http://www.w3.org/2000/svg" xmlns:xlink="http://www.w3.org/1999/xlink" x="0px" y="0px"
	 width="35.311px" height="99.949px" viewBox="0 0 35.311 99.949" enable-background="new 0 0 35.311 99.949" xml:space="preserve">
<path d="M22.047,0C17.362,0.534,0.263,8.35-0.244,48.663c-0.516,42.431,17.606,51.363,22.34,51.286V71.91
	c-3.893-0.02-4.68-4.278-5.597-13.058c-0.568-5.827-0.741-13.026,0-20.173c0.56-5.029,1.494-9.931,5.597-9.936L22.047,0L22.047,0z"
	/>
<path d="M32.182,100c1.833-0.023,3.131-1.498,3.127-3.177l0,0c0,0,0.004-21.843,0-21.836c0.004-1.752-1.399-3.12-3.127-3.129h-7.917
	V100C24.265,100,32.182,99.989,32.182,100L32.182,100L32.182,100z"/>
<path d="M32.182,28.744c1.833,0.005,3.131-1.472,3.127-3.126l0,0c0,0,0.004-22.497,0-22.492C35.312,1.375,33.909,0.008,32.182,0
	h-7.917v28.744C24.265,28.744,32.182,28.759,32.182,28.744L32.182,28.744L32.182,28.744z"/>
</svg>
