<?xml version="1.0" encoding="utf-8"?>
<!-- Generator: Adobe Illustrator 15.1.0, SVG Export Plug-In . SVG Version: 6.00 Build 0)  -->
<!DOCTYPE svg PUBLIC "-//W3C//DTD SVG 1.1//EN" "http://www.w3.org/Graphics/SVG/1.1/DTD/svg11.dtd">
<svg version="1.1" id="Layer_1" xmlns="http://www.w3.org/2000/svg" xmlns:xlink="http://www.w3.org/1999/xlink" x="0px" y="0px"
	 width="100px" height="100.001px" viewBox="0 0 100 100.001" enable-background="new 0 0 100 100.001" xml:space="preserve">
<path d="M97.061,91.177L70.59,64.706V35.294C70.59,15.803,54.788,0,35.295,0v0.001C15.802,0.001,0,15.803,0,35.295
	s15.802,35.295,35.295,35.295h29.411l26.471,26.47c1.861,1.86,2.979,2.94,5.333,2.94c0.733,0,1.654,0,2.573-0.918
	c0.919-0.92,0.918-1.838,0.918-2.573C100,94.156,98.719,92.837,97.061,91.177z M64.706,64.706H47.059L64.706,47.06V64.706z"/>
<circle cx="8.824" cy="79.414" r="8.823"/>
</svg>
