<?xml version="1.0" encoding="utf-8"?>
<!-- Generator: Adobe Illustrator 15.1.0, SVG Export Plug-In . SVG Version: 6.00 Build 0)  -->
<!DOCTYPE svg PUBLIC "-//W3C//DTD SVG 1.1//EN" "http://www.w3.org/Graphics/SVG/1.1/DTD/svg11.dtd">
<svg version="1.1" id="Layer_1" xmlns="http://www.w3.org/2000/svg" xmlns:xlink="http://www.w3.org/1999/xlink" x="0px" y="0px"
	 width="100px" height="68.42px" viewBox="0 0 100 68.42" enable-background="new 0 0 100 68.42" xml:space="preserve">
<path id="path14961" d="M50,0C15.789,0,0,34.21,0,34.21s15.789,34.21,50,34.21c34.211,0,50-34.21,50-34.21S84.21,0,50,0z
	 M34.21,26.316c1.458,0,2.632,1.174,2.632,2.631v2.632h10.526v-2.632c0-1.457,1.174-2.631,2.632-2.631s2.632,1.174,2.632,2.631
	v2.632h10.525v-2.632c0-1.457,1.174-2.631,2.632-2.631s2.633,1.174,2.633,2.631v2.632h7.895c1.457,0,2.63,1.174,2.63,2.632
	s-1.173,2.631-2.63,2.631h-7.895v2.632c0,1.458-1.175,2.632-2.633,2.632s-2.632-1.174-2.632-2.632v-2.632H52.631v2.632
	c0,1.458-1.174,2.632-2.632,2.632s-2.632-1.174-2.632-2.632v-2.632H36.842v2.632c0,1.458-1.174,2.632-2.632,2.632
	s-2.631-1.174-2.631-2.632v-2.632h-7.895c-1.458,0-2.631-1.173-2.631-2.631s1.173-2.632,2.631-2.632h7.895v-2.632
	C31.579,27.49,32.752,26.316,34.21,26.316z"/>
</svg>
