<?xml version="1.0" encoding="utf-8"?>
<!-- Generator: Adobe Illustrator 15.1.0, SVG Export Plug-In . SVG Version: 6.00 Build 0)  -->
<!DOCTYPE svg PUBLIC "-//W3C//DTD SVG 1.1//EN" "http://www.w3.org/Graphics/SVG/1.1/DTD/svg11.dtd">
<svg version="1.1" id="Layer_1" xmlns="http://www.w3.org/2000/svg" xmlns:xlink="http://www.w3.org/1999/xlink" x="0px" y="0px"
	 width="100px" height="100.001px" viewBox="0 0 100 100.001" enable-background="new 0 0 100 100.001" xml:space="preserve">
<rect x="29.412" y="29.413" width="41.178" height="23.53"/>
<path d="M73.53,0.001H26.471V0L0,23.53v47.059c0,2.941,2.941,5.883,5.882,5.883h20.956l11.397,20.589
	c1.635,2.94,2.941,2.94,5.883,2.94h11.764c2.942,0,4.249,0,5.884-2.94l11.396-20.589h20.956c2.942,0,5.882-2.941,5.882-5.883V23.53
	L73.53,0.001z M63.972,82.354h-5.147v5.885h2.021l-2.021,3.675v-3.675h-5.882v5.881h-5.884v-5.881h-5.882v3.675l-2.021-3.675h2.021
	v-5.885H36.03l-3.309-5.882h8.456v5.882h5.882v-5.882h5.884v5.882h5.882v-5.882h8.456L63.972,82.354z M76.471,58.825H23.53V23.53
	h52.941V58.825z"/>
<rect x="47.059" y="82.354" width="5.884" height="5.883"/>
</svg>
