<?xml version="1.0" encoding="utf-8"?>
<!-- Generator: Adobe Illustrator 15.1.0, SVG Export Plug-In . SVG Version: 6.00 Build 0)  -->
<!DOCTYPE svg PUBLIC "-//W3C//DTD SVG 1.1//EN" "http://www.w3.org/Graphics/SVG/1.1/DTD/svg11.dtd">
<svg version="1.1" id="Layer_1" xmlns="http://www.w3.org/2000/svg" xmlns:xlink="http://www.w3.org/1999/xlink" x="0px" y="0px"
	 width="100px" height="100px" viewBox="0 0 100 100" enable-background="new 0 0 100 100" xml:space="preserve">
<path d="M50,0C22.452,0,0,22.452,0,50c0,27.549,22.452,50,50,50s50-22.451,50-50C100,22.452,77.549,0,50,0z M84.192,72.795
	l-7.721-5.147c-4.411-2.942-8.823-4.902-11.766-2.942l-8.823,5.885c-4.078,2.719-3.652,5.881-2.939,8.823L55.7,90.81
	c-1.866,0.259-3.761,0.364-5.699,0.364c-4.078,0-8.05-0.559-11.765-1.655V79.41c0-5.883-2.94-8.824-5.882-11.765
	c-2.941-2.942-5.882-5.883-11.765-5.883h-10.11C9.384,58.05,8.824,54.079,8.824,50C8.824,27.189,27.189,8.823,50,8.823v0
	c15.683,0,29.256,8.669,36.213,21.508c-6.564,4.355-12.599,6.631-12.684,10.845c-0.059,2.941,0,3.772,0,5.882
	c0,2.941,1.532,6.726,5.884,8.823l10.293,4.965C88.528,65.205,86.634,69.145,84.192,72.795z"/>
<path d="M32.354,29.412l-2.941,11.765c-0.834,3.339-3.059,6.784,0,8.824l8.823,5.882c5.883,3.922,8.477,1.645,11.765,0l5.882-2.941
	c4.386-2.191,5.884-2.94,5.884-8.823V32.354c0-2.941,0.047-4.697-5.884-5.883l-14.706-2.94
	C35.016,22.297,33.857,23.395,32.354,29.412z"/>
</svg>
