<?xml version="1.0" encoding="utf-8"?>
<!-- Generator: Adobe Illustrator 15.1.0, SVG Export Plug-In . SVG Version: 6.00 Build 0)  -->
<!DOCTYPE svg PUBLIC "-//W3C//DTD SVG 1.1//EN" "http://www.w3.org/Graphics/SVG/1.1/DTD/svg11.dtd">
<svg version="1.1" id="Layer_1" xmlns="http://www.w3.org/2000/svg" xmlns:xlink="http://www.w3.org/1999/xlink" x="0px" y="0px"
	 width="85.962px" height="99.731px" viewBox="0 0 85.962 99.731" enable-background="new 0 0 85.962 99.731" xml:space="preserve">
<path d="M23.677,32.741c6.469,1.508,11.327,7.069,11.327,13.679v50.754c0,1.56-1.355,2.825-2.966,2.825H2.94
	C1.33,100,0,98.734,0,97.175V46.42c0-6.623,4.807-12.196,11.327-13.679V10.023h12.35V32.741z"/>
<rect x="11.327" width="12.35" height="4.896"/>
<path d="M64.024,10.79c-0.895-0.128-1.585-0.856-1.585-1.738c0-0.64,0.384-1.202,0.946-1.521c-0.562-0.294-0.946-0.87-0.946-1.521
	c0-0.972,0.817-1.739,1.841-1.739h9.205c1.022,0,1.841,0.767,1.841,1.739c0,0.678-0.384,1.24-0.972,1.521
	c0.562,0.307,0.972,0.856,0.972,1.521c0,0.882-0.665,1.61-1.56,1.726l11.147,28.676c0.69,1.866,1.048,3.938,1.048,5.996v50.805
	c0,1.918-1.636,3.478-3.656,3.478H55.484c-2.046,0-3.656-1.56-3.656-3.478V45.449c0-2.058,0.333-4.129,1.022-5.996L64.024,10.79z"/>
</svg>
