<?xml version="1.0" encoding="utf-8"?>
<!-- Generator: Adobe Illustrator 15.1.0, SVG Export Plug-In . SVG Version: 6.00 Build 0)  -->
<!DOCTYPE svg PUBLIC "-//W3C//DTD SVG 1.1//EN" "http://www.w3.org/Graphics/SVG/1.1/DTD/svg11.dtd">
<svg version="1.1" id="Layer_1" xmlns="http://www.w3.org/2000/svg" xmlns:xlink="http://www.w3.org/1999/xlink" x="0px" y="0px"
	 width="81.193px" height="100px" viewBox="0 0 81.193 100" enable-background="new 0 0 81.193 100" xml:space="preserve">
<path d="M10.176,20.351c5.614,0,10.175-4.561,10.175-10.175S15.79,0,10.176,0C4.562,0,0,4.561,0,10.175S4.562,20.351,10.176,20.351z
	"/>
<path d="M10.176,61.859c5.614,0,10.175-4.562,10.175-10.175c0-5.614-4.562-10.175-10.175-10.175C4.562,41.509,0,46.07,0,51.684
	C0,57.298,4.562,61.859,10.176,61.859z"/>
<path d="M10.176,100c5.614,0,10.175-4.544,10.175-10.176c0-5.613-4.562-10.158-10.175-10.158C4.562,79.666,0,84.211,0,89.824
	C0,95.456,4.562,100,10.176,100z"/>
<path d="M71.018,20.351c5.649,0,10.176-4.561,10.176-10.175S76.667,0,71.018,0c-5.613,0-10.141,4.561-10.141,10.175
	S65.404,20.351,71.018,20.351z"/>
<path d="M71.018,61.859c5.649,0,10.176-4.562,10.176-10.175c0-5.614-4.526-10.175-10.176-10.175
	c-5.613,0-10.141,4.561-10.141,10.175C60.877,57.298,65.404,61.859,71.018,61.859z"/>
<path d="M71.018,100c5.649,0,10.176-4.544,10.176-10.176c0-5.613-4.526-10.158-10.176-10.158c-5.613,0-10.141,4.545-10.141,10.158
	C60.877,95.456,65.404,100,71.018,100z"/>
</svg>
