<?xml version="1.0" encoding="utf-8"?>
<!-- Generator: Adobe Illustrator 15.1.0, SVG Export Plug-In . SVG Version: 6.00 Build 0)  -->
<!DOCTYPE svg PUBLIC "-//W3C//DTD SVG 1.1//EN" "http://www.w3.org/Graphics/SVG/1.1/DTD/svg11.dtd">
<svg version="1.1" id="Layer_1" xmlns="http://www.w3.org/2000/svg" xmlns:xlink="http://www.w3.org/1999/xlink" x="0px" y="0px"
	 width="74.056px" height="100px" viewBox="0 0 74.056 100" enable-background="new 0 0 74.056 100" xml:space="preserve">
<path d="M34.446,49.804"/>
<path d="M34.446,49.804"/>
<path d="M26.246,7.725c0.046-4.25-3.452-7.771-7.714-7.725c-4.355-0.046-7.876,3.475-7.853,7.725
	c-0.023,4.355,3.498,7.841,7.853,7.853C22.794,15.566,26.292,12.081,26.246,7.725L26.246,7.725z"/>
<path d="M48.669,50.395L23.721,20.13c-1.297-1.922-8.525-2.733-11.583-0.278L0,41.939l2.988,18.67
	c3.035,4.876,9.057-0.058,7.366-2.722L8.316,44.662l5.027-9.672L13.088,58.71L2.178,92.786c-2.154,7.228,8.501,10.239,10.632,3.278
	l13.505-37.631l-0.139-19.135l-6.278-7.424c-0.301-0.359-0.255-0.903,0.116-1.216c0.371-0.301,0.903-0.254,1.205,0.104
	l20.755,24.543C45.31,59.869,52.004,55.016,48.669,50.395z"/>
<path d="M39.125,92.38L26.871,61.884l-5.003,14.015l7.158,20.57C31.921,103.245,42.09,99.284,39.125,92.38z"/>
<path d="M71.625,99.376c0.023,0.023,0.047,0.058,0.047,0.069c0.486,0.579,1.344,0.637,1.923,0.162
	c0.509-0.44,0.603-1.216,0.255-1.772L50.753,57.738c-0.023-0.023-0.046-0.047-0.069-0.081c-0.463-0.556-1.32-0.638-1.899-0.15
	c-0.51,0.44-0.556,1.181-0.231,1.771L71.625,99.376z"/>
</svg>
