<?xml version="1.0" encoding="utf-8"?>
<!-- Generator: Adobe Illustrator 15.1.0, SVG Export Plug-In . SVG Version: 6.00 Build 0)  -->
<!DOCTYPE svg PUBLIC "-//W3C//DTD SVG 1.1//EN" "http://www.w3.org/Graphics/SVG/1.1/DTD/svg11.dtd">
<svg version="1.1" id="Layer_1" xmlns="http://www.w3.org/2000/svg" xmlns:xlink="http://www.w3.org/1999/xlink" x="0px" y="0px"
	 width="84.877px" height="99.646px" viewBox="0 0 84.877 99.646" enable-background="new 0 0 84.877 99.646" xml:space="preserve">
<g>
	<path d="M27.897,56.595c-2.386,0.19-4.462-1.588-4.653-3.962c-0.167-2.362,1.599-4.438,3.961-4.63
		c2.362-0.179,4.438,1.587,4.629,3.962C32.026,54.327,30.26,56.403,27.897,56.595z"/>
	<path d="M31.549,58.36c-0.859-0.585-1.909-0.979-3.031-0.895c-1.479,0.119-2.697,1.037-3.437,2.159l-4.343,8.615l-5.942,4.081
		c-0.501,0.394-0.788,1.014-0.74,1.693c0.072,1.074,1.002,1.874,2.076,1.791c0.334-0.024,0.573-0.144,0.907-0.287l6.467-4.463
		c0.191-0.154,0.358-0.346,0.478-0.572l1.623-3.222l1.957,8.591l-7.661,9.033c-0.143,0.274-0.286,0.596-0.334,0.918l-2.052,10.918
		c0,0.227-0.048,0.383-0.024,0.585c0.119,1.611,1.527,2.804,3.126,2.685c1.336-0.107,2.315-1.098,2.625-2.314l1.957-10.214
		l6.205-6.802l1.456,6.623c0.048,0.31,0.453,0.966,0.573,1.24l5.942,10.035c0.621,0.919,1.599,1.516,2.745,1.42
		c1.599-0.131,2.815-1.527,2.673-3.139c-0.023-0.453-0.215-0.918-0.382-1.252l-5.537-9.308L34.269,65.83l3.007,2.434l1.599,7.303
		c0.215,0.931,1.05,1.694,2.076,1.599c1.05-0.071,1.861-1.014,1.79-2.076c-0.024-0.096-0.024-0.179-0.048-0.262l-1.909-8.52
		c-0.096-0.358-0.31-0.692-0.597-0.932L31.549,58.36z"/>
	<path fill-rule="evenodd" clip-rule="evenodd" d="M7.852,46.261c-1.527,3.914-2.172,5.155-3.508,7.636
		C2.769,56.773,1.742,60.579,0,63.348c0.454-1.754,1.623-10.822,2.124-12.815C2.363,49.555,4.2,51.309,7.852,46.261z"/>
	<path fill-rule="evenodd" clip-rule="evenodd" d="M13.913,39.913c-2.148,0.454-4.104-4.952-3.938-3.293
		c0.191,1.694,4.176,11.073,5.083,12.946C14.987,48.457,13.746,43.994,13.913,39.913z"/>
	<path fill-rule="evenodd" clip-rule="evenodd" d="M4.63,60.21c-0.358,2.124-2.482,4.521-2.196,6.145
		c0.191,1.229,2.244,7.792,2.697,9.761C5.155,75.018,5.083,64.541,4.63,60.21z"/>
	<path d="M84.718,0C74.934,6.109,73.43,1.874,67.464,5.775c-3.317,2.16-7.637,2.708-11.55,3.186
		c-6.826,0.848-4.773,4.153-12.958,4.63c-7.088,0.418-9.379-0.954-16.801,3.95c-5.393,3.568-4.248,4.522-10.715,5.357
		c-8.687,0.692-14.462,2.1-13.603,11.539c0.238,2.78,1.432,5.071,0.62,11.252c-0.501,3.926,2.912,2.649,3.46-3.699
		c0.525-6.014,0.883-7.159,3.627-7.637c2.315-0.167,4.367,4.582,4.749,2.435c1.265-3.663,5.584-3.723,8.329-2.983
		c2.529,0.692,3.198-2.696,6.801-3.544l34.699,25.606v43.779h20.595C84.718,99.646,85.077,0,84.718,0z M64.051,45.104L39.997,27.241
		l24.055-8.353V45.104z"/>
</g>
</svg>
