<?xml version="1.0" encoding="utf-8"?>
<!-- Generator: Adobe Illustrator 14.0.0, SVG Export Plug-In . SVG Version: 6.00 Build 43363)  -->
<!DOCTYPE svg PUBLIC "-//W3C//DTD SVG 1.0//EN" "http://www.w3.org/TR/2001/REC-SVG-20010904/DTD/svg10.dtd">
<svg version="1.0" id="Layer_1" xmlns="http://www.w3.org/2000/svg" xmlns:xlink="http://www.w3.org/1999/xlink" x="0px" y="0px"
	 width="100px" height="49.797px" viewBox="0 0 100 49.797" enable-background="new 0 0 100 49.797" xml:space="preserve">
<path d="M98.909,0c-1.866,2.238-4.372,2.238-4.372,2.238L28.721,3.677c-6.001,0.206-7.092,4.974-7.23,7.67
	c-0.573-0.847-1.542-1.4-2.637-1.4c-1.759,0-3.182,1.423-3.182,3.187c0,1.755,1.423,3.17,3.182,3.17
	c1.233,0,2.293-0.704,2.819-1.724c0.285,1.676,1.099,4.459,3.419,5.97L14.192,38.261L8.057,38.87v-2.024L0,37.423l0.858,10.95
	l19.094-2.34l9.401-15.513c0.285,10.682,8.986,19.276,19.743,19.276c10.927,0,19.79-8.872,19.79-19.799
	c0-4.926-1.865-9.377-4.846-12.844l31.294-4.021c0,0,2.468-0.372,4.665,1.818L98.909,0z M63.202,28.622h-9.077
	c-0.158-0.585-0.403-1.138-0.743-1.62l6.373-6.373C61.677,22.811,62.91,25.566,63.202,28.622z M56.854,18.071
	c0.529,0.344,0.996,0.747,1.471,1.154l-6.381,6.385c-0.482-0.309-1.028-0.538-1.597-0.681v-6.024L56.854,18.071z M48.346,19.166
	v5.669c-0.637,0.103-1.233,0.309-1.775,0.609l-5.353-5.361L48.346,19.166z M38.616,20.411l0.095-0.012l6.326,6.325
	c-0.447,0.554-0.779,1.187-0.973,1.897h-9.081C35.292,25.468,36.592,22.625,38.616,20.411z M46.096,34.284
	c0.656,0.458,1.423,0.751,2.25,0.877v9.006c-3.305-0.174-6.29-1.463-8.618-3.511L46.096,34.284z M50.346,35.066
	c0.751-0.182,1.439-0.538,2.024-1.012l6.365,6.372c-2.246,2.08-5.155,3.408-8.389,3.693V35.066z M34.908,30.631h9.014
	c0.099,0.807,0.36,1.558,0.787,2.214l-6.389,6.381C36.315,36.885,35.055,33.92,34.908,30.631z M60.095,38.956l-6.443-6.428
	c0.332-0.577,0.537-1.218,0.616-1.897h9.014C63.139,33.794,61.969,36.655,60.095,38.956z"/>
</svg>
