<?xml version="1.0" encoding="utf-8"?>
<!-- Generator: Adobe Illustrator 14.0.0, SVG Export Plug-In . SVG Version: 6.00 Build 43363)  -->
<!DOCTYPE svg PUBLIC "-//W3C//DTD SVG 1.0//EN" "http://www.w3.org/TR/2001/REC-SVG-20010904/DTD/svg10.dtd">
<svg version="1.0" id="Layer_1" xmlns="http://www.w3.org/2000/svg" xmlns:xlink="http://www.w3.org/1999/xlink" x="0px" y="0px"
	 width="100px" height="41.729px" viewBox="0 0 100 41.729" enable-background="new 0 0 100 41.729" xml:space="preserve">
<path d="M28.249,31.434"/>
<path d="M12.497,31.64"/>
<path d="M44.343,31.434"/>
<path d="M60.272,31.538"/>
<path d="M67.856,37.588c-1.728,2.448-4.484,4.049-7.584,4.049c-3.386,0-6.349-1.875-8.03-4.724l0.086-0.034
	c-1.688,2.803-4.633,4.656-7.985,4.656c-3.397,0-6.377-1.899-8.053-4.771l0.035-0.022c-1.676,2.882-4.662,4.793-8.076,4.793
	c-3.22,0-6.074-1.705-7.784-4.336l0.023-0.115c-1.682,2.792-4.633,4.645-7.99,4.645c-4.295,0-7.927-3.031-9.088-7.206l34.214-14.322
	l-6.062-7.847L0,19.675l1.567-5.856L34.866,0L67.856,37.588z"/>
<g>
	<path d="M71.002,8.545c-5.994,0-10.855,4.861-10.855,10.844c0,6.006,4.861,10.879,10.855,10.879
		c6.006,0,10.867-4.873,10.867-10.879C81.869,13.406,77.008,8.545,71.002,8.545z"/>
	<path d="M71.002,19.389"/>
</g>
<path d="M100,36.467c0,0-6.062,3.295-14.367-4.026c0,0-2.666,8.419-14.219,4.953c0,0,5.811,7.698,14.219,1.521
	C85.633,38.916,96.076,43.206,100,36.467z"/>
</svg>
