<?xml version="1.0" encoding="utf-8"?>
<!-- Generator: Adobe Illustrator 14.0.0, SVG Export Plug-In . SVG Version: 6.00 Build 43363)  -->
<!DOCTYPE svg PUBLIC "-//W3C//DTD SVG 1.0//EN" "http://www.w3.org/TR/2001/REC-SVG-20010904/DTD/svg10.dtd">
<svg version="1.0" id="Layer_1" xmlns="http://www.w3.org/2000/svg" xmlns:xlink="http://www.w3.org/1999/xlink" x="0px" y="0px"
	 width="100px" height="83.521px" viewBox="0 0 100 83.521" enable-background="new 0 0 100 83.521" xml:space="preserve">
<g>
	<path d="M90.185,4.262c-4.964,0-9.006,4.042-9.006,9.005c0,4.963,4.042,9.005,9.006,9.005c4.962,0,8.991-4.042,8.991-9.005
		C99.176,8.304,95.147,4.262,90.185,4.262z"/>
	<path d="M90.185,13.267"/>
</g>
<path d="M60.841,60.172c0,0,1.33-0.946,3.3-0.524l0.077,0.013l14.557,3.275c0,0,1.048-0.115,2.852,3.044
	c0,0,0.218,1.368,2.009,0.742c0,0,0.307,0,0.946,0.409c0,0,3.377,1.369,3.685-0.409l11.717-39.871c0,0,0.358-4.388-2.175-4.388
	c-2.162,1.945-5.015,3.134-8.161,3.134c-6.729,0-12.164-5.437-12.164-12.139c0-2.353,0.678-4.566,1.829-6.421
	c0,0-0.103-0.333-0.845-1.484c0,0-2.123-2.443-1.483-3.697c0,0,0.537-2.52-1.688-1.688L53.256,5.349c0,0-3.134,0.806-3.115,3.057
	c0,0-0.313,2.188,2.296,3.364l8.2,3.069c0,0,2.532,0.934,0.946,1.996L48.197,27.069c0,0-2.853,1.791-2.642,5.065
	c0,0-1.341,13.899-2.174,19.875l-11.048-2.532l0.476-2.059c0.186-0.831-0.269-1.649-1.023-1.829
	c-0.761-0.179-1.529,0.358-1.721,1.189l-0.478,2.068l-4.389-1.006l-1.631,0.998l1.055,1.688l4.345,1.004l-0.495,2.143
	c-0.186,0.844,0.269,1.662,1.023,1.828c0.761,0.167,1.529-0.345,1.721-1.189l0.496-2.147l11.1,2.564
	c-0.186,0.249-0.591,0.771-1.05,1.221L23.094,73.885L0.416,71.876L0,75.879l84.261,7.612c0,0,7.688,0.729,14.237-5.065l-0.409-5.488
	c0,0-6.242,7.496-13.405,6.55c-7.163-0.959-48.408-4.337-48.408-4.337l11.071-7.38c0,0,0.109,0.103,0.851-1.382L71.509,7.754
	l2.853,1.087L51.97,65.379L60.841,60.172z M63.707,55.439l4.732-16.577c0.32-1.894,2.636-2.303,2.636-2.303l14.031-2.865
	c2.521-0.665,2.009,1.279,2.009,1.279l-2.431,24.891c-0.18,1.535-1.049,1.254-1.049,1.254l-18.458-4.093
	C63.054,56.642,63.707,55.439,63.707,55.439z"/>
</svg>
