<?xml version="1.0" encoding="utf-8"?>
<!-- Generator: Adobe Illustrator 14.0.0, SVG Export Plug-In . SVG Version: 6.00 Build 43363)  -->
<!DOCTYPE svg PUBLIC "-//W3C//DTD SVG 1.0//EN" "http://www.w3.org/TR/2001/REC-SVG-20010904/DTD/svg10.dtd">
<svg version="1.0" id="Layer_1" xmlns="http://www.w3.org/2000/svg" xmlns:xlink="http://www.w3.org/1999/xlink" x="0px" y="0px"
	 width="75.381px" height="100px" viewBox="0 0 75.381 100" enable-background="new 0 0 75.381 100" xml:space="preserve">
<path d="M59.958,85.201c0,0,0.73,5.446,7.639,5.446h0.133c7.042,0,7.652-5.446,7.652-5.446V26.08c0-2.91-5.473-7.028-5.473-7.028
	L54.377,8.842V0H14.561v94.407H0V100h74.532v-5.593H54.377V43.084h4.49c1.448,0,1.09,1.196,1.09,1.196V85.201z M46.844,27.182
	H22.087V6.297h24.757V27.182z M59.227,37.864h-4.85V13.126l5.699,5.075v7.147h3.162v2.551c0,0.851,1.209,1.355,1.209,1.355h6.072
	v52.77c0,0,0.478,3.281-2.791,3.281h-0.133c-3.268,0-2.789-3.281-2.789-3.281V44.161C64.807,38.09,59.227,37.864,59.227,37.864z"/>
</svg>
