<?xml version="1.0" encoding="utf-8"?>
<!-- Generator: Adobe Illustrator 14.0.0, SVG Export Plug-In . SVG Version: 6.00 Build 43363)  -->
<!DOCTYPE svg PUBLIC "-//W3C//DTD SVG 1.0//EN" "http://www.w3.org/TR/2001/REC-SVG-20010904/DTD/svg10.dtd">
<svg version="1.0" id="Layer_1" xmlns="http://www.w3.org/2000/svg" xmlns:xlink="http://www.w3.org/1999/xlink" x="0px" y="0px"
	 width="95.152px" height="100.001px" viewBox="0 0 95.152 100.001" enable-background="new 0 0 95.152 100.001"
	 xml:space="preserve">
<path d="M51.722,84.979c2.716-16.748,3.264-35.997,3.264-35.997l40.167,21.417l-1.739-7.6L55.199,30.471
	c-1.19-21.774-3.906-28.29-3.906-28.29c-1.096-2.287-3.693-2.18-3.693-2.18h-0.023h-0.023c0,0-2.598-0.107-3.693,2.18
	c0,0-2.716,6.516-3.906,28.29L1.739,62.8L0,70.399l40.167-21.417c0,0,0.548,19.249,3.264,35.997c0,0-11.983,10.888-11.757,11.65
	v3.049c0,0,0.536,0.549,2.395,0.215l10.435-3.586c0,0,1.978-0.44,3.073-0.321c1.096-0.119,3.073,0.321,3.073,0.321l10.435,3.586
	c1.858,0.334,2.395-0.215,2.395-0.215V96.63C63.705,95.867,51.722,84.979,51.722,84.979z"/>
</svg>
