<?xml version="1.0" encoding="utf-8"?>
<!-- Generator: Adobe Illustrator 14.0.0, SVG Export Plug-In . SVG Version: 6.00 Build 43363)  -->
<!DOCTYPE svg PUBLIC "-//W3C//DTD SVG 1.0//EN" "http://www.w3.org/TR/2001/REC-SVG-20010904/DTD/svg10.dtd">
<svg version="1.0" id="Layer_1" xmlns="http://www.w3.org/2000/svg" xmlns:xlink="http://www.w3.org/1999/xlink" x="0px" y="0px"
	 width="63.599px" height="100px" viewBox="0 0 63.599 100" enable-background="new 0 0 63.599 100" xml:space="preserve">
<g>
	<path d="M54.71,16.864c-4.723,0-8.528,3.818-8.528,8.528c0,4.698,3.806,8.504,8.528,8.504c4.697,0,8.516-3.806,8.516-8.504
		C63.226,20.682,59.407,16.864,54.71,16.864z"/>
	<path d="M54.71,25.392"/>
</g>
<path d="M46.229,36.871c0,0-7.227-11.792-16.285-4.011L9.757,13.178l3.264-7.866L6.167,0L1.964,11.431L1.831,11.54l0.061,0.072
	L1.831,11.78l0.35,0.145l24.633,24.284C20.272,44.327,6.697,64.804,2.976,73.308C0,80.077,0,83.896,0,83.896L1.71,100h21.592
	l1.295-10.9c0,0-0.422-6.48,1.698-10.709c2.12-4.252,20.537-24.163,20.537-24.163l12.961,6.384l3.806-3.807L46.229,36.871z"/>
</svg>
