<?xml version="1.0" encoding="utf-8"?>
<!-- Generator: Adobe Illustrator 14.0.0, SVG Export Plug-In . SVG Version: 6.00 Build 43363)  -->
<!DOCTYPE svg PUBLIC "-//W3C//DTD SVG 1.0//EN" "http://www.w3.org/TR/2001/REC-SVG-20010904/DTD/svg10.dtd">
<svg version="1.0" id="Layer_1" xmlns="http://www.w3.org/2000/svg" xmlns:xlink="http://www.w3.org/1999/xlink" x="0px" y="0px"
	 width="35.617px" height="100px" viewBox="0 0 35.617 100" enable-background="new 0 0 35.617 100" xml:space="preserve">
<path d="M30.333,97.626l4.144-1.519c0,0,1.381-0.565,1.104-1.683l-4.959-17.765c0,0-0.013-1.293-1.269-1.519l-4.582,0.465
	L30.333,97.626z"/>
<path d="M30.333,2.374l4.144,1.519c0,0,1.381,0.565,1.104,1.683l-4.959,17.764c0,0-0.013,1.293-1.269,1.519l-4.582-0.465
	L30.333,2.374z"/>
<path d="M16.436,76.197c-3.377,0.113-3.29-2.348-3.29-2.348l-0.012-23.846l0.012-23.853c0,0-0.088-2.46,3.29-2.348l4.745,0.402
	l5.712-23.074l-2.938-1.055c0,0-0.427-0.163-1.08-0.012c0,0-4.569,0.326-14.688,5.988c0,0-1.13,0.615-1.406,1.858
	c0,0-7.156,24.016-6.767,42.093C-0.374,68.075,6.782,92.09,6.782,92.09c0.276,1.242,1.406,1.857,1.406,1.857
	c10.118,5.662,14.688,5.988,14.688,5.988c0.653,0.15,1.08-0.012,1.08-0.012l2.938-1.055l-5.712-23.074L16.436,76.197z"/>
</svg>
