<?xml version="1.0" encoding="utf-8"?>
<!-- Generator: Adobe Illustrator 14.0.0, SVG Export Plug-In . SVG Version: 6.00 Build 43363)  -->
<!DOCTYPE svg PUBLIC "-//W3C//DTD SVG 1.0//EN" "http://www.w3.org/TR/2001/REC-SVG-20010904/DTD/svg10.dtd">
<svg version="1.0" id="Layer_1" xmlns="http://www.w3.org/2000/svg" xmlns:xlink="http://www.w3.org/1999/xlink" x="0px" y="0px"
	 width="100px" height="94.725px" viewBox="0 0 100 94.725" enable-background="new 0 0 100 94.725" xml:space="preserve">
<path d="M99.532,55.21l-18.321,7.315l6.064,3.552c-6.088,10.973-18.463,18.859-33.15,20.309V27.558
	c6.555-1.7,11.451-6.923,11.451-13.391c0-7.778-6.965-14.093-15.576-14.156c-8.611,0.063-15.576,6.378-15.576,14.156
	c0,6.468,4.896,11.691,11.451,13.391v58.828c-14.688-1.449-27.062-9.336-33.15-20.309l6.064-3.552L0.468,55.21L0,73.509l5.609-3.283
	C13.546,84.457,30.394,94.381,50,94.714c19.605-0.333,36.453-10.257,44.391-24.488L100,73.509L99.532,55.21z M43.164,14.167
	c0-3.432,3.051-6.207,6.836-6.269c3.785,0.062,6.836,2.837,6.836,6.269c0,3.431-3.051,6.218-6.836,6.281
	C46.215,20.385,43.164,17.598,43.164,14.167z"/>
</svg>
