<?xml version="1.0" encoding="utf-8"?>
<!-- Generator: Adobe Illustrator 14.0.0, SVG Export Plug-In . SVG Version: 6.00 Build 43363)  -->
<!DOCTYPE svg PUBLIC "-//W3C//DTD SVG 1.0//EN" "http://www.w3.org/TR/2001/REC-SVG-20010904/DTD/svg10.dtd">
<svg version="1.0" id="Layer_1" xmlns="http://www.w3.org/2000/svg" xmlns:xlink="http://www.w3.org/1999/xlink" x="0px" y="0px"
	 width="94.439px" height="100px" viewBox="0 0 94.439 100" enable-background="new 0 0 94.439 100" xml:space="preserve">
<path d="M67.807,70.474"/>
<path d="M90.031,25.653c-2.772-1.852-4.852-0.92-4.852-0.92c-2.636,0.667-4.14,0.659-4.875,0.571v-0.644
	c0.713-0.491,1.183-1.316,1.183-2.258c0-1.493-1.219-2.712-2.712-2.712c-1.506,0-2.725,1.219-2.725,2.712
	c0,0.845,0.386,1.588,0.98,2.089v23.581l-9.345-7.137L47.875,56.23v28.475h39.838V56.23l-7.408-5.657V35.02
	c0.686,0.103,2.212,0.152,4.994-0.56c0,0,2.08-0.944,4.852,0.932c0,0,0.586,0.454,4.289,2.892v-9.714
	C90.736,26.144,90.031,25.653,90.031,25.653z"/>
<polygon points="15.23,61.548 33.775,61.548 33.273,100 27.634,100 25.674,71.788 23.5,71.788 21.826,100 15.686,100 "/>
<path d="M37.6,10.252c-5.855-0.933-12.917-1.004-12.917-1.004h-0.012c0,0-7.073,0.071-12.929,1.004c0,0-0.048,1.338,0.598,1.959
	l5.424-0.215c-0.19,0.657-0.299,1.362-0.299,2.079c0,4.026,3.227,7.289,7.206,7.289l0,0c3.991,0,7.217-3.263,7.217-7.289
	c0-0.717-0.107-1.422-0.299-2.079l5.437,0.215C37.646,11.59,37.6,10.252,37.6,10.252z"/>
<polygon points="28.423,0 20.895,0 16.558,3.99 16.558,7.516 32.771,7.516 32.771,3.99 "/>
<path d="M48.233,38.559L36.129,25.463c-1.685-2.067-3.07-2.067-3.07-2.067H15.924c0,0-1.386,0-3.07,2.067L0.749,38.559
	c0,0-1.792,1.386,0.167,3.656L15.23,56.278v2.558h18.521v-2.558l14.314-14.063C50.025,39.944,48.233,38.559,48.233,38.559z
	 M10.762,45.394c0,0-2.139-3.932-2.545-4.577l-0.514-0.932l7.241-6.715c0,0,0.167-0.228,0.335,0.299l0.179,15.987
	C15.458,49.456,13.666,49.217,10.762,45.394z M40.766,40.816c-0.406,0.646-2.545,4.577-2.545,4.577
	c-2.904,3.823-4.696,4.062-4.696,4.062l0.179-15.987c0.168-0.526,0.335-0.299,0.335-0.299l7.241,6.715L40.766,40.816z"/>
</svg>
