<?xml version="1.0" encoding="utf-8"?>
<!-- Generator: Adobe Illustrator 14.0.0, SVG Export Plug-In . SVG Version: 6.00 Build 43363)  -->
<!DOCTYPE svg PUBLIC "-//W3C//DTD SVG 1.0//EN" "http://www.w3.org/TR/2001/REC-SVG-20010904/DTD/svg10.dtd">
<svg version="1.0" id="Layer_1" xmlns="http://www.w3.org/2000/svg" xmlns:xlink="http://www.w3.org/1999/xlink" x="0px" y="0px"
	 width="36.178px" height="100px" viewBox="0 0 36.178 100" enable-background="new 0 0 36.178 100" xml:space="preserve">
<path d="M33.395,19.694H2.783c0,0-2.508,0.979-2.783,2.783v42.446h4.893V46.636h3.854L8.654,100h6.605l0.826-24.526h4.006
	L20.918,100h6.605l-0.092-53.364h3.854v18.288h4.893V22.478C35.902,20.673,33.395,19.694,33.395,19.694z"/>
<path d="M18.089,16.178c-4.465,0-8.104-3.609-8.104-8.089C9.984,3.593,13.624,0,18.089,0c4.479,0,8.104,3.593,8.104,8.089
	C26.193,12.568,22.568,16.178,18.089,16.178z"/>
</svg>
