<?xml version="1.0" encoding="utf-8"?>
<!-- Generator: Adobe Illustrator 14.0.0, SVG Export Plug-In . SVG Version: 6.00 Build 43363)  -->
<!DOCTYPE svg PUBLIC "-//W3C//DTD SVG 1.0//EN" "http://www.w3.org/TR/2001/REC-SVG-20010904/DTD/svg10.dtd">
<svg version="1.0" id="Layer_1" xmlns="http://www.w3.org/2000/svg" xmlns:xlink="http://www.w3.org/1999/xlink" x="0px" y="0px"
	 width="45.807px" height="100px" viewBox="0 0 45.807 100" enable-background="new 0 0 45.807 100" xml:space="preserve">
<path d="M105.904,52.817"/>
<path d="M22.904,16.235c-4.484,0-8.118-3.618-8.118-8.11C14.786,3.649,18.419,0,22.904,0c4.492,0,8.125,3.649,8.125,8.125
	C31.029,12.617,27.396,16.235,22.904,16.235z"/>
<path d="M30.784,34.739L42.91,57.29l2.897-1.962L33.298,19.485h-9.98h-0.414H22.49h-9.98L0,55.327l2.897,1.962l12.126-22.551
	c0,0,1.533,0,1.533,3.909L3.403,70.167h12.51L19.96,100h2.529h0.414h0.414h2.529l4.047-29.834h12.509L29.25,38.648
	C29.25,34.739,30.784,34.739,30.784,34.739z"/>
</svg>
