<?xml version="1.0" encoding="utf-8"?>
<!-- Generator: Adobe Illustrator 14.0.0, SVG Export Plug-In . SVG Version: 6.00 Build 43363)  -->
<!DOCTYPE svg PUBLIC "-//W3C//DTD SVG 1.0//EN" "http://www.w3.org/TR/2001/REC-SVG-20010904/DTD/svg10.dtd">
<svg version="1.0" id="Layer_1" xmlns="http://www.w3.org/2000/svg" xmlns:xlink="http://www.w3.org/1999/xlink" x="0px" y="0px"
	 width="100px" height="97.598px" viewBox="0 0 100 97.598" enable-background="new 0 0 100 97.598" xml:space="preserve">
<path d="M95.032,43.816"/>
<path d="M99.625,20.246c0-2.885-1.954-5.233-4.593-6.016V0h-3.545v14.224c-2.639,0.776-4.605,3.124-4.605,6.022
	c0,2.904,1.967,5.239,4.605,6.009v11.274v3.079v3.273c0,0-0.051,1.371-1.604,1.371c-1.656-0.026-1.578-1.371-1.578-1.371v-2.147
	c0,0-0.078-2.717-1.631-2.717c-1.552,0-1.552,2.717-1.552,2.717v2.018c0,0,0.116,5.071,4.839,5.071c4.992,0,5.07-5.201,5.07-5.201
	v-0.026v-2.988v-0.893v-13.46C97.671,25.472,99.625,23.144,99.625,20.246z M93.247,22.962c-1.5,0-2.717-1.216-2.717-2.717
	c0-1.488,1.217-2.704,2.717-2.704s2.717,1.216,2.717,2.704C95.964,21.746,94.747,22.962,93.247,22.962z"/>
<path d="M94.566,76.196l5.2-7.321c0,0-36.08-39.121-80.659,0.957L0.958,59.43l8.034,15.355L0,91.333l19.275-9.107
	C65.95,117.024,100,81.863,100,81.863L94.566,76.196z M86.753,73.764c-2.303,0-4.166-1.889-4.166-4.178
	c0-2.316,1.863-4.18,4.166-4.18c2.315,0,4.191,1.863,4.191,4.18C90.944,71.875,89.068,73.764,86.753,73.764z"/>
</svg>
