<?xml version="1.0" encoding="utf-8"?>
<!-- Generator: Adobe Illustrator 14.0.0, SVG Export Plug-In . SVG Version: 6.00 Build 43363)  -->
<!DOCTYPE svg PUBLIC "-//W3C//DTD SVG 1.0//EN" "http://www.w3.org/TR/2001/REC-SVG-20010904/DTD/svg10.dtd">
<svg version="1.0" id="Layer_1" xmlns="http://www.w3.org/2000/svg" xmlns:xlink="http://www.w3.org/1999/xlink" x="0px" y="0px"
	 width="100px" height="48.268px" viewBox="0 0 100 48.268" enable-background="new 0 0 100 48.268" xml:space="preserve">
<path d="M35.032,36.272c-0.507-7.536-6.779-13.498-14.446-13.498c-7.673,0-13.945,5.962-14.452,13.498H6.093H0V13.939h37.035
	l5.992,9.158h14.81l8.061-11.888L60.46,1.956L63.941,0l9.372,13.939H100v10.016H75.604l-6.225,12.317H35.021H35.032z"/>
<path d="M20.616,48.268c-6.075,0-11.018-4.948-11.018-11.018c0-6.068,4.942-11.018,11.018-11.018s11.018,4.949,11.018,11.018
	C31.634,43.319,26.691,48.268,20.616,48.268L20.616,48.268z M20.616,32.647c-2.54,0-4.603,2.063-4.603,4.603
	c0,2.54,2.062,4.604,4.603,4.604s4.603-2.063,4.603-4.604C25.219,34.711,23.156,32.647,20.616,32.647L20.616,32.647z"/>
<path d="M86.049,48.268c-6.069,0-11.018-4.948-11.018-11.018c0-6.068,4.948-11.018,11.018-11.018
	c6.081,0,11.018,4.949,11.018,11.018C97.066,43.319,92.13,48.268,86.049,48.268L86.049,48.268z M86.049,32.647
	c-2.528,0-4.603,2.063-4.603,4.603c0,2.54,2.074,4.604,4.603,4.604c2.552,0,4.603-2.063,4.603-4.604
	C90.651,34.711,88.601,32.647,86.049,32.647L86.049,32.647z"/>
</svg>
