<?xml version="1.0" encoding="utf-8"?>
<!-- Generator: Adobe Illustrator 14.0.0, SVG Export Plug-In . SVG Version: 6.00 Build 43363)  -->
<!DOCTYPE svg PUBLIC "-//W3C//DTD SVG 1.0//EN" "http://www.w3.org/TR/2001/REC-SVG-20010904/DTD/svg10.dtd">
<svg version="1.0" id="Layer_1" xmlns="http://www.w3.org/2000/svg" xmlns:xlink="http://www.w3.org/1999/xlink" x="0px" y="0px"
	 width="98.398px" height="100px" viewBox="0 0 98.398 100" enable-background="new 0 0 98.398 100" xml:space="preserve">
<path d="M78.131,20.288c4.534,0,8.219-3.683,8.219-8.213c0-4.54-3.685-8.222-8.219-8.222s-8.219,3.683-8.219,8.222
	C69.912,16.606,73.597,20.288,78.131,20.288z"/>
<path d="M97.063,43.004L73.911,21.725c-0.774-0.753-1.673-1.357-2.666-1.796l-18.036-6.426L45.014,1.626
	c-0.632-0.849-1.602-1.455-2.741-1.601c-2.156-0.243-4.097,1.31-4.362,3.467c-0.099,0.919,0.121,1.789,0.581,2.521l8.365,12.098
	c0.387,0.508,0.873,0.898,1.456,1.164l9.695,3.828l-15.951,8.145c-2.206,1.288-3.808,3.495-4.244,6.112l0.099,14.571l-14.728,6.641
	c-1.674,0.78-2.863,2.451-2.934,4.413c-0.05,1.161,0.308,2.235,0.924,3.118c-4.857-1.847-7.943-3.021-7.943-3.021
	c-1.49-0.572-2.655-1.784-3.165-3.322c-0.909-2.7-3.844-4.155-6.546-3.249c-2.703,0.911-4.158,3.843-3.249,6.55
	c1.503,4.47,4.897,7.999,9.287,9.67L78.53,98.96c4.411,1.686,9.285,1.308,13.346-1.031c2.475-1.411,3.321-4.564,1.903-7.039
	c-1.417-2.479-4.568-3.326-7.041-1.906c-1.369,0.787-3.031,0.912-4.534,0.327c-0.004,0-7.276-2.765-17.093-6.498
	c1.771-0.613,3.116-2.186,3.371-4.113l2.689-21.798c0.025-0.097,0.025-0.195,0.025-0.292c0.071-1.524-0.532-2.931-1.575-3.906
	l-11.59-10.277l17.456-8.611l16.218,14.94c0.728,0.703,1.699,1.133,2.789,1.133c2.18-0.021,3.925-1.789,3.903-3.974
	C98.398,44.752,97.865,43.708,97.063,43.004z M60.675,58.308l-2.303,19.131c0,0.097-0.023,0.215-0.023,0.333
	c-0.043,0.991,0.213,1.92,0.669,2.724c-10.816-4.112-23.298-8.859-32.495-12.357c0.367-0.092,0.722-0.214,1.05-0.377l18.047-8.144
	c1.286-0.703,2.253-1.943,2.569-3.418l-0.047-9.072L60.675,58.308z"/>
</svg>
