<?xml version="1.0" encoding="utf-8"?>
<!-- Generator: Adobe Illustrator 14.0.0, SVG Export Plug-In . SVG Version: 6.00 Build 43363)  -->
<!DOCTYPE svg PUBLIC "-//W3C//DTD SVG 1.0//EN" "http://www.w3.org/TR/2001/REC-SVG-20010904/DTD/svg10.dtd">
<svg version="1.0" id="Layer_1" xmlns="http://www.w3.org/2000/svg" xmlns:xlink="http://www.w3.org/1999/xlink" x="0px" y="0px"
	 width="93.53px" height="100px" viewBox="0 0 93.53 100" enable-background="new 0 0 93.53 100" xml:space="preserve">
<path d="M46.646,19.101c5.264,0,9.551-4.286,9.551-9.551c0-5.264-4.287-9.55-9.551-9.55c-5.265,0-9.551,4.286-9.551,9.55
	C37.095,14.815,41.381,19.101,46.646,19.101z"/>
<path d="M93.53,100c-2.027,0-3.983-0.442-5.754-1.234c-1.794-0.839-3.82-1.328-5.939-1.328c-2.097,0-4.123,0.489-5.917,1.328
	C74.173,99.558,72.192,100,70.143,100c-2.026,0-4.006-0.442-5.753-1.234c-1.788-0.839-3.814-1.328-5.935-1.328
	c-2.097,0-4.123,0.489-5.917,1.328c-1.77,0.792-3.727,1.234-5.776,1.234c-2.026,0-4.006-0.442-5.753-1.234
	c-1.793-0.839-3.82-1.328-5.94-1.328c-2.097,0-4.123,0.489-5.94,1.328C27.381,99.558,25.425,100,23.387,100
	c-2.05,0-4.007-0.442-5.754-1.234c-1.793-0.839-3.82-1.328-5.939-1.328c-2.12,0-4.146,0.489-5.94,1.328C4.006,99.558,2.05,100,0,100
	v-8.619c2.05,0,4.006-0.465,5.753-1.258c1.794-0.838,3.82-1.327,5.94-1.327c2.119,0,4.146,0.489,5.939,1.327
	c1.747,0.793,3.704,1.258,5.754,1.258c2.038,0,3.995-0.465,5.742-1.258c1.817-0.838,3.843-1.327,5.94-1.327
	c2.12,0,4.146,0.489,5.94,1.327c1.747,0.793,3.727,1.258,5.753,1.258c2.05,0,4.007-0.465,5.776-1.258
	c1.794-0.838,3.82-1.327,5.917-1.327c2.12,0,4.146,0.489,5.935,1.327c1.747,0.793,3.727,1.258,5.753,1.258
	c2.05,0,4.03-0.465,5.777-1.258c1.794-0.838,3.82-1.327,5.917-1.327c2.119,0,4.146,0.489,5.939,1.327
	c1.771,0.793,3.727,1.258,5.754,1.258V100z"/>
<path d="M56.965,83.182c-1.562,0.164-3.052,0.629-4.427,1.258c-1.327,0.582-2.771,0.979-4.262,1.142l0,0V62.008l8.688-5.73V83.182z"
	/>
<path d="M45.038,85.628c-1.421-0.187-2.772-0.629-4.03-1.188c-1.491-0.698-3.098-1.141-4.822-1.281l0.023-7.477H24.097L21.5,64.012
	c-0.047-0.396-0.094-0.723-0.094-1.119c0-3.773,2.399-7.011,5.719-8.269l0.023-23.69c0-5.684,4.496-10.249,10.063-10.249
	l18.682,0.023c6.126,0,10.196,5.125,10.196,10.366V56.65c0.023,4.752-6.167,4.752-6.167,0V32.914h-2.936l-0.022,16.515H36.326
	V32.914h-2.958V54.67c0.652,0.233,1.258,0.536,1.816,0.909l9.877,6.429L45.038,85.628z M24.726,62.893h11.018
	c0-2.003-1.049-3.727-2.656-4.705c-1.025,2.68-4.706,2.68-5.707-0.023C25.797,59.119,24.726,60.89,24.726,62.893z"/>
</svg>
