<?xml version="1.0" encoding="utf-8"?>
<!-- Generator: Adobe Illustrator 14.0.0, SVG Export Plug-In . SVG Version: 6.00 Build 43363)  -->
<!DOCTYPE svg PUBLIC "-//W3C//DTD SVG 1.0//EN" "http://www.w3.org/TR/2001/REC-SVG-20010904/DTD/svg10.dtd">
<svg version="1.0" id="Layer_1" xmlns="http://www.w3.org/2000/svg" xmlns:xlink="http://www.w3.org/1999/xlink" x="0px" y="0px"
	 width="96.039px" height="100px" viewBox="0 0 96.039 100" enable-background="new 0 0 96.039 100" xml:space="preserve">
<path d="M54.759,98.189c4.909-2.143,7.2-1.853,11.224,0.261c4.066,2.117,8.109,2.117,12.903-0.316
	c4.745-2.434,8.628-1.046,10.805,0.263c1.779,1.088,3.581,1.524,6.295,1.522v-9.705c-4.078-0.017-5.823-1.414-5.823-1.414
	c-4.198-2.578-8.049-2.062-13.322,0.681c-3.031,1.576-7.812,1.162-11.225-0.577c-4.641-2.459-7.282-1.863-12.169,0.315
	c-3.793,1.682-7.211,1.678-10.961,0c-4.912-2.185-7.432-2.774-12.115-0.315c-3.369,1.739-8.223,2.153-11.226,0.577
	c-5.301-2.743-9.082-3.259-13.27-0.681c0,0-1.824,1.391-5.824,1.414v9.705c2.525,0.002,4.492-0.488,6.191-1.522
	c2.146-1.322,6.155-2.696,10.908-0.263c4.787,2.434,8.83,2.434,12.852,0.316c4.065-2.113,6.308-2.496,11.223-0.368
	C45.993,100.514,50.709,100.291,54.759,98.189L54.759,98.189z"/>
<path d="M90.215,74.635c-8.252-4.522-11.843,0.962-16.259,0.943V53.655l6.817-15.789c1.043-2.411,0.006-4.631-2.466-5.714
	l-4.144-1.678V16.836h-8.022V9.649H54.969V0h-6.977h-6.924v9.649h-11.17v7.187h-8.025v13.638l-4.144,1.678
	c-2.48,1.083-3.518,3.303-2.466,5.714l6.821,15.789v21.924c-4.424,0.019-8.197-5.38-16.261-0.89c0,0-2.316,1.304-5.822,1.365v9.441
	c2.74-0.216,4.051-0.654,6.136-1.785c2.189-1.255,6.21-2.448,10.962,0c4.788,2.415,8.83,2.415,12.852,0.313
	c4.065-2.129,7.592-2.234,11.382-0.313c4.764,2.415,8.504,2.442,13.322,0.053c3.869-1.981,7.358-1.868,11.381,0.261
	c4.065,2.102,8.107,2.102,12.903-0.313c4.745-2.448,8.748-1.22,10.963,0c1.951,1.021,3.317,1.569,6.137,1.785V76
	C92.454,75.908,90.215,74.635,90.215,74.635z M68.24,27.955l-20.248-8.338l-20.195,8.338v-5.508h7.973v-7.081h12.222h12.273v7.081
	h7.975V27.955z"/>
</svg>
