<?xml version="1.0" encoding="utf-8"?>
<!-- Generator: Adobe Illustrator 14.0.0, SVG Export Plug-In . SVG Version: 6.00 Build 43363)  -->
<!DOCTYPE svg PUBLIC "-//W3C//DTD SVG 1.0//EN" "http://www.w3.org/TR/2001/REC-SVG-20010904/DTD/svg10.dtd">
<svg version="1.0" id="Layer_1" xmlns="http://www.w3.org/2000/svg" xmlns:xlink="http://www.w3.org/1999/xlink" x="0px" y="0px"
	 width="100px" height="93.138px" viewBox="0 0 100 93.138" enable-background="new 0 0 100 93.138" xml:space="preserve">
<path d="M37.617,12.202c3.373-0.315,5.824-3.325,5.509-6.662c-0.34-3.374-3.325-5.849-6.698-5.509
	c-3.373,0.315-5.824,3.325-5.509,6.698C31.257,10.066,34.244,12.542,37.617,12.202z"/>
<path d="M49.799,31.083L34.074,13.634c-0.219-0.243-0.631-0.631-0.923-0.801c-2.062-1.699-5.071-2.039-7.499-0.558l-14.513,8.882
	c-1.917,1.165-3.033,3.179-3.13,5.267c-0.049,0.413-0.025,0.825,0.072,1.237c0,0.024,0.024,0.049,0.024,0.073
	C8.154,28,8.179,28.268,8.3,28.51v0.024c0.146,0.534,0.363,1.068,0.654,1.553c0.073,0.097,0.146,0.17,0.219,0.267l3.52,7.451
	l-7.596,9.55c-1.311,1.65-1.044,4.053,0.631,5.388c1.65,1.31,4.053,1.044,5.363-0.632l9.076-11.394c0.121-0.17,0.17-0.34,0.267-0.51
	c0.146-0.243,0.292-0.461,0.364-0.728c0.072-0.243,0.098-0.485,0.121-0.728c0.024-0.243,0.072-0.485,0.049-0.728
	c-0.024-0.267-0.121-0.534-0.194-0.801v-0.024c2.063,1.529,4.005,2.985,4.95,3.689c-0.048,3.046-0.266,14.598-0.266,14.622
	c0,2.087,1.649,3.785,3.762,3.834c2.111,0.024,3.857-1.65,3.906-3.762l0.291-16.539c0.025-1.238-0.533-2.403-1.553-3.155
	l-8.979-6.674l11.066-6.819l11.406,12.692c1.093,1.238,2.985,1.335,4.224,0.219C50.818,34.189,50.916,32.296,49.799,31.083z"/>
<path d="M0.364,93.138c2.136,0,4.174-0.462,6.018-1.287c1.869-0.873,3.98-1.383,6.164-1.383c2.209,0,4.32,0.51,6.189,1.383
	c1.82,0.825,3.883,1.287,5.994,1.287c2.135,0,4.174-0.462,5.994-1.287c1.869-0.873,3.98-1.383,6.188-1.383s4.319,0.51,6.188,1.383
	c1.82,0.825,3.883,1.287,6.019,1.287s4.175-0.462,5.995-1.287c1.868-0.873,3.979-1.383,6.188-1.383c2.209,0,4.32,0.51,6.189,1.383
	c1.819,0.825,3.883,1.287,6.018,1.287c2.111,0,4.175-0.462,5.994-1.287c1.869-0.873,3.98-1.383,6.189-1.383
	c2.208,0,4.319,0.51,6.188,1.383c1.82,0.825,3.884,1.287,6.02,1.287v-9.004c-2.136,0-4.199-0.461-6.02-1.287
	c-1.868-0.861-3.979-1.371-6.188-1.371c-2.209,0-4.32,0.51-6.189,1.371c-1.819,0.826-3.883,1.287-5.994,1.287
	c-2.135,0-4.198-0.461-6.018-1.287c-1.869-0.861-3.98-1.371-6.189-1.371c-2.208,0-4.319,0.51-6.188,1.371
	c-1.82,0.826-3.859,1.287-5.995,1.287s-4.198-0.461-6.019-1.287c-1.869-0.861-3.98-1.371-6.188-1.371s-4.319,0.51-6.188,1.371
	c-1.82,0.826-3.859,1.287-5.994,1.287c-2.111,0-4.174-0.461-5.994-1.287c-1.869-0.861-3.98-1.371-6.189-1.371
	c-2.184,0-4.295,0.51-6.164,1.371c-1.844,0.826-3.882,1.287-6.018,1.287V93.138z"/>
<path d="M0.364,76.671c1.602,0,3.179-0.364,4.66-1.02c2.354-1.092,4.95-1.674,7.522-1.674c2.598,0,5.146,0.558,7.5,1.65
	c1.48,0.679,3.105,1.043,4.684,1.043c1.602,0,3.18-0.364,4.659-1.02c2.354-1.092,4.951-1.674,7.523-1.674s5.169,0.582,7.499,1.65
	c1.48,0.679,3.106,1.043,4.708,1.043c1.603,0,3.179-0.364,4.659-1.02c1.529-0.703,3.18-1.189,4.83-1.432l-8.203-5.922l-11.843-0.315
	l-8.324-5.751l-15.653-6.067L0,54.248l0.097,22.424H0.364z"/>
<path d="M75.16,48.787c0-0.776-0.631-1.383-1.383-1.383c-0.777,0-1.383,0.606-1.383,1.383c0,0.752,0.605,1.383,1.383,1.383
	C74.529,50.169,75.16,49.539,75.16,48.787z"/>
<path d="M95.934,61.843L74.359,51.578c1.335-0.268,2.354-1.383,2.354-2.791c0-1.626-1.31-2.937-2.936-2.937
	c-1.627,0-2.937,1.311-2.937,2.937c0,0.461,0.146,0.898,0.339,1.286L49.386,39.722c-3.519-1.674-7.645-0.243-9.416,3.167
	l59.434,28.249C100.933,67.619,99.429,63.494,95.934,61.843z M72.394,48.787c0-0.776,0.605-1.383,1.383-1.383
	c0.752,0,1.383,0.606,1.383,1.383c0,0.752-0.631,1.383-1.383,1.383C73,50.169,72.394,49.539,72.394,48.787z"/>
<path d="M39.267,45.001c-0.51,3.083,0.994,6.237,3.955,7.645l46.547,22.133c2.961,1.407,6.383,0.582,8.422-1.748L39.267,45.001z"/>
</svg>
