<?xml version="1.0" encoding="utf-8"?>
<!-- Generator: Adobe Illustrator 14.0.0, SVG Export Plug-In . SVG Version: 6.00 Build 43363)  -->
<!DOCTYPE svg PUBLIC "-//W3C//DTD SVG 1.0//EN" "http://www.w3.org/TR/2001/REC-SVG-20010904/DTD/svg10.dtd">
<svg version="1.0" id="Layer_1" xmlns="http://www.w3.org/2000/svg" xmlns:xlink="http://www.w3.org/1999/xlink" x="0px" y="0px"
	 width="99.999px" height="92.963px" viewBox="0 0 99.999 92.963" enable-background="new 0 0 99.999 92.963" xml:space="preserve">
<path d="M58.771,63.407c2.267,0,4.084-1.831,4.084-4.097c0-2.26-1.817-4.097-4.084-4.097s-4.108,1.837-4.108,4.097
	C54.663,61.576,56.505,63.407,58.771,63.407z M99.364,92.943c-24.281,0.36-49.657-4.284-69.082-19.887l0,0
	c-0.125-0.111-0.174-0.261-0.174-0.436c0-0.373,0.299-0.66,0.647-0.66l19.151,0.025c0.921,0,1.693-0.76,1.693-1.693
	c0-0.697-0.324-1.183-1.071-1.557l-17.308-8.262c-0.324-0.199-0.548-0.561-0.548-0.971c0-0.312,0.125-0.592,0.324-0.803l0,0
	c0,0,21.093-18.641,66.368-18.23V92.943z"/>
<path d="M90.112,0.003C75.12,0.171,60.44,6.565,43.979,20.069c-0.617-0.168-1.967-0.529-1.967-0.529
	c-2.615,0-4.744,2.117-4.744,4.725c0,0,0.187,0.884,0.299,1.426c-0.504,0.473-13.305,12.483-13.305,12.483L12.949,48.839
	c-1.064,0.965-2.434,1.456-3.872,1.388c-1.432-0.068-2.746-0.69-3.698-1.742c-0.928-1.028-1.382-2.316-1.382-3.605
	c0-1.457,0.585-2.907,1.737-3.959c0,0,0.853-0.473,1.501-0.84c0.137,0.965,0.535,3.928,0.535,3.928l9.227-11.754L6.817,35.721
	c-2.683,0.922-3.786,2.272-3.829,2.329c-3.729,3.375-4.022,9.289-0.573,13.105c3.468,3.823,9.389,4.098,13.205,0.636l0.1-0.124
	l10.728-10.211c0,0,13.242-12.526,13.672-12.938c0.641,0.168,1.893,0.486,1.893,0.486c2.603,0,4.719-2.123,4.719-4.738
	c0,0-0.124-0.691-0.218-1.189C62.433,9.977,76.366,3.764,90.312,3.602c2.864-0.031,5.155,0.349,8.916,1.152l0.771,0.168V1.192
	l-0.498-0.106C95.616,0.258,93.063-0.034,90.112,0.003z"/>
</svg>
