<?xml version="1.0" encoding="utf-8"?>
<!-- Generator: Adobe Illustrator 14.0.0, SVG Export Plug-In . SVG Version: 6.00 Build 43363)  -->
<!DOCTYPE svg PUBLIC "-//W3C//DTD SVG 1.0//EN" "http://www.w3.org/TR/2001/REC-SVG-20010904/DTD/svg10.dtd">
<svg version="1.0" id="Layer_1" xmlns="http://www.w3.org/2000/svg" xmlns:xlink="http://www.w3.org/1999/xlink" x="0px" y="0px"
	 width="100px" height="92.316px" viewBox="0 0 100 92.316" enable-background="new 0 0 100 92.316" xml:space="preserve">
<polygon points="57.763,32.921 0,5.464 0,0 59.675,28.604 "/>
<path d="M38.03,63.083h25.278V85.65c0,3.688,2.978,6.666,6.666,6.666l0,0c3.688,0,6.693-2.978,6.693-6.666V63.083
	c1.994,0,2.186-1.311,2.186-2.841v-16.83L57.735,33.085H12.841l-5.792-3.278c-1.858-1.065-4.222-0.41-5.273,1.448l0,0
	c-1.052,1.858-0.409,4.208,1.448,5.273l9.152,5.246V85.65c0,3.688,2.991,6.666,6.68,6.666l0,0c3.688,0,6.68-2.978,6.68-6.666
	l-0.014-17.185l12.104,20.436c1.885,3.17,5.983,4.207,9.166,2.322l0,0c3.155-1.885,4.193-6.011,2.309-9.18L38.03,63.083z"/>
<polygon points="59.812,28.495 78.826,37.538 78.826,33.987 94.317,33.959 100,21.747 59.812,2.595 "/>
</svg>
