<?xml version="1.0" encoding="utf-8"?>
<!-- Generator: Adobe Illustrator 14.0.0, SVG Export Plug-In . SVG Version: 6.00 Build 43363)  -->
<!DOCTYPE svg PUBLIC "-//W3C//DTD SVG 1.0//EN" "http://www.w3.org/TR/2001/REC-SVG-20010904/DTD/svg10.dtd">
<svg version="1.0" id="Layer_1" xmlns="http://www.w3.org/2000/svg" xmlns:xlink="http://www.w3.org/1999/xlink" x="0px" y="0px"
	 width="99.018px" height="100px" viewBox="0 0 99.018 100" enable-background="new 0 0 99.018 100" xml:space="preserve">
<path d="M24.406,27.184c3.718,0,6.715-2.997,6.715-6.714s-2.997-6.738-6.715-6.738c-3.694,0-6.714,3.021-6.714,6.738
	S20.712,27.184,24.406,27.184z"/>
<path d="M14.067,28.578c0.255-1.046-0.372-2.068-1.395-2.323l-5.599-1.371c-1.045-0.209-2.091,0.395-2.324,1.44l-4.693,19.47
	c-0.256,0.999,0.372,2.044,1.417,2.3l5.6,1.348c1.022,0.255,2.044-0.372,2.3-1.417L14.067,28.578z"/>
<path d="M1.404,93.797c-0.046,0.324-0.093,0.65-0.093,0.952c0,2.603,2.114,4.717,4.717,4.717c2.161,0,3.95-1.418,4.53-3.369
	L18.691,62.5l7.713,33.41c0.511,2.045,2.394,3.556,4.577,3.556c2.625,0,4.74-2.114,4.74-4.717c0-0.349-0.046-0.697-0.116-1.022
	l-10.618-44.4l0.906-3.88l0.674,3.066c0.65,1.998,2.486,2.208,2.486,2.208l10.943,2.788c0.209,0.047,0.418,0.047,0.65,0.047
	c1.766,0,3.229-1.44,3.229-3.229c0-1.51-1.069-2.812-2.486-3.137l-9.479-2.37l-2.603-10.571c-1.231-5.878-6.854-5.739-6.854-5.739
	c-5.483-0.139-6.854,5.599-6.854,5.599L1.404,93.797z"/>
<path d="M91.117,96.073c0-2.184,1.72-3.95,3.95-3.95c2.161,0,3.95,1.767,3.95,3.95c0,2.161-1.789,3.927-3.95,3.927
	C92.837,100,91.117,98.234,91.117,96.073z"/>
<path d="M95.067,85.479c-2.23,0-3.95-1.766-3.95-3.927c0-2.184,1.72-3.95,3.95-3.95c2.161,0,3.95,1.767,3.95,3.95
	C99.018,83.713,97.229,85.479,95.067,85.479z"/>
<path d="M95.044,70.957c-2.207,0-3.95-1.766-3.95-3.927c0-2.207,1.743-3.949,3.95-3.949c2.161,0,3.95,1.742,3.95,3.949
	C98.994,69.191,97.205,70.957,95.044,70.957z"/>
<path d="M95.044,56.436c-2.207,0-3.95-1.766-3.95-3.926c0-2.208,1.743-3.95,3.95-3.95c2.161,0,3.95,1.742,3.95,3.95
	C98.994,54.67,97.205,56.436,95.044,56.436z"/>
<path d="M95.044,41.914c-2.207,0-3.95-1.766-3.95-3.926c0-2.208,1.743-3.95,3.95-3.95c2.161,0,3.927,1.742,3.927,3.95
	C98.971,40.148,97.205,41.914,95.044,41.914z"/>
<path d="M95.044,27.393c-2.23,0-3.95-1.766-3.95-3.927c0-2.23,1.72-3.95,3.95-3.95c2.161,0,3.927,1.719,3.927,3.95
	C98.971,25.627,97.205,27.393,95.044,27.393z"/>
<path d="M91.094,8.945c0-2.23,1.72-3.95,3.95-3.95c2.161,0,3.927,1.72,3.927,3.95c0,2.16-1.766,3.926-3.927,3.926
	C92.813,12.872,91.094,11.105,91.094,8.945z"/>
<path d="M66.002,4.972c2.184,0,3.926,1.743,3.926,3.974c0,2.137-1.742,3.926-3.926,3.926c-2.185,0-3.95-1.789-3.95-3.926
	C62.052,6.715,63.817,4.972,66.002,4.972z"/>
<path d="M80.523,4.949c2.184,0,3.926,1.766,3.926,3.973c0,2.138-1.742,3.927-3.926,3.927c-2.185,0-3.951-1.789-3.951-3.927
	C76.572,6.715,78.339,4.949,80.523,4.949z"/>
<path d="M66.002,92.101c2.16,0,3.949,1.766,3.949,3.949c0,2.161-1.789,3.927-3.949,3.927c-2.208,0-3.95-1.766-3.95-3.927
	C62.052,93.866,63.794,92.101,66.002,92.101z"/>
<path d="M80.546,92.101c2.185,0,3.927,1.766,3.927,3.949c0,2.161-1.742,3.927-3.927,3.927s-3.95-1.766-3.95-3.927
	C76.596,93.866,78.361,92.101,80.546,92.101z"/>
<polygon points="56.545,0 56.545,17.96 41.065,8.968 "/>
<path d="M53.617,99.21c0,0,0-28.485,0-31.413c1.975-1.975,15.219-15.218,15.219-15.218c0.744-0.743,1.115-1.743,1.115-2.719
	c0-0.999-0.371-1.975-1.115-2.718c-1.51-1.51-3.949-1.51-5.46,0L45.904,64.591V99.21H53.617z"/>
</svg>
