<?xml version="1.0" encoding="utf-8"?>
<!-- Generator: Adobe Illustrator 14.0.0, SVG Export Plug-In . SVG Version: 6.00 Build 43363)  -->
<!DOCTYPE svg PUBLIC "-//W3C//DTD SVG 1.0//EN" "http://www.w3.org/TR/2001/REC-SVG-20010904/DTD/svg10.dtd">
<svg version="1.0" id="Layer_1" xmlns="http://www.w3.org/2000/svg" xmlns:xlink="http://www.w3.org/1999/xlink" x="0px" y="0px"
	 width="99.988px" height="49.124px" viewBox="0 0 99.988 49.124" enable-background="new 0 0 99.988 49.124" xml:space="preserve">
<path d="M99.988,49.124c-2.041,0-4.012-0.464-5.75-1.252c-1.786-0.835-3.803-1.322-5.891-1.322c-2.109,0-4.127,0.487-5.912,1.322
	c-1.763,0.788-3.711,1.252-5.751,1.252c-2.018,0-3.989-0.464-5.728-1.252c-1.785-0.835-3.803-1.322-5.913-1.322
	c-2.087,0-4.104,0.487-5.89,1.322c-1.762,0.788-3.71,1.252-5.75,1.252c-2.041,0-3.989-0.464-5.729-1.252
	c-1.785-0.835-3.803-1.322-5.912-1.322c-2.11,0-4.105,0.487-5.89,1.322c-1.762,0.788-3.71,1.252-5.75,1.252
	s-3.965-0.464-5.705-1.252c-1.809-0.835-3.803-1.322-5.913-1.322c-2.11,0-4.104,0.487-5.913,1.322
	c-1.739,0.788-3.687,1.252-5.728,1.252v-8.603c2.041,0,3.988-0.464,5.728-1.253c1.809-0.811,3.803-1.298,5.913-1.298
	c2.11,0,4.104,0.487,5.913,1.298c1.739,0.789,3.664,1.253,5.705,1.253s3.988-0.464,5.75-1.253c1.785-0.811,3.78-1.298,5.89-1.298
	c2.109,0,4.127,0.487,5.912,1.298c1.739,0.789,3.688,1.253,5.729,1.253c2.04,0,3.988-0.464,5.75-1.253
	c1.785-0.811,3.803-1.298,5.89-1.298c2.11,0,4.128,0.487,5.913,1.298c1.738,0.789,3.71,1.253,5.728,1.253
	c2.04,0,3.988-0.464,5.751-1.253c1.785-0.811,3.803-1.298,5.912-1.298c2.088,0,4.104,0.487,5.891,1.298
	c1.738,0.789,3.709,1.253,5.75,1.253V49.124z"/>
<path d="M76.568,13.194l16.928,1.321l-1.275-8.649l-12.43-0.881c-3.361-0.162-2.875,3.2-2.875,3.2L76.568,13.194z"/>
<path d="M45.172,11.223c3.107,0,5.611-2.504,5.611-5.611S48.279,0,45.172,0s-5.611,2.505-5.611,5.612S42.064,11.223,45.172,11.223z"
	/>
<path d="M10.529,32.846c0.719-0.208,1.415-0.486,2.064-0.788c1.809-0.835,3.803-1.322,5.913-1.322c2.11,0,4.104,0.487,5.913,1.322
	c1.739,0.788,3.664,1.252,5.705,1.252s3.988-0.464,5.75-1.252c1.785-0.835,3.78-1.322,5.89-1.322c2.109,0,4.127,0.487,5.912,1.322
	c1.739,0.788,3.688,1.252,5.729,1.252c2.04,0,3.988-0.464,5.75-1.252c1.785-0.835,3.803-1.322,5.89-1.322
	c2.11,0,4.128,0.487,5.913,1.322c1.738,0.788,3.71,1.252,5.728,1.252c2.04,0,3.988-0.464,5.751-1.252
	c1.785-0.835,3.803-1.322,5.912-1.322c2.088,0,4.104,0.487,5.891,1.322c1.738,0.788,3.687,1.252,5.727,1.252l-1.901-15.339
	l-70.375-5.89l10.62-10.713l-4.661-0.417L23.05,11.687L0.001,9.786C-0.138,17.646,8.627,30.713,10.529,32.846L10.529,32.846z"/>
</svg>
