<?xml version="1.0" encoding="utf-8"?>
<!-- Generator: Adobe Illustrator 14.0.0, SVG Export Plug-In . SVG Version: 6.00 Build 43363)  -->
<!DOCTYPE svg PUBLIC "-//W3C//DTD SVG 1.0//EN" "http://www.w3.org/TR/2001/REC-SVG-20010904/DTD/svg10.dtd">
<svg version="1.0" id="Layer_1" xmlns="http://www.w3.org/2000/svg" xmlns:xlink="http://www.w3.org/1999/xlink" x="0px" y="0px"
	 width="99.316px" height="99.997px" viewBox="0 0 99.316 99.997" enable-background="new 0 0 99.316 99.997" xml:space="preserve">
<path d="M85.169,62.124c-2.151,0-4.209,0.497-6.03,1.348c-1.797,0.78-3.783,1.254-5.865,1.254c-2.08,0-4.066-0.474-5.864-1.254
	c-1.821-0.851-3.878-1.348-6.03-1.348c-2.129,0-4.186,0.497-6.03,1.348c-1.774,0.78-3.761,1.254-5.841,1.254
	c-2.082,0-4.092-0.474-5.865-1.254c-1.82-0.851-3.879-1.348-6.03-1.348s-4.21,0.497-6.03,1.348c-1.797,0.78-3.783,1.254-5.865,1.254
	c-2.08,0-4.066-0.474-5.864-1.254c-1.821-0.851-3.854-1.348-6.007-1.348s-4.209,0.497-6.03,1.348
	c-1.798,0.78-3.784,1.254-5.864,1.254v8.773c2.08,0,4.066-0.474,5.864-1.254c1.821-0.851,3.878-1.348,6.03-1.348
	s4.186,0.497,6.007,1.348c1.513,0.662,3.192,1.041,4.919,1.159l-7.283,7.26c-2.318-1.442-5.393-1.183-7.402,0.828L1.738,89.84
	c-2.318,2.317-2.318,6.078,0,8.419c2.341,2.317,6.101,2.317,8.418,0l8.348-8.349c1.893-1.892,2.224-4.729,1.041-6.976l10.051-10.027
	c0.686-0.212,1.348-0.378,1.986-0.662c1.82-0.851,3.879-1.348,6.03-1.348s4.21,0.497,6.03,1.348c1.773,0.78,3.783,1.254,5.865,1.254
	c2.08,0,4.066-0.474,5.841-1.254c1.845-0.851,3.901-1.348,6.03-1.348c2.152,0,4.209,0.497,6.03,1.348
	c1.798,0.78,3.784,1.254,5.864,1.254c2.082,0,4.068-0.474,5.865-1.254c1.821-0.851,3.879-1.348,6.03-1.348
	c2.152,0,4.187,0.497,6.03,1.348c1.773,0.78,3.784,1.254,5.865,1.254v-8.773c-2.081,0-4.092-0.474-5.865-1.254
	C89.355,62.621,87.321,62.124,85.169,62.124z"/>
<path d="M89.213,19.214l8.348-8.348c2.342-2.341,2.342-6.102,0-8.419c-2.317-2.341-6.102-2.341-8.418,0l-8.348,8.348
	c-2.011,2.01-2.271,5.085-0.805,7.378L69.608,28.567l-20.621-7.638c-0.544-0.308-1.112-0.568-1.75-0.757
	c-4.493-1.348-9.247,1.206-10.595,5.699l-6.338,21.236c-0.094,0.248-0.118,0.461-0.142,0.674H1.975V59.18
	c1.537,0,3.121-0.354,4.517-0.97c2.294-1.063,4.848-1.632,7.354-1.632s5.037,0.568,7.283,1.608c1.49,0.662,3.027,0.993,4.588,0.993
	c1.585,0,3.122-0.331,4.541-0.97c2.317-1.063,4.848-1.632,7.354-1.632c2.53,0,5.014,0.544,7.308,1.608
	c1.442,0.662,3.027,0.993,4.588,0.993s3.098-0.331,4.54-0.97c2.294-1.063,4.849-1.632,7.331-1.632c2.555,0,5.014,0.544,7.307,1.608
	c1.467,0.662,3.051,0.993,4.588,0.993c1.562,0,3.122-0.331,4.541-0.97c2.294-1.063,4.848-1.632,7.354-1.632
	c0.426,0,2.152,0.131,3.854-1.005c3.027-1.324,4.162-2.081,6.811-3.701c2.176-1.336,3.974-4.245-0.756-4.091
	c-1.324,0.047-40.392,0-40.392,0l11.966-11.954l1.608,0.615c2.034,0.733,4.304-0.308,5.061-2.341
	c0.521-1.442,0.118-3.003-0.875-4.044l9.79-9.826C84.483,21.413,87.321,21.106,89.213,19.214z M50.383,47.781h-2.531l5.108-17.015
	l10.548,3.902L50.383,47.781z"/>
<path d="M50.312,9.767l-1.088,2.317c-0.71,1.442-2.176,2.436-3.854,2.436h-2.555c1.467,2.081,3.879,3.429,6.598,3.429
	c4.447,0,8.064-3.594,8.064-8.041V9.482h-6.787C50.524,9.482,50.359,9.601,50.312,9.767z"/>
<path d="M45.369,12.486c0.875,0,1.655-0.521,2.01-1.277l1.064-2.317c0.402-0.875,1.254-1.466,2.246-1.466h8.324
	C57.926,3.145,54.024,0,49.412,0c-5.462,0-9.885,4.422-9.885,9.908c0,0.875,0.096,1.75,0.332,2.578H45.369z"/>
</svg>
