<?xml version="1.0" encoding="utf-8"?>
<!-- Generator: Adobe Illustrator 14.0.0, SVG Export Plug-In . SVG Version: 6.00 Build 43363)  -->
<!DOCTYPE svg PUBLIC "-//W3C//DTD SVG 1.0//EN" "http://www.w3.org/TR/2001/REC-SVG-20010904/DTD/svg10.dtd">
<svg version="1.0" id="Layer_1" xmlns="http://www.w3.org/2000/svg" xmlns:xlink="http://www.w3.org/1999/xlink" x="0px" y="0px"
	 width="80.702px" height="100px" viewBox="0 0 80.702 100" enable-background="new 0 0 80.702 100" xml:space="preserve">
<path d="M20.891,50c0,5.759-4.681,10.44-10.451,10.44C4.681,60.44,0,55.759,0,50c0-5.77,4.681-10.445,10.44-10.445
	C16.21,39.555,20.891,44.23,20.891,50z"/>
<g>
	<polygon points="27.716,46.84 27.716,53.16 80.702,57.072 80.702,42.928 	"/>
</g>
<g>
	<polygon points="16.367,33.47 21.823,36.636 43.444,7.072 31.208,0 	"/>
</g>
<g>
	<polygon points="23.844,38.646 26.987,44.118 66.232,25.932 59.16,13.679 	"/>
</g>
<g>
	<polygon points="16.367,66.524 21.823,63.359 43.444,92.928 31.208,100 	"/>
</g>
<g>
	<polygon points="23.844,61.35 26.987,55.883 66.232,74.068 59.16,86.315 	"/>
</g>
</svg>
