<?xml version="1.0" encoding="utf-8"?>
<!-- Generator: Adobe Illustrator 14.0.0, SVG Export Plug-In . SVG Version: 6.00 Build 43363)  -->
<!DOCTYPE svg PUBLIC "-//W3C//DTD SVG 1.0//EN" "http://www.w3.org/TR/2001/REC-SVG-20010904/DTD/svg10.dtd">
<svg version="1.0" id="Layer_1" xmlns="http://www.w3.org/2000/svg" xmlns:xlink="http://www.w3.org/1999/xlink" x="0px" y="0px"
	 width="92.596px" height="100px" viewBox="0 0 92.596 100" enable-background="new 0 0 92.596 100" xml:space="preserve">
<polygon points="63.212,71.421 68.329,75.76 77.267,65.238 66.745,56.301 62.354,61.471 "/>
<polygon points="92.596,78.124 72.772,78.098 72.747,98.311 86.23,98.311 92.596,91.452 "/>
<polygon points="56.769,99.376 63.472,97.375 57.444,77.215 43.128,81.476 40.349,93.531 "/>
<path d="M42.973,11.016C27.488,1.923,19.356,1.637,5.274,0l-0.52,2.65c17.484,4.053,21.902,8.158,33.931,15.458l1.663,7.95
	L0.649,91.479c-0.389,0.779-0.623,1.637-0.648,2.572c-0.053,3.247,2.52,5.896,5.741,5.949c2.13,0.025,4.001-1.092,5.066-2.754
	l39.075-63.939l15.9,10.185l8.184-13.484L42.973,11.016"/>
</svg>
