<?xml version="1.0" encoding="utf-8"?>
<!-- Generator: Adobe Illustrator 14.0.0, SVG Export Plug-In . SVG Version: 6.00 Build 43363)  -->
<!DOCTYPE svg PUBLIC "-//W3C//DTD SVG 1.0//EN" "http://www.w3.org/TR/2001/REC-SVG-20010904/DTD/svg10.dtd">
<svg version="1.0" id="Layer_1" xmlns="http://www.w3.org/2000/svg" xmlns:xlink="http://www.w3.org/1999/xlink" x="0px" y="0px"
	 width="91.851px" height="100px" viewBox="0 0 91.851 100" enable-background="new 0 0 91.851 100" xml:space="preserve">
<path d="M31.076,16.321c-4.503,0-8.149-3.669-8.149-8.173C22.927,3.646,26.572,0,31.076,0s8.172,3.646,8.172,8.148
	C39.248,12.652,35.579,16.321,31.076,16.321z"/>
<path d="M91.601,26.709c-0.357-0.357-0.905-0.357-1.263,0l-5.266,5.266v-5.337c0-0.357-0.31-0.667-0.667-0.667
	c-0.381,0-0.667,0.31-0.667,0.667v5.408L71.42,44.365H60.983c0,0,2.729-2.722,5.528-5.527h1.62c1.739,0,3.169-1.406,3.169-3.122
	c0-0.464-0.31-0.792-0.488-1.185c0.869-0.882,1.536-1.555,1.68-1.698c0.667-0.644,0.69-1.692,0.69-1.692v-5.837l8.959-7.1h6.195
	c0.357,0,0.643-0.262,0.643-0.62c0-0.333-0.285-0.667-0.643-0.667h-5.98l5.719-4.694c0.333-0.334,0.381-0.834,0.047-1.167
	c-0.333-0.334-0.881-0.334-1.215,0l-8.936,7.148V8.101c0-0.453-0.333-0.787-0.786-0.787c-0.452,0-0.81,0.334-0.81,0.787v11.293
	l-4.337,3.669v-6.528c0-0.596-0.477-1.12-1.071-1.12c-0.62,0-1.12,0.524-1.12,1.12v13.295l-2.717,2.716c-2.608,0-9.959,0-11.723,0
	c-1.382-1.382-9.441-9.412-11.442-11.413c-0.119-0.143-0.786-0.763-0.953-0.858c-1.763-1.406-4.003-2.264-6.433-2.264H21.521
	c-6.338,0-10.556,5.313-10.556,10.722v23.707L0.411,62.997c-0.548,0.548-0.548,1.43,0,1.978c0.548,0.549,1.453,0.572,2.001,0
	l4.551-4.551v4.861l-5.289,5.289c-0.334,0.334-0.334,0.857,0,1.191c0.333,0.334,0.881,0.334,1.215,0l4.074-4.098l0.024,12.318
	c0,0.404,0.333,0.738,0.738,0.738c0.429,0,0.763-0.334,0.763-0.738l-0.024-6.243l3.193,3.192c0.214,0.215,0.571,0.215,0.786,0
	c0.214-0.215,0.214-0.572,0-0.786l-3.217-3.24V58.185l2.472-2.478c1.566,2.514,5.653,1.947,5.653-2.05v-3.61l3.032-3.038
	l0.018,48.416c0,2.525,2.049,4.574,4.575,4.574s4.575-2.049,4.575-4.574V57.064h3.05v38.361c0,2.525,2.049,4.574,4.575,4.574
	c2.525,0,4.575-2.049,4.575-4.574v-67.62l10.132,10.126c0.572,0.596,1.383,0.906,2.216,0.906h6.755L48.451,51.251l2.835,2.812
	l6.362-6.362h26.328c0.715,0,1.286-0.572,1.286-1.287s-0.571-1.311-1.286-1.311l-9.578,0.048l4.837-4.837h8.815
	c0.548,0,1.001-0.429,1.001-0.977c0-0.572-0.43-1-1.001-1.024h-6.838l10.388-10.341C91.935,27.615,91.935,27.067,91.601,26.709z
	 M17.352,46.057V29.259h3.026l0.006,13.766L17.352,46.057z"/>
</svg>
