<?xml version="1.0" encoding="utf-8"?>
<!-- Generator: Adobe Illustrator 14.0.0, SVG Export Plug-In . SVG Version: 6.00 Build 43363)  -->
<!DOCTYPE svg PUBLIC "-//W3C//DTD SVG 1.0//EN" "http://www.w3.org/TR/2001/REC-SVG-20010904/DTD/svg10.dtd">
<svg version="1.0" id="Layer_1" xmlns="http://www.w3.org/2000/svg" xmlns:xlink="http://www.w3.org/1999/xlink" x="0px" y="0px"
	 width="96.677px" height="99.999px" viewBox="0 0 96.677 99.999" enable-background="new 0 0 96.677 99.999" xml:space="preserve">
<path d="M50.512,12.147c3.362,0.278,6.279-2.222,6.557-5.579c0.255-3.357-2.245-6.273-5.607-6.551
	c-3.334-0.255-6.274,2.245-6.528,5.602C44.655,8.953,47.155,11.893,50.512,12.147z"/>
<path d="M45.349,14.648c1.204-0.833,2.662-1.389,4.283-1.25c2.083,0.162,3.802,1.458,4.844,3.033l6.135,12.177l8.38,5.764
	c0.718,0.555,1.157,1.435,1.064,2.407c-0.115,1.505-1.435,2.639-2.939,2.5c-0.463-0.023-0.833-0.208-1.25-0.394l-9.145-6.296
	c-0.277-0.231-0.509-0.509-0.693-0.81l-2.292-4.561l-2.761,12.13l10.793,12.755c0.255,0.393,0.417,0.856,0.51,1.319l2.916,15.394
	c-0.022,0.348,0.023,0.557,0,0.834c-0.162,2.291-2.152,3.959-4.421,3.797c-1.875-0.162-3.265-1.551-3.704-3.265l-2.755-14.422
	l-8.779-9.607l-2.037,9.352c-0.069,0.439-0.648,1.366-0.81,1.736l-8.426,14.19c-0.833,1.296-2.246,2.13-3.843,1.991
	c-2.292-0.162-3.981-2.152-3.797-4.422c0.047-0.648,0.324-1.319,0.556-1.782l7.825-13.126l6.528-28.913L37.27,28.63l-2.269,10.301
	c-0.301,1.32-1.504,2.408-2.917,2.292c-1.528-0.116-2.64-1.436-2.523-2.963c0-0.116,0.023-0.231,0.046-0.37l2.686-12.015
	c0.162-0.509,0.44-0.972,0.833-1.319L45.349,14.648z"/>
<rect x="16.853" y="88.795" width="7.917" height="11.204"/>
<rect x="71.861" y="88.795" width="7.916" height="11.204"/>
<rect y="78.841" width="9.653" height="5.347"/>
<rect x="74.338" y="78.841" width="9.653" height="5.347"/>
<rect x="87.023" y="78.841" width="9.653" height="5.347"/>
<rect x="61.953" y="78.841" width="9.653" height="5.347"/>
<rect x="49.562" y="78.841" width="9.659" height="5.347"/>
<rect x="37.178" y="78.841" width="9.63" height="5.347"/>
<rect x="24.793" y="78.841" width="9.63" height="5.347"/>
<rect x="12.408" y="78.841" width="9.63" height="5.347"/>
</svg>
