<?xml version="1.0" encoding="utf-8"?>
<!-- Generator: Adobe Illustrator 14.0.0, SVG Export Plug-In . SVG Version: 6.00 Build 43363)  -->
<!DOCTYPE svg PUBLIC "-//W3C//DTD SVG 1.0//EN" "http://www.w3.org/TR/2001/REC-SVG-20010904/DTD/svg10.dtd">
<svg version="1.0" id="Layer_1" xmlns="http://www.w3.org/2000/svg" xmlns:xlink="http://www.w3.org/1999/xlink" x="0px" y="0px"
	 width="97.811px" height="100px" viewBox="0 0 97.811 100" enable-background="new 0 0 97.811 100" xml:space="preserve">
<path d="M52.668,14.5c3.997,0.311,7.49-2.68,7.802-6.653c0.311-4.02-2.681-7.49-6.677-7.825c-3.972-0.311-7.466,2.68-7.801,6.676
	C45.681,10.694,48.672,14.188,52.668,14.5z"/>
<path d="M46.519,17.491c1.436-1.005,3.183-1.675,5.073-1.532c2.513,0.215,4.57,1.747,5.79,3.637l7.323,14.525l9.979,6.868
	c0.861,0.646,1.364,1.723,1.292,2.848c-0.144,1.818-1.723,3.159-3.541,3.015c-0.527-0.048-0.958-0.239-1.484-0.479l-10.888-7.514
	c-0.335-0.263-0.622-0.598-0.813-0.957l-2.752-5.432l-3.278,14.478l12.874,15.195c0.264,0.479,0.479,1.005,0.574,1.556l3.494,18.377
	c-0.024,0.407,0.047,0.646,0.023,1.006c-0.215,2.703-2.584,4.714-5.288,4.498c-2.226-0.167-3.9-1.842-4.427-3.877l-3.303-17.205
	L46.734,55.036l-2.44,11.151c-0.071,0.526-0.766,1.627-0.981,2.082L33.286,85.187c-1.005,1.555-2.68,2.537-4.594,2.393
	c-2.704-0.215-4.738-2.584-4.522-5.288c0.048-0.766,0.383-1.556,0.67-2.106l9.333-15.674l7.753-34.458l-5.073,4.092l-2.68,12.3
	c-0.359,1.555-1.795,2.848-3.494,2.704c-1.819-0.144-3.159-1.699-3.015-3.518c0.024-0.144,0.024-0.287,0.072-0.431l3.207-14.333
	c0.167-0.622,0.526-1.173,1.005-1.58L46.519,17.491z"/>
<path d="M97.68,90.117c-0.551,0.167,0.454,0.167,0,0.167c-0.454-0.287,0.454-0.574,0-0.574c-5.935-0.599-13.425-0.909-19.358-0.312
	c-0.455,0-2.273,0.957-2.729,0.957c-5.48,0.288-8.687-0.358-13.712,0.527c-7.776,1.172-15.53-0.599-23.762,0.287
	c-7.298,0.598-15.075,0-22.829,0.311C11.63,88.8,5.145,89.997,0,90.117V100h97.68V90.117z"/>
</svg>
