<?xml version="1.0" encoding="utf-8"?>
<!-- Generator: Adobe Illustrator 14.0.0, SVG Export Plug-In . SVG Version: 6.00 Build 43363)  -->
<!DOCTYPE svg PUBLIC "-//W3C//DTD SVG 1.0//EN" "http://www.w3.org/TR/2001/REC-SVG-20010904/DTD/svg10.dtd">
<svg version="1.0" id="Layer_1" xmlns="http://www.w3.org/2000/svg" xmlns:xlink="http://www.w3.org/1999/xlink" x="0px" y="0px"
	 width="99.999px" height="99.998px" viewBox="0 0 99.999 99.998" enable-background="new 0 0 99.999 99.998" xml:space="preserve">
<path d="M50.084,56.699c-1.843-1.818-1.843-4.797,0-6.615c1.818-1.843,4.798-1.843,6.615,0l9.366,9.341V46.196
	c0-2.575,2.096-4.696,4.696-4.696c2.575,0,4.696,2.121,4.696,4.696v13.229l9.342-9.341c1.843-1.843,4.797-1.843,6.64,0
	c1.843,1.818,1.843,4.796,0,6.615l-9.341,9.342l13.229,0.025c2.576,0,4.672,2.096,4.672,4.695c0,2.575-2.096,4.696-4.672,4.696
	H82.099l9.341,9.341c1.843,1.844,1.843,4.797,0,6.641c-1.843,1.818-4.797,1.818-6.64,0l-9.316-9.342l-0.025,13.205
	c0,2.6-2.121,4.695-4.696,4.695c-2.601,0-4.696-2.096-4.696-4.695v-13.23l-9.366,9.367c-1.817,1.818-4.797,1.818-6.615,0
	c-1.843-1.844-1.843-4.797,0-6.641l9.342-9.341H46.196c-2.575,0-4.696-2.121-4.696-4.696c0-2.6,2.121-4.695,4.696-4.695h13.229
	L50.084,56.699z"/>
<path d="M44.833,9.386c0-2.575-2.096-4.671-4.696-4.671s-4.696,2.096-4.696,4.671v19.415L7.997,1.382
	c-1.818-1.843-4.797-1.843-6.615,0c-1.843,1.818-1.843,4.797,0,6.615l27.419,27.444H9.386c-2.575,0-4.671,2.095-4.671,4.696
	c0,2.575,2.096,4.696,4.671,4.696l30.726-0.025c1.212,0,2.398-0.455,3.333-1.363c0.909-0.909,1.363-2.121,1.363-3.308L44.833,9.386z
	"/>
</svg>
