<?xml version="1.0" encoding="utf-8"?>
<!-- Generator: Adobe Illustrator 14.0.0, SVG Export Plug-In . SVG Version: 6.00 Build 43363)  -->
<!DOCTYPE svg PUBLIC "-//W3C//DTD SVG 1.0//EN" "http://www.w3.org/TR/2001/REC-SVG-20010904/DTD/svg10.dtd">
<svg version="1.0" id="Layer_1" xmlns="http://www.w3.org/2000/svg" xmlns:xlink="http://www.w3.org/1999/xlink" x="0px" y="0px"
	 width="99.885px" height="100px" viewBox="0 0 99.885 100" enable-background="new 0 0 99.885 100" xml:space="preserve">
<path d="M53.556,14.985c4.143,0.322,7.76-2.774,8.081-6.887c0.322-4.137-2.749-7.753-6.886-8.075
	c-4.144-0.322-7.76,2.75-8.082,6.886S49.431,14.663,53.556,14.985z"/>
<path d="M47.202,18.057c1.474-1.016,3.294-1.709,5.264-1.561c2.582,0.223,4.712,1.809,5.976,3.765l7.58,15.012l10.33,7.109
	c0.892,0.669,1.412,1.784,1.338,2.973c-0.148,1.858-1.784,3.245-3.666,3.096c-0.546-0.024-0.991-0.248-1.536-0.495l-11.271-7.753
	c-0.347-0.297-0.619-0.62-0.842-1.016l-2.849-5.624L54.138,48.55L67.459,64.28c0.297,0.496,0.495,1.041,0.619,1.61l3.592,19
	c-0.025,0.421,0.049,0.693,0.024,1.04c-0.223,2.799-2.675,4.881-5.475,4.657c-2.304-0.173-4.038-1.907-4.583-4.013l-3.394-17.811
	L47.437,56.923L44.91,68.467c-0.074,0.545-0.792,1.684-1.016,2.154L33.528,88.11c-1.053,1.611-2.774,2.627-4.769,2.478
	c-2.799-0.223-4.892-2.675-4.669-5.475c0.062-0.792,0.396-1.61,0.682-2.18l9.66-16.2l8.026-35.671l-5.252,4.26L34.432,48.03
	c-0.371,1.61-1.857,2.948-3.616,2.799c-1.858-0.149-3.258-1.759-3.121-3.642c0.024-0.148,0.049-0.297,0.074-0.446l3.319-14.813
	c0.173-0.669,0.545-1.214,1.04-1.635L47.202,18.057z"/>
<g>
	<rect y="71.463" width="7.729" height="6.145"/>
	<rect x="15.259" y="71.463" width="7.729" height="6.145"/>
	<rect x="45.976" y="71.463" width="7.729" height="6.145"/>
	<rect x="76.896" y="71.463" width="7.729" height="6.145"/>
	<rect x="92.155" y="71.463" width="7.729" height="6.145"/>
	<rect y="93.858" width="7.729" height="6.143"/>
	<rect x="15.259" y="93.858" width="7.729" height="6.143"/>
	<rect x="30.716" y="93.858" width="7.729" height="6.143"/>
	<rect x="61.637" y="93.858" width="7.729" height="6.143"/>
	<rect x="45.976" y="93.858" width="7.729" height="6.143"/>
	<rect x="76.896" y="93.858" width="7.729" height="6.143"/>
	<rect x="92.155" y="93.858" width="7.729" height="6.143"/>
</g>
</svg>
