<?xml version="1.0" encoding="utf-8"?>
<!-- Generator: Adobe Illustrator 14.0.0, SVG Export Plug-In . SVG Version: 6.00 Build 43363)  -->
<!DOCTYPE svg PUBLIC "-//W3C//DTD SVG 1.0//EN" "http://www.w3.org/TR/2001/REC-SVG-20010904/DTD/svg10.dtd">
<svg version="1.0" id="Layer_1" xmlns="http://www.w3.org/2000/svg" xmlns:xlink="http://www.w3.org/1999/xlink" x="0px" y="0px"
	 width="93.924px" height="100px" viewBox="0 0 93.924 100" enable-background="new 0 0 93.924 100" xml:space="preserve">
<polygon points="39.316,10.389 46.178,7.197 42.985,0.364 36.152,3.528 "/>
<polygon points="36.293,16.186 24.979,12.377 21.143,23.691 32.484,27.499 "/>
<polygon points="36.377,20.918 57.07,18.986 58.807,38.701 43.909,40.465 37.861,32.428 "/>
<polygon points="61.916,53.906 69.112,58.275 73.285,57.519 78.213,49.37 78.213,49.174 71.017,44.805 66.844,45.562 61.916,53.711 
	"/>
<polygon points="64.968,64.072 78.326,65.863 76.617,79.529 67.152,78.186 63.624,71.353 "/>
<path d="M51.61,65.275L15.458,21.59L7.617,2.324L0,0l0.028,95.071c0,2.632,2.128,4.761,4.761,4.761l64.996-0.057l-5.321-18.958
	L51.61,65.275"/>
<polygon points="46.289,50.07 49.426,47.718 44.974,41.809 41.949,44.077 41.949,50.07 "/>
<polygon points="93.924,100 82.134,100 82.134,91.627 86.951,86.782 93.924,92.104 "/>
</svg>
