<?xml version="1.0" encoding="utf-8"?>
<!-- Generator: Adobe Illustrator 14.0.0, SVG Export Plug-In . SVG Version: 6.00 Build 43363)  -->
<!DOCTYPE svg PUBLIC "-//W3C//DTD SVG 1.0//EN" "http://www.w3.org/TR/2001/REC-SVG-20010904/DTD/svg10.dtd">
<svg version="1.0" id="Layer_1" xmlns="http://www.w3.org/2000/svg" xmlns:xlink="http://www.w3.org/1999/xlink" x="0px" y="0px"
	 width="100px" height="93.288px" viewBox="0 0 100 93.288" enable-background="new 0 0 100 93.288" xml:space="preserve">
<path d="M75.774,86.745V54.308h18.157c0,15.978,0,29.065,0,32.437C91.646,86.745,83.916,86.745,75.774,86.745z M53.721,54.308
	h18.008v32.437c-8.08,0-15.734,0-18.008,0C53.721,83.374,53.721,70.286,53.721,54.308z M71.729,28.309v21.959H53.721
	c0-6.974,0-20.385,0-21.959C55.994,28.309,63.648,28.309,71.729,28.309z M93.932,50.268H75.774V28.309c8.142,0,15.872,0,18.157,0
	C93.932,29.883,93.932,43.294,93.932,50.268z M96.953,22.24H84.915l9.69-3.902c1.049-0.418,1.549-1.599,1.124-2.635
	c-0.425-1.03-1.599-1.536-2.622-1.118c0,0-5.495,2.21-10.902,4.389c4.396-4.358,8.904-8.835,8.904-8.835
	c0.399-0.393,0.6-0.917,0.6-1.43c0-0.518-0.2-1.037-0.588-1.423c-0.786-0.799-2.061-0.799-2.859-0.013l-12.55,12.45l0.062-17.695
	C75.774,0.912,74.875,0,73.764,0h-0.012c-1.111,0-2.012,0.899-2.023,2.01c0,0-0.037,11.695-0.05,17.695
	C67.633,15.641,60.428,8.373,60.428,8.373c-0.787-0.787-2.061-0.799-2.86-0.006c-0.786,0.787-0.799,2.066-0.013,2.859l7.83,7.892
	l-11.264-4.495c-1.037-0.412-2.223,0.093-2.623,1.13c-0.424,1.037,0.088,2.217,1.125,2.628l9.689,3.859H50.699
	c-1.686,0-3.047,1.361-3.047,3.035v64.491c0,1.686,1.361,3.035,3.047,3.035h46.254c1.674,0,3.047-1.35,3.047-3.035V25.275
	C100,23.602,98.627,22.24,96.953,22.24z"/>
<path d="M5.058,83.948c0,0,0.013-2.111,0.013-2.398c2.972,0,19.93,0,27.822,0c-0.425,0.899-0.762,1.873-0.938,2.859
	c-0.236,1.35-0.124,2.61,0.188,3.809L9.24,88.143C6.931,88.13,5.058,86.245,5.058,83.948z M36.064,29.602
	c0,4.333-0.051,42.557-0.051,46.891c-3.096,0-19.18,0-26.473,0l18.031-15.11l-0.037-31.799
	C29.171,29.589,34.528,29.595,36.064,29.602z M38.861,88.231h-1.187c-0.687-0.787-0.948-1.762-0.737-2.96
	c0.351-1.974,1.773-3.634,2.448-3.871v-0.024c0.974-0.35,1.673-1.262,1.673-2.348l0.062-51.942c0-1.393-1.136-2.522-2.521-2.529
	c0,0-8.18-0.019-11.053-0.031c0-2.454,0.025-5.813,0.025-5.813c0-1.018-0.611-1.936-1.561-2.329
	c-0.937-0.394-2.023-0.181-2.76,0.537L5.67,34.372c-3.072,3.059-5.52,8.872-5.532,13.23L0,83.922c0,5.095,4.121,9.253,9.216,9.266
	l29.633,0.1c1.386,0,2.522-1.123,2.535-2.521l0,0C41.384,89.367,40.26,88.243,38.861,88.231z"/>
</svg>
