<?xml version="1.0" encoding="utf-8"?>
<!-- Generator: Adobe Illustrator 14.0.0, SVG Export Plug-In . SVG Version: 6.00 Build 43363)  -->
<!DOCTYPE svg PUBLIC "-//W3C//DTD SVG 1.0//EN" "http://www.w3.org/TR/2001/REC-SVG-20010904/DTD/svg10.dtd">
<svg version="1.0" id="Layer_1" xmlns="http://www.w3.org/2000/svg" xmlns:xlink="http://www.w3.org/1999/xlink" x="0px" y="0px"
	 width="96.319px" height="100px" viewBox="0 0 96.319 100" enable-background="new 0 0 96.319 100" xml:space="preserve">
<path d="M15.528,71.802c28.103,11.818,49.443,18.711,79.499,28.185c0.615,0.095,1.184-0.331,1.279-0.971
	c0.094-0.616-0.332-1.208-0.948-1.327c-47.347-14.897-84.521-31.406-93-35.243c-0.876-0.355-1.895,0.048-2.226,0.9
	c-0.355,0.877,0.024,1.824,0.876,2.155c2.108,0.948,4.192,1.872,6.206,2.748l-6.679,5.092c-0.758,1.114-0.427,2.535,0.687,3.292
	c0.829,0.568,2.014,0.498,2.819-0.024L15.528,71.802z"/>
<path d="M93.085,41.971L71.24,21.911c0.152,0.008,0.303,0.023,0.457,0.023c4.43,0,8.006-3.6,8.006-8.029
	c0-4.429-3.576-8.029-8.006-8.029c-4.452,0-8.028,3.6-8.028,8.029c0,1.69,0.523,3.257,1.415,4.552l-14.82-5.286L42.257,1.588
	c-0.616-0.853-1.564-1.421-2.676-1.563c-2.084-0.236-4.003,1.279-4.24,3.388c-0.095,0.876,0.118,1.728,0.544,2.439l8.172,11.843
	c0.379,0.474,0.853,0.876,1.421,1.137l9.474,3.719l-15.561,7.958c-2.179,1.231-3.718,3.411-4.145,5.944l0.07,14.234l-14.388,6.49
	c-1.611,0.781-2.771,2.392-2.842,4.31c-0.118,2.748,2.014,5.045,4.76,5.164c0.854,0.048,1.682-0.142,2.392-0.498l17.61-7.958
	c1.255-0.663,2.203-1.871,2.51-3.34l-0.023-8.857l12.221,10.942l-2.25,18.64c0,0.118-0.024,0.237-0.024,0.355
	c-0.119,2.748,2.013,5.068,4.761,5.187c2.582,0.095,4.784-1.776,5.14-4.31l2.629-21.27c0-0.094,0.023-0.189,0.023-0.284
	c0.047-1.492-0.545-2.842-1.54-3.79L54.975,41.402l17.053-8.384L87.85,47.584c0.71,0.687,1.682,1.114,2.724,1.114
	c2.132-0.024,3.837-1.753,3.813-3.861C94.387,43.7,93.866,42.682,93.085,41.971z"/>
</svg>
