<?xml version="1.0" encoding="utf-8"?>
<!-- Generator: Adobe Illustrator 14.0.0, SVG Export Plug-In . SVG Version: 6.00 Build 43363)  -->
<!DOCTYPE svg PUBLIC "-//W3C//DTD SVG 1.0//EN" "http://www.w3.org/TR/2001/REC-SVG-20010904/DTD/svg10.dtd">
<svg version="1.0" id="Layer_1" xmlns="http://www.w3.org/2000/svg" xmlns:xlink="http://www.w3.org/1999/xlink" x="0px" y="0px"
	 width="100px" height="87.717px" viewBox="0 0 100 87.717" enable-background="new 0 0 100 87.717" xml:space="preserve">
<path d="M34.242,18.556c5.134,0,9.272-4.162,9.272-9.284C43.515,4.15,39.376,0,34.242,0c-5.122,0-9.271,4.15-9.271,9.272
	C24.971,14.395,29.12,18.556,34.242,18.556z"/>
<path d="M0.023,69.268c2.17,0,4.257-0.498,6.13-1.34c1.92-0.89,4.09-1.411,6.343-1.411s4.423,0.521,6.332,1.411
	c1.885,0.842,3.984,1.328,6.177,1.328c2.182,0,4.28-0.486,6.154-1.328c1.909-0.89,4.079-1.411,6.343-1.411
	c2.253,0,4.411,0.521,6.344,1.411c1.861,0.842,3.972,1.328,6.153,1.328s4.292-0.486,6.154-1.328c1.932-0.89,4.09-1.411,6.354-1.411
	c2.253,0,4.411,0.521,6.332,1.411c1.885,0.842,3.983,1.328,6.165,1.328c2.193,0,4.28-0.486,6.166-1.328
	c1.908-0.89,4.078-1.411,6.331-1.411c1.933,0,3.806,0.367,5.502,1.031c2.751-3.012,4.458-7.019,4.458-11.406
	c0-9.343-7.564-16.907-16.896-16.907l-1.896,0.201c-2.075,8.431-10.506,8.786-10.506,8.786L29.583,48.21l-3.226-1.897l7.778-13.054
	l8.513,4.92c5.098,3.308,7.754-1.328,7.754-1.328l8.537-13.92c3.711-6.047-4.162-10.896-7.85-4.826l-5.976,9.758l-14.205-7.861
	c-9.841-5.49-14.015,3.604-14.015,3.604L5.739,42.72c-1.897,3.972-0.202,5.679-0.202,5.679l-5.514-0.012V69.268z"/>
<path d="M100,87.717c-2.182,0-4.28-0.486-6.142-1.328c-1.933-0.89-4.091-1.411-6.355-1.411c-2.253,0-4.423,0.521-6.331,1.411
	c-1.886,0.842-3.973,1.328-6.166,1.328c-2.182,0-4.28-0.486-6.165-1.328c-1.921-0.89-4.079-1.411-6.332-1.411
	c-2.265,0-4.423,0.521-6.354,1.411c-1.862,0.842-3.973,1.328-6.154,1.328s-4.292-0.486-6.153-1.328
	c-1.933-0.89-4.091-1.411-6.344-1.411c-2.265,0-4.435,0.521-6.343,1.411c-1.874,0.842-3.972,1.328-6.154,1.328
	c-2.193,0-4.292-0.486-6.177-1.328c-1.909-0.89-4.079-1.411-6.332-1.411s-4.423,0.521-6.343,1.411C4.28,87.23,2.182,87.717,0,87.717
	v-9.225c2.182,0,4.28-0.498,6.154-1.34c1.92-0.89,4.09-1.411,6.343-1.411s4.423,0.521,6.332,1.411
	c1.885,0.842,3.984,1.34,6.177,1.34c2.182,0,4.28-0.498,6.154-1.34c1.909-0.89,4.079-1.411,6.343-1.411
	c2.253,0,4.411,0.521,6.344,1.411c1.861,0.842,3.972,1.34,6.153,1.34s4.292-0.498,6.154-1.34c1.932-0.89,4.09-1.411,6.354-1.411
	c2.253,0,4.411,0.521,6.332,1.411c1.885,0.842,3.983,1.34,6.165,1.34c2.193,0,4.28-0.498,6.166-1.34
	c1.908-0.89,4.078-1.411,6.331-1.411c2.265,0,4.423,0.521,6.355,1.411c1.861,0.842,3.96,1.34,6.142,1.34V87.717z"/>
</svg>
