<?xml version="1.0" encoding="utf-8"?>
<!-- Generator: Adobe Illustrator 14.0.0, SVG Export Plug-In . SVG Version: 6.00 Build 43363)  -->
<!DOCTYPE svg PUBLIC "-//W3C//DTD SVG 1.0//EN" "http://www.w3.org/TR/2001/REC-SVG-20010904/DTD/svg10.dtd">
<svg version="1.0" id="Layer_1" xmlns="http://www.w3.org/2000/svg" xmlns:xlink="http://www.w3.org/1999/xlink" x="0px" y="0px"
	 width="100px" height="95.409px" viewBox="0 0 100 95.409" enable-background="new 0 0 100 95.409" xml:space="preserve">
<path d="M53.825,82.064c0-3.192-2.58-5.784-5.797-5.784c-3.168,0-5.772,2.592-5.772,5.784c0,3.169,2.604,5.761,5.772,5.761
	C51.245,87.825,53.825,85.233,53.825,82.064z M48.028,95.409c-7.356,0-13.309-5.951-13.309-13.345
	c0-7.368,5.953-13.345,13.309-13.345c7.393,0,13.352,5.977,13.352,13.345C61.38,89.458,55.421,95.409,48.028,95.409z"/>
<path d="M0,0c5.76,0,24.17,8.161,31.562,20.882l-7.752,6.312c0,0-8.208-11.137-23.81-14.041V0z"/>
<path d="M23.354,45.628c0,3.72,3,6.745,6.721,6.745s6.745-3.025,6.745-6.745c0-3.696-6.745-19.178-6.745-19.178
	S23.354,41.932,23.354,45.628z"/>
<path d="M75.493,54.101l8.785-14.761c1.128-1.848,1.56-2.688,2.185-3.264c1.128-1.056,2.567-0.984,2.567-0.984H100v-5.136H89.03
	c-4.32,0-6.433,2.328-7.032,3.264L69.517,53.597l-19.4-32.091h-6l19.976,32.979c-7.95,0.553-27.464,1.896-38.674,4.441
	c-1.92,0.455-4.632,3.84-5.592,10.561l-1.176,7.896c0,1.92,1.561,3.48,3.48,3.48h7.369c0.576-9.744,8.593-17.498,18.482-17.498
	S65.893,71.12,66.492,80.84H100V54.101H75.493z"/>
</svg>
