<?xml version="1.0" encoding="utf-8"?>
<!-- Generator: Adobe Illustrator 14.0.0, SVG Export Plug-In . SVG Version: 6.00 Build 43363)  -->
<!DOCTYPE svg PUBLIC "-//W3C//DTD SVG 1.0//EN" "http://www.w3.org/TR/2001/REC-SVG-20010904/DTD/svg10.dtd">
<svg version="1.0" id="Layer_1" xmlns="http://www.w3.org/2000/svg" xmlns:xlink="http://www.w3.org/1999/xlink" x="0px" y="0px"
	 width="99.697px" height="100px" viewBox="0 0 99.697 100" enable-background="new 0 0 99.697 100" xml:space="preserve">
<path d="M9.99,48.356c-2.099,0-3.818,1.72-3.818,3.818c0,2.1,1.72,3.794,3.818,3.794c2.1,0,3.794-1.694,3.794-3.794
	C13.784,50.076,12.089,48.356,9.99,48.356z"/>
<path d="M62.924,16.565c4.552,0,8.27-3.692,8.27-8.27S67.476,0,62.924,0c-4.578,0-8.296,3.718-8.296,8.295
	S58.346,16.565,62.924,16.565z"/>
<path d="M98.508,90.339L85.053,74.456c0,0-4.198-24.532-4.198-24.583c0-0.025-0.632-2.782-0.632-2.782
	c0.025,0.025-1.695-7.739-3.01-13.809c2.099,1.214,3.996,2.302,4.097,2.352c0.101,0.228,7.132,13.606,7.132,13.606
	c0.531,0.986,1.416,1.72,2.479,2.049c1.088,0.328,2.227,0.228,3.213-0.304c0.986-0.506,1.719-1.391,2.048-2.479
	c0.354-1.062,0.253-2.2-0.278-3.187L88.19,30.627c0,0-0.305-0.531-0.709-0.936c-0.557-0.556-1.77-1.239-1.77-1.239l-14.973-8.523
	c-1.896-0.961-3.996-1.29-6.096-0.834c-0.859,0.177-1.669,0.506-2.579,1.012c-0.102,0.025-3.415,1.492-5.337,5.994L49.04,41.578
	c0,0-11.71,2.276-12.115,2.352c-0.101,0.025-0.203,0.051-0.278,0.101l-10.925-7.739c-2.454-1.72-2.757-6.879-2.782-7.082
	c-0.304-3.541-2.327-6.879-5.564-9.181c-2.934-2.074-6.474-2.959-9.711-2.428c-2.529,0.43-4.679,1.745-6.044,3.667
	C0.556,22.762,0,24.558,0,26.479c0,0.025,0.152,1.669,0.152,1.669c0.557,3.262,2.555,6.297,5.488,8.396
	c2.959,2.099,6.474,2.984,9.711,2.428l0.759-0.151c0.076-0.051,4.932-1.543,7.309,0.076c0,0.025,8.169,5.792,10.344,7.334
	c-0.228,0.354-0.632,1.138-0.607,1.947c0,0.253,0.025,0.506,0.076,0.759c0.43,2.276,2.656,3.793,4.932,3.338l14.516-2.833
	c0,0,1.24-0.379,1.771-0.759c0.683-0.48,1.188-1.492,1.188-1.492l3.819-7.688c0,0,2.629,12.418,2.68,12.645
	c-0.303,0.304-11.912,12.621-11.912,12.621l-0.201,0.252c-1.139,1.037-1.771,2.402-1.771,3.845v26.101
	c0,2.781,2.277,5.032,5.059,5.032c2.757,0,5.033-2.251,5.033-5.032c0,0,0-21.447,0-21.801c1.062-1.113,9.965-10.496,12.342-12.975
	c0.253,1.467,2.555,14.693,2.555,14.693c0.202,1.164,0.758,2.227,1.593,3.086c0,0.025,15.983,18.893,15.983,18.893
	c0.886,1.012,2.1,1.644,3.44,1.77c1.341,0.102,2.63-0.328,3.667-1.188c1.163-0.986,1.771-2.428,1.771-3.845
	C99.697,92.438,99.317,91.3,98.508,90.339z M18.741,33.435c-0.885,1.239-2.251,2.049-3.945,2.352
	c-2.377,0.405-5.033-0.278-7.259-1.897c-2.251-1.593-3.769-3.869-4.173-6.247l-0.101-1.188c0-1.239,0.329-2.352,1.011-3.313
	c2.201-3.085,7.233-3.288,11.229-0.455C19.474,25.519,20.941,30.349,18.741,33.435z"/>
</svg>
