<?xml version="1.0" encoding="utf-8"?>
<!-- Generator: Adobe Illustrator 14.0.0, SVG Export Plug-In . SVG Version: 6.00 Build 43363)  -->
<!DOCTYPE svg PUBLIC "-//W3C//DTD SVG 1.0//EN" "http://www.w3.org/TR/2001/REC-SVG-20010904/DTD/svg10.dtd">
<svg version="1.0" id="Layer_1" xmlns="http://www.w3.org/2000/svg" xmlns:xlink="http://www.w3.org/1999/xlink" x="0px" y="0px"
	 width="60.959px" height="100px" viewBox="0 0 60.959 100" enable-background="new 0 0 60.959 100" xml:space="preserve">
<path d="M46.534,34.743l8.338-0.073V10.929L30.489,0L6.113,10.929V34.67l8.337,0.073L0,99.976L8.435,100l1.296-5.893l20.758-25.281
	l20.764,25.306L52.549,100l8.41-0.024L46.534,34.743z M15.257,14.255h30.446v11.98H15.257V14.255z M13.129,78.753l5.403-24.475
	l7.359,8.925L13.129,78.753z M20.513,45.403l2.348-10.685h15.263l2.348,10.709l-9.982,12.2L20.513,45.403z M35.067,63.203
	l7.359-8.925l5.404,24.475L35.067,63.203z"/>
</svg>
