<?xml version="1.0" encoding="utf-8"?>
<!-- Generator: Adobe Illustrator 14.0.0, SVG Export Plug-In . SVG Version: 6.00 Build 43363)  -->
<!DOCTYPE svg PUBLIC "-//W3C//DTD SVG 1.0//EN" "http://www.w3.org/TR/2001/REC-SVG-20010904/DTD/svg10.dtd">
<svg version="1.0" id="Layer_1" xmlns="http://www.w3.org/2000/svg" xmlns:xlink="http://www.w3.org/1999/xlink" x="0px" y="0px"
	 width="100px" height="98.778px" viewBox="0 0 100 98.778" enable-background="new 0 0 100 98.778" xml:space="preserve">
<path d="M5.934,42.648c-0.939-6.107,7.83-7.961,9.239-1.723l2.401,11.928l8.926,0.027c2.611,0,3.968,2.061,3.968,4.02v16.208
	c0,3.94-5.611,3.915-5.611-0.079c0-3.705,0-12.605,0-12.605H13.45c-2.662,0-4.333-1.828-4.75-3.916L5.934,42.648z"/>
<polygon points="0,0 0,5.098 100,38.473 100,0 "/>
<path d="M10.109,36.071c2.897,0,5.272-2.349,5.272-5.246c0.026-2.897-2.323-5.272-5.246-5.272c-2.897-0.026-5.272,2.323-5.272,5.22
	C4.837,33.696,7.186,36.045,10.109,36.071z"/>
<path d="M0.061,48.965c-0.627-3.393,3.811-4.202,4.438-0.809l1.957,10.623c0.443,2.219,2.062,4.098,4.385,4.803
	c0.705,0.208,1.436,0.234,2.141,0.287l6.447,0.025c3.419-0.025,3.419,4.489-0.026,4.489l-6.786-0.026
	c-1.044,0-2.088-0.156-3.133-0.469c-3.992-1.201-6.785-4.49-7.517-8.326L0.061,48.965z"/>
<path d="M40.699,54.002c-0.939-6.081,7.83-7.934,9.266-1.695l2.375,11.928h8.927c2.61,0,3.968,2.088,3.968,4.02v16.208
	c0,3.941-5.611,3.941-5.611-0.052c0-3.707,0-12.633,0-12.633H48.217c-2.637,0-4.307-1.827-4.725-3.916L40.699,54.002z"/>
<path d="M44.875,47.426c2.898,0.025,5.273-2.324,5.273-5.221c0.025-2.924-2.323-5.272-5.221-5.299c-2.924,0-5.272,2.35-5.299,5.246
	C39.629,45.05,41.979,47.426,44.875,47.426z"/>
<path d="M34.826,60.345c-0.626-3.394,3.838-4.202,4.438-0.835l1.984,10.648c0.443,2.193,2.062,4.099,4.358,4.777
	c0.731,0.209,1.462,0.234,2.167,0.287l6.446,0.052c3.419-0.026,3.394,4.489-0.052,4.464l-6.787-0.026
	c-1.018,0-2.062-0.131-3.105-0.444c-4.02-1.2-6.812-4.516-7.543-8.352L34.826,60.345z"/>
<path d="M75.492,65.383c-0.967-6.107,7.83-7.936,9.239-1.723l2.401,11.928l8.926,0.025c2.584,0,3.941,2.089,3.941,4.02v16.209
	c0,3.941-5.611,3.915-5.611-0.078c0-3.707,0-12.607,0-12.607h-11.38c-2.663,0-4.333-1.826-4.751-3.914L75.492,65.383z"/>
<path d="M79.642,58.805c2.923,0,5.272-2.349,5.298-5.246c0-2.896-2.348-5.271-5.246-5.271c-2.896-0.027-5.271,2.322-5.271,5.219
	C74.396,56.43,76.744,58.779,79.642,58.805z"/>
<path d="M69.593,71.699c-0.601-3.394,3.837-4.203,4.464-0.81l1.957,10.623c0.443,2.218,2.062,4.124,4.385,4.802
	c0.705,0.209,1.436,0.236,2.141,0.287l6.447,0.027c3.418-0.027,3.393,4.488-0.053,4.488l-6.76-0.052
	c-1.045,0-2.088-0.13-3.133-0.444c-3.993-1.174-6.785-4.488-7.517-8.326L69.593,71.699z"/>
</svg>
