<?xml version="1.0" encoding="utf-8"?>
<!-- Generator: Adobe Illustrator 14.0.0, SVG Export Plug-In . SVG Version: 6.00 Build 43363)  -->
<!DOCTYPE svg PUBLIC "-//W3C//DTD SVG 1.0//EN" "http://www.w3.org/TR/2001/REC-SVG-20010904/DTD/svg10.dtd">
<svg version="1.0" id="Layer_1" xmlns="http://www.w3.org/2000/svg" xmlns:xlink="http://www.w3.org/1999/xlink" x="0px" y="0px"
	 width="75.128px" height="100px" viewBox="0 0 75.128 100" enable-background="new 0 0 75.128 100" xml:space="preserve">
<path d="M21.457,15.55"/>
<path d="M32.969,7.826h32.917l5.304,5.352c0.958,0.968,0.935,1.651,0,2.625l-6.463,6.461l-3.787-3.786l-3.787,3.786l-3.736-3.735
	l-3.635,3.636l-3.786-3.788l-4.949,4.948h-8.077V7.826L32.969,7.826z"/>
<path d="M11.814,70.028"/>
<path d="M68.31,58.717L62.15,42.814c-1.15-3.044-3.668-5.634-8.432-5.656h-8.684H30.191h-8.835
	c-4.741,0.021-7.258,2.611-8.431,5.656L6.765,58.717C4.32,59.032-0.008,61.906,0,67.35v20.247h6.008v6.462
	c-0.014,7.969,11.261,7.874,11.258,0v-6.462h20.296h20.246v6.462c0.025,7.874,11.301,7.969,11.308,0v-6.462h6.012V67.35
	C75.108,61.906,70.776,59.032,68.31,58.717z M11.814,75.377c-2.88,0.009-5.213-2.394-5.2-5.349c-0.013-2.975,2.32-5.379,5.2-5.355
	c2.872-0.023,5.204,2.381,5.2,5.355C17.019,72.983,14.686,75.386,11.814,75.377z M37.563,58.566h-0.051H13.177l4.645-12.522
	c0.56-1.777,1.431-3.049,3.484-3.08h16.206h0.051H53.82c2.024,0.031,2.896,1.303,3.482,3.08l4.647,12.522H37.563z M63.312,75.377
	c-2.901,0.009-5.234-2.394-5.252-5.349c0.018-2.975,2.351-5.379,5.252-5.355c2.85-0.023,5.182,2.381,5.199,5.355
	C68.494,72.983,66.162,75.386,63.312,75.377z"/>
<path d="M63.312,70.028"/>
<path d="M21.457,0C12.931-0.018,6.027,6.957,6.008,15.55c0.019,8.612,6.923,15.587,15.449,15.601
	c8.508-0.014,15.412-6.989,15.4-15.601C36.869,6.957,29.965-0.018,21.457,0z M14.692,19.64c-2.279-0.021-4.111-1.875-4.09-4.141
	c-0.021-2.298,1.811-4.151,4.09-4.14c2.241-0.012,4.073,1.842,4.09,4.14C18.766,17.765,16.934,19.619,14.692,19.64z"/>
<path d="M14.692,15.499"/>
</svg>
