<?xml version="1.0" encoding="utf-8"?>
<!-- Generator: Adobe Illustrator 14.0.0, SVG Export Plug-In . SVG Version: 6.00 Build 43363)  -->
<!DOCTYPE svg PUBLIC "-//W3C//DTD SVG 1.0//EN" "http://www.w3.org/TR/2001/REC-SVG-20010904/DTD/svg10.dtd">
<svg version="1.0" id="Layer_1" xmlns="http://www.w3.org/2000/svg" xmlns:xlink="http://www.w3.org/1999/xlink" x="0px" y="0px"
	 width="100px" height="69.518px" viewBox="0 0 100 69.518" enable-background="new 0 0 100 69.518" xml:space="preserve">
<path d="M10.187,45.956l-6.436-4.34c0,0,26.712-7.968,43.114-7.968c11.254,0,20.963-3.163,17.224-9.721
	c-3.751-6.559-3.751-24.824,11.241-23.893c0,0,10.322,0,11.254,9.832c0,0-0.821,3.629,12.773,6.448c0,0,2.33,1.397-1.888,3.286
	c0,0-20.619-1.422-18.731,3.739c0,0-0.466,4.475,6.436,7.147c11.83,4.573,23.672,42.416-25.657,38.787
	c0,0-19.333-0.821-34.791-9.733c0,0-17.702-8.066-24.726-9.955L10.187,45.956z"/>
</svg>
