<?xml version="1.0" encoding="utf-8"?>
<!-- Generator: Adobe Illustrator 14.0.0, SVG Export Plug-In . SVG Version: 6.00 Build 43363)  -->
<!DOCTYPE svg PUBLIC "-//W3C//DTD SVG 1.0//EN" "http://www.w3.org/TR/2001/REC-SVG-20010904/DTD/svg10.dtd">
<svg version="1.0" id="Layer_1" xmlns="http://www.w3.org/2000/svg" xmlns:xlink="http://www.w3.org/1999/xlink" x="0px" y="0px"
	 width="100px" height="51.057px" viewBox="0 0 100 51.057" enable-background="new 0 0 100 51.057" xml:space="preserve">
<path id="path3520_1_" d="M17.197,35.056c1.823,0,3.367-1.508,3.367-3.33c0-1.834-1.544-3.342-3.367-3.342
	c-1.809,0-3.366,1.508-3.366,3.342C13.831,33.548,15.389,35.056,17.197,35.056 M0.1,39.98L0.1,39.98C0.05,39.929,0,39.829,0,39.728
	c0-0.188,0.176-0.338,0.364-0.338h10.652c0.516,0,0.93-0.416,0.93-0.932c0-0.401-0.175-0.665-0.565-0.891l-9.636-4.586
	c-0.175-0.101-0.301-0.289-0.301-0.541c0-0.163,0.05-0.313,0.175-0.438c0,0,25.29-22.349,81.309-0.691l15.376-7.5
	c0.15-0.075,0.326-0.126,0.49-0.126c0.665,0,1.206,0.54,1.206,1.206c0,0.213-0.076,0.415-0.176,0.603l-9.07,11.294l9.07,11.256
	c0.1,0.201,0.176,0.402,0.176,0.642c0,0.64-0.541,1.181-1.206,1.181c-0.164,0-0.34-0.051-0.49-0.125l-15.376-7.501
	C82.928,42.241,29.383,63.509,0.1,39.98"/>
<path id="path4828_1_" d="M64.974,0v11.788h29.132c3.246,0,5.895-2.636,5.895-5.895C100,2.624,97.352,0,94.105,0H64.974z"/>
<path id="path4830_1_" d="M10.194,8.469l2.695-1.125l1.677,2.875l2.72-1.965l1.939,2.72l2.601-2.108l2.107,2.575L26.39,9.2
	l2.229,2.456l2.359-2.372l2.371,2.372l2.36-2.372l2.336,2.372l2.372-2.372l2.358,2.372l2.361-2.372l2.359,2.372l2.349-2.372
	l2.358,2.372l2.36-2.372l2.36,2.372l2.348-2.372l2.384,2.372V0.025H0v0.047C2.827,3.461,6.289,6.337,10.194,8.469"/>
</svg>
