<?xml version="1.0" encoding="utf-8"?>
<!-- Generator: Adobe Illustrator 14.0.0, SVG Export Plug-In . SVG Version: 6.00 Build 43363)  -->
<!DOCTYPE svg PUBLIC "-//W3C//DTD SVG 1.0//EN" "http://www.w3.org/TR/2001/REC-SVG-20010904/DTD/svg10.dtd">
<svg version="1.0" id="Layer_1" xmlns="http://www.w3.org/2000/svg" xmlns:xlink="http://www.w3.org/1999/xlink" x="0px" y="0px"
	 width="100px" height="76.334px" viewBox="0 0 100 76.334" enable-background="new 0 0 100 76.334" xml:space="preserve">
<path d="M100,76.334c-2.182,0-4.292-0.486-6.142-1.328c-1.945-0.89-4.103-1.411-6.355-1.411s-4.435,0.521-6.332,1.411
	c-1.896,0.842-3.983,1.328-6.165,1.328s-4.292-0.486-6.165-1.328c-1.921-0.89-4.079-1.411-6.332-1.411
	c-2.276,0-4.435,0.521-6.355,1.411c-1.873,0.842-3.983,1.328-6.165,1.328s-4.292-0.486-6.142-1.328
	c-1.945-0.89-4.103-1.411-6.355-1.411s-4.435,0.521-6.332,1.411c-1.874,0.842-3.984,1.328-6.166,1.328s-4.292-0.486-6.166-1.328
	c-1.921-0.89-4.079-1.411-6.332-1.411s-4.435,0.521-6.355,1.411C4.269,75.848,2.182,76.334,0,76.334v-9.225
	c2.182,0,4.269-0.498,6.142-1.34c1.921-0.89,4.103-1.411,6.355-1.411s4.411,0.521,6.332,1.411c1.874,0.842,3.984,1.34,6.166,1.34
	s4.292-0.498,6.166-1.34c1.897-0.89,4.079-1.411,6.332-1.411s4.411,0.521,6.355,1.411c1.85,0.842,3.96,1.34,6.142,1.34
	s4.292-0.498,6.165-1.34c1.921-0.89,4.079-1.411,6.355-1.411c2.253,0,4.411,0.521,6.332,1.411c1.873,0.842,3.983,1.34,6.165,1.34
	s4.269-0.498,6.165-1.34c1.897-0.89,4.079-1.411,6.332-1.411s4.41,0.521,6.355,1.411c1.85,0.842,3.96,1.34,6.142,1.34V76.334z"/>
<path d="M53.688,37.895l-9.035-21.521l9.13-3.83l-2.348-5.596l-6.13,2.573c0,0-1.221,0.51-3,1.257L37.775,0l-5.596,2.348
	l4.529,10.79c-4.778,2.004-9.77,4.103-9.77,4.103l2.359,5.596l9.758-4.102l9.035,21.508C29.5,48.032,11.383,55.739,12.497,55.739
	c2.253,0,4.411,0.521,6.332,1.41c1.874,0.842,3.984,1.328,6.166,1.328s4.292-0.486,6.166-1.328c1.897-0.889,4.079-1.41,6.332-1.41
	s4.411,0.521,6.355,1.41c1.85,0.842,3.96,1.328,6.142,1.328s4.292-0.486,6.165-1.328c1.921-0.889,4.079-1.41,6.355-1.41
	c2.253,0,4.411,0.521,6.332,1.41c1.873,0.842,3.983,1.328,6.165,1.328c0.616,0,1.21-0.13,1.802-0.201
	c1.115-0.237,2.229-0.344,3.297-0.771c0.023-0.012,0.047-0.023,0.071-0.035c1.968-11.086,6.545-33.282,6.545-33.282
	S70.785,30.756,53.688,37.895z"/>
</svg>
