<?xml version="1.0" encoding="utf-8"?>
<!-- Generator: Adobe Illustrator 14.0.0, SVG Export Plug-In . SVG Version: 6.00 Build 43363)  -->
<!DOCTYPE svg PUBLIC "-//W3C//DTD SVG 1.0//EN" "http://www.w3.org/TR/2001/REC-SVG-20010904/DTD/svg10.dtd">
<svg version="1.0" id="Layer_1" xmlns="http://www.w3.org/2000/svg" xmlns:xlink="http://www.w3.org/1999/xlink" x="0px" y="0px"
	 width="96.466px" height="100.003px" viewBox="0 0 96.466 100.003" enable-background="new 0 0 96.466 100.003"
	 xml:space="preserve">
<path d="M96.466,100.003c-2.114,0-4.132-0.48-5.934-1.297c-1.873-0.865-3.963-1.369-6.124-1.369c-2.187,0-4.275,0.504-6.125,1.369
	c-1.802,0.816-3.843,1.297-5.933,1.297c-2.113,0-4.155-0.48-5.957-1.297c-1.85-0.865-3.939-1.369-6.125-1.369
	c-2.161,0-4.251,0.504-6.101,1.369c-1.802,0.816-3.837,1.297-5.95,1.297c-2.114,0-4.132-0.48-5.933-1.297
	c-1.849-0.865-3.939-1.369-6.125-1.369c-2.162,0-4.251,0.504-6.125,1.369c-1.802,0.816-3.819,1.297-5.921,1.297
	c-2.113,0-4.131-0.48-5.933-1.297c-1.85-0.865-3.939-1.369-6.125-1.369c-2.161,0-4.251,0.504-6.125,1.369
	c-1.801,0.816-3.819,1.297-5.933,1.297v-8.911c2.114,0,4.131-0.48,5.933-1.297c1.874-0.841,3.963-1.346,6.125-1.346
	c2.186,0,4.275,0.505,6.125,1.346c1.802,0.816,3.819,1.297,5.933,1.297c2.102,0,4.119-0.48,5.921-1.297
	c1.874-0.841,3.963-1.346,6.125-1.346c2.186,0,4.275,0.505,6.125,1.346c1.801,0.816,3.819,1.297,5.933,1.297
	c2.113,0,4.148-0.48,5.95-1.297c1.85-0.841,3.939-1.346,6.101-1.346c2.186,0,4.275,0.505,6.125,1.346
	c1.802,0.816,3.844,1.297,5.957,1.297c2.09,0,4.131-0.48,5.933-1.297c1.85-0.841,3.938-1.346,6.125-1.346
	c2.161,0,4.251,0.505,6.124,1.346c1.802,0.816,3.819,1.297,5.934,1.297V100.003z"/>
<path d="M57.507,81.605c0.912-0.192,1.825-0.289,2.762-0.289c2.186,0,4.275,0.505,6.125,1.346c1.802,0.816,3.844,1.297,5.957,1.297
	c2.09,0,4.131-0.48,5.933-1.297c1.272-0.576,2.642-1.033,4.107-1.226C81.598,57.538,56.667,36.208,55.49,35.104
	c-1.225-1.105-2.354-3.531-1.562-6.389l5.957-19.696c1.057-3.05,0.528-7.133-0.937-8.358c-0.841-0.672-2.618-1.153-3.819,0.216
	L39.019,19.155c-3.531,3.747-0.577,7.758-0.648,7.734c-5.476-1.969-11.914-0.648-15.816,0.961L9.248,34.6
	c-1.321,0.552-1.898,2.234-1.201,3.363c2.21,3.53,9.535,3.555,24.799,1.897C57.507,37.217,57.531,76.729,57.507,81.605z"/>
</svg>
