<?xml version="1.0" encoding="utf-8"?>
<!-- Generator: Adobe Illustrator 14.0.0, SVG Export Plug-In . SVG Version: 6.00 Build 43363)  -->
<!DOCTYPE svg PUBLIC "-//W3C//DTD SVG 1.0//EN" "http://www.w3.org/TR/2001/REC-SVG-20010904/DTD/svg10.dtd">
<svg version="1.0" id="Layer_1" xmlns="http://www.w3.org/2000/svg" xmlns:xlink="http://www.w3.org/1999/xlink" x="0px" y="0px"
	 width="86.754px" height="100px" viewBox="0 0 86.754 100" enable-background="new 0 0 86.754 100" xml:space="preserve">
<path d="M39.348,49.246"/>
<path d="M39.348,49.246"/>
<path d="M39.348,49.246"/>
<path d="M37.698,27.511h2.168c12.117,0.023,19.072,11.562,19.119,19.377c-0.047,1.521-0.425,2.829-2.146,2.793
	c-3.63,0.036-2.334-5.811-5.327-10.773c-1.415-2.452-5.965-6.884-11.151-6.848h-1.909c-2.782-0.036-8.015,1.567-11.528,6.848
	c-4.385,6.376-1.509,11.044-5.186,11.021c-0.566,0.024-2.192-0.141-2.169-2.782C19.734,35.16,30.72,27.534,37.698,27.511
	L37.698,27.511z"/>
<path d="M39.348,93.788c4.55,0.047,8.062-4.562,8.11-7.732v-6.589c-0.048-13.495,14.12-18.812,14.073-32.319
	C61.578,34.5,50.145,24.941,39.348,24.965c-8.958-0.024-15.063,5.752-17.374,8.746c-6.931,8.569-2.947,16.737-7.85,16.737
	c-1.391,0-2.758-0.79-2.782-3.56C11.13,33.486,22.186,19.283,39.607,19.26c14.05,0.023,27.864,11.221,27.864,28.395
	c0,15.912-13.932,19.236-13.932,33.204v5.964c0,6.129-5.47,13.143-14.451,13.178c-0.33-0.095-0.707-0.212-1.131-0.259
	c-1.65-0.496-2.805-2.229-2.405-3.926c0.472-1.473,1.839-1.839,3.678-2.027H39.348L39.348,93.788z"/>
<polygon points="27.702,70.532 24.167,74.081 14.43,64.475 17.966,60.927 "/>
<path d="M27.514,58.298c-0.047-1.544,1.202-2.805,2.688-2.853c1.626,0.048,2.876,1.309,2.853,2.853
	c0.023,1.556-1.226,2.806-2.853,2.853C28.716,61.104,27.467,59.854,27.514,58.298L27.514,58.298z"/>
<path d="M36.496,49.316c0.023-1.603,1.273-2.864,2.852-2.853c1.532-0.012,2.782,1.25,2.853,2.853
	c-0.071,1.485-1.32,2.746-2.853,2.688C37.769,52.062,36.519,50.802,36.496,49.316L36.496,49.316z"/>
<path d="M0.003,85.785c-0.07-1.509,1.203-2.771,2.711-2.688c1.579-0.083,2.829,1.179,2.852,2.688
	c-0.023,1.591-1.273,2.841-2.852,2.853C1.206,88.626-0.067,87.364,0.003,85.785L0.003,85.785z"/>
<path d="M9.008,76.804c0-1.58,1.25-2.841,2.853-2.853c1.485,0.023,2.758,1.272,2.688,2.853c0.07,1.521-1.203,2.77-2.688,2.852
	C10.258,79.573,9.008,78.324,9.008,76.804L9.008,76.804z"/>
<path fill-rule="evenodd" clip-rule="evenodd" d="M47.575,13.814c11.999,3.041,21.617,12.117,25.366,23.833l4.432-1.403
	C73.082,23.043,62.379,12.789,48.848,9.382l-1.273,4.562V13.814L47.575,13.814z"/>
<path fill-rule="evenodd" clip-rule="evenodd" d="M50.003,4.562L51.252,0c16.761,4.208,30.175,16.855,35.502,33.204l-4.69,1.521
	C77.254,19.967,65.114,8.451,50.003,4.562L50.003,4.562z"/>
</svg>
