<?xml version="1.0" encoding="utf-8"?>
<!-- Generator: Adobe Illustrator 14.0.0, SVG Export Plug-In . SVG Version: 6.00 Build 43363)  -->
<!DOCTYPE svg PUBLIC "-//W3C//DTD SVG 1.0//EN" "http://www.w3.org/TR/2001/REC-SVG-20010904/DTD/svg10.dtd">
<svg version="1.0" id="Layer_1" xmlns="http://www.w3.org/2000/svg" xmlns:xlink="http://www.w3.org/1999/xlink" x="0px" y="0px"
	 width="68.102px" height="100px" viewBox="0 0 68.102 100" enable-background="new 0 0 68.102 100" xml:space="preserve">
<path fill-rule="evenodd" clip-rule="evenodd" d="M54.661,63.82l0.627,0.893C71.987,46.093,72.931,17.302,54.767,0l-0.359,0.342
	l-24.31,29.656H0.763v5.344l15.246,1.78l1.782,18.389L0,100l8.641-0.584L27.962,65l19.067,34.416L55.172,100L37.876,55.511
	l0.977-10.097L54.661,63.82L54.661,63.82L54.661,63.82z M55.556,62.039L38.952,42.274l0.709-5.152l24.15-1.78
	C62.813,45.169,60.381,54.428,55.556,62.039L55.556,62.039L55.556,62.039z M32.739,29.873l22.59-27.208
	c5.318,7.082,7.985,16.923,8.482,27.334L32.739,29.873L32.739,29.873L32.739,29.873z"/>
<path fill-rule="evenodd" clip-rule="evenodd" d="M23.896,13.392c3.707,0,6.733,3.025,6.733,6.73c0,3.702-3.026,6.728-6.733,6.728
	c-3.702,0-6.729-3.026-6.729-6.728C17.167,16.417,20.193,13.392,23.896,13.392L23.896,13.392L23.896,13.392z"/>
</svg>
