<?xml version="1.0" encoding="utf-8"?>
<!-- Generator: Adobe Illustrator 14.0.0, SVG Export Plug-In . SVG Version: 6.00 Build 43363)  -->
<!DOCTYPE svg PUBLIC "-//W3C//DTD SVG 1.0//EN" "http://www.w3.org/TR/2001/REC-SVG-20010904/DTD/svg10.dtd">
<svg version="1.0" id="Layer_1" xmlns="http://www.w3.org/2000/svg" xmlns:xlink="http://www.w3.org/1999/xlink" x="0px" y="0px"
	 width="100px" height="91.541px" viewBox="0 0 100 91.541" enable-background="new 0 0 100 91.541" xml:space="preserve">
<path d="M15.77,51.826"/>
<path d="M90.97,37.167L82.745,16.14c-1.518-3.969-4.869-7.378-11.193-7.359H59.987V3.279C59.963,1.092,58.774-0.019,56.833,0h-6.803
	h-6.678c-1.962-0.019-3.151,1.092-3.154,3.279v5.502h-11.75c-6.294-0.019-9.644,3.39-11.193,7.359L9.029,37.167
	c-3.239,0.39-9,4.172-9.029,11.319V75.2h8.038v8.535c-0.021,10.469,14.985,10.346,14.968,0V75.2h27.024h26.963v8.535
	c0.018,10.346,15.025,10.469,15.029,0V75.2H100V48.486C100.006,41.339,94.239,37.557,90.97,37.167z M15.77,58.875
	c-3.839-0.001-6.944-3.166-6.927-7.049c-0.018-3.933,3.087-7.1,6.927-7.113c3.816,0.014,6.919,3.181,6.926,7.113
	C22.689,55.709,19.586,58.874,15.77,58.875z M50.029,36.674h-0.062H17.563l6.183-16.266c0.758-2.31,1.918-3.984,4.639-4.02h21.583
	h0.062h21.645c2.69,0.036,3.85,1.71,4.639,4.02l6.185,16.266H50.029z M84.291,58.875c-3.848-0.001-6.953-3.166-6.928-7.049
	c-0.025-3.933,3.08-7.1,6.928-7.113c3.809,0.014,6.91,3.181,6.929,7.113C91.201,55.709,88.099,58.874,84.291,58.875z"/>
<path d="M84.291,51.826"/>
</svg>
