<?xml version="1.0" encoding="utf-8"?>
<!-- Generator: Adobe Illustrator 14.0.0, SVG Export Plug-In . SVG Version: 6.00 Build 43363)  -->
<!DOCTYPE svg PUBLIC "-//W3C//DTD SVG 1.0//EN" "http://www.w3.org/TR/2001/REC-SVG-20010904/DTD/svg10.dtd">
<svg version="1.0" id="Layer_1" xmlns="http://www.w3.org/2000/svg" xmlns:xlink="http://www.w3.org/1999/xlink" x="0px" y="0px"
	 width="84.173px" height="100px" viewBox="0 0 84.173 100" enable-background="new 0 0 84.173 100" xml:space="preserve">
<path id="path3900_1_" d="M58.746,20.289v5.855c0,1.639,1.318,2.971,2.939,2.971h17.211c1.635,0,2.941-1.332,2.941-2.971v-5.855
	H58.746z"/>
<path id="path3904_1_" d="M81.815,39.258h-8.808c-1.317,0-2.357,1.062-2.357,2.37v6.508c0,1.321,1.04,2.371,2.357,2.371h8.808
	c1.318,0,2.357-1.05,2.357-2.371v-6.508C84.173,40.32,83.134,39.258,81.815,39.258"/>
<path id="path3908_1_" d="M81.815,72.873h-8.808c-1.317,0-2.357,1.051-2.357,2.382v6.497c0,1.308,1.04,2.384,2.357,2.384h8.808
	c1.318,0,2.357-1.076,2.357-2.384v-6.497C84.173,73.923,83.134,72.873,81.815,72.873"/>
<path id="path3912_1_" d="M72.435,88.762H11.271c-1.292,0-2.357,1.051-2.357,2.356v6.522c0,1.306,1.065,2.358,2.357,2.358h61.164
	c1.292,0,2.332-1.053,2.332-2.358v-6.522C74.767,89.813,73.727,88.762,72.435,88.762"/>
<path id="path3916_1_" d="M13.521,81.755v-6.509c0-1.32-1.064-2.37-2.357-2.37H2.329c-1.28,0-2.319,1.05-2.319,2.37v6.509
	c0,1.306,1.04,2.383,2.319,2.383h8.834C12.456,84.138,13.521,83.061,13.521,81.755"/>
<path id="path3920_1_" d="M2.332,50.505h8.834c1.292,0,2.357-1.051,2.357-2.37v-6.508c0-1.309-1.064-2.371-2.357-2.371H2.332
	C1.04,39.257,0,40.319,0,41.628v6.508C0,49.455,1.04,50.505,2.332,50.505"/>
<path id="path3924_1_" d="M4.314,29.124h17.198c1.634,0,2.952-1.334,2.952-2.973v-5.854H1.373v5.854
	C1.373,27.79,2.678,29.124,4.314,29.124"/>
<path id="path3928_1_" d="M64.166,39.258h-8.833c-1.293,0-2.332,1.062-2.332,2.37v6.508c0,1.321,1.039,2.371,2.332,2.371h8.833
	c1.292,0,2.333-1.05,2.333-2.371v-6.508C66.499,40.32,65.458,39.258,64.166,39.258"/>
<path id="path3932_1_" d="M75.43,65.015v-6.509c0-1.295-1.065-2.371-2.357-2.371h-8.833c-1.281,0-2.319,1.076-2.319,2.371v6.509
	c0,1.332,1.038,2.383,2.319,2.383h8.833C74.364,67.398,75.43,66.347,75.43,65.015"/>
<path id="path3936_1_" d="M55.329,84.134h8.834c1.293,0,2.333-1.078,2.333-2.384v-6.496c0-1.333-1.04-2.384-2.333-2.384h-8.834
	c-1.292,0-2.331,1.051-2.331,2.384v6.496C52.998,83.056,54.037,84.134,55.329,84.134"/>
<path id="path3940_1_" d="M57.755,65.015v-6.509c0-1.295-1.038-2.371-2.332-2.371H46.59c-1.28,0-2.345,1.076-2.345,2.371v6.509
	c0,1.332,1.064,2.383,2.345,2.383h8.833C56.717,67.398,57.755,66.347,57.755,65.015"/>
<path id="path3944_1_" d="M37.68,84.134h8.809c1.292,0,2.356-1.078,2.356-2.384v-6.496c0-1.333-1.064-2.384-2.356-2.384H37.68
	c-1.317,0-2.357,1.051-2.357,2.384v6.496C35.323,83.056,36.363,84.134,37.68,84.134"/>
<path id="path3948_1_" d="M46.493,50.505c1.293,0,2.356-1.051,2.356-2.37v-6.508c0-1.309-1.063-2.371-2.356-2.371h-8.808
	c-1.319,0-2.358,1.062-2.358,2.371v6.508c0,1.319,1.039,2.37,2.358,2.37H46.493z"/>
<path id="path3952_1_" d="M40.106,65.015v-6.509c0-1.295-1.064-2.371-2.357-2.371h-8.833c-1.281,0-2.32,1.076-2.32,2.371v6.509
	c0,1.332,1.04,2.383,2.32,2.383h8.833C39.042,67.398,40.106,66.347,40.106,65.015"/>
<path id="path3956_1_" d="M20.13,84.134h8.833c1.292,0,2.357-1.078,2.357-2.384v-6.496c0-1.333-1.065-2.384-2.357-2.384H20.13
	c-1.293,0-2.333,1.051-2.333,2.384v6.496C17.798,83.056,18.837,84.134,20.13,84.134"/>
<path id="path3960_1_" d="M28.843,50.505c1.292,0,2.332-1.051,2.332-2.37v-6.508c0-1.309-1.04-2.371-2.332-2.371H20.01
	c-1.294,0-2.333,1.062-2.333,2.371v6.508c0,1.319,1.039,2.37,2.333,2.37H28.843z"/>
<path id="path3964_1_" d="M8.917,58.508v6.51c0,1.318,1.065,2.37,2.358,2.37h8.832c1.281,0,2.32-1.052,2.32-2.37v-6.51
	c0-1.308-1.039-2.382-2.32-2.382h-8.832C9.982,56.126,8.917,57.201,8.917,58.508"/>
<path id="path3968_1_" d="M24.462,17.961c0-1.69,1.406-4.599,17.159-4.649c15.716-0.051,17.123,2.959,17.123,4.649v0.488h23.092
	v-0.616C81.836,14.796,76.424,0,41.621,0C6.782,0,1.37,14.796,1.37,17.833v0.616h23.092V17.961z"/>
</svg>
