<?xml version="1.0" encoding="utf-8"?>
<!-- Generator: Adobe Illustrator 14.0.0, SVG Export Plug-In . SVG Version: 6.00 Build 43363)  -->
<!DOCTYPE svg PUBLIC "-//W3C//DTD SVG 1.0//EN" "http://www.w3.org/TR/2001/REC-SVG-20010904/DTD/svg10.dtd">
<svg version="1.0" id="Layer_1" xmlns="http://www.w3.org/2000/svg" xmlns:xlink="http://www.w3.org/1999/xlink" x="0px" y="0px"
	 width="86.735px" height="100px" viewBox="0 0 86.735 100" enable-background="new 0 0 86.735 100" xml:space="preserve">
<g>
	<path d="M61.075,65.383c0.002,0.146,0.011,0.288,0.011,0.434c0,14.833-12.068,26.901-26.902,26.901
		c-14.833,0-26.902-12.068-26.902-26.901c0-8.966,4.413-16.916,11.176-21.807l-0.915-8.038C7.087,41.825,0,53.006,0,65.816
		C0,84.666,15.334,100,34.184,100c15.979,0,29.427-11.021,33.154-25.859L61.075,65.383z"/>
</g>
<circle cx="29.795" cy="8.698" r="8.698"/>
<path d="M85.867,76.098L66.35,48.807c-1.022-1.429-2.726-2.105-4.457-1.957c-0.129-0.012-0.258-0.023-0.389-0.023H39.209
	l-0.553-4.854h16.572c1.927,0,3.489-1.562,3.489-3.489s-1.562-3.489-3.489-3.489H37.862l-0.907-7.97
	c-0.53-4.662-4.74-8.011-9.401-7.48c-4.662,0.531-8.011,4.74-7.48,9.401l2.562,22.509c0.496,4.353,4.196,7.557,8.478,7.533
	c0.014,0,0.028,0.003,0.043,0.003h29.172l16.738,23.403c1.598,2.237,4.866,2.641,7.297,0.901
	C86.793,81.557,87.467,78.334,85.867,76.098z"/>
</svg>
