<?xml version="1.0" encoding="utf-8"?>
<!-- Generator: Adobe Illustrator 14.0.0, SVG Export Plug-In . SVG Version: 6.00 Build 43363)  -->
<!DOCTYPE svg PUBLIC "-//W3C//DTD SVG 1.0//EN" "http://www.w3.org/TR/2001/REC-SVG-20010904/DTD/svg10.dtd">
<svg version="1.0" id="Layer_1" xmlns="http://www.w3.org/2000/svg" xmlns:xlink="http://www.w3.org/1999/xlink" x="0px" y="0px"
	 width="93.967px" height="100px" viewBox="0 0 93.967 100" enable-background="new 0 0 93.967 100" xml:space="preserve">
<path d="M86.864,43.933l-4.645-0.871l-2.717,5.362c0.447,0.106,0.894,0.141,1.364,0.141C83.771,48.565,86.194,46.613,86.864,43.933
	 M65.156,46.531l17.805-18.427l-0.541,4.798l8.771,5.856c1.459,0.799,1.977,2.681,1.141,4.139c-0.623,1.152-1.939,1.717-3.163,1.481
	l-0.706-0.141c-0.846,3.41-3.927,5.926-7.596,5.926c-0.729,0-1.411-0.094-2.07-0.282l-6.643,13.593L72.13,82.079
	c0,1.623-1.306,2.916-2.893,2.916c-1.599,0-2.904-1.293-2.904-2.916v-19.05H51.682l-2.611,4.492l5.457,13.1
	c0.787,1.388,0.328,3.151-1.082,3.951c-1.377,0.776-3.152,0.306-3.928-1.082l-6.409-15.122v-4.786l-2.881,4.516v13.981
	c0,1.623-1.294,2.916-2.917,2.916c-1.599,0-2.893-1.293-2.893-2.916V65.922l2.399-3.739V49.459l-2.399,3.646v10.583h-4.562v-10.7
	c0-3.552,2.869-6.456,6.444-6.456H65.156z"/>
<polygon points="9.441,41.345 0,44.943 0,35.795 93.967,0 93.967,9.125 18.18,37.994 18.215,91.228 93.967,91.228 93.967,100 
	9.441,100 "/>
</svg>
