<?xml version="1.0" encoding="utf-8"?>
<!-- Generator: Adobe Illustrator 14.0.0, SVG Export Plug-In . SVG Version: 6.00 Build 43363)  -->
<!DOCTYPE svg PUBLIC "-//W3C//DTD SVG 1.0//EN" "http://www.w3.org/TR/2001/REC-SVG-20010904/DTD/svg10.dtd">
<svg version="1.0" id="Layer_1" xmlns="http://www.w3.org/2000/svg" xmlns:xlink="http://www.w3.org/1999/xlink" x="0px" y="0px"
	 width="95.856px" height="100px" viewBox="0 0 95.856 100" enable-background="new 0 0 95.856 100" xml:space="preserve">
<path d="M47.88,12.214c3.346,0,6.101-2.73,6.101-6.089C53.981,2.73,51.226,0,47.88,0c-3.371,0-6.102,2.73-6.102,6.125
	C41.779,9.484,44.509,12.214,47.88,12.214"/>
<path d="M57.629,14.184H38.033c-4.324,0-7.805,3.54-7.805,7.938V36.74c0,3.637,4.809,3.637,4.809,0V22.629h4.99v17.784
	c2.549,0.616,5.158,1.075,7.913,1.075c2.73,0,5.315-0.459,7.853-1.051V22.629h4.954V36.74c0,3.661,4.809,3.661,4.809,0V22.206
	C65.555,18.183,62.39,14.184,57.629,14.184"/>
<path d="M70.992,46.116c-6.572,4.506-14.57,7.152-23.148,7.152c-8.529,0-16.432-2.609-23.027-7.031l-5.171,7.684
	c8.046,5.461,17.76,8.626,28.198,8.626c10.512,0,20.273-3.201,28.344-8.698L70.992,46.116z"/>
<path d="M80.875,61.966c-9.399,6.404-20.756,10.125-32.982,10.125c-12.179,0-23.487-3.686-32.862-10.016l-5.22,7.527
	c10.85,7.369,23.971,11.67,38.082,11.67c14.135,0,27.256-4.325,38.154-11.694L80.875,61.966z"/>
<path d="M90.685,77.685c-12.227,8.3-26.942,13.133-42.817,13.133c-15.851,0-30.567-4.833-42.769-13.097L0,85.357
	C13.64,94.599,30.132,100,47.868,100c17.76,0,34.288-5.437,47.988-14.739L90.685,77.685z"/>
</svg>
