<?xml version="1.0" encoding="utf-8"?>
<!-- Generator: Adobe Illustrator 14.0.0, SVG Export Plug-In . SVG Version: 6.00 Build 43363)  -->
<!DOCTYPE svg PUBLIC "-//W3C//DTD SVG 1.0//EN" "http://www.w3.org/TR/2001/REC-SVG-20010904/DTD/svg10.dtd">
<svg version="1.0" id="Layer_1" xmlns="http://www.w3.org/2000/svg" xmlns:xlink="http://www.w3.org/1999/xlink" x="0px" y="0px"
	 width="99.997px" height="93.15px" viewBox="0 0 99.997 93.15" enable-background="new 0 0 99.997 93.15" xml:space="preserve">
<path d="M71.046,17.12c3.911,0,7.078-3.167,7.078-7.078c0-3.889-3.167-7.055-7.078-7.055c-3.889,0-7.055,3.166-7.055,7.055
	C63.992,13.954,67.158,17.12,71.046,17.12z"/>
<path d="M76.308,18.704H65.994L48.415,1.125c-1.374-1.443-3.655-1.513-5.099-0.116c-1.444,1.374-1.514,3.655-0.14,5.099
	l18.37,18.394v60.955c0,2.212,1.77,3.981,3.958,3.981c2.212,0,3.981-1.77,3.981-3.981V52.394h3.213l0.023,33.062
	c0,2.212,1.793,3.981,3.981,3.981s3.958-1.77,3.958-3.981l-0.023-60.955L99.009,6.107c1.373-1.444,1.303-3.725-0.141-5.099
	c-1.443-1.397-3.725-1.327-5.099,0.116L76.308,18.704z"/>
<path d="M38.938,45.595c-1.071-1.094-2.538-1.746-4.167-1.746H19.975c-1.63,0-3.097,0.652-4.145,1.746L0.999,60.427
	c-1.374,1.443-1.327,3.725,0.116,5.099s3.749,1.327,5.099-0.116l11.501-11.502v15.366H4.817c-2.375,0-4.284,1.909-4.284,4.284
	c0,1.234,0.466,2.328,1.304,3.12l14.529,14.528c1.28,1.887,3.795,2.491,5.797,1.327c2.119-1.21,2.817-3.888,1.606-5.983
	l-8.289-8.266l0.163,0.023h23.807l-8.312,8.266c-1.188,2.096-0.489,4.772,1.606,5.983c2.002,1.164,4.541,0.559,5.821-1.327
	l14.529-14.528c0.838-0.792,1.303-1.886,1.303-3.12c0-2.375-1.908-4.284-4.284-4.284H37.239V54.093l11.292,11.339
	c1.374,1.444,3.656,1.49,5.099,0.116c1.443-1.373,1.49-3.654,0.116-5.099L38.938,45.595z"/>
<path d="M27.518,42.335c3.9,0,7.043-3.166,7.043-7.055c0-3.911-3.144-7.055-7.043-7.055c-3.888,0-7.055,3.144-7.055,7.055
	C20.463,39.169,23.63,42.335,27.518,42.335z"/>
</svg>
