<?xml version="1.0" encoding="utf-8"?>
<!-- Generator: Adobe Illustrator 14.0.0, SVG Export Plug-In . SVG Version: 6.00 Build 43363)  -->
<!DOCTYPE svg PUBLIC "-//W3C//DTD SVG 1.0//EN" "http://www.w3.org/TR/2001/REC-SVG-20010904/DTD/svg10.dtd">
<svg version="1.0" id="Layer_1" xmlns="http://www.w3.org/2000/svg" xmlns:xlink="http://www.w3.org/1999/xlink" x="0px" y="0px"
	 width="71.602px" height="100px" viewBox="0 0 71.602 100" enable-background="new 0 0 71.602 100" xml:space="preserve">
<path d="M20.686,40.871h5.951c1.69,0,3.047-1.345,3.047-3.023V20.114c0-1.678-1.357-3.035-3.047-3.035h-5.951V40.871z"/>
<path d="M20.686,76.208h5.951c1.69,0,3.047,1.357,3.047,3.035v17.733c0,1.667-1.357,3.023-3.047,3.023h-5.951V76.208z"/>
<path d="M13.568,58.546c-0.048-16.211,2.999-17.663,4.737-17.663c0.19,0,0.31,0,0.5,0V17.091c0,0-0.452,0-0.619,0
	C15.092,17.091,0,22.673,0,58.546C0,94.418,15.092,100,18.187,100c0.167,0,0.619,0,0.619,0V76.208c-0.19,0-0.31,0-0.5,0
	C16.567,76.208,13.616,74.744,13.568,58.546z"/>
<path d="M34.016,23.899c1.024,1.226,1.571,2.772,1.571,4.368c0,1.595-0.547,3.142-1.571,4.368l3.356,2.762
	c1.643-2,2.548-4.535,2.548-7.129c0-2.595-0.905-5.129-2.548-7.129L34.016,23.899z"/>
<path d="M44.799,43.358c3.666-4.011,5.689-9.212,5.689-14.651c0-5.416-2-10.617-5.666-14.616l-3.262,2.845
	c2.952,3.213,4.595,7.391,4.595,11.771c0,4.392-1.643,8.582-4.642,11.807L44.799,43.358z"/>
<path d="M41.538,41.216L41.538,41.216L41.538,41.216L41.538,41.216L41.538,41.216z M41.514,41.216L41.514,41.216L41.514,41.216
	L41.514,41.216L41.514,41.216L41.514,41.216L41.514,41.216L41.514,41.216L41.514,41.216L41.514,41.216L41.514,41.216L41.514,41.216
	L41.514,41.216L41.514,41.216L41.514,41.216L41.514,41.216L41.514,41.216L41.514,41.216L41.514,41.216L41.514,41.216z
	 M41.514,41.216L41.514,41.216L41.514,41.216L41.514,41.216L41.514,41.216L41.514,41.216L41.514,41.216L41.514,41.216L41.514,41.216
	L41.514,41.216L41.514,41.216z M41.514,41.216L41.514,41.216L41.514,41.216L41.514,41.216L41.514,41.216L41.514,41.216
	L41.514,41.216z M41.538,41.216L41.538,41.216L41.538,41.216L41.538,41.216L41.538,41.216z"/>
<path d="M52.225,51.321c5.689-6.011,8.832-13.89,8.832-22.162c0-8.248-3.118-16.103-8.76-22.114l-3.214,2.928
	c4.903,5.201,7.617,12.021,7.617,19.186c0,7.189-2.714,14.021-7.665,19.234L52.225,51.321z"/>
<path d="M49.036,48.084L49.036,48.084L49.036,48.084L49.036,48.084L49.036,48.084z M49.036,48.084L49.036,48.084L49.036,48.084
	L49.036,48.084L49.036,48.084L49.036,48.084L49.036,48.084L49.036,48.084L49.036,48.084L49.036,48.084L49.036,48.084L49.036,48.084
	L49.036,48.084L49.036,48.084L49.036,48.084L49.036,48.084L49.036,48.084L49.036,48.084L49.036,48.084L49.036,48.084z
	 M49.036,48.084L49.036,48.084L49.036,48.084L49.036,48.084L49.036,48.084L49.036,48.084L49.036,48.084L49.036,48.084L49.036,48.084
	L49.036,48.084L49.036,48.084z M49.036,48.084L49.036,48.084L49.036,48.084L49.036,48.084L49.036,48.084L49.036,48.084
	L49.036,48.084z M49.036,48.084L49.036,48.084L49.036,48.084L49.036,48.084L49.036,48.084z"/>
<path d="M59.676,59.283c7.689-8.021,11.926-18.566,11.926-29.683c0-11.081-4.213-21.59-11.854-29.6l-3.143,2.999
	C63.485,10.2,67.27,19.65,67.27,29.6c0,9.998-3.809,19.471-10.736,26.672L59.676,59.283z"/>
<path d="M56.534,54.939L56.534,54.939L56.534,54.939L56.534,54.939L56.534,54.939z M56.534,54.939L56.534,54.939L56.534,54.939
	L56.534,54.939L56.534,54.939L56.534,54.939L56.534,54.939L56.534,54.939L56.534,54.939L56.534,54.939L56.534,54.939L56.534,54.939
	L56.534,54.939L56.534,54.939L56.534,54.939L56.534,54.939L56.534,54.939L56.534,54.939L56.534,54.939L56.534,54.939z
	 M56.534,54.939L56.534,54.939L56.534,54.939L56.534,54.939L56.534,54.939L56.534,54.939L56.534,54.939L56.534,54.939L56.534,54.939
	L56.534,54.939L56.534,54.939z M56.534,54.939L56.534,54.939L56.534,54.939L56.534,54.939L56.534,54.939L56.534,54.939
	L56.534,54.939z M56.534,54.939L56.534,54.939L56.534,54.939L56.534,54.939L56.534,54.939z"/>
</svg>
