<?xml version="1.0" encoding="utf-8"?>
<!-- Generator: Adobe Illustrator 14.0.0, SVG Export Plug-In . SVG Version: 6.00 Build 43363)  -->
<!DOCTYPE svg PUBLIC "-//W3C//DTD SVG 1.0//EN" "http://www.w3.org/TR/2001/REC-SVG-20010904/DTD/svg10.dtd">
<svg version="1.0" id="Layer_1" xmlns="http://www.w3.org/2000/svg" xmlns:xlink="http://www.w3.org/1999/xlink" x="0px" y="0px"
	 width="100px" height="87.381px" viewBox="0 0 100 87.381" enable-background="new 0 0 100 87.381" xml:space="preserve">
<path d="M49.409,20.313c1.683,0,3.025-1.359,3.025-3.048v-5.01c0-1.678-1.343-3.014-3.025-3.014H26.706
	c-1.672,0-3.025,1.336-3.025,3.014v5.01c0,1.689,1.354,3.048,3.025,3.048H49.409z M79.391,20.291c1.684,0,3.025-1.365,3.025-3.048
	v-4.988c0-1.678-1.342-3.014-3.025-3.014H68.903c-1.648,0-3.002,1.336-3.002,3.014v4.988c0,1.683,1.354,3.048,3.002,3.048H79.391z
	 M39.24,44.228H23.249c-5.96,0-10.783-4.822-10.783-10.788l-0.022-18.807C12.443,6.551,18.995,0,27.059,0h49.716
	c8.075,0,14.627,6.551,14.627,14.633l0.022,26.563h5.528c1.66,0,2.979,1.342,2.979,3.031h-35.35
	c-0.387-6.057-6.529-10.856-12.671-10.856S39.627,38.171,39.24,44.228"/>
<path d="M52.161,49.818c1.99,0,3.617-1.621,3.617-3.601c0-1.99-1.627-3.611-3.617-3.611s-3.617,1.621-3.617,3.611
	C48.544,48.197,50.171,49.818,52.161,49.818 M100,54.345l-0.045,29.169c0,2.104-1.718,3.867-3.867,3.867H3.867
	C1.729,87.381,0,85.618,0,83.514V54.419h20.337v4.901l-13.74,0.023c-0.705,0-1.273,0.5-1.387,1.172v19.358
	c0,1.479,1.183,2.639,2.639,2.639h40.628c1.455,0,2.57-1.16,2.57-2.639l0.022-19.131c0-0.773-0.637-1.398-1.399-1.398L34.327,59.32
	v-4.976h16.06c-3.73-0.825-6.551-4.146-6.551-8.127c0-4.589,3.73-8.314,8.325-8.314s8.314,3.726,8.314,8.314
	c0,3.981-2.786,7.302-6.54,8.127H100z"/>
<path d="M25.569,48.697h3.503v18.825h4.004c0,0,1.296,0.273,0.887,1.684l-5.505,6.699c0,0-0.364,0.58-1.058,0.58
	c-0.694,0-1.081-0.58-1.081-0.58l-5.63-6.699c-0.433-1.41,0.887-1.684,0.887-1.684h3.993V48.697z"/>
</svg>
