<?xml version="1.0" encoding="utf-8"?>
<!-- Generator: Adobe Illustrator 14.0.0, SVG Export Plug-In . SVG Version: 6.00 Build 43363)  -->
<!DOCTYPE svg PUBLIC "-//W3C//DTD SVG 1.0//EN" "http://www.w3.org/TR/2001/REC-SVG-20010904/DTD/svg10.dtd">
<svg version="1.0" id="Layer_1" xmlns="http://www.w3.org/2000/svg" xmlns:xlink="http://www.w3.org/1999/xlink" x="0px" y="0px"
	 width="49.583px" height="63.261px" viewBox="0 0 49.583 63.261" enable-background="new 0 0 49.583 63.261" xml:space="preserve">
<path id="path4896" d="M35.927,4.326c-0.552-0.08-0.983-0.565-0.983-1.141c0-0.436,0.248-0.8,0.592-1.011
	c-0.36-0.201-0.592-0.582-0.592-1.011C34.943,0.517,35.455,0,36.096,0h5.719c0.641,0,1.152,0.517,1.152,1.164
	c0,0.444-0.248,0.824-0.623,1.011c0.359,0.194,0.623,0.575,0.623,1.011c0,0.575-0.432,1.061-0.983,1.141l6.943,18.982
	c0.433,1.229,0.656,2.604,0.656,3.979v33.652c0,1.262-1.017,2.288-2.288,2.288H30.6c-1.257,0-2.272-1.026-2.272-2.288V27.287
	c0-1.375,0.224-2.75,0.64-3.979L35.927,4.326z"/>
<path id="path4898" d="M3.999,23.445c0.144,0.13,0.345,0.21,0.552,0.21c0.465,0,0.841-0.379,0.841-0.841
	c0-0.146-0.049-0.283-0.104-0.412l-0.943-2.208c-0.217-0.444-0.688-0.743-1.201-0.743c-0.752,0-1.359,0.598-1.359,1.357
	c0,0.364,0.144,0.695,0.377,0.93L3.999,23.445z M7.111,23.858c0.079,0.185,0.128,0.396,0.128,0.599c0,0.872-0.704,1.577-1.567,1.577
	c-0.312,0-0.609-0.105-0.856-0.268l-3.769-3.154c-0.408-0.493-0.655-1.108-0.655-1.804c0-1.528,1.231-2.781,2.751-2.781
	c1.129,0,2.113,0.711,2.512,1.706L7.111,23.858z"/>
<path id="path4900" d="M19.19,26.64c0.448,0,0.825,0.38,0.825,0.833v1.294c0,0.461-0.377,0.833-0.825,0.833l-0.767-0.032
	c0.919,0.582,1.592,1.594,1.592,2.782v28.29c0,1.448-1.152,2.621-2.577,2.621H2.599C1.159,63.261,0,62.088,0,60.64l0.016-28.29
	c0-1.188,0.656-2.2,1.584-2.782L0.832,29.6c-0.457,0-0.816-0.372-0.816-0.833v-1.294c0-0.453,0.359-0.833,0.816-0.833H19.19z"/>
</svg>
