<?xml version="1.0" encoding="utf-8"?>
<!-- Generator: Adobe Illustrator 14.0.0, SVG Export Plug-In . SVG Version: 6.00 Build 43363)  -->
<!DOCTYPE svg PUBLIC "-//W3C//DTD SVG 1.0//EN" "http://www.w3.org/TR/2001/REC-SVG-20010904/DTD/svg10.dtd">
<svg version="1.0" id="Layer_1" xmlns="http://www.w3.org/2000/svg" xmlns:xlink="http://www.w3.org/1999/xlink" x="0px" y="0px"
	 width="100px" height="89.076px" viewBox="0 0 100 89.076" enable-background="new 0 0 100 89.076" xml:space="preserve">
<path id="path5266" d="M67.428,25.05L51.752,10.611L61.571,0l33.428,30.835c-7.119,7.927-13.834,13.221-24.521,14.277L67.428,25.05z
	"/>
<path id="path5268" d="M71.611,75.317c0.104,1.677,0.519,3.361,1.262,4.988c3.275,7.146,11.692,10.297,18.825,7.019
	c7.133-3.275,10.27-11.692,7.02-18.825c-2.042-4.459-6.111-7.358-10.609-8.102l-2.317,13.998L71.611,75.317z"/>
<path id="path5270" d="M82.613,72.117l-9.247-12.603c-3.378,2.484-5.76,6.327-6.277,10.798L82.613,72.117z"/>
<path id="path5272" d="M42.328,33.517l2.317-9.122l6.958-7.587l10.583,9.779l-45.111,48.73c-3.615,3.854-6.35,8.528-7.849,13.759
	L0,86.163c1.868-6.375,5.167-12.133,9.552-16.959L42.328,33.517z"/>
<path id="path5274" d="M58.306,75.582c3.665,2.86,6.021,7.333,6.021,12.336H48.704L58.306,75.582z"/>
</svg>
