<?xml version="1.0" encoding="utf-8"?>
<!-- Generator: Adobe Illustrator 14.0.0, SVG Export Plug-In . SVG Version: 6.00 Build 43363)  -->
<!DOCTYPE svg PUBLIC "-//W3C//DTD SVG 1.0//EN" "http://www.w3.org/TR/2001/REC-SVG-20010904/DTD/svg10.dtd">
<svg version="1.0" id="Layer_1" xmlns="http://www.w3.org/2000/svg" xmlns:xlink="http://www.w3.org/1999/xlink" x="0px" y="0px"
	 width="100px" height="94.754px" viewBox="0 0 100 94.754" enable-background="new 0 0 100 94.754" xml:space="preserve">
<path fill="#1A1A1A" d="M55.176,8.508C53.915,3.624,49.456,0,44.181,0C37.886,0,32.8,5.063,32.8,11.346
	c0,1.059,0.123,2.025,0.396,2.977h4.561c0.338,0.786,0.698,1.239,0.698,1.239c1.37,1.974,3.667,3.263,6.246,3.263
	c4.213,0,7.638-3.422,7.638-7.635c0-0.966,0.243-1.844-0.16-2.681H55.176L55.176,8.508z"/>
<path fill="#1A1A1A" d="M54.858,76.341c-1.196,1.219-2.838,2.14-4.703,2.14V53.765l17.11-4.914l4.278,8.443L54.858,76.341z"/>
<path fill="#1A1A1A" d="M40.501,19.79c-1.124-1.261-2.759-2.047-4.595-2.047c-1.945,0-3.689,0.901-4.806,2.313L17.529,40.797
	c-0.556,0.921-0.867,2.003-0.867,3.147c0,2.14,1.081,4.006,2.724,5.116l18.212,10.106v17.195c0,2.437,1.967,4.414,4.402,4.414
	c2.419,0,4.394-1.978,4.394-4.414V54.886c0,0,0.584-3.42-3.307-5.293l-11.353-5.936l8.271-12.637l4.395,6.894
	c0.872,1.391,2.059,1.932,3.141,1.909l11.281-0.043c4.591,0,4.591-5.964,0-5.942H49.68L40.501,19.79z"/>
<path fill="#1A1A1A" d="M90.404,47.98c0.18,0.174,0.295,0.403,0.295,0.69c0,0.541-0.454,0.994-0.994,0.994
	c-0.151,0-0.243,0-0.359-0.043c-1.953-0.836-3.192-1.354-5.448-1.354c-1.503,0-3.349,0.519-5.488,2.254l-1.981-3.917
	c2.471-0.745,4.503-1.401,6.613-1.401C86.419,45.206,88.199,45.904,90.404,47.98z"/>
<path fill="#1A1A1A" d="M14.683,50.991l19.113,10.538l0.042,4.23L12.01,53.743c-1.579-0.814-3.705-1.29-5.21-1.29
	c-2.254,0-3.501,0.52-5.439,1.354c-0.121,0.044-0.222,0.044-0.359,0.044C0.46,53.851,0,53.405,0,52.864
	c0-0.294,0.115-0.519,0.295-0.697c2.211-2.076,4.466-2.774,7.846-2.774C9.869,49.392,11.979,49.593,14.683,50.991z"/>
<path fill="#1A1A1A" d="M16.454,89.762c6.225,0,11.268-5.043,11.268-11.279c0-6.238-5.042-11.284-11.268-11.284
	c-6.223,0-11.267,5.046-11.267,11.284C5.187,84.719,10.23,89.762,16.454,89.762z M0.195,78.481c0-8.983,7.282-16.28,16.259-16.28
	c8.998,0,16.281,7.297,16.281,16.28c0,8.984-7.284,16.273-16.281,16.273C7.477,94.756,0.195,87.465,0.195,78.481z"/>
<path fill="#1A1A1A" d="M83.717,89.762C89.957,89.762,95,84.719,95,78.483c0-6.238-5.044-11.284-11.283-11.284
	c-6.207,0-11.252,5.046-11.252,11.284C72.465,84.719,77.51,89.762,83.717,89.762z M67.467,78.481c0-8.983,7.269-16.28,16.25-16.28
	c8.984,0,16.282,7.297,16.282,16.28c0,8.984-7.298,16.273-16.282,16.273C74.736,94.754,67.467,87.465,67.467,78.481z"/>
<path fill="#1A1A1A" d="M80.138,59.887l-7.904-15.807c-1.028-1.895-3.06-3.198-5.374-3.198h-5.156c-1.017,0-1.824,0.836-1.824,1.843
	c0,1.016,0.808,1.824,1.824,1.824l5.156-0.022c0.873,0,1.845,0.592,2.206,1.442l7.447,15.179L80.138,59.887z"/>
</svg>
