<?xml version="1.0" encoding="utf-8"?>
<!-- Generator: Adobe Illustrator 14.0.0, SVG Export Plug-In . SVG Version: 6.00 Build 43363)  -->
<!DOCTYPE svg PUBLIC "-//W3C//DTD SVG 1.0//EN" "http://www.w3.org/TR/2001/REC-SVG-20010904/DTD/svg10.dtd">
<svg version="1.0" id="Layer_1" xmlns="http://www.w3.org/2000/svg" xmlns:xlink="http://www.w3.org/1999/xlink" x="0px" y="0px"
	 width="99.718px" height="100px" viewBox="0 0 99.718 100" enable-background="new 0 0 99.718 100" xml:space="preserve">
<path id="path2602" d="M43.688,12.481c1.297-4.331-1.131-8.905-5.473-10.228c-4.318-1.337-8.905,1.091-10.242,5.435
	c-1.323,4.343,1.131,8.917,5.449,10.241C37.765,19.266,42.352,16.824,43.688,12.481"/>
<path id="path2604" d="M59.042,37.706l-3.107-19.199L74.938,7.393c0.901-0.502,1.606-1.311,1.903-2.339
	c0.604-2.082-0.578-4.267-2.66-4.896c-1.105-0.321-2.262-0.141-3.187,0.438L43.907,16.502c-0.951,0.501-1.773,1.208-2.479,2.031
	l-11.424,15.33l-15.729-1.876c-1.002,0.347-1.862,1.105-2.312,2.133c-0.874,2.004,0.052,4.317,2.031,5.166
	c0.834,0.384,1.734,0.436,2.569,0.205l16.011,1.812c0.579-0.231,1.105-0.579,1.529-1.054l6.501-8.16l3.11,17.617
	c0.578,2.481,2.236,4.665,4.587,5.847l13.954,4.163l2.056,16.036c0.258,1.812,1.518,3.417,3.342,4.073
	c2.66,0.95,5.577-0.463,6.503-3.123c0.295-0.796,0.347-1.671,0.231-2.479l-2.52-19.622c-0.295-1.438-1.194-2.71-2.531-3.469
	l-8.688-2.609l14.38-8.712l17.579,7.787c0.114,0.051,0.218,0.103,0.32,0.154c2.66,0.925,5.576-0.462,6.503-3.123
	c0.873-2.506-0.31-5.217-2.66-6.322l-20.033-8.93c-0.103-0.026-0.166-0.078-0.27-0.103c-1.439-0.501-2.969-0.321-4.188,0.347
	L59.042,37.706z"/>
<path id="path2606" d="M21.047,44.862H0v5.744h16.203v16.346h16.846v15.226H49.38V100h21.485v-5.744H55.137V76.434H38.793V61.194
	h-16.82V44.862H21.047z"/>
</svg>
