<?xml version="1.0" encoding="utf-8"?>
<!-- Generator: Adobe Illustrator 14.0.0, SVG Export Plug-In . SVG Version: 6.00 Build 43363)  -->
<!DOCTYPE svg PUBLIC "-//W3C//DTD SVG 1.0//EN" "http://www.w3.org/TR/2001/REC-SVG-20010904/DTD/svg10.dtd">
<svg version="1.0" id="Layer_1" xmlns="http://www.w3.org/2000/svg" xmlns:xlink="http://www.w3.org/1999/xlink" x="0px" y="0px"
	 width="100px" height="73.939px" viewBox="0 0 100 73.939" enable-background="new 0 0 100 73.939" xml:space="preserve">
<polygon points="34.284,73.939 0,73.939 0.024,67.227 34.284,67.227 "/>
<polygon points="34.284,63.773 0,63.773 0.024,57.061 34.284,57.061 "/>
<polygon points="34.284,53.584 0,53.584 0.024,46.871 34.284,46.871 "/>
<polygon points="34.284,43.395 0,43.395 0.024,36.682 34.284,36.682 "/>
<path d="M48.166,2.542C47.542,1.055,46.056,0,44.354,0l-5.516,0.024v73.915h26.109L48.166,2.542z"/>
<polygon points="34.284,33.206 0,33.206 0.024,26.517 34.284,26.517 "/>
<polygon points="34.284,23.04 0,23.04 0.024,16.327 34.284,16.327 "/>
<polygon points="34.284,12.851 0,12.851 0.024,6.138 34.284,6.138 "/>
<path d="M68.138,68.09c0.503,0.096,1.006,0.144,1.51,0.144c1.343,0,2.613-0.312,3.74-0.815c1.175-0.551,2.469-0.863,3.859-0.863
	c1.367,0,2.662,0.312,3.836,0.863c1.127,0.504,2.422,0.815,3.74,0.815s2.59-0.312,3.74-0.815c1.15-0.551,2.47-0.863,3.836-0.863
	c1.367,0,2.686,0.312,3.86,0.863c1.127,0.504,2.397,0.815,3.74,0.815v5.586c-1.343,0-2.613-0.288-3.74-0.791
	c-1.175-0.552-2.493-0.863-3.86-0.863c-1.366,0-2.686,0.312-3.836,0.863c-1.15,0.503-2.422,0.791-3.74,0.791
	s-2.613-0.288-3.74-0.791c-1.174-0.552-2.469-0.863-3.836-0.863c-1.391,0-2.685,0.312-3.859,0.863
	c-1.127,0.503-2.397,0.791-3.74,0.791c-0.072,0-0.145,0-0.216,0L68.138,68.09z"/>
<path d="M65.907,57.133c1.15,0.504,2.422,0.815,3.74,0.815c1.343,0,2.613-0.312,3.74-0.815c1.175-0.552,2.469-0.863,3.859-0.863
	c1.367,0,2.662,0.312,3.836,0.863c1.127,0.504,2.422,0.815,3.74,0.815s2.59-0.312,3.74-0.815c1.15-0.552,2.47-0.863,3.836-0.863
	c1.367,0,2.686,0.312,3.86,0.863c1.127,0.504,2.397,0.815,3.74,0.815v5.586c-1.343,0-2.613-0.288-3.74-0.791
	c-1.175-0.552-2.493-0.863-3.86-0.863c-1.366,0-2.686,0.312-3.836,0.863c-1.15,0.503-2.422,0.791-3.74,0.791
	s-2.613-0.288-3.74-0.791c-1.174-0.552-2.469-0.863-3.836-0.863c-1.391,0-2.685,0.312-3.859,0.863
	c-1.127,0.503-2.397,0.791-3.74,0.791c-0.814,0-1.606-0.096-2.373-0.312L65.907,57.133z"/>
</svg>
