<?xml version="1.0" encoding="utf-8"?>
<!-- Generator: Adobe Illustrator 14.0.0, SVG Export Plug-In . SVG Version: 6.00 Build 43363)  -->
<!DOCTYPE svg PUBLIC "-//W3C//DTD SVG 1.0//EN" "http://www.w3.org/TR/2001/REC-SVG-20010904/DTD/svg10.dtd">
<svg version="1.0" id="Layer_1" xmlns="http://www.w3.org/2000/svg" xmlns:xlink="http://www.w3.org/1999/xlink" x="0px" y="0px"
	 width="100px" height="88.854px" viewBox="0 0 100 88.854" enable-background="new 0 0 100 88.854" xml:space="preserve">
<path d="M100,46.493c0,0-13.761-0.924-19.84-0.312c-0.468,0-2.315,0.979-2.783,0.979c-5.611,0.289-8.907-0.367-14.05,0.534
	c-7.949,1.202-15.899-0.612-24.316,0.29c-7.459,0.623-15.431,0-23.358,0.322C11.89,45.569,5.277,46.794,0,46.916v7.771h100V46.493z"
	/>
<path fill-rule="evenodd" clip-rule="evenodd" d="M85.839,0L66.733,16.133L47.628,32.276c0,0-1.893,0-5.255,0
	c-3.385,0-8.239-0.011-14.184-0.011c-0.935,0-2.182,2.071-2.227,4.131c-0.044,2.06,1.136,4.13,1.826,4.13
	c11.646,0,23.558,0,32.554,0s15.053,0,15.053,0c0.801,0,2.093-2.07,2.137-4.13c0.045-2.06-1.157-4.131-2.137-4.131h-8.707H57.96
	l16.522-13.872L91.004,4.521c-0.223-0.624-1.225-1.704-2.315-2.65C87.597,0.924,86.417,0.111,85.839,0z"/>
<path fill-rule="evenodd" clip-rule="evenodd" d="M79.381,60.532c-0.111-0.145-0.312-0.189-0.468-0.1
	c-22.912,13.131-49.41,2.538-54.486,0.277c-0.022-0.011-0.045-0.011-0.067-0.011c-0.022-0.011-0.022-0.022-0.044-0.033
	c0,0,0,0.011,0,0.022c-0.156-0.033-0.356,0.011-0.423,0.145c-0.089,0.156-0.134,0.322,0.022,0.423
	c32.955,21.839,55.2-0.033,55.422-0.256C79.47,60.866,79.492,60.677,79.381,60.532z"/>
<path fill-rule="evenodd" clip-rule="evenodd" d="M70.452,73.586c-0.111-0.134-0.289-0.178-0.445-0.089
	c-15.877,8.617-33.111,1.781-36.406,0.312c-0.022,0-0.022,0-0.045,0c0-0.022-0.022-0.022-0.022-0.022l0,0
	c-0.156-0.044-0.378,0-0.445,0.156c-0.089,0.156-0.111,0.334,0.044,0.445c22.089,14.719,37.142-0.178,37.297-0.334
	C70.541,73.92,70.563,73.72,70.452,73.586z"/>
<path fill-rule="evenodd" clip-rule="evenodd" d="M61.278,85.143c-0.111-0.134-0.289-0.178-0.445-0.111
	c-6.168,2.917-14.786,0.979-17.279,0.312c-0.178-0.044-0.445,0.022-0.49,0.179c-0.067,0.178-0.089,0.334,0.066,0.423
	c11.333,6.702,18.037-0.268,18.125-0.334C61.367,85.477,61.367,85.276,61.278,85.143z"/>
</svg>
