<?xml version="1.0" encoding="utf-8"?>
<!-- Generator: Adobe Illustrator 14.0.0, SVG Export Plug-In . SVG Version: 6.00 Build 43363)  -->
<!DOCTYPE svg PUBLIC "-//W3C//DTD SVG 1.0//EN" "http://www.w3.org/TR/2001/REC-SVG-20010904/DTD/svg10.dtd">
<svg version="1.0" id="Layer_1" xmlns="http://www.w3.org/2000/svg" xmlns:xlink="http://www.w3.org/1999/xlink" x="0px" y="0px"
	 width="100px" height="95.976px" viewBox="0 0 100 95.976" enable-background="new 0 0 100 95.976" xml:space="preserve">
<polygon points="10.04,95.976 100,95.976 100,86.637 19.379,86.637 19.379,46.145 100,9.715 100,0 0,45.168 0,54.883 10.04,50.376 
	"/>
<path d="M56.134,64.152H70.28v12.645c0,2.078,1.677,3.756,3.755,3.756l0,0c2.078,0,3.731-1.678,3.731-3.756V64.152
	c1.126,0,1.252-0.726,1.252-1.577V53.13l-11.843-5.783H42.013l-3.229-1.841c-1.052-0.588-2.379-0.213-2.955,0.814l0,0
	c-0.601,1.051-0.226,2.378,0.826,2.955l5.107,2.929v24.594c0,2.078,1.678,3.756,3.755,3.756l0,0c2.054,0,3.73-1.678,3.73-3.756
	v-9.64l6.761,11.468c1.077,1.777,3.38,2.354,5.133,1.302l0,0c1.777-1.077,2.354-3.355,1.302-5.133L56.134,64.152z"/>
<polygon points="68.327,44.768 78.993,49.85 78.993,47.847 87.656,47.847 90.836,40.987 68.327,30.271 "/>
</svg>
