<?xml version="1.0" encoding="utf-8"?>
<!-- Generator: Adobe Illustrator 14.0.0, SVG Export Plug-In . SVG Version: 6.00 Build 43363)  -->
<!DOCTYPE svg PUBLIC "-//W3C//DTD SVG 1.0//EN" "http://www.w3.org/TR/2001/REC-SVG-20010904/DTD/svg10.dtd">
<svg version="1.0" id="Layer_1" xmlns="http://www.w3.org/2000/svg" xmlns:xlink="http://www.w3.org/1999/xlink" x="0px" y="0px"
	 width="100px" height="94.841px" viewBox="0 0 100 94.841" enable-background="new 0 0 100 94.841" xml:space="preserve">
<path d="M91.673,33.715c4.605,0,8.327-3.734,8.327-8.327c0-4.594-3.722-8.303-8.327-8.303c-4.581,0-8.315,3.709-8.315,8.303
	C83.357,29.981,87.092,33.715,91.673,33.715z"/>
<path d="M87.57,93.65c4.017,2.383,9.199,1.081,11.595-2.947l-2.911-1.744c-1.425,2.407-4.544,3.169-6.927,1.744L1.72,39.266
	L0,42.202L87.57,93.65z"/>
<path d="M55.858,1.88c-5.06-3.402-11.901-2.063-15.315,3.021c-1.879,2.775-2.395,6.288-1.474,9.138l5.821,19.062l-17.563,5.601
	c-2.198,0.884-3.893,2.948-4.188,5.478c-0.455,3.709,2.309,6.166,6.031,6.608c0.847,0.098,1.412-0.147,2.198-0.344l23.975-7.935
	c1.756-0.639,3.685-2.383,3.868-3.906c0.136-1.105,0.492-2.039,0.259-2.702l-3.648-13.043L70.24,31.43l1.744,12.503
	c0.147,2.186,1.143,3.758,2.825,4.691L93.65,59.63c2.063,1.13,4.667,0.368,5.797-1.72c1.143-2.063,0.368-4.691-1.695-5.821
	l-14.897-8.696l-1.72-22.28c-0.258-2.665-1.707-5.06-3.819-6.534L55.858,1.88z"/>
</svg>
