<?xml version="1.0" encoding="utf-8"?>
<!-- Generator: Adobe Illustrator 14.0.0, SVG Export Plug-In . SVG Version: 6.00 Build 43363)  -->
<!DOCTYPE svg PUBLIC "-//W3C//DTD SVG 1.0//EN" "http://www.w3.org/TR/2001/REC-SVG-20010904/DTD/svg10.dtd">
<svg version="1.0" id="Layer_1" xmlns="http://www.w3.org/2000/svg" xmlns:xlink="http://www.w3.org/1999/xlink" x="0px" y="0px"
	 width="92.746px" height="100px" viewBox="0 0 92.746 100" enable-background="new 0 0 92.746 100" xml:space="preserve">
<path id="path5146" d="M73.631,15.788c4.396,0,7.919-3.523,7.919-7.883C81.55,3.546,78.028,0,73.631,0
	c-4.358,0-7.883,3.546-7.883,7.905C65.749,12.265,69.273,15.788,73.631,15.788"/>
<path id="path5148" d="M33.631,47.82l28.414-18.356c3.701-2.365,4.824-7.261,2.471-10.964c-2.34-3.715-7.261-4.837-10.964-2.472
	L32.604,29.559c-1.193,0.764-2.126,1.767-2.735,2.938L8.073,75.456C6.795,78,7.798,81.082,10.318,82.36
	c2.52,1.289,5.614,0.287,6.903-2.234L33.631,47.82z"/>
<path id="path5150" d="M88.964,44.81c3.75-2.353,4.921-7.297,2.556-11.06l-2.747,1.685c1.421,2.257,0.729,5.219-1.539,6.617
	L0,97.266L1.731,100L88.964,44.81z"/>
</svg>
