<?xml version="1.0" encoding="utf-8"?>
<!-- Generator: Adobe Illustrator 14.0.0, SVG Export Plug-In . SVG Version: 6.00 Build 43363)  -->
<!DOCTYPE svg PUBLIC "-//W3C//DTD SVG 1.0//EN" "http://www.w3.org/TR/2001/REC-SVG-20010904/DTD/svg10.dtd">
<svg version="1.0" id="Layer_1" xmlns="http://www.w3.org/2000/svg" xmlns:xlink="http://www.w3.org/1999/xlink" x="0px" y="0px"
	 width="100px" height="68.932px" viewBox="0 0 100 68.932" enable-background="new 0 0 100 68.932" xml:space="preserve">
<path id="path7994" d="M98.634,68.932c-2.155,0-4.226-0.486-6.058-1.335c-1.904-0.882-4.036-1.402-6.263-1.402
	c-2.226,0-4.37,0.521-6.25,1.402c-1.855,0.849-3.916,1.335-6.082,1.335c-2.143,0-4.213-0.486-6.081-1.335
	c-1.892-0.882-4.023-1.402-6.239-1.402c-2.238,0-4.357,0.521-6.273,1.402c-1.831,0.849-3.914,1.335-6.059,1.335
	c-2.155,0-4.238-0.486-6.07-1.335c-1.905-0.882-4.036-1.402-6.262-1.402c-2.227,0-4.371,0.521-6.25,1.402
	c-1.843,0.849-3.916,1.335-6.071,1.335c-2.167,0-4.226-0.486-6.095-1.335c-1.879-0.882-4.022-1.402-6.237-1.402
	c-2.229,0-4.359,0.521-6.263,1.402c-1.843,0.849-3.915,1.335-6.07,1.335v-9.2c2.156,0,4.228-0.496,6.07-1.333
	c1.904-0.881,4.034-1.402,6.263-1.402c2.214,0,4.358,0.521,6.237,1.402c1.869,0.837,3.927,1.333,6.095,1.333
	c2.155,0,4.228-0.496,6.071-1.333c1.879-0.881,4.023-1.402,6.25-1.402c2.226,0,4.357,0.521,6.262,1.402
	c1.832,0.837,3.915,1.333,6.07,1.333c2.145,0,4.228-0.496,6.059-1.333c1.916-0.881,4.035-1.402,6.273-1.402
	c2.214,0,4.348,0.521,6.239,1.402c1.868,0.837,3.938,1.333,6.081,1.333c2.166,0,4.227-0.496,6.082-1.333
	c1.88-0.881,4.024-1.402,6.25-1.402c2.227,0,4.358,0.521,6.263,1.402c1.832,0.837,3.902,1.333,6.058,1.333V68.932z"/>
<path id="path7996" d="M0.048,29.398L0.013,51.125c2.156,0,4.228-0.483,6.07-1.318c1.904-0.885,4.034-1.405,6.263-1.405
	c2.214,0,4.358,0.521,6.237,1.405c1.869,0.835,3.927,1.318,6.095,1.318c2.155,0,4.228-0.483,6.071-1.318
	c1.879-0.885,4.023-1.405,6.25-1.405c2.226,0,4.357,0.521,6.262,1.405c1.832,0.835,3.915,1.318,6.07,1.318
	c2.145,0,4.228-0.483,6.059-1.318c1.916-0.885,4.035-1.405,6.273-1.405c2.214,0,4.348,0.521,6.239,1.405
	c1.868,0.835,3.938,1.318,6.081,1.318c0.612,0,1.197-0.133,1.795-0.193c1.08-0.242,2.18-0.352,3.233-0.774l0.072-0.037
	c7.83-3.207,14.596-11.171,18.811-17.103L100,29.398H0.048z"/>
<path id="path7998" d="M78.22,4.948C75.814-0.45,69.336,0.01,69.336,0.01H0.013L0,25.803h86.913L78.22,4.948z M33.274,20.211
	c0,0.993-0.814,1.817-1.808,1.817h-8.009c-0.994,0-1.796-0.824-1.796-1.817V7.864c0-0.991,0.802-1.802,1.796-1.802h8.009
	c0.994,0,1.808,0.812,1.808,1.802V20.211z M49.929,20.211c0,0.993-0.802,1.817-1.785,1.817h-8.071c-0.993,0-1.795-0.824-1.795-1.817
	V7.864c0-0.991,0.802-1.802,1.795-1.802h8.071c0.982,0,1.785,0.812,1.785,1.802V20.211z M16.679,20.211
	c0,0.993-0.813,1.817-1.796,1.817H6.814c-0.994,0-1.795-0.824-1.795-1.817V7.864c0-0.991,0.801-1.802,1.795-1.802h8.069
	c0.982,0,1.796,0.812,1.796,1.802V20.211z M55.842,6.062h14.452l0.12-0.011h0.097c0.153-0.012,3.961-0.159,5.244,2.711l5.518,13.267
	H62.465L55.842,6.062z"/>
</svg>
