<?xml version="1.0" encoding="utf-8"?>
<!-- Generator: Adobe Illustrator 14.0.0, SVG Export Plug-In . SVG Version: 6.00 Build 43363)  -->
<!DOCTYPE svg PUBLIC "-//W3C//DTD SVG 1.0//EN" "http://www.w3.org/TR/2001/REC-SVG-20010904/DTD/svg10.dtd">
<svg version="1.0" id="Layer_1" xmlns="http://www.w3.org/2000/svg" xmlns:xlink="http://www.w3.org/1999/xlink" x="0px" y="0px"
	 width="100px" height="83.101px" viewBox="0 0 100 83.101" enable-background="new 0 0 100 83.101" xml:space="preserve">
<polygon points="0,0 15.868,16.397 21.961,10.867 16.444,0.05 "/>
<path d="M71.534,45.935c3,0.834,6.223-0.882,7.079-3.962c0.822-3.032-0.929-6.218-3.951-7.076l-2.354-0.662l-3.046,11.019
	L71.534,45.935z"/>
<path d="M69.687,33.533l-18.995-5.412c-1.249-0.329-2.503,0.429-2.847,1.692l-1.785,6.42c-0.351,1.261,0.329,2.555,1.609,2.934
	l18.996,5.354L69.687,33.533z"/>
<path d="M72.687,51.773c-1.448-1.393-3.249-2.499-5.35-3.083l-23.028-6.515l0,0L30.16,16.802c-0.745-1.311-1.944-2.354-3.496-2.783
	c-3.103-0.882-6.327,0.961-7.174,4.098c-0.423,1.489-0.223,3.009,0.448,4.295l17.701,31.38c0,0,1.448,2.353,5.095,3.563l32.178,9.12
	l14.922,15.315c0.496,0.524,1.145,0.93,1.92,1.155c2.247,0.63,4.599-0.728,5.256-2.975c0.425-1.594-0.081-3.267-1.201-4.302
	L72.687,51.773z"/>
<path d="M89.857,58.11l3.345,4.423L100,55.03l-5.741-3.233c0.541-4.067-1.952-8.005-5.951-9.146
	c-4.399-1.236-8.973,1.342-10.196,5.79c-1.249,4.471,1.326,9.071,5.728,10.309C85.93,59.355,88.059,59.025,89.857,58.11z"/>
</svg>
