<?xml version="1.0" encoding="utf-8"?>
<!-- Generator: Adobe Illustrator 14.0.0, SVG Export Plug-In . SVG Version: 6.00 Build 43363)  -->
<!DOCTYPE svg PUBLIC "-//W3C//DTD SVG 1.0//EN" "http://www.w3.org/TR/2001/REC-SVG-20010904/DTD/svg10.dtd">
<svg version="1.0" id="Layer_1" xmlns="http://www.w3.org/2000/svg" xmlns:xlink="http://www.w3.org/1999/xlink" x="0px" y="0px"
	 width="66.657px" height="100px" viewBox="0 0 66.657 100" enable-background="new 0 0 66.657 100" xml:space="preserve">
<path d="M23.719,100c1.595,0,2.877-1.303,2.877-2.912c0-1.602-1.283-2.896-2.877-2.896c-1.587,0-2.87,1.297-2.87,2.896
	C20.849,98.693,22.132,100,23.719,100z"/>
<path d="M46.956,99.941c1.593,0,2.884-1.312,2.884-2.939c0-1.608-1.291-2.915-2.884-2.915c-1.581,0-2.862,1.307-2.862,2.915
	C44.094,98.629,45.375,99.941,46.956,99.941z"/>
<path d="M18.043,91.336c0,0-1.688-0.086-1.688-1.843v-0.16c0-1.729,1.688-1.847,1.688-1.847h34.474c0,0,1.695,0.16,1.695,1.847v0.16
	c0,1.686-1.695,1.843-1.695,1.843H18.043z"/>
<path d="M41.994,15.428c4.212,0,7.636-3.464,7.636-7.729C49.63,3.44,46.206,0,41.994,0c-4.211,0-7.637,3.44-7.637,7.698
	C34.357,11.963,37.783,15.428,41.994,15.428z"/>
<path d="M0.562,82.911C0.201,83.596,0,84.368,0,85.205c0,2.714,2.184,4.924,4.89,4.924c1.939,0,3.605-1.139,4.4-2.778l16.666-28.96
	l-6.922-6.99L0.562,82.911z"/>
<path d="M34.03,81.611c-0.723,1.643-2.258,2.781-4.046,2.781c-2.472,0-4.486-2.211-4.486-4.921c0-0.847,0.188-1.621,0.518-2.307
	l6.687-12.887l-13.04-14.22c-5.005-5.519-1.438-11.484-1.438-11.484l7.02-13.603L6.628,24.993c-2.059,0-3.696-1.825-3.696-4.055
	c0-2.209,1.637-4.032,3.696-4.032h56.353c2.034,0,3.676,1.823,3.676,4.055c0,2.23-1.642,4.032-3.676,4.032H41.482L31.226,44.701
	l10.441,11.322c3.655,3.85,1.289,8.182,1.289,8.182L34.03,81.611z"/>
</svg>
