<?xml version="1.0" encoding="utf-8"?>
<!-- Generator: Adobe Illustrator 14.0.0, SVG Export Plug-In . SVG Version: 6.00 Build 43363)  -->
<!DOCTYPE svg PUBLIC "-//W3C//DTD SVG 1.0//EN" "http://www.w3.org/TR/2001/REC-SVG-20010904/DTD/svg10.dtd">
<svg version="1.0" id="Layer_1" xmlns="http://www.w3.org/2000/svg" xmlns:xlink="http://www.w3.org/1999/xlink" x="0px" y="0px"
	 width="100px" height="66.428px" viewBox="0 0 100 66.428" enable-background="new 0 0 100 66.428" xml:space="preserve">
<path d="M57.702,34.756c2.6,0.897,5.416-0.468,6.32-3.091c0.901-2.628-0.472-5.478-3.071-6.388c-2.593-0.916-5.419,0.473-6.32,3.101
	C53.75,30.984,55.108,33.856,57.702,34.756z"/>
<path d="M98.405,2.038c0,0-16.794-2.038-51.67-2.038C21.012,0,0,2.038,0,2.038s8.711,3.884,7.2,15.906
	c0,0,12.505-1.504,17.741,9.326l23.484-7.201l-1.539,15.84l-9.926,2.461c-0.88,0.204-1.625,0.644-2.231,1.188L12.937,60.833
	c-1.286,1.233-1.314,3.307-0.072,4.585c1.221,1.302,3.271,1.352,4.537,0.117l16.403-15.979l20.082-4.972l-0.138,0.044l3.347-0.861
	l3.067,3.536c0.478,0.524,1.148,0.846,1.871,0.846l10.813,0.044c1.358,0,2.484-1.117,2.484-2.513l0,0
	c0-1.211-0.836-2.146-1.942-2.427l-8.055-28.353L98.897,4.616C100.5,3.917,100.372,2.258,98.405,2.038z M70.978,43.137
	c-2.464,0-6.565-0.02-7.808-0.02c-1.177-1.347-5.83-6.66-5.83-6.66c-0.064-0.096-0.182-0.117-0.245-0.183
	c-1.179-1.396-3.048-2.111-4.921-1.664l-2.909,0.73l1.552-16.002l12.303-3.766L70.978,43.137z"/>
</svg>
