<?xml version="1.0" encoding="utf-8"?>
<!-- Generator: Adobe Illustrator 14.0.0, SVG Export Plug-In . SVG Version: 6.00 Build 43363)  -->
<!DOCTYPE svg PUBLIC "-//W3C//DTD SVG 1.0//EN" "http://www.w3.org/TR/2001/REC-SVG-20010904/DTD/svg10.dtd">
<svg version="1.0" id="Layer_1" xmlns="http://www.w3.org/2000/svg" xmlns:xlink="http://www.w3.org/1999/xlink" x="0px" y="0px"
	 width="100px" height="84.495px" viewBox="0 0 100 84.495" enable-background="new 0 0 100 84.495" xml:space="preserve">
<path d="M87.44,59.318c5.243,0,9.509-4.267,9.509-9.533c0-5.243-4.266-9.485-9.509-9.485c-5.267,0-9.509,4.242-9.509,9.485
	C77.932,55.052,82.174,59.318,87.44,59.318z"/>
<path d="M94.232,80.576c0.43,0.144,0.882,0.215,1.358,0.215c2.431,0,4.409-1.979,4.409-4.409c0-1.835-1.145-3.432-2.74-4.075
	l-13.156-5.124l-9.58-17.017c0,0-0.787-1.883-3.551-2.907L39.562,34.676L20.901,3.05C19.804,1.239,17.826,0,15.539,0
	c-3.456,0-6.244,2.812-6.244,6.268c0,1.096,0.286,2.121,0.787,3.026l23.165,39.3L18.565,42.73l-3.694,2.217L73.57,68.041h-0.024
	l2.407,3.812c0,0,0.953,2.05,3.789,3.17l7.293,2.836c-4.742,4.742-11.392,2.693-11.392,2.693L3.956,51.764L0,54.123l74.857,29.6
	c8.698,3.169,15.801-4.434,15.801-4.434v0.024L94.232,80.576z"/>
</svg>
