<?xml version="1.0" encoding="utf-8"?>
<!-- Generator: Adobe Illustrator 14.0.0, SVG Export Plug-In . SVG Version: 6.00 Build 43363)  -->
<!DOCTYPE svg PUBLIC "-//W3C//DTD SVG 1.0//EN" "http://www.w3.org/TR/2001/REC-SVG-20010904/DTD/svg10.dtd">
<svg version="1.0" id="Layer_1" xmlns="http://www.w3.org/2000/svg" xmlns:xlink="http://www.w3.org/1999/xlink" x="0px" y="0px"
	 width="57.919px" height="100px" viewBox="0 0 57.919 100" enable-background="new 0 0 57.919 100" xml:space="preserve">
<path id="path5106" d="M37.497,27.226c4.104,0,7.446-3.376,7.446-7.538c0-4.151-3.342-7.53-7.446-7.53
	c-4.119,0-7.447,3.379-7.447,7.53C30.049,23.85,33.377,27.226,37.497,27.226"/>
<path id="path5108" d="M57.731,92.966L46.743,59.248V32.264c0-3.537-3.499-3.379-3.499-3.379H32.017h-2.959
	c0,0-0.596-0.089-1.823,0.923l-8.267,4.878l-8.616-8.734c-1.407-1.683-3.892-1.933-5.569-0.511
	c-1.687,1.422-1.777,4.001-0.371,5.708l11.001,11.133c0.742,0.795,1.778,1.34,2.948,1.34c0.854,0,1.641-0.272,2.305-0.728
	l7.245-4.037v19.788L16.82,92.899c-0.809,2.979,0.944,6.038,3.904,6.845c2.947,0.796,5.985-0.979,6.771-3.956l9.685-29.568
	l9.868,29.635c0.798,2.991,3.823,4.766,6.771,3.945C56.765,99.005,58.518,95.945,57.731,92.966"/>
<path id="path5110" d="M2.456,34.947c0.383,0.386,1.013,0.398,1.406,0l0.134-0.114c0.371-0.397,0.394-1.034,0-1.422l-2.148-2.24
	c-0.395-0.397-1.035-0.397-1.429-0.011l-0.113,0.125c-0.394,0.398-0.416,1.036-0.023,1.421L2.456,34.947z"/>
<path id="path5112" d="M23.063,9.68L10.352,23.564l1.529,1.591l14.185-12.36l9.426-8.779c0.372-0.434,0.619-0.977,0.619-1.581
	c0-1.329-1.058-2.422-2.352-2.435c-0.641-0.012-1.191,0.238-1.63,0.614L23.063,9.68z"/>
</svg>
