<?xml version="1.0" encoding="utf-8"?>
<!-- Generator: Adobe Illustrator 14.0.0, SVG Export Plug-In . SVG Version: 6.00 Build 43363)  -->
<!DOCTYPE svg PUBLIC "-//W3C//DTD SVG 1.0//EN" "http://www.w3.org/TR/2001/REC-SVG-20010904/DTD/svg10.dtd">
<svg version="1.0" id="Layer_1" xmlns="http://www.w3.org/2000/svg" xmlns:xlink="http://www.w3.org/1999/xlink" x="0px" y="0px"
	 width="82.025px" height="100px" viewBox="0 0 82.025 100" enable-background="new 0 0 82.025 100" xml:space="preserve">
<path d="M63.122,22.983l-9.542-7.51V0c-3.897,1.985-10.616,8.479-8.857,17.559c0.182,2.68,2.254,9.565,1.371,13.319
	c-1.189,5.008-1.628,5.116-8.75,14.086L1.64,88.975c-2.393,2.736-2.138,6.936,0.57,9.364c2.709,2.428,6.834,2.161,9.237-0.578
	l44.684-55.484c2.815-3.546,7.998-6.675,12.49-7.902c7.708-2.37,13.404-9.596,13.404-18.174c0-6.912-3.946-13.454-9.128-16.2
	l-0.026,15.23L63.122,22.983z"/>
</svg>
