<?xml version="1.0" encoding="utf-8"?>
<!-- Generator: Adobe Illustrator 14.0.0, SVG Export Plug-In . SVG Version: 6.00 Build 43363)  -->
<!DOCTYPE svg PUBLIC "-//W3C//DTD SVG 1.0//EN" "http://www.w3.org/TR/2001/REC-SVG-20010904/DTD/svg10.dtd">
<svg version="1.0" id="Layer_1" xmlns="http://www.w3.org/2000/svg" xmlns:xlink="http://www.w3.org/1999/xlink" x="0px" y="0px"
	 width="81.771px" height="100px" viewBox="0 0 81.771 100" enable-background="new 0 0 81.771 100" xml:space="preserve">
<path id="path5182" d="M76.863,75.347c3.758-1.248,5.786-5.326,4.542-9.123l-2.721,0.886c0.738,2.284-0.494,4.729-2.732,5.486
	L4.351,97.261L5.272,100L76.863,75.347z"/>
<path id="path5184" d="M10.919,32.728c3.93-1.166,6.178-5.347,5.026-9.33c-1.141-3.987-5.28-6.26-9.208-5.094
	c-3.942,1.155-6.212,5.348-5.049,9.333C2.841,31.61,6.955,33.892,10.919,32.728"/>
<path id="path5186" d="M7.877,43.155c-3.918-7.561,7.33-13.677,11.467-6.349l8.091,15.518l15.373-4.415
	c2.536-0.733,6.052,2.074,6.052,5.373l0.094,22.111c0.021,5.486-8.046,5.511-8.046-0.046c-0.012-5.138-0.15-16.113-0.15-16.113
	l-16.053,4.87c-3.504,1.023-6.409-0.745-7.791-3.366L7.877,43.155z"/>
<path id="path5188" d="M32.737,46.65V0h-3.217v47.547L32.737,46.65z"/>
<path id="path5190" d="M0.502,53.232c-2.213-4.39,3.48-7.303,5.693-2.912l6.937,13.749c1.51,2.844,4.461,4.776,7.86,4.776
	c1.061,0,2.052-0.278,3.02-0.479l8.748-2.597c4.644-1.411,6.443,4.776,1.762,6.162l-9.208,2.717
	c-1.372,0.43-2.857,0.648-4.391,0.648c-5.924,0-11.041-3.387-13.566-8.339L0.502,53.232z"/>
</svg>
