<?xml version="1.0" encoding="utf-8"?>
<!-- Generator: Adobe Illustrator 14.0.0, SVG Export Plug-In . SVG Version: 6.00 Build 43363)  -->
<!DOCTYPE svg PUBLIC "-//W3C//DTD SVG 1.0//EN" "http://www.w3.org/TR/2001/REC-SVG-20010904/DTD/svg10.dtd">
<svg version="1.0" id="Layer_1" xmlns="http://www.w3.org/2000/svg" xmlns:xlink="http://www.w3.org/1999/xlink" x="0px" y="0px"
	 width="93.281px" height="100px" viewBox="0 0 93.281 100" enable-background="new 0 0 93.281 100" xml:space="preserve">
<path d="M93.281,100c-2.022,0-4-0.476-5.739-1.269c-1.791-0.85-3.813-1.34-5.922-1.34c-2.09,0-4.111,0.49-5.9,1.34
	C73.957,99.525,72.002,100,69.958,100s-3.992-0.476-5.736-1.269c-1.785-0.85-3.808-1.34-5.925-1.34c-2.088,0-4.11,0.49-5.916,1.34
	C50.633,99.525,48.687,100,46.645,100c-2.045,0-3.999-0.476-5.746-1.269c-1.799-0.85-3.812-1.34-5.924-1.34
	c-2.103,0-4.109,0.49-5.908,1.34C27.312,99.525,25.359,100,23.315,100c-2.044,0-3.99-0.476-5.746-1.269
	c-1.791-0.85-3.812-1.34-5.908-1.34c-2.118,0-4.125,0.49-5.916,1.34C3.992,99.525,2.044,100,0,100v-8.716
	c2.044,0,3.992-0.463,5.746-1.26c1.791-0.827,3.798-1.315,5.916-1.315c2.096,0,4.117,0.488,5.908,1.315
	c1.755,0.797,3.702,1.26,5.746,1.26c2.042,0,3.998-0.463,5.752-1.26c1.799-0.827,3.806-1.315,5.908-1.315
	c2.112,0,4.125,0.488,5.924,1.315c1.747,0.797,3.701,1.26,5.746,1.26c2.042,0,3.988-0.463,5.736-1.26
	c1.806-0.827,3.828-1.315,5.916-1.315c2.117,0,4.14,0.488,5.925,1.315c1.744,0.797,3.692,1.26,5.736,1.26s3.998-0.463,5.761-1.26
	c1.789-0.827,3.811-1.315,5.9-1.315c2.108,0,4.131,0.488,5.922,1.315c1.739,0.797,3.717,1.26,5.739,1.26V100z"/>
<path d="M10.013,49.619c3.121,0,5.656-2.562,5.656-5.71c0-3.151-2.535-5.706-5.656-5.706c-3.113,0-5.648,2.555-5.648,5.706
	C4.364,47.056,6.899,49.619,10.013,49.619z"/>
<path d="M34.85,75.508H18.686c-2.379,0-4.451-1.43-5.38-3.495L7.33,58.227c-0.119-0.466-0.179-0.938-0.179-1.426
	c0-3.316,2.653-5.989,5.917-5.989l13.131-0.021l9.009-4.134c0.141-0.097,0.513-0.187,0.906-0.187c1.546,0,2.81,1.292,2.81,2.841
	c0,0.961-0.483,1.832-1.204,2.344l-9.804,4.462c-0.647,0.519-1.88,0.586-1.88,0.586h-5.901l4.949,11.103h10.924l0,0
	c1.079,0,1.837,0.377,2.498,0.97l10.711,10.281l0,0c1.485,1.411,1.583,3.779,0.191,5.305c-1.418,1.5-3.767,1.599-5.254,0.194l0,0
	L34.85,75.508z"/>
<path d="M85.216,56.844c0.207,0.354,0.72,0.497,1.188,0.497c0.908,0,1.649-0.75,1.649-1.692c0-0.45-0.217-0.849-0.423-1.223
	c-10.1-19.488-37.368-13.69-40.712-12.42c-0.558,0.21-0.885,0.849-0.885,1.48c0,0.916,0.744,1.67,1.651,1.67
	c0.281,0,0.415-0.024,0.654-0.102C75.092,38.979,83.804,54.38,85.216,56.844z M89.86,58.601L55.651,80.42L24.512,0
	C52.381,3.734,87.816,25.621,89.86,58.601z"/>
</svg>
