<?xml version="1.0" encoding="utf-8"?>
<!-- Generator: Adobe Illustrator 14.0.0, SVG Export Plug-In . SVG Version: 6.00 Build 43363)  -->
<!DOCTYPE svg PUBLIC "-//W3C//DTD SVG 1.0//EN" "http://www.w3.org/TR/2001/REC-SVG-20010904/DTD/svg10.dtd">
<svg version="1.0" id="Layer_1" xmlns="http://www.w3.org/2000/svg" xmlns:xlink="http://www.w3.org/1999/xlink" x="0px" y="0px"
	 width="94.3px" height="100px" viewBox="0 0 94.3 100" enable-background="new 0 0 94.3 100" xml:space="preserve">
<path id="path5598" d="M94.3,100c-2.068,0-4.038-0.474-5.793-1.276c-1.814-0.851-3.859-1.349-5.985-1.349
	c-2.141,0-4.16,0.498-5.986,1.349C74.768,99.526,72.796,100,70.728,100c-2.066,0-4.038-0.474-5.792-1.276
	c-1.84-0.851-3.847-1.349-5.986-1.349c-2.141,0-4.184,0.498-5.986,1.349C51.196,99.526,49.224,100,47.156,100
	c-2.065,0-4.038-0.474-5.816-1.276c-1.803-0.851-3.847-1.349-5.962-1.349c-2.14,0-4.184,0.498-5.987,1.349
	C27.625,99.526,25.652,100,23.597,100c-2.067,0-4.038-0.474-5.818-1.276c-1.803-0.851-3.847-1.349-5.961-1.349
	c-2.14,0-4.184,0.498-5.985,1.349C4.065,99.526,2.07,100,0,100v-8.799c2.07,0,4.065-0.474,5.833-1.287
	c1.801-0.826,3.845-1.325,5.985-1.325c2.115,0,4.159,0.499,5.961,1.325c1.78,0.813,3.751,1.287,5.818,1.287
	c2.055,0,4.028-0.474,5.793-1.287c1.803-0.826,3.847-1.325,5.987-1.325c2.115,0,4.159,0.499,5.962,1.325
	c1.778,0.813,3.751,1.287,5.816,1.287c2.068,0,4.04-0.474,5.808-1.287c1.803-0.826,3.846-1.325,5.986-1.325
	c2.14,0,4.146,0.499,5.986,1.325c1.754,0.813,3.726,1.287,5.792,1.287c2.068,0,4.04-0.474,5.808-1.287
	c1.826-0.826,3.846-1.325,5.986-1.325c2.126,0,4.171,0.499,5.985,1.325c1.755,0.813,3.725,1.287,5.793,1.287V100z"/>
<path id="path5600" d="M26.686,56.836c4.389,0,7.959-3.609,7.959-8.057c0-4.435-3.57-8.02-7.959-8.02
	c-4.375,0-7.945,3.584-7.945,8.02C18.741,53.227,22.312,56.836,26.686,56.836"/>
<path id="path5602" d="M27.816,84.653c-1.25,2.15-3.989,2.891-6.118,1.602c-2.14-1.25-2.862-4.033-1.623-6.183l18.45-32.118
	c0.673-1.215,1.658-2.212,2.837-2.868l23.718-14.534L81.174,2.834c1.527-2.699,4.938-3.634,7.609-2.09
	c2.655,1.568,3.57,5.006,2.044,7.691L71.534,41.646c-0.66,1.204-1.646,2.202-2.85,2.868L40.702,62.097L27.816,84.653z"/>
</svg>
