<?xml version="1.0" encoding="utf-8"?>
<!-- Generator: Adobe Illustrator 14.0.0, SVG Export Plug-In . SVG Version: 6.00 Build 43363)  -->
<!DOCTYPE svg PUBLIC "-//W3C//DTD SVG 1.0//EN" "http://www.w3.org/TR/2001/REC-SVG-20010904/DTD/svg10.dtd">
<svg version="1.0" id="Layer_1" xmlns="http://www.w3.org/2000/svg" xmlns:xlink="http://www.w3.org/1999/xlink" x="0px" y="0px"
	 width="100px" height="61.21px" viewBox="0 0 100 61.21" enable-background="new 0 0 100 61.21" xml:space="preserve">
<path d="M42.755,35.892l-3.838-9.787c-0.746-1.847-2.32-3.435-5.278-3.456h-5.47v-2.544c0.005-1.004-0.555-1.522-1.44-1.534h-3.214
	h-3.167c-0.907,0.011-1.465,0.529-1.487,1.534v2.544H13.34c-2.946,0.021-4.521,1.609-5.229,3.456l-3.887,9.787
	C2.701,36.074-0.008,37.836,0,41.172V53.6h3.743v3.98c0.004,4.868,7.061,4.811,7.054,0V53.6h12.716h12.668v3.98
	c0.007,4.811,7.063,4.868,7.053,0V53.6h3.791V41.172C47,37.836,44.29,36.074,42.755,35.892z M7.391,46.018
	C5.587,46,4.129,44.524,4.127,42.705c0.002-1.816,1.46-3.292,3.264-3.31c1.796,0.018,3.255,1.493,3.262,3.31
	C10.646,44.524,9.187,46,7.391,46.018z M23.513,35.652h-0.047H8.205l2.928-7.534c0.367-1.102,0.913-1.881,2.207-1.872h10.126h0.047
	h10.172c1.259-0.009,1.805,0.771,2.16,1.872l2.928,7.534H23.513z M39.587,46.018c-1.784-0.018-3.244-1.493-3.263-3.312
	c0.019-1.816,1.479-3.292,3.263-3.31c1.815,0.018,3.275,1.493,3.264,3.31C42.862,44.524,41.402,46,39.587,46.018z"/>
<path d="M39.587,42.705"/>
<path d="M92.082,42.033"/>
<path d="M57.101,42.033"/>
<g>
	<path d="M74.328,0c0.087,0,0.178,0.005,0.266,0.005C74.679,0.005,74.77,0,74.857,0H74.328z"/>
	<path d="M97.553,9.07c-0.701-3.383-2.896-4.733-6.19-6.097c-3.244-1.318-11.01-2.909-16.769-2.968
		c-5.752,0.059-13.518,1.65-16.772,2.968c-3.281,1.364-5.478,2.714-6.143,6.097l-2.495,18.711V53.6h4.27v4.03
		c-0.013,4.945,7.318,4.945,7.342,0V53.6h13.532h14.107v4.03c-0.015,4.945,7.316,4.945,7.294,0V53.6H100V27.781L97.553,9.07z
		 M64.156,4.751h10.172h10.701c2.08-0.008,2.08,3.03,0,3.022H74.328H64.156C62.085,7.781,62.085,4.743,64.156,4.751z M57.101,45.488
		c-1.932,0.02-3.506-1.533-3.502-3.455c-0.004-1.905,1.57-3.454,3.502-3.454c1.952,0,3.527,1.549,3.503,3.454
		C60.628,43.955,59.053,45.508,57.101,45.488z M74.328,29.75H55.711c-1.84,0.014-2.223-1.277-2.064-2.591l1.92-13.58
		c0.287-1.64,0.855-2.728,3.022-2.734h15.739h16.266c2.179,0.006,2.749,1.094,3.023,2.734l1.921,13.58
		c0.17,1.314-0.214,2.604-2.065,2.591H74.328z M92.082,45.488c-1.94,0.02-3.515-1.533-3.504-3.455
		c-0.011-1.905,1.563-3.454,3.504-3.454c1.945,0,3.519,1.549,3.503,3.454C95.601,43.955,94.027,45.508,92.082,45.488z"/>
</g>
</svg>
