<?xml version="1.0" encoding="utf-8"?>
<!-- Generator: Adobe Illustrator 14.0.0, SVG Export Plug-In . SVG Version: 6.00 Build 43363)  -->
<!DOCTYPE svg PUBLIC "-//W3C//DTD SVG 1.0//EN" "http://www.w3.org/TR/2001/REC-SVG-20010904/DTD/svg10.dtd">
<svg version="1.0" id="Layer_1" xmlns="http://www.w3.org/2000/svg" xmlns:xlink="http://www.w3.org/1999/xlink" x="0px" y="0px"
	 width="54.298px" height="99.999px" viewBox="0 0 54.298 99.999" enable-background="new 0 0 54.298 99.999" xml:space="preserve">
<path d="M16.54,16.833c-4.118,0-7.441,3.288-7.441,7.333c0,4.059,3.323,7.34,7.441,7.34c4.093,0,7.419-3.282,7.419-7.34
	C23.958,20.121,20.633,16.833,16.54,16.833z"/>
<path d="M54.241,31.341c-0.279-1.584-1.576-2.483-1.655-2.541L8.904,0L4.846,5.879c-0.756,1.159-0.426,2.7,0.733,3.454
	c1.153,0.763,2.691,0.453,3.447-0.705l2.375-3.397l35.479,23.41l-29.067,5.232c-2.058,0.346-3.548,2.404-3.089,4.419l6.326,24.454
	L0.59,93.433c-1.223,2.095-0.482,4.779,1.634,5.98c2.137,1.216,4.843,0.476,6.074-1.618c0,0,21.338-32.09,21.417-32.292
	c0,0,1.101,4.453,1.101,4.475l-3.202,24.074c-0.402,2.397,1.224,4.635,3.642,5.038c2.418,0.402,4.714-1.202,5.116-3.584
	l3.312-24.764c0.101-0.634-0.029-2.022-0.173-2.634l-7.298-28.995l18.985-3.419C53.227,35.335,54.601,33.378,54.241,31.341z"/>
</svg>
