<?xml version="1.0" encoding="utf-8"?>
<!-- Generator: Adobe Illustrator 14.0.0, SVG Export Plug-In . SVG Version: 6.00 Build 43363)  -->
<!DOCTYPE svg PUBLIC "-//W3C//DTD SVG 1.0//EN" "http://www.w3.org/TR/2001/REC-SVG-20010904/DTD/svg10.dtd">
<svg version="1.0" id="Layer_1" xmlns="http://www.w3.org/2000/svg" xmlns:xlink="http://www.w3.org/1999/xlink" x="0px" y="0px"
	 width="95.691px" height="100px" viewBox="0 0 95.691 100" enable-background="new 0 0 95.691 100" xml:space="preserve">
<path id="path7240_1_" d="M86.609,18.33c5.005,0,9.082-4.108,9.082-9.167c0-5.07-4.077-9.164-9.082-9.164
	c-5.015,0-9.076,4.094-9.076,9.164C77.533,14.222,81.595,18.33,86.609,18.33"/>
<path id="path7242_1_" d="M60.85,96.541h23.423c0,0,1.777,0.186,1.777-1.69v-1.863h3.448c0,0,0.797,6.406-3.932,7.014H60.85V96.541z
	"/>
<path id="path7244_1_" d="M2.403,78.221L18.98,94.967c0,0,1.111,1.388,2.417,0.066l1.32-1.334l2.43,2.484
	c0,0-3.919,5.109-7.682,2.166L0,80.679L2.403,78.221z"/>
<path id="path7246_1_" d="M66.361,72.399L66.388,89c0,3.117,2.497,5.651,5.593,5.651c2.821,0,5.578-3.301,5.578-5.651V65.898
	c0-1.608-0.666-3.073-1.737-4.104L62.418,48.283l17.779-17.974c3.344-4.227,1.581-9.284,1.581-9.284
	c-1.842-5.601-8.139-5.798-8.139-5.798l-45.827-0.015c-2.444,0-4.43,1.998-4.43,4.478c0,2.482,1.986,4.479,4.43,4.479l31.638,0.052
	L46.126,37.626c-1.905,1.98-2.873,4.199-2.873,7.09c0,2.786,1.098,5.282,2.926,7.093L66.361,72.399z"/>
<path id="path7248_1_" d="M43.344,54.346c-0.418-0.412-0.798-0.874-1.163-1.349l-26.44,26.797c-2.013,1.624-2.652,4.477-1.463,6.868
	c1.386,2.73,4.714,3.815,7.42,2.416c0.366-0.199,0.706-0.436,1.019-0.688l27.146-27.482L43.344,54.346z"/>
</svg>
