<?xml version="1.0" encoding="utf-8"?>
<!-- Generator: Adobe Illustrator 14.0.0, SVG Export Plug-In . SVG Version: 6.00 Build 43363)  -->
<!DOCTYPE svg PUBLIC "-//W3C//DTD SVG 1.0//EN" "http://www.w3.org/TR/2001/REC-SVG-20010904/DTD/svg10.dtd">
<svg version="1.0" id="Layer_1" xmlns="http://www.w3.org/2000/svg" xmlns:xlink="http://www.w3.org/1999/xlink" x="0px" y="0px"
	 width="84.166px" height="100px" viewBox="0 0 84.166 100" enable-background="new 0 0 84.166 100" xml:space="preserve">
<path id="path6712" d="M66.078,16.941c-1.845,1.808-4.336,2.515-7.098,2.515c-3.506,0-6.695-1.445-8.527-4.181
	c-1.817,2.792-5.021,4.181-8.572,4.181c-3.506,0-6.666-1.475-8.498-4.21c-1.819,2.822-5.023,4.21-8.612,4.21
	c-2.592,0-4.968-0.591-6.757-2.197l-1.357-9.836c1.858,2.487,4.805,4.094,8.114,4.094c3.589,0,6.793-1.781,8.612-4.602
	c1.832,2.735,4.992,4.602,8.498,4.602c3.551,0,6.755-1.781,8.572-4.572c1.832,2.734,5.021,4.572,8.527,4.572
	c3.577,0,6.741-1.866,8.543-4.688L66.078,16.941z"/>
<path id="path6714" d="M68.669,100L84.166,0L73.733,0.102L59.64,89.455H24.525L10.431,0.102L0,0l15.496,100H68.669z"/>
</svg>
