<?xml version="1.0" encoding="utf-8"?>
<!-- Generator: Adobe Illustrator 14.0.0, SVG Export Plug-In . SVG Version: 6.00 Build 43363)  -->
<!DOCTYPE svg PUBLIC "-//W3C//DTD SVG 1.0//EN" "http://www.w3.org/TR/2001/REC-SVG-20010904/DTD/svg10.dtd">
<svg version="1.0" id="Layer_1" xmlns="http://www.w3.org/2000/svg" xmlns:xlink="http://www.w3.org/1999/xlink" x="0px" y="0px"
	 width="100px" height="98.443px" viewBox="0 0 100 98.443" enable-background="new 0 0 100 98.443" xml:space="preserve">
<path d="M80.221,16.032c4.432,0,8.031-3.576,8.031-8.008c0-4.425-3.6-8.024-8.031-8.024c-4.424,0-8.001,3.599-8.001,8.024
	C72.22,12.456,75.797,16.032,80.221,16.032z"/>
<path d="M58.195,35.252h-12.07c-4.789,0-4.789,6.296,0,6.296l13.798-0.021c1.022,0,2.082-0.545,2.894-1.818l6.939-10.941
	l-0.021,65.008c0,2.482,2.016,4.5,4.5,4.5c2.486,0,4.494-2.016,4.494-4.5V56.065h3.03l-0.021,37.711c0,2.482,2.016,4.5,4.502,4.5
	c2.484,0,4.501-2.016,4.501-4.5V28.768h2.984v23.958c0,4.832,6.296,4.832,6.274,0V28.268c0-5.326-4.122-10.555-10.372-10.555h-14.8
	c-3.599,0-6.729,1.841-8.577,4.661L58.195,35.252z"/>
<path d="M10.038,75.5c7.221,0,13.071,5.85,13.071,13.07l-0.122,8.879h15.396l13.919-39.276l0.074-13.304L5.638,44.891L5.616,75.478
	L10.038,75.5z"/>
<path d="M0,88.571c0-5.448,4.424-9.873,9.873-9.873c5.448,0,9.873,4.423,9.873,9.873c0,5.447-4.425,9.872-9.873,9.872
	C4.424,98.443,0,94.018,0,88.571z M9.872,92.851c2.371,0,4.288-1.917,4.288-4.28c0-2.372-1.917-4.289-4.288-4.289
	c-2.364,0-4.281,1.917-4.281,4.289C5.591,90.934,7.508,92.851,9.872,92.851z"/>
<path d="M43.755,24.767L43.755,24.767l-1.849,0.903l-0.869-1.827l0,0l-1.827,0.879l-0.878-1.826l0,0l-1.818,0.878l-0.903-1.826
	h0.022l-1.849,0.902l-0.87-1.848v0.022l-1.827,0.879l-0.871-1.872l-5.546,15.79c-0.448,1.28,0.243,2.697,1.514,3.129l8.956,3.099
	c1.272,0.447,2.675-0.235,3.122-1.515L43.755,24.767z"/>
<polygon points="35.921,8.759 33.336,6.583 2.961,42.573 5.561,44.746 "/>
</svg>
