<?xml version="1.0" encoding="utf-8"?>
<!-- Generator: Adobe Illustrator 14.0.0, SVG Export Plug-In . SVG Version: 6.00 Build 43363)  -->
<!DOCTYPE svg PUBLIC "-//W3C//DTD SVG 1.0//EN" "http://www.w3.org/TR/2001/REC-SVG-20010904/DTD/svg10.dtd">
<svg version="1.0" id="Layer_1" xmlns="http://www.w3.org/2000/svg" xmlns:xlink="http://www.w3.org/1999/xlink" x="0px" y="0px"
	 width="100px" height="97.251px" viewBox="0 0 100 97.251" enable-background="new 0 0 100 97.251" xml:space="preserve">
<path id="path5012" d="M11.318,61.61c6.264,0,11.344-5.081,11.344-11.345c0-6.252-5.081-11.318-11.344-11.318
	C5.066,38.947,0,44.014,0,50.266C0,56.529,5.066,61.61,11.318,61.61"/>
<path id="path5014" d="M74.854,81.091c0.528-0.357,1.227-0.258,1.613,0.257l2.098,2.896c0.356,0.501,0.241,1.227-0.257,1.614
	L62.922,97.033c-0.498,0.37-1.226,0.256-1.61-0.242l-2.099-2.912c-0.356-0.5-0.243-1.214,0.256-1.613L74.854,81.091z"/>
<path id="path5016" d="M57.457,66.677l-6.109-10.703l-3.195,2.34l6.094,10.761L57.457,66.677z"/>
<path id="path5018" d="M43.214,41.673L19.479,0l-4.537,0.028l25.032,44.013L43.214,41.673z"/>
<path id="path5020" d="M65.562,63.722c1.343-0.971,2.884-1.726,4.639-1.726l22.051,0.027c4.28,0,7.748,3.482,7.748,7.75
	c0,4.295-3.468,7.749-7.748,7.749l-18.396-0.027L50.351,94.078c-8.278,5.965-13.301-0.586-13.301-0.586L18.609,75.04
	c-3.083-3.711-2.425-10.761,1.285-13.872l25.518-18.183c2.541-2.111,6.309-1.783,8.448,0.729c2.127,2.539,1.785,6.321-0.755,8.448
	l-16.328,11.96L48.509,75.71L65.562,63.722z"/>
</svg>
