<?xml version="1.0" encoding="utf-8"?>
<!-- Generator: Adobe Illustrator 14.0.0, SVG Export Plug-In . SVG Version: 6.00 Build 43363)  -->
<!DOCTYPE svg PUBLIC "-//W3C//DTD SVG 1.0//EN" "http://www.w3.org/TR/2001/REC-SVG-20010904/DTD/svg10.dtd">
<svg version="1.0" id="Layer_1" xmlns="http://www.w3.org/2000/svg" xmlns:xlink="http://www.w3.org/1999/xlink" x="0px" y="0px"
	 width="95.559px" height="100px" viewBox="0 0 95.559 100" enable-background="new 0 0 95.559 100" xml:space="preserve">
<path id="path5384" d="M47.945,13.651c3.674,0,6.653-2.968,6.653-6.644c0-3.661-2.979-6.653-6.653-6.653
	c-3.687,0-6.657,2.992-6.657,6.653C41.288,10.683,44.258,13.651,47.945,13.651"/>
<path id="path5386" d="M89.659,89.928c-1.825-0.852-3.893-1.351-6.058-1.351c-2.129,0-4.197,0.499-6.06,1.351
	c-1.775,0.777-3.771,1.253-5.864,1.253c-2.091,0-4.111-0.476-5.897-1.253c-1.825-0.852-3.894-1.351-6.061-1.351
	c-2.153,0-4.221,0.499-6.058,1.351c-1.8,0.777-3.796,1.253-5.887,1.253c-2.093,0-4.088-0.476-5.89-1.253
	c-1.836-0.852-3.903-1.351-6.058-1.351c-2.141,0-4.208,0.499-6.058,1.351c-1.789,0.777-3.784,1.253-5.863,1.253
	c-2.094,0-4.113-0.476-5.889-1.253c-1.837-0.852-3.905-1.351-6.059-1.351c-2.165,0-4.234,0.499-6.058,1.351
	C4.087,90.705,2.093,91.181,0,91.181V100c2.093,0,4.087-0.45,5.901-1.253c1.824-0.864,3.893-1.362,6.058-1.362
	c2.154,0,4.222,0.498,6.059,1.362C19.793,99.55,21.812,100,23.906,100c2.079,0,4.074-0.45,5.863-1.253
	c1.85-0.864,3.917-1.362,6.058-1.362c2.155,0,4.222,0.498,6.058,1.362c1.801,0.803,3.797,1.253,5.89,1.253
	c2.091,0,4.087-0.45,5.887-1.253c1.837-0.864,3.904-1.362,6.058-1.362c2.167,0,4.235,0.498,6.061,1.362
	C67.566,99.55,69.586,100,71.677,100c2.093,0,4.089-0.45,5.864-1.253c1.862-0.864,3.931-1.362,6.06-1.362
	c2.165,0,4.232,0.498,6.058,1.362c1.813,0.803,3.808,1.253,5.9,1.253v-8.819C93.466,91.181,91.472,90.705,89.659,89.928"/>
<path id="path5388" d="M89.805,0.086c-0.475-0.181-0.998-0.072-1.375,0.292L64.196,24.635c-0.388-0.17-0.789-0.267-1.239-0.267
	h-9.197c-1.569-1.594-9.877-9.902-9.877-9.902c-0.427-0.427-0.974-0.67-1.522-0.815c-1.91-1.655-4.781-1.631-6.605,0.195
	L21.388,28.2c-0.548,0.548-0.876,1.302-0.876,2.117v10.548H0.317v3.344h20.194v23.553c0,2.968,2.396,5.364,5.353,5.364
	c2.944,0,5.401-2.396,5.401-5.364V44.209H47.53v31.229H0.317v5.693h50.571V44.209h5.792v-3.344H31.265v-2.994l13.393-13.406
	l5.462,5.464c0.597,0.619,1.437,0.948,2.312,0.948h10.524c1.8,0,3.26-1.448,3.26-3.249c0-0.426-0.097-0.839-0.243-1.215L88.066,4.32
	v76.909h2.529V1.277C90.595,0.756,90.28,0.305,89.805,0.086"/>
</svg>
