<?xml version="1.0" encoding="utf-8"?>
<!-- Generator: Adobe Illustrator 14.0.0, SVG Export Plug-In . SVG Version: 6.00 Build 43363)  -->
<!DOCTYPE svg PUBLIC "-//W3C//DTD SVG 1.0//EN" "http://www.w3.org/TR/2001/REC-SVG-20010904/DTD/svg10.dtd">
<svg version="1.0" id="Layer_1" xmlns="http://www.w3.org/2000/svg" xmlns:xlink="http://www.w3.org/1999/xlink" x="0px" y="0px"
	 width="100px" height="96.418px" viewBox="0 0 100 96.418" enable-background="new 0 0 100 96.418" xml:space="preserve">
<path id="path5170" d="M60.458,67.628c2.212,0,4-1.801,4-3.998c0-2.212-1.788-3.988-4-3.988c-2.187,0-3.974,1.776-3.974,3.988
	C56.485,65.827,58.272,67.628,60.458,67.628 M100,96.399c-23.628,0.348-48.349-4.175-67.305-19.379
	c-0.087-0.125-0.162-0.249-0.162-0.436c0-0.347,0.286-0.633,0.659-0.633l18.634,0.023c0.92,0,1.639-0.731,1.639-1.65
	c0-0.684-0.311-1.144-1.018-1.504L35.589,64.76c-0.334-0.187-0.535-0.535-0.535-0.943c0-0.312,0.126-0.585,0.311-0.771
	c0,0,20.561-18.174,64.635-17.764V96.399z"/>
<path id="path5172" d="M17.763,0H0v14.412h17.763V0z"/>
<path id="path5174" d="M100,0H36.795v14.238H100V0z"/>
<path id="path5176" d="M26.136,22.014c-1.565,0.51-2.696,2.013-2.696,3.764c0,1.739,1.156,3.242,2.696,3.8v24.635
	c0,3.18-2.533,5.726-5.714,5.726c-3.157,0-5.702-2.546-5.702-5.726c0-0.783,0.149-1.527,0.447-2.212l0.236,0.199l2.013,1.839
	L16.16,42.808l-3.279,7.566c-0.993,2.334-0.757,3.839-0.757,3.839c0,4.583,3.713,8.322,8.298,8.322c4.61,0,8.31-3.739,8.31-8.322
	V29.529c1.554-0.547,2.672-2.037,2.672-3.751c0-1.751-1.118-3.254-2.672-3.814V0h-2.596V22.014z"/>
</svg>
