<?xml version="1.0" encoding="utf-8"?>
<!-- Generator: Adobe Illustrator 14.0.0, SVG Export Plug-In . SVG Version: 6.00 Build 43363)  -->
<!DOCTYPE svg PUBLIC "-//W3C//DTD SVG 1.0//EN" "http://www.w3.org/TR/2001/REC-SVG-20010904/DTD/svg10.dtd">
<svg version="1.0" id="Layer_1" xmlns="http://www.w3.org/2000/svg" xmlns:xlink="http://www.w3.org/1999/xlink" x="0px" y="0px"
	 width="100px" height="11.655px" viewBox="0 0 100 11.655" enable-background="new 0 0 100 11.655" xml:space="preserve">
<path id="path4828" d="M64.974,0v11.787h29.132c3.246,0,5.895-2.636,5.895-5.894C100,2.623,97.352,0,94.105,0H64.974z"/>
<path id="path4830" d="M10.194,8.468l2.695-1.125l1.677,2.874l2.719-1.964l1.94,2.719l2.601-2.107l2.107,2.574L26.39,9.2
	l2.228,2.455l2.36-2.372l2.372,2.372l2.36-2.372l2.335,2.372l2.373-2.372l2.359,2.372l2.361-2.372l2.359,2.372l2.349-2.372
	l2.358,2.372l2.36-2.372l2.36,2.372l2.348-2.372l2.384,2.372V0.025H0v0.047C2.827,3.461,6.29,6.337,10.194,8.468"/>
</svg>
