<?xml version="1.0" encoding="utf-8"?>
<!-- Generator: Adobe Illustrator 14.0.0, SVG Export Plug-In . SVG Version: 6.00 Build 43363)  -->
<!DOCTYPE svg PUBLIC "-//W3C//DTD SVG 1.0//EN" "http://www.w3.org/TR/2001/REC-SVG-20010904/DTD/svg10.dtd">
<svg version="1.0" id="Layer_1" xmlns="http://www.w3.org/2000/svg" xmlns:xlink="http://www.w3.org/1999/xlink" x="0px" y="0px"
	 width="100px" height="52.269px" viewBox="0 0 100 52.269" enable-background="new 0 0 100 52.269" xml:space="preserve">
<path d="M54.366,39.622c4.054-0.929,7.075-4.557,7.075-8.892c0-5.036-4.083-9.119-9.121-9.119c-5.039,0-9.122,4.083-9.122,9.119
	c0,2.927,1.378,5.533,3.522,7.201L0,27.606v24.628l51.166,0.035c2.298,0,4.317-1.199,5.467-3.003
	c1.149,1.804,3.167,3.003,5.468,3.003c2.299,0,4.317-1.199,5.469-3.003c1.148,1.804,3.167,3.003,5.467,3.003
	c2.298,0,4.318-1.199,5.468-3.003c1.149,1.804,3.167,3.003,5.467,3.003s4.319-1.199,5.468-3.003
	c1.148,1.804,3.169,3.003,5.468,3.003c2.066,0,3.906-0.968,5.094-2.475L54.366,39.622z M47.549,30.73
	c0-2.633,2.136-4.769,4.771-4.769c2.636,0,4.771,2.136,4.771,4.769c0,2.636-2.135,4.772-4.771,4.772
	C49.686,35.502,47.549,33.366,47.549,30.73z"/>
<path d="M92.986,36.301l-30.62-6.66c0.039,0.359,0.058,0.721,0.058,1.089c0,0.896-0.117,1.761-0.333,2.585l30.121,6.551
	L92.986,36.301"/>
<path d="M4.541,17.063l-0.776,3.565l38.596,8.396c0.211-1.245,0.652-2.411,1.276-3.457L4.541,17.063"/>
<path d="M33.647,7.917l10.533-5.964L43.075,0L30.352,7.205L9.378,2.667C9.52,15.718,23.832,19.505,23.832,19.505l20.978,4.469
	c1.85-2.055,4.53-3.345,7.511-3.345c4.495,0,8.305,2.936,9.616,6.995l26.45,5.634l6.595-12.069L33.647,7.917"/>
</svg>
