<?xml version="1.0" encoding="utf-8"?>
<!-- Generator: Adobe Illustrator 14.0.0, SVG Export Plug-In . SVG Version: 6.00 Build 43363)  -->
<!DOCTYPE svg PUBLIC "-//W3C//DTD SVG 1.0//EN" "http://www.w3.org/TR/2001/REC-SVG-20010904/DTD/svg10.dtd">
<svg version="1.0" id="Layer_1" xmlns="http://www.w3.org/2000/svg" xmlns:xlink="http://www.w3.org/1999/xlink" x="0px" y="0px"
	 width="100px" height="69.342px" viewBox="0 0 100 69.342" enable-background="new 0 0 100 69.342" xml:space="preserve">
<path id="path3520" d="M17.198,13.194c1.823,0,3.368-1.508,3.368-3.33c0-1.834-1.545-3.341-3.368-3.341
	c-1.808,0-3.366,1.507-3.366,3.341C13.832,11.687,15.39,13.194,17.198,13.194 M0.1,18.119L0.1,18.119C0.05,18.068,0,17.967,0,17.867
	c0-0.188,0.176-0.339,0.365-0.339h10.653c0.515,0,0.929-0.415,0.929-0.931c0-0.402-0.175-0.666-0.565-0.891l-9.636-4.585
	c-0.175-0.101-0.301-0.29-0.301-0.541c0-0.163,0.049-0.313,0.175-0.439c0,0,25.29-22.349,81.308-0.691l15.376-7.5
	c0.15-0.075,0.326-0.125,0.49-0.125c0.666,0,1.206,0.54,1.206,1.206c0,0.213-0.076,0.415-0.176,0.603l-9.07,11.294l9.07,11.257
	c0.1,0.201,0.176,0.402,0.176,0.641c0,0.64-0.54,1.181-1.206,1.181c-0.164,0-0.34-0.051-0.49-0.126l-15.376-7.5
	C82.928,20.379,29.384,41.648,0.1,18.119"/>
<path id="path3522" d="M13.316,45.041c1.068,0,1.998-0.854,1.998-1.948c0-1.055-0.93-1.946-1.998-1.946
	c-1.042,0-1.96,0.892-1.96,1.946C11.356,44.187,12.274,45.041,13.316,45.041 M5.742,46.159L5.742,46.159
	c-0.026-0.025-0.051-0.076-0.051-0.102c0-0.088,0.075-0.138,0.176-0.138h4.246c0.188,0,0.365-0.176,0.365-0.377
	c0-0.163-0.075-0.265-0.226-0.34l-3.845-1.834c-0.074-0.049-0.125-0.125-0.125-0.226c0-0.075,0.024-0.151,0.075-0.176
	c0,0,10.1-8.958,32.5-0.264l6.155-3.016c0.05-0.024,0.126-0.05,0.201-0.05c0.265,0,0.464,0.214,0.464,0.465
	c0,0.101-0.024,0.188-0.049,0.238l-3.631,4.522l3.631,4.511c0.025,0.075,0.049,0.176,0.049,0.251c0,0.264-0.2,0.489-0.464,0.489
	c-0.075,0-0.151-0.024-0.201-0.049l-6.155-3.016C38.857,47.051,17.474,55.556,5.742,46.159"/>
<path id="path3524" d="M63.492,45.041c1.043,0,1.936-0.854,1.936-1.948c0-1.055-0.893-1.946-1.936-1.946
	c-1.118,0-1.946,0.892-1.946,1.946C61.545,44.187,62.374,45.041,63.492,45.041 M55.905,46.159L55.905,46.159
	c-0.051-0.025-0.051-0.076-0.051-0.102c0-0.088,0.075-0.138,0.15-0.138h4.247c0.213,0,0.39-0.176,0.39-0.377
	c0-0.163-0.075-0.265-0.239-0.34l-3.856-1.834c-0.076-0.049-0.125-0.125-0.125-0.226c0-0.075,0.024-0.151,0.075-0.176
	c0,0,10.138-8.958,32.537-0.264l6.131-3.016c0.075-0.024,0.151-0.05,0.227-0.05c0.237,0,0.465,0.214,0.465,0.465
	c0,0.101-0.025,0.188-0.076,0.238l-3.631,4.522l3.631,4.511c0.051,0.075,0.076,0.176,0.076,0.251c0,0.264-0.228,0.489-0.465,0.489
	c-0.075,0-0.151-0.024-0.227-0.049l-6.131-3.016C89.033,47.051,67.613,55.556,55.905,46.159"/>
<path id="path3526" d="M38.58,63.797c1.068,0,1.948-0.867,1.948-1.96c0-1.056-0.88-1.947-1.948-1.947
	c-1.092,0-1.972,0.892-1.972,1.947C36.608,62.93,37.488,63.797,38.58,63.797 M30.98,64.902L30.98,64.902
	c-0.025-0.024-0.025-0.037-0.025-0.088c0-0.075,0.049-0.15,0.15-0.15h4.234c0.226,0,0.402-0.176,0.402-0.364
	c0-0.15-0.076-0.276-0.251-0.352l-3.857-1.834c-0.063-0.051-0.113-0.126-0.113-0.227c0-0.076,0.025-0.126,0.075-0.163
	c0,0,10.126-8.958,32.525-0.277l6.144-3.014c0.075-0.026,0.138-0.051,0.188-0.051c0.276,0,0.489,0.213,0.489,0.489
	c0,0.075-0.024,0.176-0.062,0.239l-3.644,4.522l3.644,4.51c0.037,0.075,0.062,0.15,0.062,0.252c0,0.238-0.213,0.464-0.489,0.464
	c-0.051,0-0.113-0.025-0.188-0.05l-6.144-2.99C64.121,65.819,42.701,74.324,30.98,64.902"/>
</svg>
