<?xml version="1.0" encoding="utf-8"?>
<!-- Generator: Adobe Illustrator 14.0.0, SVG Export Plug-In . SVG Version: 6.00 Build 43363)  -->
<!DOCTYPE svg PUBLIC "-//W3C//DTD SVG 1.0//EN" "http://www.w3.org/TR/2001/REC-SVG-20010904/DTD/svg10.dtd">
<svg version="1.0" id="Layer_1" xmlns="http://www.w3.org/2000/svg" xmlns:xlink="http://www.w3.org/1999/xlink" x="0px" y="0px"
	 width="92.949px" height="100px" viewBox="0 0 92.949 100" enable-background="new 0 0 92.949 100" xml:space="preserve">
<path d="M8.319,74.501H0v16.382C0,95.903,4.512,100,10.055,100h72.832c5.543,0,10.062-4.097,10.062-9.116V74.501h-8.326v14.644
	c0,1.836-1.65,3.33-3.68,3.33H11.991c-2.036,0-3.672-1.494-3.672-3.33V74.501z"/>
<polygon points="74.466,85.455 74.466,72.545 18.404,53.817 18.404,66.736 "/>
<path d="M31.336,53.833c-1.931-2.176-14.746-16.991-1.815-29.809C40.298,13.332,41.87,4.354,38.241,0
	c0,0,27.433,11.274,11.297,37.422c-2.762,4.439-9.661,9.683-6.054,20.492L31.336,53.833z"/>
<path d="M48.182,57.381c-0.589-2.194-3.221-6.971,4.804-16.473c4.289-5.064,5.902-12.573,6.29-15.398c0,0,14.209,8.146,0.072,28.079
	L48.182,57.381z"/>
<polygon points="51.201,60.438 74.466,52.669 74.466,65.579 70.521,66.878 "/>
<polygon points="41.676,78.839 18.404,86.593 18.404,73.683 22.362,72.393 "/>
</svg>
