<?xml version="1.0" encoding="utf-8"?>
<!-- Generator: Adobe Illustrator 14.0.0, SVG Export Plug-In . SVG Version: 6.00 Build 43363)  -->
<!DOCTYPE svg PUBLIC "-//W3C//DTD SVG 1.1//EN" "http://www.w3.org/Graphics/SVG/1.1/DTD/svg11.dtd">
<svg version="1.1" id="Layer_1" xmlns="http://www.w3.org/2000/svg" xmlns:xlink="http://www.w3.org/1999/xlink" x="0px" y="0px"
	 width="72.301px" height="100px" viewBox="0 0 72.301 100" enable-background="new 0 0 72.301 100" xml:space="preserve">
<path d="M34.222,16.971c4.584,0.011,8.292-3.698,8.292-8.291c0.001-4.555-3.707-8.262-8.292-8.244
	c-4.563-0.018-8.271,3.689-8.291,8.244C25.95,13.273,29.658,16.981,34.222,16.971L34.222,16.971z"/>
<path d="M64.833,85.566h3.615c2.545,0,3.854-2.016,3.854-3.855c0,0-0.002-20.292,0-20.393c-0.002-1.846-1.445-3.883-3.854-3.903
	h-3.615V85.566L64.833,85.566z"/>
<path d="M62.903,57.415H57.6v-3.808c0.021-1.467-0.846-2.237-2.361-2.219c0,0-0.928-0.02-2.459,0V29.505
	c-0.014-5.042-4.342-10.374-10.074-10.365H24.34L6.89,1.305C3.053-2.568-2.562,3.047,1.298,6.896l22.271,22.706v65.605
	c0.021,6.482,9.475,6.294,9.496,0V57.415h1.542v37.792c0.022,6.298,9.547,6.482,9.546,0v-9.641h18.75V57.415z M45.84,53.607v3.808
	h-1.688V32.106h1.688V53.607z"/>
</svg>
