<?xml version="1.0" encoding="utf-8"?>
<!-- Generator: Adobe Illustrator 14.0.0, SVG Export Plug-In . SVG Version: 6.00 Build 43363)  -->
<!DOCTYPE svg PUBLIC "-//W3C//DTD SVG 1.0//EN" "http://www.w3.org/TR/2001/REC-SVG-20010904/DTD/svg10.dtd">
<svg version="1.0" id="Layer_1" xmlns="http://www.w3.org/2000/svg" xmlns:xlink="http://www.w3.org/1999/xlink" x="0px" y="0px"
	 width="91.135px" height="100px" viewBox="0 0 91.135 100" enable-background="new 0 0 91.135 100" xml:space="preserve">
<path d="M91.133,100c-1.974,0-3.899-0.464-5.605-1.242c-1.741-0.827-3.718-1.307-5.779-1.307c-2.049,0-4.022,0.479-5.766,1.307
	C72.254,99.536,70.35,100,68.354,100c-1.974,0-3.905-0.464-5.605-1.242c-1.75-0.827-3.726-1.307-5.788-1.307
	c-2.04,0-4.017,0.479-5.764,1.307C49.474,99.536,47.563,100,45.568,100c-1.999,0-3.902-0.464-5.607-1.242
	c-1.75-0.827-3.728-1.307-5.781-1.307c-2.061,0-4.039,0.479-5.779,1.307C26.69,99.536,24.778,100,22.779,100
	c-1.983,0-3.9-0.464-5.613-1.242c-1.753-0.827-3.724-1.307-5.781-1.307c-2.05,0-4.023,0.479-5.774,1.307
	C3.896,99.536,1.996,100,0,100v-8.516c1.996,0,3.896-0.458,5.611-1.242c1.751-0.801,3.725-1.276,5.774-1.276
	c2.057,0,4.028,0.478,5.781,1.276c1.713,0.784,3.63,1.242,5.613,1.242c1.996,0,3.911-0.458,5.622-1.242
	c1.741-0.801,3.718-1.276,5.779-1.276c2.054,0,4.031,0.478,5.781,1.276c1.705,0.784,3.608,1.242,5.607,1.242
	c1.995,0,3.905-0.458,5.628-1.242c1.747-0.801,3.725-1.276,5.764-1.276c2.062,0,4.038,0.478,5.788,1.276
	c1.7,0.784,3.632,1.242,5.605,1.242c1.996,0,3.9-0.458,5.629-1.242c1.743-0.801,3.717-1.276,5.766-1.276
	c2.061,0,4.038,0.478,5.779,1.276c1.706,0.784,3.631,1.242,5.605,1.242V100H91.133z"/>
<path d="M59.481,15.158c15.27,7.178,33.402,26.315,31.022,49.278H59.481V15.158L59.481,15.158z"/>
<path d="M83.946,69.07H69.785H14.916v12.665c0.777,0.206,1.547,0.434,2.251,0.777c1.713,0.754,3.63,1.219,5.613,1.219
	c1.999,0,3.914-0.465,5.622-1.219c1.741-0.823,3.718-1.307,5.779-1.307c2.054,0,4.031,0.483,5.781,1.307
	c1.707,0.754,3.611,1.219,5.607,1.219c1.995,0,3.905-0.465,5.628-1.219c1.75-0.823,3.725-1.307,5.764-1.307
	c2.062,0,4.04,0.483,5.788,1.307c1.7,0.754,3.632,1.219,5.605,1.219c0.385,0,0.751-0.096,1.11-0.139
	c0.044,0,0.044,0.043,0.089,0.043c0.252,0,0.436-0.111,0.685-0.111c0.454-0.063,0.906-0.116,1.364-0.226
	c4.082-0.854,6.717-4.067,6.717-4.067l7.938-10.158h-2.309V69.07H83.946z"/>
<path d="M54.73,0.068c-0.127-0.091-0.294-0.104-0.426,0.047c-0.001,0.001-0.003,0.002-0.005,0.003
	c-0.002,0.002-0.004,0.002-0.006,0.005c-17.297,21.35-34.595,42.699-51.892,64.05c-0.196,0.241-0.088,0.637,0.264,0.637
	c17.297,0,34.595,0,51.893,0c0.204,0,0.374-0.17,0.374-0.373c0-21.35,0-42.7,0-64.049C54.933,0.224,54.844,0.12,54.73,0.068z"/>
</svg>
