<?xml version="1.0" encoding="utf-8"?>
<!-- Generator: Adobe Illustrator 14.0.0, SVG Export Plug-In . SVG Version: 6.00 Build 43363)  -->
<!DOCTYPE svg PUBLIC "-//W3C//DTD SVG 1.0//EN" "http://www.w3.org/TR/2001/REC-SVG-20010904/DTD/svg10.dtd">
<svg version="1.0" id="Layer_1" xmlns="http://www.w3.org/2000/svg" xmlns:xlink="http://www.w3.org/1999/xlink" x="0px" y="0px"
	 width="100.001px" height="85.877px" viewBox="0 0 100.001 85.877" enable-background="new 0 0 100.001 85.877"
	 xml:space="preserve">
<path d="M32.249,16.127c4.441-0.523,7.593-4.555,7.067-9c-0.525-4.438-4.561-7.594-8.996-7.07c-4.453,0.555-7.594,4.562-7.068,9.008
	C23.802,13.502,27.801,16.658,32.249,16.127"/>
<path d="M98.8,54.291c-0.43-0.219-33.431-16.984-33.431-16.984l-8.382-10.789L56.886,26.4c-1.134-1.055-2.907-0.961-3.958,0.188
	v0.023c-0.734,0.859-0.884,2.125-0.311,3.156l6.215,8.023l0.023,0.07l-5.157,11.82l-13.683-3.414l-0.598-4.898l11.247-1.359
	c0.502-0.023,1.027-0.172,1.505-0.43c1.856-0.977,2.579-3.297,1.6-5.156c-0.77-1.438-2.298-2.203-3.803-2.031l-11.468,1.383
	l-1.015-8.5c-0.55-4.414-4.585-7.594-9.009-7.07c-4.43,0.555-7.605,4.586-7.08,9.031l2.382,19.648
	c0.293,2.508,1.785,4.68,3.767,5.945L9.546,54.979L3.934,68.877c0.221-0.094,0.454-0.117,0.651-0.211
	c2.322-1.078,4.889-1.648,7.42-1.648c2.543,0,5.099,0.57,7.385,1.625c1.457,0.664,3.057,1,4.608,1c1.564,0,3.141-0.336,4.573-0.977
	c2.311-1.078,4.865-1.648,7.42-1.648c2.531,0,5.087,0.57,7.361,1.625c1.48,0.664,3.08,1,4.633,1c1.575,0,3.134-0.336,4.584-0.977
	c2.311-1.078,4.89-1.648,7.421-1.648s5.086,0.57,7.36,1.625c0.55,0.234,1.152,0.406,1.737,0.57
	c9.193-2.414,25.479-7.07,29.879-11.008C100.25,57.057,100.495,55.127,98.8,54.291"/>
<path d="M0,85.877c2.102,0,4.131-0.477,5.916-1.289c1.845-0.859,3.922-1.359,6.089-1.359c2.179,0,4.232,0.5,6.102,1.359
	c1.785,0.812,3.79,1.289,5.892,1.289c2.09,0,4.096-0.477,5.904-1.289c1.845-0.859,3.928-1.359,6.089-1.359
	c2.155,0,4.233,0.5,6.09,1.359c1.797,0.812,3.803,1.289,5.904,1.289c2.101,0,4.106-0.477,5.922-1.289
	c1.845-0.859,3.922-1.359,6.083-1.359c2.155,0,4.232,0.5,6.065,1.359c1.82,0.812,3.826,1.289,5.928,1.289
	c2.107,0,4.113-0.477,5.898-1.289c1.868-0.859,3.934-1.359,6.089-1.359c2.173,0,4.251,0.5,6.083,1.359
	c1.797,0.812,3.827,1.289,5.935,1.289v-8.859c-2.107,0-4.138-0.477-5.935-1.289c-1.832-0.859-3.91-1.336-6.083-1.336
	c-2.155,0-4.221,0.477-6.089,1.336c-1.785,0.812-3.791,1.289-5.898,1.289c-2.102,0-4.107-0.477-5.928-1.289
	c-1.833-0.859-3.91-1.336-6.065-1.336c-2.161,0-4.238,0.477-6.083,1.336c-1.815,0.812-3.821,1.289-5.922,1.289
	c-2.102,0-4.107-0.477-5.904-1.289c-1.856-0.859-3.935-1.336-6.09-1.336c-2.161,0-4.244,0.477-6.089,1.336
	c-1.809,0.812-3.814,1.289-5.904,1.289c-2.102,0-4.106-0.477-5.892-1.289c-1.869-0.859-3.923-1.336-6.102-1.336
	c-2.167,0-4.244,0.477-6.089,1.336C4.131,76.541,2.102,77.018,0,77.018V85.877z"/>
</svg>
