<?xml version="1.0" encoding="utf-8"?>
<!-- Generator: Adobe Illustrator 14.0.0, SVG Export Plug-In . SVG Version: 6.00 Build 43363)  -->
<!DOCTYPE svg PUBLIC "-//W3C//DTD SVG 1.0//EN" "http://www.w3.org/TR/2001/REC-SVG-20010904/DTD/svg10.dtd">
<svg version="1.0" id="Layer_1" xmlns="http://www.w3.org/2000/svg" xmlns:xlink="http://www.w3.org/1999/xlink" x="0px" y="0px"
	 width="99.994px" height="94.698px" viewBox="0 0 99.994 94.698" enable-background="new 0 0 99.994 94.698" xml:space="preserve">
<polygon points="10.04,94.698 99.994,94.698 99.994,85.359 19.379,85.359 19.379,46.145 99.994,9.715 99.994,0 0,45.168 0,54.882 
	10.04,50.376 "/>
<path d="M77.61,43.628v5.02h-8.237l4.883,11.956h12.318v4.982H76.258l5.708,13.989h-6.033l-5.709-13.989H51.765l-5.671,13.989h-6.06
	l5.709-13.989H35.441v-4.982h12.331l4.857-11.956h-8.237v-5.02H77.61z M68.196,60.604l-4.857-11.956h-4.657l-4.875,11.956H68.196z"
	/>
</svg>
