<?xml version="1.0" encoding="utf-8"?>
<!-- Generator: Adobe Illustrator 14.0.0, SVG Export Plug-In . SVG Version: 6.00 Build 43363)  -->
<!DOCTYPE svg PUBLIC "-//W3C//DTD SVG 1.0//EN" "http://www.w3.org/TR/2001/REC-SVG-20010904/DTD/svg10.dtd">
<svg version="1.0" id="Layer_1" xmlns="http://www.w3.org/2000/svg" xmlns:xlink="http://www.w3.org/1999/xlink" x="0px" y="0px"
	 width="100px" height="85.52px" viewBox="0 0 100 85.52" enable-background="new 0 0 100 85.52" xml:space="preserve">
<path id="path4924" d="M30.187,41.302l-9.869,7.83l-12.62,9.67c-3.601,2.826-6.552-0.578-6.552-0.578
	c-2.802-3.675,0.419-6.083,0.419-6.083l15.73-12.302c0,0,1.72-1.794,6.243-0.503L30.187,41.302"/>
<path id="path4926" d="M48.62,25.584c-4.94,0-8.921-3.98-8.921-8.921s3.981-8.96,8.921-8.96s8.948,4.02,8.948,8.96
	S53.561,25.584,48.62,25.584"/>
<path id="path4928" d="M26.5,74.507c0-2.641-2.139-4.779-4.78-4.779c-2.643,0-4.78,2.139-4.78,4.779c0,2.643,2.138,4.78,4.78,4.78
	C24.36,79.291,26.5,77.152,26.5,74.507 M70.768,74.507c0-2.641-2.14-4.779-4.78-4.779c-2.631,0-4.771,2.139-4.771,4.779
	c0,2.643,2.14,4.78,4.771,4.78C68.628,79.291,70.768,77.152,70.768,74.507 M15.882,65.108c-0.615-1.696-0.872-3.54-0.455-5.406
	c0.502-2.092,1.646-3.859,3.17-5.15l66.14-52.647C86.35,0.724,88.326,0,90.478,0C95.749,0,100,4.251,100,9.537
	c0,3.072-1.4,5.799-3.624,7.558c-0.787,0.688-1.941,0.603-2.605-0.196c-0.701-0.787-0.592-2.002,0.208-2.666
	c1.426-1.044,2.323-2.765,2.323-4.695c0-3.221-2.617-5.838-5.824-5.838c-1.365,0-2.57,0.455-3.552,1.191L67.704,20.203l-10.053,29.1
	l6.096,14.49c0.713-0.159,1.476-0.296,2.237-0.296c6.096,0,11.023,4.94,11.023,11.012c0,6.109-4.928,11.011-11.023,11.011
	c-6.072,0-10.998-4.904-10.998-11.011c0-3.932,2.052-7.399,5.173-9.315l-4.389-10.495l-0.368,1.118
	c-1.34,4.117-5.789,6.368-9.904,5.003l-20.413-6.735l-3.982,3.184c-0.946,0.774-1.659,1.881-1.979,3.17
	c-0.272,1.192-0.076,2.335,0.319,3.355c0.713-0.135,1.5-0.296,2.274-0.296c6.071,0,10.999,4.94,10.999,11.012
	c0,6.109-4.928,11.011-10.999,11.011s-11.025-4.904-11.025-11.011C10.696,70.527,12.712,67.036,15.882,65.108"/>
</svg>
