<?xml version="1.0" encoding="utf-8"?>
<!-- Generator: Adobe Illustrator 14.0.0, SVG Export Plug-In . SVG Version: 6.00 Build 43363)  -->
<!DOCTYPE svg PUBLIC "-//W3C//DTD SVG 1.0//EN" "http://www.w3.org/TR/2001/REC-SVG-20010904/DTD/svg10.dtd">
<svg version="1.0" id="Layer_1" xmlns="http://www.w3.org/2000/svg" xmlns:xlink="http://www.w3.org/1999/xlink" x="0px" y="0px"
	 width="100px" height="87.882px" viewBox="0 0 100 87.882" enable-background="new 0 0 100 87.882" xml:space="preserve">
<path id="path4906" d="M99.772,23.34l-8.198,64.542H63.896L55.724,23.34h33.802L96.217,0L100,1.062l-6.401,22.265L99.772,23.34z"/>
<path id="path4908" d="M51.815,60.924c0,0,1.037-9.387-13.321-9.387H15.623c-14.333,0-13.321,9.387-13.321,9.387H51.815z"/>
<path id="path4910" d="M2.302,78.47c0,0-1.012,9.412,13.321,9.412h22.871c14.358,0,13.321-9.412,13.321-9.412H2.302z"/>
<path id="path4912" d="M49.665,73.928c2.353,0,4.25-1.91,4.25-4.251c0-2.327-1.897-4.225-4.25-4.225H4.25
	C1.91,65.453,0,67.35,0,69.677c0,2.341,1.91,4.251,4.25,4.251H49.665z"/>
</svg>
