<?xml version="1.0" encoding="utf-8"?>
<!-- Generator: Adobe Illustrator 14.0.0, SVG Export Plug-In . SVG Version: 6.00 Build 43363)  -->
<!DOCTYPE svg PUBLIC "-//W3C//DTD SVG 1.0//EN" "http://www.w3.org/TR/2001/REC-SVG-20010904/DTD/svg10.dtd">
<svg version="1.0" id="Layer_1" xmlns="http://www.w3.org/2000/svg" xmlns:xlink="http://www.w3.org/1999/xlink" x="0px" y="0px"
	 width="75.264px" height="100px" viewBox="0 0 75.264 100" enable-background="new 0 0 75.264 100" xml:space="preserve">
<path d="M35.705,29.44c0,1.316-1.041,2.34-2.365,2.34H8.587c-1.334,0-2.366-1.024-2.366-2.34V8.568c0-1.316,1.032-2.34,2.366-2.34
	H33.34c1.324,0,2.365,1.024,2.365,2.34V29.44z M64.562,32.107c-3.132-0.688-4.268-2.297-4.268-3.778v-5.394
	c0,0,2.082,0.465,2.581,0.594c1.015,0.267,1.66,1.824,1.687,3.184C64.596,28.073,64.562,32.107,64.562,32.107z M70.868,64.879
	c0-0.052-0.868-6.625-0.868-6.625V27.9c0-3.252-1.067-5.894-3.27-8.113L52.671,5.798c-0.972,0-3.656,2.676-3.656,2.676
	c0,0.972,6.978,7.898,6.978,7.898L55.786,28.15c0,4.182,3.398,7.571,7.598,7.571l1.884,0.026l-0.671,22.507l0.938,7.718
	l4.225,22.774c0.156,3.699-3.227,5.901-5.894,5.901c-2.469,0-5.334-2.039-5.334-4.672l0.052-39.911c0-4.853-3.94-8.793-8.793-8.793
	c0,0-8.44,0-8.483,0c0.594-0.033,0.619-26.137,0.619-31.678c0-0.655,0-1.025,0-1.025C41.925,3.845,38.071,0,33.339,0H8.587
	C3.854,0,0,3.845,0,8.568V100h41.939l0.029-53.12h7.916c1.815,0,3.295,1.481,3.295,3.295v39.8c0,5.344,4.99,10.024,10.686,10.024
	c5.377,0,11.399-4.276,11.399-10.024C75.17,88.65,70.868,64.879,70.868,64.879z"/>
</svg>
