<?xml version="1.0" encoding="utf-8"?>
<!-- Generator: Adobe Illustrator 14.0.0, SVG Export Plug-In . SVG Version: 6.00 Build 43363)  -->
<!DOCTYPE svg PUBLIC "-//W3C//DTD SVG 1.0//EN" "http://www.w3.org/TR/2001/REC-SVG-20010904/DTD/svg10.dtd">
<svg version="1.0" id="Layer_1" xmlns="http://www.w3.org/2000/svg" xmlns:xlink="http://www.w3.org/1999/xlink" x="0px" y="0px"
	 width="100px" height="56.196px" viewBox="0 0 100 56.196" enable-background="new 0 0 100 56.196" xml:space="preserve">
<path id="path4918_1_" d="M80.347,51.4c8.365,0,15.167-6.774,15.167-15.152c0-8.393-6.802-15.182-15.167-15.182
	c-8.405,0-15.18,6.789-15.18,15.182C65.167,44.626,71.942,51.4,80.347,51.4 M19.827,51.4c8.365,0,15.181-6.774,15.181-15.152
	c0-8.393-6.816-15.182-15.181-15.182c-8.391,0-15.181,6.789-15.181,15.182C4.646,44.626,11.436,51.4,19.827,51.4 M61.45,21.202
	H38.766v15.125H61.45V21.202z M76.442,5.158H23.963v9.793h52.479V5.158z M82.502,14.938H100v41.259H0V14.938h17.915l0.027-8.89
	c0-3.34,2.681-6.048,6.021-6.048h52.465c3.313,0,6.021,2.708,6.021,6.048L82.502,14.938z"/>
</svg>
