<?xml version="1.0" encoding="utf-8"?>
<!-- Generator: Adobe Illustrator 14.0.0, SVG Export Plug-In . SVG Version: 6.00 Build 43363)  -->
<!DOCTYPE svg PUBLIC "-//W3C//DTD SVG 1.0//EN" "http://www.w3.org/TR/2001/REC-SVG-20010904/DTD/svg10.dtd">
<svg version="1.0" id="Layer_1" xmlns="http://www.w3.org/2000/svg" xmlns:xlink="http://www.w3.org/1999/xlink" x="0px" y="0px"
	 width="100px" height="77.478px" viewBox="0 0 100 77.478" enable-background="new 0 0 100 77.478" xml:space="preserve">
<path d="M42.327,13.28c3.663-0.014,6.629-2.979,6.617-6.616C48.957,2.981,45.99,0.015,42.327,0
	c-3.655,0.015-6.622,2.981-6.616,6.664C35.705,10.3,38.672,13.266,42.327,13.28L42.327,13.28z"/>
<path d="M42.327,6.664"/>
<path d="M88.269,7.226H72.876c-3.184-0.022-7.281,1.281-9.714,3.707L48.897,25.199v-4.176c-0.006-8.9-13.125-8.803-13.14,0v17.034
	h0.047L23.416,50.445c-1.181,1.171-1.324,1.22-3.612,1.22c-0.01,0.003-7.602,0-7.602,0c-7.61,0-12.183,6.854-12.202,12.67
	c0.019,5.803,4.592,13.146,12.905,13.141c0,0,10.302,0.006,13.467,0c3.208,0.006,7.07-1.213,10.278-4.225L76.161,33.88
	c0.831-0.769,1.301-1.001,2.769-0.986c0,0,5.432-0.016,9.76,0c4.682-0.016,11.329-5.341,11.311-12.997
	C100.019,12.285,93.322,7.221,88.269,7.226z M87.61,26.232H79.26c-3.535-0.003-5.101,0.492-7.135,2.533L32.286,68.56
	c-1.591,1.634-3.635,2.273-6.241,2.251h-13.14c-3.385,0.022-6.357-2.831-6.335-6.569c-0.022-3.76,2.813-5.858,5.726-5.867h9.01
	c2.645,0.009,4.371-0.741,5.864-2.25l40.499-40.499c1.67-1.655,3.314-1.862,6.146-1.876h13.843c3.396,0.014,5.665,3.784,5.68,6.054
	C93.322,22.03,91.712,26.229,87.61,26.232z"/>
</svg>
