<?xml version="1.0" encoding="utf-8"?>
<!-- Generator: Adobe Illustrator 14.0.0, SVG Export Plug-In . SVG Version: 6.00 Build 43363)  -->
<!DOCTYPE svg PUBLIC "-//W3C//DTD SVG 1.0//EN" "http://www.w3.org/TR/2001/REC-SVG-20010904/DTD/svg10.dtd">
<svg version="1.0" id="Layer_1" xmlns="http://www.w3.org/2000/svg" xmlns:xlink="http://www.w3.org/1999/xlink" x="0px" y="0px"
	 width="75.942px" height="100px" viewBox="0 0 75.942 100" enable-background="new 0 0 75.942 100" xml:space="preserve">
<path id="path5206_1_" d="M11.386,11.414c2.1,0,3.758-1.714,3.758-3.802c0-2.071-1.658-3.771-3.758-3.771
	c-2.087,0-3.772,1.701-3.772,3.771C7.614,9.7,9.299,11.414,11.386,11.414 M22.465,11.414c2.088,0,3.774-1.714,3.774-3.802
	c0-2.071-1.687-3.771-3.774-3.771c-2.071,0-3.757,1.701-3.757,3.771C18.708,9.7,20.395,11.414,22.465,11.414 M72.488,0
	c1.906,0,3.454,1.533,3.454,3.426v11.746H0.179V3.454c0-1.893,1.548-3.44,3.427-3.44L72.488,0z"/>
<path id="path5208_1_" d="M37.472,82.671c13.488,0,24.403-10.916,24.403-24.401c0-13.474-10.915-24.402-24.403-24.402
	C24,33.867,13.084,44.796,13.084,58.27C13.084,71.755,24,82.671,37.472,82.671 M0,99.972V23.918c0-1.893,1.532-3.428,3.428-3.428
	h68.894c1.893,0,3.428,1.535,3.428,3.428V100L0,99.972z"/>
<path id="path5210_1_" d="M57.248,52.037c0.497,1.784,0.772,3.649,0.772,5.608c0,11.304-9.203,20.48-20.521,20.48
	c-11.33,0-20.505-9.177-20.505-20.48c0-2.112,0.319-4.13,0.884-6.036v0.041c1.315,1.423,3.179,2.308,5.279,2.308
	c1.824,0,3.456-0.648,4.728-1.781h-0.028c1.284,1.133,2.943,1.781,4.752,1.781c1.879,0,3.592-0.704,4.862-1.921v0.028
	c1.272,1.188,2.971,1.893,4.879,1.893c1.935,0,3.716-0.76,4.974-2.017v0.026c1.286,1.258,3.039,1.99,4.976,1.99
	c1.878,0,3.634-0.732,4.919-1.948L57.248,52.037z"/>
</svg>
