<?xml version="1.0" encoding="utf-8"?>
<!-- Generator: Adobe Illustrator 14.0.0, SVG Export Plug-In . SVG Version: 6.00 Build 43363)  -->
<!DOCTYPE svg PUBLIC "-//W3C//DTD SVG 1.0//EN" "http://www.w3.org/TR/2001/REC-SVG-20010904/DTD/svg10.dtd">
<svg version="1.0" id="Layer_1" xmlns="http://www.w3.org/2000/svg" xmlns:xlink="http://www.w3.org/1999/xlink" x="0px" y="0px"
	 width="100px" height="72.392px" viewBox="0 0 100 72.392" enable-background="new 0 0 100 72.392" xml:space="preserve">
<path id="path2780" d="M58.823,17.958c7.955,0,14.862,4.381,18.675,10.834l22.476,0.026V16.637c0-4.533-3.647-8.21-8.121-8.21H8.096
	C3.608,8.427,0,12.104,0,16.637l0.023,12.078l40.112,0.027C43.975,22.312,50.854,17.958,58.823,17.958"/>
<path id="path2782" d="M21.006,4.56h-7.451l-0.861,2.715h8.931L21.006,4.56z"/>
<path id="path2784" d="M88.191,3.112h-9.921L76.51,7.3H89.8L88.191,3.112z"/>
<path id="path2786" d="M54.137,5.854h-8.539V1.678h8.539V5.854z M61.965,0H37.855l-4.967,7.352h33.625L61.965,0z"/>
<path id="path2788" d="M78.663,30.97c1.243,2.767,1.977,5.813,1.977,9.055c0,12.18-9.77,22.067-21.816,22.067
	c-12.062,0-21.829-9.888-21.829-22.067c0-3.242,0.723-6.288,1.976-9.069H0v33.252c0,4.507,3.608,8.184,8.096,8.184h83.756
	c4.474,0,8.121-3.677,8.121-8.184L100,30.97H78.663z"/>
<path id="path2790" d="M70.72,32.775c-0.342-0.615-0.773-1.192-1.242-1.741c-2.547-3.1-6.359-5.138-10.654-5.138
	c-4.309,0-8.121,2.026-10.668,5.112c-0.468,0.563-0.9,1.14-1.267,1.767c-1.278,2.127-2.052,4.585-2.052,7.25
	c0,7.788,6.26,14.114,13.987,14.114c7.689,0,13.95-6.326,13.95-14.114C72.773,37.361,72.013,34.903,70.72,32.775"/>
</svg>
