<?xml version="1.0" encoding="utf-8"?>
<!-- Generator: Adobe Illustrator 14.0.0, SVG Export Plug-In . SVG Version: 6.00 Build 43363)  -->
<!DOCTYPE svg PUBLIC "-//W3C//DTD SVG 1.0//EN" "http://www.w3.org/TR/2001/REC-SVG-20010904/DTD/svg10.dtd">
<svg version="1.0" id="Layer_1" xmlns="http://www.w3.org/2000/svg" xmlns:xlink="http://www.w3.org/1999/xlink" x="0px" y="0px"
	 width="83.257px" height="100px" viewBox="0 0 83.257 100" enable-background="new 0 0 83.257 100" xml:space="preserve">
<g>
	<path d="M63.717,14.709h9.065c1.195,0,2.176,0.981,2.176,2.177c0,1.22-0.98,2.2-2.176,2.2h-8.97c-0.574,0-1.147,0.191-1.579,0.622
		c-0.67,0.693-0.837,1.674-0.454,2.487c0.335,0.718,0.79,1.459,1.292,2.081l5.166-0.024c0.383,0.024,0.812,0.12,1.172,0.311
		l12.15,6.506c1.004,0.622,1.697,1.746,1.697,3.014c0,1.985-1.602,3.563-3.562,3.563h-7.918L61.157,63.693l-6.816,6.816v24.922
		c0,2.512-2.057,4.568-4.592,4.568s-4.568-2.057-4.568-4.568V68.62H26.788l-4.139,6.29l10.166,17.699
		c1.243,2.201,0.454,4.999-1.746,6.242c-2.201,1.244-4.999,0.455-6.242-1.746l-10.429-17.89v-7.94l-5.19,6.959v16.863
		c0,2.535-2.057,4.568-4.592,4.568c-2.512,0-4.568-2.033-4.568-4.568L0.024,77.23l4.281-6.793v-8.084l-3.325,5.19
		c-0.072,0.191-0.263,0.312-0.478,0.312C0.239,67.855,0,67.64,0,67.353v-18.01c0.167-3.54,3.133-6.481,6.696-6.481h45.037
		l7.152-11.002l-5.932-5.907c-0.191-0.167-0.311-0.407-0.311-0.67c0-0.526,0.406-0.933,0.908-0.933l4.329,0.024
		c-1.076-2.249-1.698-4.76-1.698-7.415C56.183,7.606,63.788,0,73.164,0c1.22,0,2.2,0.981,2.2,2.201c0,1.196-0.98,2.224-2.2,2.224
		c-6.409,0-11.72,4.832-12.437,11.05C61.612,14.973,62.616,14.709,63.717,14.709z"/>
</g>
</svg>
