<?xml version="1.0" encoding="utf-8"?>
<!-- Generator: Adobe Illustrator 14.0.0, SVG Export Plug-In . SVG Version: 6.00 Build 43363)  -->
<!DOCTYPE svg PUBLIC "-//W3C//DTD SVG 1.0//EN" "http://www.w3.org/TR/2001/REC-SVG-20010904/DTD/svg10.dtd">
<svg version="1.0" id="Layer_1" xmlns="http://www.w3.org/2000/svg" xmlns:xlink="http://www.w3.org/1999/xlink" x="0px" y="0px"
	 width="100px" height="67.681px" viewBox="0 0 100 67.681" enable-background="new 0 0 100 67.681" xml:space="preserve">
<path id="path5516" d="M96.043,67.681c-2.026,0-3.982-0.46-5.713-1.226c-1.768-0.824-3.77-1.307-5.866-1.307
	c-2.085,0-4.088,0.482-5.866,1.307c-1.72,0.766-3.675,1.226-5.701,1.226c-2.002,0-3.958-0.46-5.689-1.226
	c-1.791-0.824-3.792-1.307-5.866-1.307c-2.085,0-4.088,0.482-5.865,1.307c-1.744,0.766-3.676,1.226-5.701,1.226
	c-2.026,0-3.981-0.46-5.702-1.226c-1.778-0.824-3.781-1.307-5.866-1.307c-2.097,0-4.1,0.482-5.878,1.307
	c-1.719,0.766-3.674,1.226-5.701,1.226c-2.026,0-3.957-0.46-5.677-1.226c-1.803-0.824-3.804-1.307-5.866-1.307
	c-2.096,0-4.099,0.482-5.866,1.307c-1.755,0.766-3.687,1.226-5.712,1.226v-8.54c2.025,0,3.958-0.46,5.712-1.226
	c1.767-0.824,3.77-1.307,5.866-1.307c2.062,0,4.063,0.482,5.866,1.307c1.72,0.766,3.651,1.226,5.677,1.226
	c2.027,0,3.982-0.46,5.701-1.226c1.779-0.824,3.781-1.307,5.878-1.307c2.085,0,4.087,0.482,5.866,1.307
	c1.72,0.766,3.676,1.226,5.702,1.226c2.025,0,3.957-0.46,5.701-1.226c1.777-0.824,3.78-1.307,5.865-1.307
	c2.074,0,4.075,0.482,5.866,1.307c1.731,0.766,3.688,1.226,5.689,1.226c2.026,0,3.981-0.46,5.701-1.226
	c1.778-0.824,3.781-1.307,5.866-1.307c2.097,0,4.099,0.482,5.866,1.307c1.73,0.766,3.687,1.226,5.713,1.226V67.681z"/>
<path id="path5518" d="M75.24,15.593c-0.271,0.46-1.813,3.099-1.813,3.099s-0.33,0.671-1.379,0.671h-5.277l-3.015-8.953
	c0.235-0.046,0.482-0.094,0.647-0.117c1.885-0.342,2.533-0.342,3.935,0.376c0,0,6.007,3.099,6.42,3.334
	C75.265,14.25,75.582,14.992,75.24,15.593 M60.812,10.987l2.838,8.375h-20.99c-0.459,0-0.941-0.271-0.941-0.99v-1.13
	c0-0.613,0.258-0.99,0.812-1.261c0.636-0.294,4.441-1.813,6.738-2.415C53.414,12.53,57.76,11.587,60.812,10.987 M42.2,43.698
	l3.404-9.176h23.582l3.404,9.14L42.2,43.698z M99.081,43.615l-23.771,0.023l-3.428-9.188c2.733-0.436,7.893-1.26,10.861-2.108
	c1.283-0.33,2.592-1.661,2.968-2.426l7.079-10.79v13.511c0,1.519,2.263,1.519,2.263,0V18.691h0.965c2.709,0,2.709-4.064,0-4.064
	h-0.965V1.14c0-1.52-2.263-1.52-2.263,0v13.487h-0.66c-2.414-0.236-13.758-1.449-15.948-2.579c-2.202-1.155-4.512-2.462-6.667-3.569
	c-1.979-0.99-3.133-0.918-5.277-0.554c-1.213,0.235-8.351,1.566-15.266,3.321c-8.539,2.156-19.082,7.127-19.082,7.127l-12.05,0.047
	c-2.757-0.801-3.84-5.96-5.042-8.233L9.761,4.062C9.537,3.555,8.983,3.402,8.452,3.378l-7.68-0.46
	c-1.154-0.07-0.718,0.896-0.554,1.449l5.266,20.648c0.553,2.309,3.758,4.512,6.007,4.748l31.014,4.759h0.39l-3.404,9.176
	l-24.383,0.023c-0.601,0-1.084,0.329-1.084,0.907v1.555c0,0.647,0.389,1.084,1.084,1.296c2.001,0.601,8.021,2.25,15.207,4.004
	c0.248-0.094,0.506-0.141,0.754-0.259c2.273-1.06,4.676-1.59,7.138-1.59c2.461,0,4.876,0.53,7.102,1.566
	c1.402,0.648,2.946,0.966,4.465,0.966s3.016-0.317,4.417-0.942c2.226-1.036,4.712-1.59,7.149-1.59c2.415,0,4.9,0.554,7.091,1.566
	c1.426,0.648,2.969,0.966,4.465,0.966c1.52,0,3.062-0.317,4.417-0.942c2.25-1.036,4.712-1.59,7.15-1.59
	c2.309,0,4.629,0.507,6.749,1.426c5.925-1.956,8.021-3.558,8.021-3.558c0.459-0.377,0.766-0.766,0.766-1.367v-1.602
	C100,43.934,99.67,43.615,99.081,43.615"/>
</svg>
