<?xml version="1.0" encoding="utf-8"?>
<!-- Generator: Adobe Illustrator 14.0.0, SVG Export Plug-In . SVG Version: 6.00 Build 43363)  -->
<!DOCTYPE svg PUBLIC "-//W3C//DTD SVG 1.0//EN" "http://www.w3.org/TR/2001/REC-SVG-20010904/DTD/svg10.dtd">
<svg version="1.0" id="Layer_1" xmlns="http://www.w3.org/2000/svg" xmlns:xlink="http://www.w3.org/1999/xlink" x="0px" y="0px"
	 width="100px" height="59.471px" viewBox="0 0 100 59.471" enable-background="new 0 0 100 59.471" xml:space="preserve">
<path id="path5004" d="M41.283,22.673c1.856,0,3.367-1.522,3.367-3.369v-5.62c0-1.846-1.511-3.368-3.367-3.368H15.915
	c-1.857,0-3.367,1.522-3.367,3.368v5.62c0,1.846,1.51,3.369,3.367,3.369H41.283z M74.764,22.647c1.869,0,3.367-1.521,3.367-3.367
	v-5.596c0-1.846-1.496-3.368-3.367-3.368H63.056c-1.857,0-3.367,1.522-3.367,3.368v5.596c0,1.845,1.51,3.367,3.367,3.367H74.764z
	 M31.229,49.383H12.056c-6.651,0-12.032-5.394-12.032-12.032L0,16.333C0,7.309,7.31,0,16.321,0h55.508
	c9.012,0,16.333,7.309,16.333,16.333l0.022,29.669h8.498c1.833,0,3.317,1.522,3.317,3.355H56.896
	c-0.42-6.746-5.979-12.09-12.833-12.09C37.209,37.268,31.648,42.612,31.229,49.383"/>
<path id="path5006" d="M44.064,54.213c2.229,0,4.027-1.786,4.027-4.016s-1.798-4.027-4.027-4.027c-2.217,0-4.015,1.798-4.015,4.027
	S41.847,54.213,44.064,54.213 M34.8,50.198c0-5.13,4.135-9.275,9.264-9.275s9.263,4.146,9.263,9.275
	c0,5.116-4.134,9.273-9.263,9.273C38.934,59.471,34.8,55.315,34.8,50.198"/>
</svg>
