<?xml version="1.0" encoding="utf-8"?>
<!-- Generator: Adobe Illustrator 14.0.0, SVG Export Plug-In . SVG Version: 6.00 Build 43363)  -->
<!DOCTYPE svg PUBLIC "-//W3C//DTD SVG 1.0//EN" "http://www.w3.org/TR/2001/REC-SVG-20010904/DTD/svg10.dtd">
<svg version="1.0" id="Layer_1" xmlns="http://www.w3.org/2000/svg" xmlns:xlink="http://www.w3.org/1999/xlink" x="0px" y="0px"
	 width="79.988px" height="100px" viewBox="0 0 79.988 100" enable-background="new 0 0 79.988 100" xml:space="preserve">
<path id="path5300" d="M65.808,52.441l-1.007-14.968c-0.181-2.169-1.999-3.848-4.221-3.848H19.407c-2.221,0-4.04,1.678-4.232,3.848
	l-0.98,14.968H65.808z M74.479,67.796c0-3.071-2.478-5.574-5.549-5.574c-3.07,0-5.575,2.503-5.575,5.574
	c0,3.07,2.503,5.548,5.575,5.548S74.479,70.866,74.479,67.796 M58.247,76.13V62.105c0-1.395-1.136-2.528-2.529-2.528H24.167
	c-1.354,0-2.49,1.134-2.49,2.528V76.13H58.247z M11.057,73.344c3.059,0,5.55-2.478,5.55-5.548c0-3.071-2.492-5.574-5.55-5.574
	c-3.07,0-5.561,2.503-5.561,5.574C5.496,70.866,7.987,73.344,11.057,73.344 M60.581,29.69c4.259,0,7.769,3.304,8.116,7.486
	l1.033,15.42L79.988,58.8l-0.026,26.053H75.38l0.026,8.517c0,3.689-2.981,6.631-6.658,6.631c-3.652,0-6.62-2.941-6.62-6.631v-8.517
	H17.846l0.026,8.517c0,3.689-2.981,6.631-6.66,6.631c-3.65,0-6.619-2.941-6.619-6.631v-8.517H0.025L0,58.8l10.258-6.204l1.032-15.42
	c0.323-4.182,3.833-7.486,8.117-7.486H60.581z"/>
<path id="path5302" d="M72.634,0c4.051,0,7.327,3.279,7.327,7.304v47.293l-6.748-4.143l-0.878-13.807
	c-0.605-5.949-5.651-10.607-11.756-10.607H19.404c-6.127,0-11.135,4.658-11.742,10.607l-0.89,13.807L0,54.598L0.024,7.304
	C0.024,3.279,3.301,0,7.328,0H72.634z"/>
</svg>
