<?xml version="1.0" encoding="utf-8"?>
<!-- Generator: Adobe Illustrator 14.0.0, SVG Export Plug-In . SVG Version: 6.00 Build 43363)  -->
<!DOCTYPE svg PUBLIC "-//W3C//DTD SVG 1.0//EN" "http://www.w3.org/TR/2001/REC-SVG-20010904/DTD/svg10.dtd">
<svg version="1.0" id="Layer_1" xmlns="http://www.w3.org/2000/svg" xmlns:xlink="http://www.w3.org/1999/xlink" x="0px" y="0px"
	 width="100px" height="99.663px" viewBox="0 0 100 99.663" enable-background="new 0 0 100 99.663" xml:space="preserve">
<path id="path2638" d="M47.8,0h4.473v16.999H47.8V0z"/>
<path id="path2640" d="M47.536,82.663h4.472v17h-4.472V82.663z"/>
<path id="path2642" d="M83.003,46.546H100v4.459H83.003V46.546z"/>
<path id="path2644" d="M0,46.269h16.999v4.473H0V46.269z"/>
<path id="path2646" d="M6.473,25.4l2.17-3.906l14.853,8.235l-2.171,3.918L6.473,25.4z"/>
<path id="path2648" d="M24.304,7.222l3.785-2.376l9.018,14.419l-3.786,2.363L24.304,7.222z"/>
<path id="path2650" d="M64.728,78.916l3.856-2.219l8.499,14.721l-3.857,2.229L64.728,78.916z"/>
<path id="path2652" d="M77.723,67.028l2.17-3.905l14.876,8.235l-2.182,3.918L77.723,67.028z"/>
<path id="path2654" d="M27.1,93.852l-3.905-2.17l8.235-14.876l3.918,2.159L27.1,93.852z"/>
<path id="path2656" d="M7.342,74.962L4.99,71.177l14.407-9.019l2.363,3.787L7.342,74.962z"/>
<path id="path2658" d="M79.324,35.069l-2.241-3.881l14.719-8.5l2.243,3.882L79.324,35.069z"/>
<path id="path2660" d="M67.956,22.327l-3.918-2.181l8.246-14.853l3.907,2.171L67.956,22.327z"/>
<path id="path2662" d="M22.436,49.777c0-15.25,12.369-27.62,27.619-27.62c15.238,0,27.597,12.37,27.597,27.62
	c0,15.25-12.358,27.605-27.597,27.605C34.805,77.385,22.436,65.027,22.436,49.777"/>
</svg>
