<?xml version="1.0" encoding="utf-8"?>
<!-- Generator: Adobe Illustrator 14.0.0, SVG Export Plug-In . SVG Version: 6.00 Build 43363)  -->
<!DOCTYPE svg PUBLIC "-//W3C//DTD SVG 1.0//EN" "http://www.w3.org/TR/2001/REC-SVG-20010904/DTD/svg10.dtd">
<svg version="1.0" id="Layer_1" xmlns="http://www.w3.org/2000/svg" xmlns:xlink="http://www.w3.org/1999/xlink" x="0px" y="0px"
	 width="70.339px" height="100px" viewBox="0 0 70.339 100" enable-background="new 0 0 70.339 100" xml:space="preserve">
<path d="M35.171,28.241c7.796-0.008,14.121-6.33,14.121-14.121c0-7.814-6.324-14.137-14.121-14.12
	c-7.806-0.018-14.129,6.306-14.123,14.12C21.042,21.911,27.365,28.233,35.171,28.241L35.171,28.241z"/>
<path d="M35.171,14.12"/>
<path d="M35.171,57.791H20.198V46.956L8.798,58.47c-5.165,5.165-12.157-1.448-6.976-6.635l18.885-18.943
	c1.542-1.508,3.22-2.476,5.899-2.497h8.565l0,0h8.393c2.646,0.021,4.442,0.96,6.011,2.497l19.113,19.169
	c4.917,4.896-2.264,11.573-6.976,6.578L49.972,46.9v10.89H35.171L35.171,57.791L35.171,57.791z"/>
<path d="M49.915,63.349L38.688,74.577l8.278,8.221l-8.448,8.452c-5.001,4.977,1.873,12.104,7.029,6.977l13.328-13.895
	c2.887-2.939,3.678-8.34,0.626-11.399C59.47,72.911,49.915,63.349,49.915,63.349L49.915,63.349z"/>
<path d="M20.198,63.349l11.229,11.228l-8.221,8.221l8.45,8.452c4.967,4.977-1.906,12.104-7.035,6.977L11.236,84.332
	c-2.857-2.939-3.649-8.34-0.566-11.399C10.67,72.911,20.198,63.349,20.198,63.349L20.198,63.349z"/>
</svg>
