<?xml version="1.0" encoding="utf-8"?>
<!-- Generator: Adobe Illustrator 14.0.0, SVG Export Plug-In . SVG Version: 6.00 Build 43363)  -->
<!DOCTYPE svg PUBLIC "-//W3C//DTD SVG 1.0//EN" "http://www.w3.org/TR/2001/REC-SVG-20010904/DTD/svg10.dtd">
<svg version="1.0" id="Layer_1" xmlns="http://www.w3.org/2000/svg" xmlns:xlink="http://www.w3.org/1999/xlink" x="0px" y="0px"
	 width="95.826px" height="100px" viewBox="0 0 95.826 100" enable-background="new 0 0 95.826 100" xml:space="preserve">
<path fill="#202020" d="M53.056,55.298c6.363,0,11.513-5.15,11.513-11.513c0-6.363-5.149-11.512-11.513-11.512
	s-11.524,5.15-11.524,11.513C41.531,50.149,46.692,55.298,53.056,55.298z"/>
<path fill="#202020" d="M42.207,83.291c0,1.236,0.996,2.861,2.243,2.861l0.012-0.023h5.299l0.011,0.023
	c1.248,0,2.86-1.603,2.86-2.838v-9.797c0-1.236-1.612-2.814-2.86-2.814H44.45c-1.167,0-2.117,1.488-2.243,2.609l0,0l0,0
	C49.862,73.312,49.816,83.291,42.207,83.291L42.207,83.291z M37.377,58.982c1.236-1.189,2.906-1.898,4.738-1.898h22.706
	l22.854-22.912c4.888-4.921,11.295,1.465,6.397,6.386L69.021,65.689L69.031,100H38.979V83.337H25.396
	c-2.827,0-5.127-2.289-5.127-5.127c0-1.213,0.412-2.312,1.11-3.205L37.377,58.982z"/>
<polygon fill="#202020" points="1.064,14.259 3.856,17.052 17.338,3.273 14.545,0.481 8.434,2.793 5.63,0 0,5.607 2.792,8.423 "/>
<path fill="#202020" d="M21.824,58.045c-0.264,1.693,0.904,3.227,2.563,3.456c1.671,0.274,3.25-0.938,3.456-2.563
	c0.252-1.693-0.893-3.228-2.575-3.457C23.609,55.23,22.042,56.375,21.824,58.045z"/>
<path fill="#202020" d="M24.467,51.087c0.229-1.602-0.858-3.067-2.449-3.296c-1.591-0.229-3.056,0.87-3.285,2.449
	c-0.229,1.625,0.87,3.043,2.449,3.274C22.762,53.766,24.25,52.645,24.467,51.087z"/>
<path fill="#202020" d="M21.091,43.236c0.206-1.511-0.812-2.907-2.323-3.136c-1.511-0.206-2.896,0.824-3.113,2.334
	c-0.217,1.534,0.812,2.884,2.312,3.113C19.478,45.8,20.885,44.701,21.091,43.236z"/>
<path fill="#202020" d="M17.716,35.386c0.206-1.419-0.767-2.747-2.198-2.953c-1.442-0.206-2.747,0.778-2.953,2.197
	c-0.206,1.442,0.778,2.724,2.197,2.953S17.521,36.782,17.716,35.386z"/>
<path fill="#202020" d="M14.339,27.535c0.195-1.35-0.732-2.609-2.071-2.792c-1.362-0.183-2.586,0.732-2.781,2.083
	c-0.195,1.374,0.721,2.563,2.06,2.792C12.897,29.824,14.156,28.862,14.339,27.535z"/>
<path fill="#202020" d="M6.397,19.02c-0.194,1.282,0.687,2.403,1.946,2.609c1.259,0.206,2.438-0.709,2.621-1.945
	c0.183-1.259-0.687-2.449-1.946-2.609C7.724,16.892,6.569,17.761,6.397,19.02z"/>
<path fill="#202020" d="M33.188,46.967c0.081-1.648,1.5-2.953,3.159-2.861c1.671,0.092,2.941,1.488,2.861,3.182
	c-0.058,1.671-1.488,2.93-3.159,2.838C34.389,50.08,33.096,48.661,33.188,46.967z"/>
<path fill="#202020" d="M31.288,43.694c-1.579-0.068-2.815-1.396-2.724-3.021c0.08-1.58,1.431-2.792,3.01-2.724
	c1.591,0.091,2.793,1.419,2.724,3.021C34.229,42.573,32.879,43.763,31.288,43.694z"/>
<path fill="#202020" d="M26.539,37.24c-1.499-0.069-2.667-1.328-2.586-2.838c0.081-1.51,1.35-2.678,2.861-2.586
	c1.499,0.069,2.655,1.351,2.587,2.861C29.342,36.164,28.05,37.331,26.539,37.24z"/>
<path fill="#202020" d="M21.778,30.808c-1.419-0.068-2.529-1.259-2.449-2.701c0.08-1.419,1.282-2.518,2.712-2.449
	c1.419,0.069,2.518,1.282,2.449,2.701C24.433,29.778,23.209,30.899,21.778,30.808z"/>
<path fill="#202020" d="M17.029,24.376c-1.339-0.068-2.392-1.213-2.312-2.563c0.069-1.328,1.202-2.357,2.552-2.312
	c1.339,0.068,2.38,1.213,2.312,2.563C19.523,23.392,18.367,24.445,17.029,24.376z"/>
<path fill="#202020" d="M10.093,15.541c0.068-1.259,1.133-2.243,2.403-2.174c1.259,0.046,2.243,1.122,2.174,2.38
	c-0.057,1.259-1.145,2.266-2.403,2.174C11.008,17.853,10.025,16.8,10.093,15.541z"/>
<path fill="#202020" d="M41.439,34.012c-1.671,0.092-3.124-1.19-3.182-2.861c-0.092-1.694,1.225-3.113,2.896-3.182
	c1.637-0.069,3.067,1.19,3.136,2.907C44.392,32.502,43.11,33.943,41.439,34.012z"/>
<path fill="#202020" d="M37.812,26.116c0.08,1.534-1.11,2.861-2.678,2.93s-2.918-1.122-2.987-2.678
	c-0.068-1.58,1.145-2.884,2.712-2.976C36.404,23.323,37.731,24.514,37.812,26.116z"/>
<path fill="#202020" d="M31.334,21.355c0.069,1.442-1.053,2.678-2.518,2.747c-1.465,0.068-2.735-1.053-2.792-2.495
	c-0.069-1.488,1.076-2.724,2.541-2.792C30.007,18.746,31.254,19.867,31.334,21.355z"/>
<path fill="#202020" d="M24.856,16.594c0.058,1.35-0.984,2.518-2.346,2.563c-1.362,0.068-2.541-0.984-2.598-2.335
	c-0.058-1.373,1.007-2.518,2.369-2.586C23.62,14.168,24.788,15.221,24.856,16.594z"/>
<path fill="#202020" d="M13.801,12.062c-0.069-1.282,0.927-2.357,2.186-2.403c1.248-0.068,2.335,0.916,2.392,2.174
	c0.058,1.259-0.915,2.335-2.174,2.381C14.946,14.282,13.847,13.298,13.801,12.062z"/>
<path fill="#202020" d="M19.466,5.951c1.248-0.183,2.438,0.688,2.621,1.946c0.184,1.259-0.687,2.449-1.957,2.609
	c-1.259,0.206-2.438-0.687-2.62-1.946C17.338,7.301,18.218,6.134,19.466,5.951z"/>
<path fill="#202020" d="M30.349,11.261c0.195,1.327-0.732,2.563-2.06,2.747c-1.328,0.206-2.575-0.732-2.758-2.037
	c-0.184-1.328,0.744-2.586,2.06-2.771C28.908,9.018,30.155,9.934,30.349,11.261z"/>
<path fill="#202020" d="M38.612,14.603c0.206,1.419-0.767,2.701-2.163,2.907c-1.396,0.206-2.712-0.778-2.907-2.152
	c-0.194-1.396,0.778-2.701,2.163-2.907C37.09,12.245,38.406,13.207,38.612,14.603z"/>
<path fill="#202020" d="M46.864,17.967c0.217,1.465-0.801,2.815-2.266,3.044c-1.454,0.206-2.838-0.801-3.033-2.266
	c-0.206-1.465,0.801-2.838,2.254-3.044C45.284,15.473,46.658,16.503,46.864,17.967z"/>
<path fill="#202020" d="M55.128,21.332c0.217,1.534-0.848,2.953-2.369,3.182c-1.522,0.229-2.965-0.847-3.17-2.358
	c-0.219-1.533,0.834-2.975,2.356-3.204C53.479,18.746,54.898,19.798,55.128,21.332z"/>
<path fill="#202020" d="M63.39,24.697c0.24,1.602-0.881,3.09-2.473,3.319c-1.59,0.229-3.101-0.893-3.318-2.472
	c-0.229-1.602,0.869-3.113,2.461-3.342C61.661,21.973,63.16,23.094,63.39,24.697z"/>
<path fill="#202020" d="M68.185,25.452c1.671-0.229,3.228,0.938,3.468,2.609c0.252,1.648-0.927,3.205-2.575,3.457
	c-1.658,0.251-3.238-0.916-3.456-2.586C65.382,27.26,66.525,25.704,68.185,25.452z"/>
</svg>
