<?xml version="1.0" encoding="utf-8"?>
<!-- Generator: Adobe Illustrator 14.0.0, SVG Export Plug-In . SVG Version: 6.00 Build 43363)  -->
<!DOCTYPE svg PUBLIC "-//W3C//DTD SVG 1.0//EN" "http://www.w3.org/TR/2001/REC-SVG-20010904/DTD/svg10.dtd">
<svg version="1.0" id="Layer_1" xmlns="http://www.w3.org/2000/svg" xmlns:xlink="http://www.w3.org/1999/xlink" x="0px" y="0px"
	 width="99.992px" height="94.066px" viewBox="0 0 99.992 94.066" enable-background="new 0 0 99.992 94.066" xml:space="preserve">
<g>
	<path d="M85.949,17.792V43.7c0,6.346-1.895,12.225-5.22,17.143c0.659,0.824,1.292,1.814,1.841,3.078
		c1.621,3.682,0.797,7.802-1.758,10.576L67.57,88.236c-0.221,0.302-0.551,0.576-0.935,0.741c-1.126,0.495-2.411-0.027-2.878-1.126
		c-0.22-0.495-0.248-1.018-0.109-1.484l2.768-14.012c-3.482,1.347-7.273,2.088-11.23,2.088l-29.754-0.027
		c7.967,5.439,7.967,16.018,7.94,16.21c-0.055,0.741-0.137,1.291-0.357,1.95c-0.302,0.852-0.852,1.786-2.115,1.401L12.807,79.746
		C4.51,73.812-2.579,63.976,0.911,53.865c2.417-6.896,9.286-9.78,15.99-10.961l37.708-7.583L71.031,5.786
		c2.006-3.489,7.281-6.017,10.797-5.77c3.545,0.247,6.1,1.208,8.6,3.379l8.133,1.731c0.852,0.055,1.483,0.77,1.428,1.621
		l-0.906,3.297c-0.302,0.742-0.632,1.291-1.318,1.758L85.949,17.792z"/>
</g>
</svg>
