<?xml version="1.0" encoding="utf-8"?>
<!-- Generator: Adobe Illustrator 14.0.0, SVG Export Plug-In . SVG Version: 6.00 Build 43363)  -->
<!DOCTYPE svg PUBLIC "-//W3C//DTD SVG 1.0//EN" "http://www.w3.org/TR/2001/REC-SVG-20010904/DTD/svg10.dtd">
<svg version="1.0" id="Layer_1" xmlns="http://www.w3.org/2000/svg" xmlns:xlink="http://www.w3.org/1999/xlink" x="0px" y="0px"
	 width="99.988px" height="81.895px" viewBox="0 0 99.988 81.895" enable-background="new 0 0 99.988 81.895" xml:space="preserve">
<path d="M65.051,17.876c4.943,0,8.927-4.007,8.927-8.926c0-4.943-3.983-8.95-8.927-8.95c-4.942,0-8.95,4.007-8.95,8.95
	C56.101,13.869,60.108,17.876,65.051,17.876z"/>
<path d="M99.988,81.895c-2.112,0-4.151-0.479-5.951-1.271c-1.848-0.863-3.935-1.367-6.118-1.367c-2.16,0-4.248,0.504-6.096,1.367
	c-1.823,0.792-3.839,1.271-5.95,1.271c-2.112,0-4.128-0.479-5.927-1.271c-1.848-0.863-3.936-1.367-6.119-1.367
	s-4.271,0.504-6.119,1.367c-1.799,0.792-3.814,1.271-5.926,1.271c-2.112,0-4.128-0.479-5.951-1.271
	c-1.848-0.863-3.911-1.367-6.095-1.367s-4.271,0.504-6.119,1.367c-1.8,0.792-3.815,1.271-5.927,1.271
	c-2.088,0-4.103-0.479-5.927-1.271c-1.848-0.863-3.936-1.367-6.095-1.367c-2.184,0-4.271,0.504-6.119,1.367
	c-1.799,0.792-3.815,1.271-5.927,1.271v-8.902c2.112,0,4.127-0.455,5.927-1.271c1.848-0.863,3.936-1.367,6.119-1.367
	c2.159,0,4.247,0.504,6.095,1.367c1.824,0.816,3.839,1.271,5.927,1.271c2.111,0,4.127-0.455,5.927-1.271
	c1.848-0.863,3.936-1.367,6.119-1.367s4.247,0.504,6.095,1.367c1.823,0.816,3.839,1.271,5.951,1.271
	c2.111,0,4.127-0.455,5.926-1.271c1.848-0.863,3.936-1.367,6.119-1.367s4.271,0.504,6.119,1.367
	c1.799,0.816,3.814,1.271,5.927,1.271c2.111,0,4.127-0.455,5.95-1.271c1.848-0.863,3.936-1.367,6.096-1.367
	c2.184,0,4.271,0.504,6.118,1.367c1.8,0.816,3.839,1.271,5.951,1.271V81.895z"/>
<path d="M9.766,64.163c1.799-0.815,3.792-1.271,5.903-1.271c2.159,0,4.247,0.504,6.095,1.367c1.824,0.793,3.839,1.272,5.927,1.272
	c2.111,0,4.127-0.479,5.927-1.272c1.848-0.863,3.936-1.367,6.119-1.367s4.247,0.504,6.095,1.367
	c1.823,0.793,3.839,1.272,5.951,1.272c2.111,0,4.127-0.479,5.926-1.272c1.176-0.551,2.4-0.911,3.695-1.15l15.405-17.613h-19.82
	l8.207-14.085l17.996,9.838c5.95,3.359,10.342-4.391,4.367-7.75L61.788,19.244c-9.479-5.279-13.486,3.479-13.486,3.479
	L35.009,45.182L0,45.159C1.104,51.565,6.862,60.156,9.766,64.163z"/>
<path d="M66.035,63.059c1.367,0.217,2.687,0.624,3.911,1.199c1.799,0.793,3.814,1.272,5.927,1.272c2.111,0,4.127-0.479,5.95-1.272
	c1.848-0.863,3.936-1.367,6.096-1.367c2.184,0,4.271,0.504,6.118,1.367c1.8,0.793,3.839,1.272,5.951,1.272L99.94,45.495
	l-18.572-0.023L66.035,63.059z"/>
</svg>
