<?xml version="1.0" encoding="utf-8"?>
<!-- Generator: Adobe Illustrator 14.0.0, SVG Export Plug-In . SVG Version: 6.00 Build 43363)  -->
<!DOCTYPE svg PUBLIC "-//W3C//DTD SVG 1.0//EN" "http://www.w3.org/TR/2001/REC-SVG-20010904/DTD/svg10.dtd">
<svg version="1.0" id="Layer_1" xmlns="http://www.w3.org/2000/svg" xmlns:xlink="http://www.w3.org/1999/xlink" x="0px" y="0px"
	 width="86.043px" height="100px" viewBox="0 0 86.043 100" enable-background="new 0 0 86.043 100" xml:space="preserve">
<path id="path5308" d="M29.353,67.038V49.745c0-7.023,5.69-12.727,12.753-12.727c7.024,0,12.714,5.703,12.714,12.727v17.293H29.353z
	"/>
<path id="path5310" d="M43.021,9.483c18.496,0,33.486,14.991,33.486,33.485v43.178h9.535l-0.025-43.178
	C86.018,19.241,66.749,0,43.021,0C19.281,0,0.026,19.241,0.026,42.969L0,86.174l9.523-0.026V42.969
	C9.522,24.474,24.525,9.483,43.021,9.483"/>
<path id="path5312" d="M44.683,70.739H39.49l-0.628,3.636h6.487L44.683,70.739z"/>
<path id="path5314" d="M46.291,79.935h-8.357l-0.968,5.441h10.241L46.291,79.935z"/>
<path id="path5316" d="M48.463,92.713H35.71L34.493,100h15.251L48.463,92.713z"/>
</svg>
