<?xml version="1.0" encoding="utf-8"?>
<!-- Generator: Adobe Illustrator 14.0.0, SVG Export Plug-In . SVG Version: 6.00 Build 43363)  -->
<!DOCTYPE svg PUBLIC "-//W3C//DTD SVG 1.0//EN" "http://www.w3.org/TR/2001/REC-SVG-20010904/DTD/svg10.dtd">
<svg version="1.0" id="Layer_1" xmlns="http://www.w3.org/2000/svg" xmlns:xlink="http://www.w3.org/1999/xlink" x="0px" y="0px"
	 width="52.66px" height="99.959px" viewBox="0 0 52.66 99.959" enable-background="new 0 0 52.66 99.959" xml:space="preserve">
<path d="M24.4,32.602c-0.018,3.233-2.977,6.711-6.812,6.711v54.794c-0.001,7.803-10.607,7.803-10.623,0V39.313
	c-3.722,0-6.972-2.88-6.965-7.168V1.951C-0.007-0.67,3.787-0.771,3.812,2.053v22.313h3.153V1.848c0-2.407,3.652-2.563,3.661,0.103
	v22.415h3.251V1.899c0.024-2.539,3.573-2.64,3.558,0.102v22.365h3.255V1.899c-0.012-2.513,3.695-2.615,3.711,0.102V32.602
	L24.4,32.602z"/>
<path d="M52.66,8.965v85.142c0.014,7.606-10.612,7.493-10.622,0V60.304h-5.643V8.965C36.389-2.988,52.674-2.988,52.66,8.965
	L52.66,8.965z"/>
</svg>
