<?xml version="1.0" encoding="utf-8"?>
<!-- Generator: Adobe Illustrator 14.0.0, SVG Export Plug-In . SVG Version: 6.00 Build 43363)  -->
<!DOCTYPE svg PUBLIC "-//W3C//DTD SVG 1.0//EN" "http://www.w3.org/TR/2001/REC-SVG-20010904/DTD/svg10.dtd">
<svg version="1.0" id="Layer_1" xmlns="http://www.w3.org/2000/svg" xmlns:xlink="http://www.w3.org/1999/xlink" x="0px" y="0px"
	 width="93.343px" height="99.999px" viewBox="0 0 93.343 99.999" enable-background="new 0 0 93.343 99.999" xml:space="preserve">
<path d="M49.828,11.8H35.259c-2.633,0.008-2.536,3.907,0,3.885h14.568v1.99H35.259c-2.62-0.019-2.524,3.877,0,3.887h14.568v1.94
	v0.098H35.259c-2.62,0-2.524,3.897,0,3.884h14.568v1.945H35.259c-2.565,0.018-2.524,3.917,0,3.933h14.568v1.943H35.259
	c-2.565-0.011-2.574,3.888,0,3.885h14.568v1.942H35.259c-2.565,0.008-2.574,3.907,0,3.884h14.568v1.991H35.259
	c-2.565-0.019-2.574,3.88,0,3.886h14.568v1.943H35.259c-2.565-0.002-2.524,3.897,0,3.884h14.568v37.834
	c0.009,5.764,8.817,5.661,8.84,0V6.021c-0.022-2.631-2.197-5.962-5.779-5.973H35.259c-2.635,0.003-2.538,3.9,0,3.884L49.828,3.98
	v1.943H35.259c-2.63-0.018-2.533,3.88,0,3.884h14.568V11.8L49.828,11.8z"/>
<path d="M32.927,88.191c-0.465,3.187,0.62,8.925,2.914,11.025c2.367,2.163,5.184-0.607,4.031-2.865
	c-1.188-2.229-2.673-3.448-1.407-8.79L32.927,88.191L32.927,88.191z"/>
<path d="M28.315,69.594V43.853L23.409,1.407C23.295,0.283,22.596,0.021,21.953,0c-0.667,0.021-1.364,0.283-1.507,1.407
	l-4.759,42.446v25.741C6.742,64.905,0.007,72.19,0,78.819c0.007,5.896,4.355,10.744,10.539,10.733
	c6.229,0.011,10.474-5.418,10.49-10.733V52.935h1.991v25.885c-0.013,6.136,4.952,10.672,10.296,10.686
	c6.662-0.014,10.919-4.72,10.927-10.639C44.235,72.141,37.297,64.905,28.315,69.594z M10.491,84.162
	c-2.926-0.014-5.29-2.378-5.294-5.296c0.004-2.915,2.368-5.277,5.294-5.291c2.906,0.014,5.27,2.376,5.293,5.291
	C15.761,81.784,13.397,84.148,10.491,84.162z M33.754,84.162c-2.915-0.014-5.278-2.378-5.295-5.296
	c0.017-2.915,2.38-5.277,5.295-5.291c2.917,0.014,5.282,2.376,5.292,5.291C39.036,81.784,36.671,84.148,33.754,84.162z"/>
<path d="M33.754,78.866"/>
<path d="M81.785,10.344c2.734-0.004,4.954-2.224,4.954-4.955c0-2.744-2.22-4.965-4.954-4.953c-2.742-0.012-4.961,2.209-4.954,4.953
	C76.824,8.121,79.042,10.34,81.785,10.344L81.785,10.344z"/>
<path d="M81.785,5.389"/>
<path d="M76.492,11.411c-3.527,0.024-6.352,2.887-6.362,6.459v15.202c0.011,2.979,4.343,2.979,4.321,0v-13.89h1.069v38.122
	c-0.022,3.938,5.746,3.822,5.729,0V35.159h1.021v22.145c-0.014,3.822,5.787,3.938,5.779,0V19.182h1.021v13.89
	c-0.011,3.002,4.298,3.002,4.273,0V17.968c0.016-3.302-2.541-6.527-6.412-6.508L76.492,11.411L76.492,11.411z"/>
</svg>
