<?xml version="1.0" encoding="utf-8"?>
<!-- Generator: Adobe Illustrator 14.0.0, SVG Export Plug-In . SVG Version: 6.00 Build 43363)  -->
<!DOCTYPE svg PUBLIC "-//W3C//DTD SVG 1.0//EN" "http://www.w3.org/TR/2001/REC-SVG-20010904/DTD/svg10.dtd">
<svg version="1.0" id="Layer_1" xmlns="http://www.w3.org/2000/svg" xmlns:xlink="http://www.w3.org/1999/xlink" x="0px" y="0px"
	 width="100px" height="83.034px" viewBox="0 0 100 83.034" enable-background="new 0 0 100 83.034" xml:space="preserve">
<g>
	<polygon points="0,73.672 18.203,73.672 18.203,55.145 36.29,55.145 36.29,36.492 54.661,36.492 54.661,18.187 72.908,18.187 
		72.908,0 100,0 100,9.279 81.989,9.279 81.989,27.534 63.722,27.534 63.722,46.046 45.491,46.046 45.491,64.463 27.186,64.463 
		27.186,83.034 0,83.034 	"/>
</g>
<g>
	<path d="M81.602,54.096H65.503c-4.435,0-4.605,6.822,0,6.822h8.251L58.062,76.611c-3.479,3.479,1.44,8.514,5.137,4.817
		l15.46-15.502v8.167c-0.023,4.435,6.855,4.604,6.866,0V58.095C85.524,55.708,83.922,54.096,81.602,54.096z"/>
</g>
</svg>
