<?xml version="1.0" encoding="utf-8"?>
<!-- Generator: Adobe Illustrator 14.0.0, SVG Export Plug-In . SVG Version: 6.00 Build 43363)  -->
<!DOCTYPE svg PUBLIC "-//W3C//DTD SVG 1.0//EN" "http://www.w3.org/TR/2001/REC-SVG-20010904/DTD/svg10.dtd">
<svg version="1.0" id="Layer_1" xmlns="http://www.w3.org/2000/svg" xmlns:xlink="http://www.w3.org/1999/xlink" x="0px" y="0px"
	 width="100px" height="95.423px" viewBox="0 0 100 95.423" enable-background="new 0 0 100 95.423" xml:space="preserve">
<path d="M0.117,1.59h16.746v8.99c0.025,2.07,1.514,2.789,3.524,1.938L47.649,0.122c0.793-0.344,1.793,0.079,2.175,0.764l2.172,4.702
	c0.298,0.742,0.044,1.645-0.764,2.055L13.16,24.797c-6.542,3.468-13.016-1.048-13.043-7.226V1.59L0.117,1.59z"/>
<path d="M90.836,22.447l8.872-7.108l-5.054-6.814l-7.933,5.876l3.644-11.87l-7.873-2.409l-4.113,12.515L74.267,0.122l-7.932,2.409
	l3.642,11.87L61.81,8.407l-5.052,6.815l9.108,7.225h-9.168v72.977H100V22.564v-0.118H90.836z M73.972,86.904h-9.167V51.179h9.167
	V86.904z M73.972,42.659h-9.167V31.086h9.167V42.659z M91.894,86.904h-9.168V51.179h9.168V86.904z M91.894,42.659h-9.168V31.086
	h9.168V42.659z"/>
<path d="M46.768,80.676V30.673H32.55l0.059-8.342C32.554,22.358,5.875,34.258,5.875,34.258C1.558,36.324,0,39.332,0,43.425v40.304
	c0,6.426,5.16,11.691,11.104,11.694h35.783V88.02C42.503,87.483,42.503,81.225,46.768,80.676z M10.927,87.257
	c-3.918-0.025-3.904-5.524,0-5.524h24.971c-1.736,1.287-1.623,4.328,0.236,5.524H10.927z M38.778,73.916H16.921l15.629-7.048V38.781
	h6.229V73.916z"/>
</svg>
