<?xml version="1.0" encoding="utf-8"?>
<!-- Generator: Adobe Illustrator 14.0.0, SVG Export Plug-In . SVG Version: 6.00 Build 43363)  -->
<!DOCTYPE svg PUBLIC "-//W3C//DTD SVG 1.0//EN" "http://www.w3.org/TR/2001/REC-SVG-20010904/DTD/svg10.dtd">
<svg version="1.0" id="Layer_1" xmlns="http://www.w3.org/2000/svg" xmlns:xlink="http://www.w3.org/1999/xlink" x="0px" y="0px"
	 width="69.036px" height="100px" viewBox="0 0 69.036 100" enable-background="new 0 0 69.036 100" xml:space="preserve">
<path d="M39.833,7.718v2.754H27.936V6.145h-3.441C24.497,3.448,21.583,0.007,17.413,0c-4.011,0.007-7.666,3.156-7.668,7.914
	c0.003,2.257,1.301,4.275,2.458,4.968C7.651,14.554,1.565,20.303,0.354,23.796c-1.659,3.347,2.926,6.143,5.26,2.799
	c2.378-3.331,5.022-7.428,12.882-9.388v3.44c-3.232,0.628-12.151,5.884-12.144,16.078v59.343C6.344,97.545,7.03,100,9.989,100
	h26.108c2.959,0,3.646-2.455,3.637-3.932V36.726c0.009-10.193-8.594-15.45-11.848-16.078v-4.129h11.948v2.557L69.036,23.5V3.441
	L39.833,7.718z M17.316,10.865c-1.857,0.005-3.373-1.51-3.392-3.392c0.019-1.857,1.535-3.373,3.392-3.393
	c1.881,0.021,3.397,1.536,3.392,3.393C20.713,9.354,19.197,10.87,17.316,10.865z"/>
</svg>
