<?xml version="1.0" encoding="utf-8"?>
<!-- Generator: Adobe Illustrator 14.0.0, SVG Export Plug-In . SVG Version: 6.00 Build 43363)  -->
<!DOCTYPE svg PUBLIC "-//W3C//DTD SVG 1.0//EN" "http://www.w3.org/TR/2001/REC-SVG-20010904/DTD/svg10.dtd">
<svg version="1.0" id="Layer_1" xmlns="http://www.w3.org/2000/svg" xmlns:xlink="http://www.w3.org/1999/xlink" x="0px" y="0px"
	 width="78.815px" height="100px" viewBox="0 0 78.815 100" enable-background="new 0 0 78.815 100" xml:space="preserve">
<path d="M0,31.942V100h78.815V31.942H0z M69.236,89.988H9.211V41.064h60.025V89.988z"/>
<g>
	<path d="M23.788,84.157h-3.502c-2.415,0-4.758-1.785-4.758-4.89c0,0,0-22.121,0-22.178c0-2.766,2.287-4.858,4.758-4.858h3.502
		V84.157z"/>
</g>
<g>
	<path d="M54.633,84.157h3.503c2.414,0,4.758-1.785,4.758-4.89c0,0,0-22.121,0-22.178c0-2.766-2.287-4.858-4.758-4.858h-3.503
		V84.157z"/>
</g>
<path d="M45.863,52.287v-4.483c0-1.671-1.465-2.732-3.238-2.732c0,0-6.826,0-6.804,0c-1.774,0-3.264,1.061-3.264,2.732v4.483h-6.376
	v31.926h26.113V52.287H45.863z M43.439,52.287h-8.539v-4.625h8.539V52.287z"/>
<path d="M68.403,11.61l-4.63-4.69H36.22C33.852,2.787,29.4,0,24.295,0c-7.587,0-13.738,6.15-13.738,13.737
	c0,7.587,6.15,13.738,13.738,13.738c5.166,0,9.663-2.853,12.009-7.068h5.387l4.274-4.33l3.287,3.331l3.288-3.331l3.287,3.331
	l3.342-3.386l3.425,3.469l0.082-0.028l5.753-5.829C69.088,12.97,69.128,12.346,68.403,11.61z M18.291,17.215
	c-2.038,0-3.69-1.652-3.69-3.69c0-2.037,1.652-3.689,3.69-3.689c2.038,0,3.689,1.652,3.689,3.689
	C21.98,15.562,20.329,17.215,18.291,17.215z"/>
</svg>
