<?xml version="1.0" encoding="utf-8"?>
<!-- Generator: Adobe Illustrator 14.0.0, SVG Export Plug-In . SVG Version: 6.00 Build 43363)  -->
<!DOCTYPE svg PUBLIC "-//W3C//DTD SVG 1.0//EN" "http://www.w3.org/TR/2001/REC-SVG-20010904/DTD/svg10.dtd">
<svg version="1.0" id="Layer_1" xmlns="http://www.w3.org/2000/svg" xmlns:xlink="http://www.w3.org/1999/xlink" x="0px" y="0px"
	 width="100px" height="95.821px" viewBox="0 0 100 95.821" enable-background="new 0 0 100 95.821" xml:space="preserve">
<path d="M34.847,13.988h6.015c0.023-2.376-0.557-7.625,5.773-7.631c4.792,0.006,4.549,4.061,4.549,4.061s0.194,2.758-3.865,4.746
	c-3.675,1.826-4.015,4.361-4.012,5.478v7.044h6.066v-4.549c0.02-1.708,1.23-2.636,3.96-4.599c2.684-1.943,4.474-3.799,4.452-8.021
	C57.808,6.338,53.65-0.011,46.047,0c0,0-5.21-0.061-8.218,3.718C34.841,7.462,34.695,9.66,34.847,13.988L34.847,13.988z"/>
<polygon points="49.324,29.886 43.307,29.886 43.307,36.245 49.324,36.245 49.324,29.886 "/>
<path d="M88.506,69.36c8.839-0.015,11.485-7.269,11.494-11.446c-0.009-5.201-4.483-10.713-10.566-10.713H75.347V35.022
	L12.345,48.375v3.473l63.001,12.571V52.825c0,0,13.527-0.016,13.598,0c3.154-0.016,5.465,3.271,5.479,5.283
	c-0.014,2.588-1.553,5.491-5.479,5.479c0,0-4.444-0.432-4.451,2.739C84.5,69.536,87.867,69.346,88.506,69.36L88.506,69.36z"/>
<path d="M10.633,48.767v2.689H1.536c-2.011-0.021-2.084-2.684,0-2.689C1.597,48.747,10.633,48.767,10.633,48.767L10.633,48.767z"/>
<path d="M69.331,81.295c0,0,2.642-0.017,3.423,0c0.748-0.017,2.329,0.702,2.348,2.15v12.376l-7.483-2.152c0,0-40.737-0.003-42.897,0
	c-2.146-0.003-3.004-1.795-2.984-2.739c-0.02-0.97,0.742-2.779,2.984-2.788h21.62V86.87c0,0-19.46,0-21.62,0
	c-2.146,0-3.004-1.805-2.984-2.74c-0.02-0.977,0.742-2.732,2.984-2.737h21.62v-1.174c0,0-19.46,0.006-21.62,0
	c-2.146,0.006-3.004-1.746-2.984-2.69c-0.02-0.969,0.742-2.887,2.984-2.887h21.62v-1.175h-21.62
	c-2.159,0.016-3.004-1.906-2.984-2.886c-0.02-0.937,0.729-2.786,2.984-2.787l0,0H42.77l-6.064-1.663
	c-1.542-0.539-2.323-1.92-1.907-3.521c0.446-1.558,1.748-2.22,3.96-1.811l36.343,7.044v7.044c-0.019,1.692-1.167,2.794-2.396,2.788
	h-3.374C67.185,77.681,67.185,81.278,69.331,81.295L69.331,81.295z"/>
</svg>
