<?xml version="1.0" encoding="utf-8"?>
<!-- Generator: Adobe Illustrator 14.0.0, SVG Export Plug-In . SVG Version: 6.00 Build 43363)  -->
<!DOCTYPE svg PUBLIC "-//W3C//DTD SVG 1.0//EN" "http://www.w3.org/TR/2001/REC-SVG-20010904/DTD/svg10.dtd">
<svg version="1.0" id="Layer_1" xmlns="http://www.w3.org/2000/svg" xmlns:xlink="http://www.w3.org/1999/xlink" x="0px" y="0px"
	 width="58.687px" height="100px" viewBox="0 0 58.687 100" enable-background="new 0 0 58.687 100" xml:space="preserve">
<path d="M49.896,11.807H35.271c-2.616-0.024-2.518,3.877,0,3.887h14.625v1.945H35.32c-2.652-0.007-2.555,3.894,0,3.885h14.576v1.944
	v0.096H35.32c-2.652,0.016-2.555,3.917,0,3.937h14.576v1.94H35.32c-2.596-0.01-2.555,3.889,0,3.891h14.576v1.941H35.32
	c-2.596,0.006-2.605,3.905,0,3.887h14.576v1.992H35.32c-2.596-0.022-2.605,3.877,0,3.887h14.576v1.943H35.32
	c-2.596-0.001-2.605,3.896,0,3.887h14.576v1.943H35.32c-2.596,0.018-2.555,3.919,0,3.936h14.576v37.799
	c-0.024,5.782,8.788,5.681,8.791,0V5.977c-0.003-2.616-2.18-5.949-5.78-5.926L35.271,0c-2.618,0.021-2.521,3.92,0,3.936h14.625
	v1.942H35.271c-2.613,0-2.516,3.9,0,3.888h14.625V11.807L49.896,11.807z"/>
<path d="M32.989,88.18c-0.498,3.203,0.588,8.944,2.865,11.028c2.386,2.181,5.202-0.594,4.033-2.864
	c-1.172-2.217-2.655-3.435-1.41-8.746L32.989,88.18L32.989,88.18z"/>
<path d="M10.495,78.854"/>
<path d="M28.324,69.572v-25.75L23.465,1.41C23.321,0.254,22.623-0.009,21.96,0c-0.647-0.01-1.346,0.253-1.458,1.41l-4.761,42.412
	v25.75C6.761,64.901,0.023,72.189,0,78.803c0.023,5.916,4.374,10.765,10.593,10.785c6.197-0.021,10.446-5.454,10.443-10.785V52.908
	h1.992v25.895C23.034,84.957,28,89.495,33.33,89.491c6.68,0.004,10.938-4.705,10.931-10.638
	C44.267,72.138,37.328,64.901,28.324,69.572z M10.495,84.146c-2.91,0.005-5.275-2.361-5.296-5.293
	c0.021-2.902,2.387-5.266,5.296-5.249c2.925-0.017,5.29,2.347,5.295,5.249C15.785,81.785,13.419,84.151,10.495,84.146z
	 M33.765,84.146c-2.897,0.005-5.262-2.361-5.248-5.293c-0.015-2.902,2.35-5.266,5.248-5.249c2.938-0.017,5.303,2.347,5.296,5.249
	C39.068,81.785,36.703,84.151,33.765,84.146z"/>
<path d="M33.765,78.854"/>
</svg>
