<?xml version="1.0" encoding="utf-8"?>
<!-- Generator: Adobe Illustrator 14.0.0, SVG Export Plug-In . SVG Version: 6.00 Build 43363)  -->
<!DOCTYPE svg PUBLIC "-//W3C//DTD SVG 1.0//EN" "http://www.w3.org/TR/2001/REC-SVG-20010904/DTD/svg10.dtd">
<svg version="1.0" id="Layer_1" xmlns="http://www.w3.org/2000/svg" xmlns:xlink="http://www.w3.org/1999/xlink" x="0px" y="0px"
	 width="100px" height="77.873px" viewBox="0 0 100 77.873" enable-background="new 0 0 100 77.873" xml:space="preserve">
<g>
	<circle cx="42.312" cy="6.626" r="6.626"/>
	<path d="M42.312,6.626"/>
</g>
<g>
	<path d="M77.766,53.256H63.923c-3.812,0-3.959,5.866,0,5.866h7.096L57.524,72.616c-2.991,2.991,1.24,7.32,4.418,4.143l13.293-13.33
		v7.022c-0.021,3.812,5.895,3.96,5.903,0V56.695C81.139,54.642,79.761,53.256,77.766,53.256z"/>
</g>
<path d="M88.269,7.188H72.859c-3.186,0-7.283,1.303-9.727,3.747L48.872,25.179v-4.174c0-8.896-13.119-8.799-13.119,0v17.032h0.026
	L23.384,50.431c-1.169,1.169-1.312,1.22-3.607,1.22c-0.002,0.002-7.578,0-7.578,0C4.573,51.651,0,58.504,0,64.314
	s4.573,13.153,12.875,13.153c0,0,10.313,0,13.499,0s7.048-1.218,10.234-4.217l39.523-39.403c0.844-0.75,1.312-0.983,2.765-0.983
	c0,0,5.449,0,9.759,0c4.698,0,11.346-5.324,11.346-12.998C100,12.27,93.304,7.206,88.269,7.188z M87.57,26.214h-8.335
	c-3.529,0-5.094,0.495-7.125,2.526L32.286,68.565c-1.61,1.614-3.654,2.253-6.278,2.253H12.875c-3.374,0-6.347-2.854-6.347-6.603
	c0-3.748,2.835-5.848,5.768-5.848h9.01c2.624,0,4.351-0.75,5.85-2.249l40.497-40.497c1.666-1.666,3.312-1.875,6.145-1.875H87.66
	c3.374,0,5.644,3.771,5.644,6.02C93.304,22.017,91.693,26.214,87.57,26.214z"/>
</svg>
