<?xml version="1.0" encoding="utf-8"?>
<!-- Generator: Adobe Illustrator 14.0.0, SVG Export Plug-In . SVG Version: 6.00 Build 43363)  -->
<!DOCTYPE svg PUBLIC "-//W3C//DTD SVG 1.0//EN" "http://www.w3.org/TR/2001/REC-SVG-20010904/DTD/svg10.dtd">
<svg version="1.0" id="Layer_1" xmlns="http://www.w3.org/2000/svg" xmlns:xlink="http://www.w3.org/1999/xlink" x="0px" y="0px"
	 width="95.497px" height="100px" viewBox="0 0 95.497 100" enable-background="new 0 0 95.497 100" xml:space="preserve">
<path d="M81.832,10.053c2.658,0.01,4.833-2.165,4.854-4.856c-0.021-2.674-2.195-4.85-4.854-4.856
	c-2.708,0.006-4.884,2.182-4.906,4.856C76.948,7.888,79.124,10.062,81.832,10.053L81.832,10.053z"/>
<path d="M81.832,5.196"/>
<path d="M10.489,78.869"/>
<path d="M32.927,88.193c-0.467,3.186,0.619,8.925,2.913,11.022c2.366,2.166,5.184-0.605,4.032-2.862
	c-1.188-2.232-2.673-3.448-1.41-8.793L32.927,88.193L32.927,88.193z"/>
<path d="M49.826,11.8h-14.57c-2.631,0.01-2.534,3.908,0,3.886h14.57v1.992h-14.57c-2.619-0.021-2.522,3.875,0,3.884h14.57v1.943
	v0.097h-14.57c-2.619-0.001-2.522,3.896,0,3.885h14.57v1.943h-14.57c-2.563,0.017-2.522,3.915,0,3.932h14.57v1.944h-14.57
	c-2.563-0.012-2.573,3.886,0,3.885h14.57v1.942h-14.57c-2.563,0.01-2.573,3.907,0,3.885h14.57v1.991h-14.57
	c-2.563-0.022-2.573,3.875,0,3.885h14.57v1.941h-14.57c-2.563-0.003-2.522,3.898,0,3.884h14.57v37.833
	c0.008,5.764,8.817,5.663,8.84,0V6.022c-0.022-2.631-2.197-5.962-5.779-5.974h-17.63c-2.633,0.003-2.536,3.902,0,3.888l14.57,0.047
	v1.941h-14.57c-2.63-0.016-2.533,3.882,0,3.887h14.57V11.8L49.826,11.8z"/>
<path d="M81.101,40.89v16.805c-0.011,3.08-4.593,3.08-4.612,0V40.989h-6.12l6.557-22.827h-1.02l-3.837,12.918
	c-0.894,2.782-4.749,1.632-3.885-1.36l4.274-13.988c0.445-1.607,2.462-4.435,5.973-4.417h3.204l0,0h3.449
	c3.471-0.019,5.5,2.831,6.021,4.417l4.275,13.941c0.824,3.021-3.001,4.267-3.886,1.359l-3.837-12.87h-1.118l6.653,22.827h-6.166
	v16.752c-0.019,3.033-4.582,3.017-4.565,0V40.89H81.101L81.101,40.89z"/>
<path d="M28.312,69.592V43.855L23.407,1.409C23.293,0.285,22.596,0.022,21.949,0c-0.664,0.022-1.361,0.285-1.504,1.409l-4.76,42.446
	v25.737C6.739,64.906,0.005,72.191,0,78.82c0.005,5.896,4.353,10.743,10.538,10.73c6.228,0.013,10.474-5.416,10.489-10.73V52.936
	h1.991V78.82c-0.013,6.136,4.952,10.672,10.295,10.684c6.662-0.012,10.917-4.722,10.928-10.635
	C44.231,72.141,37.295,64.906,28.312,69.592z M10.489,84.165c-2.926-0.018-5.29-2.38-5.294-5.296
	c0.005-2.916,2.368-5.283,5.294-5.296c2.905,0.013,5.27,2.38,5.294,5.296C15.759,81.785,13.395,84.147,10.489,84.165z M33.75,84.165
	c-2.913-0.018-5.277-2.38-5.293-5.296c0.017-2.916,2.381-5.283,5.293-5.296c2.919,0.013,5.284,2.38,5.294,5.296
	C39.034,81.785,36.67,84.147,33.75,84.165z"/>
<path d="M33.75,78.869"/>
</svg>
