<?xml version="1.0" encoding="utf-8"?>
<!-- Generator: Adobe Illustrator 14.0.0, SVG Export Plug-In . SVG Version: 6.00 Build 43363)  -->
<!DOCTYPE svg PUBLIC "-//W3C//DTD SVG 1.0//EN" "http://www.w3.org/TR/2001/REC-SVG-20010904/DTD/svg10.dtd">
<svg version="1.0" id="Layer_1" xmlns="http://www.w3.org/2000/svg" xmlns:xlink="http://www.w3.org/1999/xlink" x="0px" y="0px"
	 width="100px" height="84.18px" viewBox="0 0 100 84.18" enable-background="new 0 0 100 84.18" xml:space="preserve">
<path d="M11.835,31.495H5.728C2.564,31.495,0,34.184,0,37.502v28.836c0,3.317,2.564,6.006,5.728,6.006h6.107V31.495z"/>
<path d="M11.835,72.344v6.108c0,3.163,2.689,5.728,6.006,5.728h28.837c3.317,0,6.006-2.564,6.006-5.728v-6.108H11.835z"/>
<path d="M83.973,10.497H66.251h-2.02l-5.248,5.155h5.248v1.147c0,6.007,4.873,10.878,10.881,10.878
	c6.01,0,10.881-4.872,10.881-10.878v-6.302H83.973z"/>
<polygon points="85.993,7.061 63.756,7.061 58.983,0 85.993,0 "/>
<path d="M94.272,31.495h-0.19h-0.856L65.857,66.237h22.306v6.106H60.128V84.18h28.035H100V72.344v-6.006V44.392v-6.89
	C100,34.184,97.437,31.495,94.272,31.495z"/>
<path d="M84.847,31.495H58.983h-2.648v0.013c-1.181-0.022-2.388,0.496-3.405,1.783c-7.59,9.594-15.178,19.191-22.768,28.786
	c-4.074,5.153,3.168,12.499,7.29,7.287c7.176-9.074,14.354-18.149,21.531-27.224v22.188L84.847,31.495z"/>
</svg>
