<?xml version="1.0" encoding="utf-8"?>
<!-- Generator: Adobe Illustrator 14.0.0, SVG Export Plug-In . SVG Version: 6.00 Build 43363)  -->
<!DOCTYPE svg PUBLIC "-//W3C//DTD SVG 1.0//EN" "http://www.w3.org/TR/2001/REC-SVG-20010904/DTD/svg10.dtd">
<svg version="1.0" id="Layer_1" xmlns="http://www.w3.org/2000/svg" xmlns:xlink="http://www.w3.org/1999/xlink" x="0px" y="0px"
	 width="100px" height="82.704px" viewBox="0 0 100 82.704" enable-background="new 0 0 100 82.704" xml:space="preserve">
<path d="M17.473,82.588h-7.398C4.952,82.58,0.005,78.827,0,72.287c0,0,0.005-46.695,0-46.837
	c0.005-5.786,4.833-10.182,10.075-10.186h7.398V82.588L17.473,82.588z"/>
<path d="M64.025,15.378V5.7c0.028-3.486-3.065-5.715-6.829-5.688c0,0-14.393-0.027-14.341,0c-3.749-0.027-6.894,2.202-6.887,5.688
	v9.678H22.48v67.325h55.146V15.378H64.025z M58.961,15.378H40.919v-9.96h18.042V15.378z"/>
<path d="M82.578,82.588h7.398c5.083-0.009,10.031-3.762,10.017-10.302c0,0,0.015-46.695,0-46.837
	c0.015-5.786-4.814-10.182-10.017-10.186h-7.398V82.588L82.578,82.588z"/>
</svg>
