<?xml version="1.0" encoding="utf-8"?>
<!-- Generator: Adobe Illustrator 14.0.0, SVG Export Plug-In . SVG Version: 6.00 Build 43363)  -->
<!DOCTYPE svg PUBLIC "-//W3C//DTD SVG 1.0//EN" "http://www.w3.org/TR/2001/REC-SVG-20010904/DTD/svg10.dtd">
<svg version="1.0" id="Layer_1" xmlns="http://www.w3.org/2000/svg" xmlns:xlink="http://www.w3.org/1999/xlink" x="0px" y="0px"
	 width="94.42px" height="100px" viewBox="0 0 94.42 100" enable-background="new 0 0 94.42 100" xml:space="preserve">
<path d="M20.15,63.002c4.859-0.011,8.808-3.96,8.831-8.831c-0.023-4.875-3.972-8.824-8.831-8.832
	c-4.885,0.008-8.834,3.958-8.828,8.832C11.315,59.042,15.265,62.991,20.15,63.002L20.15,63.002z"/>
<path d="M20.15,54.171"/>
<path d="M29.576,56.229v7.639H16.034c-6.551,0.046-6.56,8.458,0,8.448h17.768c2.598,0.01,4.224-2.083,4.225-4.439V56.229
	C38.025,49.864,29.587,49.864,29.576,56.229L29.576,56.229z"/>
<path d="M47.019,22.104"/>
<path d="M47.019,22.104"/>
<path d="M39.166,51.679H74.43c5.194-0.012,8.242,3.319,8.234,7.801v12.731H39.166V51.679L39.166,51.679z"/>
<path d="M9.641,44.312c-0.01-6.947-9.648-6.947-9.641,0V100h9.858V85.645h74.973v14.247h9.589V56.88
	c0.025-7.328-9.719-7.328-9.696,0v17.171H9.641V44.312L9.641,44.312z"/>
<path d="M47.019,0c-12.06,0.014-21.853,9.906-21.83,22.104c-0.023,12.204,9.77,22.092,21.83,22.101
	c12.098-0.009,21.894-9.897,21.886-22.101C68.912,9.906,59.116,0.014,47.019,0z M47.019,39.113
	c-9.276-0.008-16.81-7.618-16.792-17.009C30.209,12.718,37.743,5.109,47.019,5.09c9.314,0.019,16.85,7.628,16.848,17.014
	C63.868,31.495,56.333,39.105,47.019,39.113z"/>
<path d="M44.744,29.901h4.93v-3.845c0.028-1.034,0.51-2.015,1.786-2.87c1.318-0.845,4.934-2.568,4.932-7.096
	c0.002-4.54-3.795-7.656-6.988-8.343c-3.193-0.635-6.653-0.2-9.099,2.491c-2.208,2.407-2.671,4.313-2.655,8.504h4.927v-0.975
	c-0.018-2.233,0.24-4.597,3.468-5.254c1.718-0.34,3.355,0.205,4.333,1.135c1.105,1.106,1.115,3.554-0.65,4.769l-2.763,1.897
	c-1.639,1.036-2.193,2.191-2.221,3.899V29.901L44.744,29.901z"/>
<polygon points="44.744,36.891 44.744,31.854 49.728,31.854 49.728,36.891 44.744,36.891 "/>
<path d="M47.236,34.399"/>
</svg>
