<?xml version="1.0" encoding="utf-8"?>
<!-- Generator: Adobe Illustrator 14.0.0, SVG Export Plug-In . SVG Version: 6.00 Build 43363)  -->
<!DOCTYPE svg PUBLIC "-//W3C//DTD SVG 1.0//EN" "http://www.w3.org/TR/2001/REC-SVG-20010904/DTD/svg10.dtd">
<svg version="1.0" id="Layer_1" xmlns="http://www.w3.org/2000/svg" xmlns:xlink="http://www.w3.org/1999/xlink" x="0px" y="0px"
	 width="100px" height="94.616px" viewBox="0 0 100 94.616" enable-background="new 0 0 100 94.616" xml:space="preserve">
<path d="M25.076,15.639c4.324,0.009,7.824-3.488,7.82-7.82C32.9,3.512,29.4,0.012,25.076,0c-4.313,0.012-7.814,3.512-7.821,7.819
	C17.262,12.15,20.763,15.648,25.076,15.639L25.076,15.639z"/>
<path d="M4.593,43.388h6.861l4.137-15.135h1.716L13.22,43.388h24.318l-4.389-15.135h1.817l2.32,7.415
	c1.08,3.131,3.852,3.851,6.003,1.162l8.375-10.142c2.651-3.42-2.104-7.021-4.844-4.035l-4.993,5.952
	c0.007,0.095-0.96-3.278-0.96-3.278c-1.135-3.978-4.918-7.903-10.595-7.922H19.576c-5.071,0.019-9.043,4.434-9.888,7.214
	L4.593,43.388L4.593,43.388z"/>
<polygon points="56.206,22.753 56.206,7.163 49.192,7.163 49.192,22.753 56.206,22.753 "/>
<path d="M79.87,15.738c4.332-0.014,7.831-3.516,7.82-7.82c0.011-4.332-3.488-7.833-7.82-7.82c-4.306-0.013-7.806,3.488-7.821,7.82
	C72.064,12.222,75.564,15.725,79.87,15.738L79.87,15.738z"/>
<path d="M89.759,89.556v-43.19h5.751V22.804c0.007-3.079-2.757-5.448-6.71-5.449H70.436c-3.65,0.001-4.539,1.186-5.551,2.168
	L49.597,37.889c-3.098,3.848,2.428,8.333,5.55,4.743L69.88,25.226v64.43c-0.019,6.475,9.06,6.686,9.081,0.201v-36.58h1.765v36.379
	C80.748,96.109,89.772,96.13,89.759,89.556L89.759,89.556z"/>
<polygon points="100,54.035 100,45.155 0,45.155 0,54.035 100,54.035 "/>
</svg>
