<?xml version="1.0" encoding="utf-8"?>
<!-- Generator: Adobe Illustrator 14.0.0, SVG Export Plug-In . SVG Version: 6.00 Build 43363)  -->
<!DOCTYPE svg PUBLIC "-//W3C//DTD SVG 1.0//EN" "http://www.w3.org/TR/2001/REC-SVG-20010904/DTD/svg10.dtd">
<svg version="1.0" id="Layer_1" xmlns="http://www.w3.org/2000/svg" xmlns:xlink="http://www.w3.org/1999/xlink" x="0px" y="0px"
	 width="100px" height="100px" viewBox="0 0 100 100" enable-background="new 0 0 100 100" xml:space="preserve">
<path d="M85.355,14.645C75.912,5.201,63.355,0,50,0S24.088,5.201,14.645,14.645S0,36.645,0,50s5.201,25.911,14.645,35.355
	C24.088,94.799,36.645,100,50,100s25.912-5.201,35.355-14.645C94.799,75.911,100,63.355,100,50S94.799,24.088,85.355,14.645z
	 M88.853,50c0,8.547-2.776,16.456-7.472,22.879L27.121,18.62c6.422-4.696,14.332-7.472,22.879-7.472
	C71.423,11.147,88.853,28.577,88.853,50z M11.147,50c0-8.689,2.868-16.722,7.706-23.2L73.2,81.146
	c-6.479,4.839-14.511,7.706-23.2,7.706C28.577,88.852,11.147,71.423,11.147,50z"/>
<path d="M44.093,34.558v-2.83h12.793c4.131,0,8.301,3.841,8.301,8.969c0,4.375-2.829,7.607-6.49,8.462l8.106,8.105
	c5.475-3.377,9.456-9.446,9.456-16.705c0-9.971-7.978-19.658-18.804-19.658H32.697v2.262L44.093,34.558z"/>
<polygon points="32.697,41.407 32.697,79.306 43.95,79.306 43.95,60.144 51.437,60.144 "/>
</svg>
