<?xml version="1.0" encoding="utf-8"?>
<!-- Generator: Adobe Illustrator 14.0.0, SVG Export Plug-In . SVG Version: 6.00 Build 43363)  -->
<!DOCTYPE svg PUBLIC "-//W3C//DTD SVG 1.0//EN" "http://www.w3.org/TR/2001/REC-SVG-20010904/DTD/svg10.dtd">
<svg version="1.0" id="Layer_1" xmlns="http://www.w3.org/2000/svg" xmlns:xlink="http://www.w3.org/1999/xlink" x="0px" y="0px"
	 width="100px" height="83.034px" viewBox="0 0 100 83.034" enable-background="new 0 0 100 83.034" xml:space="preserve">
<polygon points="0,73.671 18.203,73.671 18.203,55.144 36.289,55.144 36.289,36.492 54.661,36.492 54.661,18.187 72.907,18.187 
	72.907,0 100,0 100,9.279 81.989,9.279 81.989,27.534 63.722,27.534 63.722,46.046 45.491,46.046 45.491,64.461 27.187,64.461 
	27.187,83.034 0,83.034 0,73.671 "/>
<path d="M60.66,82.674h16.1c4.434,0,4.604-6.822,0-6.822h-8.253L84.2,60.159c3.479-3.479-1.441-8.514-5.138-4.818L63.604,70.843
	v-8.168c0.023-4.433-6.855-4.604-6.866,0v16C56.737,81.062,58.341,82.674,60.66,82.674L60.66,82.674z"/>
</svg>
