<?xml version="1.0" encoding="utf-8"?>
<!-- Generator: Adobe Illustrator 14.0.0, SVG Export Plug-In . SVG Version: 6.00 Build 43363)  -->
<!DOCTYPE svg PUBLIC "-//W3C//DTD SVG 1.0//EN" "http://www.w3.org/TR/2001/REC-SVG-20010904/DTD/svg10.dtd">
<svg version="1.0" id="Layer_1" xmlns="http://www.w3.org/2000/svg" xmlns:xlink="http://www.w3.org/1999/xlink" x="0px" y="0px"
	 width="100px" height="71.444px" viewBox="0 0 100 71.444" enable-background="new 0 0 100 71.444" xml:space="preserve">
<path d="M95.587,53.593L53.456,28.725V24.49c0-4.8-5.237-6.886-5.237-6.886c-3.39-1.651-3.086-5.214-3.086-5.214
	c0-4.182,3.745-5.524,5.414-5.524c2.804,0,5.553,1.555,5.844,5.11c0.454,5.579,6.772,4.16,6.772-0.319C63.163,7.426,59.3,0,50.495,0
	c-9.519,0-12.252,9.307-12.252,12.25c0,2.22,0.351,4.27,1.721,6.609c2.328,3.977,6.986,4.601,6.986,7.233v2.634L4.391,53.686
	c-4.2,2.479-4.958,7.754-4.047,10.954c0.885,3.104,3.999,6.805,9.604,6.805h0.011c0,0,72.268,0,79.556,0
	c6.274,0,9.137-3.598,10.019-6.704C100.444,61.543,100.444,56.584,95.587,53.593z M89.615,64.463H10.073
	c-2.589,0.101-4.189-3.526-1.629-5.126l41.494-24.228l41.276,24.123C93.776,61.045,92.387,64.455,89.615,64.463z"/>
</svg>
