<?xml version="1.0" encoding="utf-8"?>
<!-- Generator: Adobe Illustrator 14.0.0, SVG Export Plug-In . SVG Version: 6.00 Build 43363)  -->
<!DOCTYPE svg PUBLIC "-//W3C//DTD SVG 1.0//EN" "http://www.w3.org/TR/2001/REC-SVG-20010904/DTD/svg10.dtd">
<svg version="1.0" id="Layer_1" xmlns="http://www.w3.org/2000/svg" xmlns:xlink="http://www.w3.org/1999/xlink" x="0px" y="0px"
	 width="100px" height="78.078px" viewBox="0 0 100 78.078" enable-background="new 0 0 100 78.078" xml:space="preserve">
<g>
	<circle cx="42.312" cy="6.626" r="6.626"/>
	<path d="M42.312,6.626"/>
</g>
<g>
	<path d="M59.667,78.078h13.842c3.812,0,3.959-5.866,0-5.866h-7.095l13.493-13.493c2.991-2.991-1.239-7.32-4.418-4.143
		l-13.292,13.33v-7.022c0.02-3.812-5.895-3.96-5.904,0V74.64C56.293,76.692,57.671,78.078,59.667,78.078z"/>
</g>
<path d="M88.269,7.188H72.86c-3.187,0-7.284,1.302-9.728,3.747L48.872,25.179v-4.175c0-8.896-13.119-8.798-13.119,0v17.032h0.025
	L23.384,50.431c-1.169,1.169-1.312,1.22-3.607,1.22c-0.002,0.003-7.578,0-7.578,0C4.573,51.65,0,58.504,0,64.313
	s4.573,13.153,12.875,13.153c0,0,10.313,0,13.499,0c3.186,0,7.048-1.218,10.235-4.216l39.522-39.404
	c0.844-0.75,1.312-0.984,2.765-0.984c0,0,5.449,0,9.759,0c4.698,0,11.346-5.324,11.346-12.998C100,12.27,93.304,7.205,88.269,7.188z
	 M87.57,26.214h-8.335c-3.529,0-5.094,0.495-7.125,2.526L32.286,68.564c-1.611,1.614-3.655,2.253-6.279,2.253H12.875
	c-3.374,0-6.347-2.854-6.347-6.602s2.835-5.849,5.768-5.849h9.01c2.624,0,4.351-0.75,5.851-2.249l40.496-40.497
	c1.667-1.666,3.312-1.874,6.145-1.874h13.864c3.373,0,5.643,3.771,5.643,6.02S91.693,26.214,87.57,26.214z"/>
</svg>
