<?xml version="1.0" encoding="utf-8"?>
<!-- Generator: Adobe Illustrator 14.0.0, SVG Export Plug-In . SVG Version: 6.00 Build 43363)  -->
<!DOCTYPE svg PUBLIC "-//W3C//DTD SVG 1.0//EN" "http://www.w3.org/TR/2001/REC-SVG-20010904/DTD/svg10.dtd">
<svg version="1.0" id="Layer_1" xmlns="http://www.w3.org/2000/svg" xmlns:xlink="http://www.w3.org/1999/xlink" x="0px" y="0px"
	 width="45.833px" height="100px" viewBox="0 0 45.833 100" enable-background="new 0 0 45.833 100" xml:space="preserve">
<path d="M29.775,18.047c5.697,0,8.008,4.695,8.871,7.283l6.999,23.008c1.396,4.949-4.899,6.998-6.4,2.175l-6.298-21.125h-1.833
	L42.03,66.966H31.973v29.296c0,4.996-7.514,4.971-7.514,0V66.774h-3.063l0.005,29.447c0,5.037-7.545,5.037-7.545,0l-0.002-29.255
	H3.765l10.831-37.578h-1.694l-6.299,21.2c-1.5,4.621-7.85,2.724-6.396-2.228L7.2,25.33c0.749-2.625,3.045-7.283,8.795-7.283H29.775z
	"/>
<circle cx="22.925" cy="8.164" r="8.164"/>
</svg>
