<?xml version="1.0" encoding="utf-8"?>
<!-- Generator: Adobe Illustrator 14.0.0, SVG Export Plug-In . SVG Version: 6.00 Build 43363)  -->
<!DOCTYPE svg PUBLIC "-//W3C//DTD SVG 1.0//EN" "http://www.w3.org/TR/2001/REC-SVG-20010904/DTD/svg10.dtd">
<svg version="1.0" id="Layer_1" xmlns="http://www.w3.org/2000/svg" xmlns:xlink="http://www.w3.org/1999/xlink" x="0px" y="0px"
	 width="76.441px" height="100px" viewBox="0 0 76.441 100" enable-background="new 0 0 76.441 100" xml:space="preserve">
<path d="M17.848,21.016c5.804-0.019,10.501-4.716,10.506-10.507C28.349,4.711,23.652,0.014,17.848,0
	C12.062,0.014,7.365,4.711,7.341,10.509C7.365,16.3,12.062,20.997,17.848,21.016L17.848,21.016z"/>
<path d="M17.848,10.509"/>
<path d="M9.877,33.748C7.999,21.684,25.413,18.018,28.2,30.385l4.762,23.653h17.701c5.169,0.016,7.855,4.151,7.869,7.974v32.142
	c-0.014,7.832-11.134,7.794-11.13-0.103c-0.004-7.354,0-25.055,0-25.055H24.784c-5.265,0.011-8.572-3.607-9.42-7.763L9.877,33.748
	L9.877,33.748z"/>
<path d="M39.122,71.119c5.86,0,5.832,8.687,0.052,8.697H22.972C15.062,79.806,7.19,73.877,5.115,64.7L0.094,40.114
	c-1.047-5.572,6.989-7.43,8.178-1.707l4.814,23.498c1.322,6.012,5.768,9.214,11.129,9.214H39.122L39.122,71.119z"/>
<path d="M61.068,17.598l7.816-3.776c1.123-0.518,0.391-2.151-0.777-1.605l-6.626,2.95V7.351c-0.024-1.252-1.886-1.196-1.862,0v9.367
	C59.624,17.438,60.383,17.946,61.068,17.598L61.068,17.598z"/>
<path d="M61.12,15.789"/>
<path d="M61.12,0.466C52.631,0.45,45.762,7.319,45.749,15.789c0.014,8.473,6.883,15.339,15.371,15.319
	c8.456,0.02,15.321-6.846,15.321-15.319C76.441,7.319,69.576,0.45,61.12,0.466z M61.12,28.521
	c-7.049,0.004-12.752-5.701-12.733-12.732C48.368,8.756,54.071,3.054,61.12,3.053c7.015,0.001,12.718,5.703,12.732,12.736
	C73.837,22.821,68.134,28.525,61.12,28.521z"/>
<path d="M61.12,15.789"/>
<path d="M61.068,17.598l7.816-3.776c1.123-0.518,0.391-2.151-0.777-1.605l-6.626,2.95V7.351c-0.024-1.252-1.886-1.196-1.862,0v9.367
	C59.624,17.438,60.383,17.946,61.068,17.598L61.068,17.598z"/>
</svg>
