<?xml version="1.0" encoding="utf-8"?>
<!-- Generator: Adobe Illustrator 14.0.0, SVG Export Plug-In . SVG Version: 6.00 Build 43363)  -->
<!DOCTYPE svg PUBLIC "-//W3C//DTD SVG 1.0//EN" "http://www.w3.org/TR/2001/REC-SVG-20010904/DTD/svg10.dtd">
<svg version="1.0" id="Layer_1" xmlns="http://www.w3.org/2000/svg" xmlns:xlink="http://www.w3.org/1999/xlink" x="0px" y="0px"
	 width="73.554px" height="100px" viewBox="0 0 73.554 100" enable-background="new 0 0 73.554 100" xml:space="preserve">
<path d="M54.567,16.595c4.581,0.002,8.301-3.717,8.298-8.3C62.868,3.705,59.148-0.01,54.567,0c-4.589-0.01-8.309,3.705-8.297,8.295
	C46.259,12.878,49.979,16.597,54.567,16.595L54.567,16.595z"/>
<path d="M43.879,31.871l0.05,63.402c0.016,6.328,9.343,6.271,9.321-0.147l0.049-36.896h1.806v36.849
	c-0.02,6.449,9.416,6.611,9.422,0.195V31.577h1.659v22.746c-0.021,5.467,7.385,5.467,7.368,0.098V29.577
	c0.017-6.706-4.959-10.643-10.2-10.64H48.565c-3.504-0.002-6.046,1.384-8.2,4.442l-7.469,10.884H19.963
	c-5.23-0.001-4.939,7.389-0.097,7.371h14.935c1.162,0.018,2.585-0.417,3.417-1.661L43.879,31.871L43.879,31.871z"/>
<polygon points="19.524,70.721 19.524,64.671 13.471,64.671 13.471,70.721 19.524,70.721 "/>
<path d="M16.498,67.695"/>
<polygon points="22.842,57.249 18.401,52.858 13.959,57.249 18.401,61.692 22.842,57.249 "/>
<path d="M18.401,57.249"/>
<polygon points="18.695,48.904 14.252,44.513 9.859,48.904 14.252,53.346 18.695,48.904 "/>
<path d="M14.252,48.904"/>
<polygon points="27.87,99.958 35.777,58.031 29.824,58.031 22.94,94.101 12.69,94.101 5.907,58.031 0,58.031 7.713,99.958 
	27.87,99.958 "/>
</svg>
