<?xml version="1.0" encoding="utf-8"?>
<!-- Generator: Adobe Illustrator 15.1.0, SVG Export Plug-In . SVG Version: 6.00 Build 0)  -->
<!DOCTYPE svg PUBLIC "-//W3C//DTD SVG 1.1//EN" "http://www.w3.org/Graphics/SVG/1.1/DTD/svg11.dtd">
<svg version="1.1" id="Layer_1" xmlns="http://www.w3.org/2000/svg" xmlns:xlink="http://www.w3.org/1999/xlink" x="0px" y="0px"
	 width="83.333px" height="100px" viewBox="0 0 83.333 100" enable-background="new 0 0 83.333 100" xml:space="preserve">
<path d="M72.221,33.333V16.667h-5.555l-5.555-5.555V5.555C61.112,2.478,58.632,0,55.554,0H5.555C2.478,0,0,2.478,0,5.555v88.89
	C0,97.222,2.778,100,5.555,100h49.999c2.779,0,5.558-2.778,5.558-5.555V66.667h2.776c2.778,0,2.778,2.778,2.778,2.778v11.109
	c0,5.558,2.778,8.333,8.333,8.333s8.334-2.775,8.334-8.333c0-6.48,0-25,0-30.555C83.333,44.445,72.221,38.889,72.221,33.333z
	 M50,33.333H11.111V11.111H50V33.333z M77.779,80.555c0,2.778-2.779,2.778-2.779,2.778s-2.778,0-2.778-2.778c0,0,0-11.109,0-13.888
	c0-2.779-2.776-5.555-5.555-5.555c-1.852,0-5.555,0-5.555,0V27.778h5.555c0,0,0,4.63,0,8.333c0,5.555,11.112,11.111,11.112,16.667
	V80.555z"/>
</svg>
