<?xml version="1.0" encoding="utf-8"?>
<!-- Generator: Adobe Illustrator 15.1.0, SVG Export Plug-In . SVG Version: 6.00 Build 0)  -->
<!DOCTYPE svg PUBLIC "-//W3C//DTD SVG 1.1//EN" "http://www.w3.org/Graphics/SVG/1.1/DTD/svg11.dtd">
<svg version="1.1" id="Layer_1" xmlns="http://www.w3.org/2000/svg" xmlns:xlink="http://www.w3.org/1999/xlink" x="0px" y="0px"
	 width="72.224px" height="100px" viewBox="0 0 72.224 100" enable-background="new 0 0 72.224 100" xml:space="preserve">
<path d="M63.89,27.778H44.444V8.333C44.444,3.717,40.729,0,36.111,0c-4.617,0-8.333,3.717-8.333,8.333v19.444H8.333
	C3.716,27.777,0,31.495,0,36.111c-0.001,4.616,3.716,8.333,8.333,8.333h19.445v47.222C27.776,96.282,31.495,100,36.111,100
	c4.616,0.001,8.333-3.716,8.333-8.333V44.445H63.89c4.617-0.001,8.334-3.718,8.334-8.333C72.222,31.494,68.507,27.777,63.89,27.778z
	"/>
</svg>
