<?xml version="1.0" encoding="utf-8"?>
<!-- Generator: Adobe Illustrator 15.1.0, SVG Export Plug-In . SVG Version: 6.00 Build 0)  -->
<!DOCTYPE svg PUBLIC "-//W3C//DTD SVG 1.1//EN" "http://www.w3.org/Graphics/SVG/1.1/DTD/svg11.dtd">
<svg version="1.1" id="Layer_1" xmlns="http://www.w3.org/2000/svg" xmlns:xlink="http://www.w3.org/1999/xlink" x="0px" y="0px"
	 width="100px" height="94.443px" viewBox="0 0 100 94.443" enable-background="new 0 0 100 94.443" xml:space="preserve">
<path d="M47.222,0C21.142,0,0,21.142,0,47.222c0,26.081,21.142,47.222,47.222,47.222c14.583,0,27.623-6.627,36.286-17.014
	c-5.661,3.686-12.362,5.904-19.62,5.904c-19.942,0-36.11-16.168-36.11-36.112c0-19.944,16.167-36.111,36.11-36.111
	c7.258,0,13.959,2.219,19.62,5.903C74.845,6.627,61.805,0,47.222,0z"/>
<polygon points="75,22.222 69.445,38.889 50,38.889 66.667,50 58.333,69.443 75,58.334 91.667,69.443 83.333,50 100,38.889 
	80.555,38.889 75,22.222 "/>
</svg>
