<?xml version="1.0" encoding="utf-8"?>
<!-- Generator: Adobe Illustrator 15.1.0, SVG Export Plug-In . SVG Version: 6.00 Build 0)  -->
<!DOCTYPE svg PUBLIC "-//W3C//DTD SVG 1.1//EN" "http://www.w3.org/Graphics/SVG/1.1/DTD/svg11.dtd">
<svg version="1.1" id="Layer_1" xmlns="http://www.w3.org/2000/svg" xmlns:xlink="http://www.w3.org/1999/xlink" x="0px" y="0px"
	 width="76.472px" height="100px" viewBox="0 0 76.472 100" enable-background="new 0 0 76.472 100" xml:space="preserve">
<path id="path8522-6-8" d="M17.647,0v5.883H5.883C2.941,5.883,0,8.824,0,11.765v35.294v29.412v5.882v5.883h5.883V100h11.764V88.236
	h41.178V100h11.764V88.236h5.884v-5.883v-5.882V47.059V11.765c0-2.941-2.942-5.882-5.884-5.882H58.825V0H17.647z M11.765,17.647
	h52.941v17.647v11.765H11.765V35.294V17.647z M17.647,64.706c3.259,0,5.883,2.625,5.883,5.885c0,3.258-2.624,5.881-5.883,5.881
	c-3.258,0-5.882-2.623-5.882-5.881C11.765,67.331,14.389,64.706,17.647,64.706z M58.825,64.706c3.258,0,5.882,2.625,5.882,5.885
	c0,3.258-2.624,5.881-5.882,5.881c-3.259,0-5.884-2.623-5.884-5.881C52.941,67.331,55.566,64.706,58.825,64.706z"/>
</svg>
