<?xml version="1.0" encoding="utf-8"?>
<!-- Generator: Adobe Illustrator 15.1.0, SVG Export Plug-In . SVG Version: 6.00 Build 0)  -->
<!DOCTYPE svg PUBLIC "-//W3C//DTD SVG 1.1//EN" "http://www.w3.org/Graphics/SVG/1.1/DTD/svg11.dtd">
<svg version="1.1" id="Layer_1" xmlns="http://www.w3.org/2000/svg" xmlns:xlink="http://www.w3.org/1999/xlink" x="0px" y="0px"
	 width="76.472px" height="100px" viewBox="0 0 76.472 100" enable-background="new 0 0 76.472 100" xml:space="preserve">
<polygon points="5.883,0 38.236,17.647 70.588,0 "/>
<path d="M58.825,23.53H17.647L0,35.294v58.825C0,97.059,2.941,100,5.883,100h14.706h20.59h14.705h14.705
	c2.941,0,5.884-2.941,5.884-5.882V35.294L58.825,23.53z M17.647,88.236c-3.258,0-5.882-2.624-5.882-5.883
	c0-3.258,2.624-5.882,5.882-5.882c3.259,0,5.883,2.624,5.883,5.882C23.53,85.612,20.906,88.236,17.647,88.236z M58.825,88.236
	c-3.259,0-5.884-2.624-5.884-5.883c0-3.258,2.625-5.882,5.884-5.882c3.258,0,5.882,2.624,5.882,5.882
	C64.707,85.612,62.083,88.236,58.825,88.236z M64.707,52.941H11.765V41.177l11.765-5.883h29.411l11.766,5.883V52.941z"/>
</svg>
