<?xml version="1.0" encoding="utf-8"?>
<!-- Generator: Adobe Illustrator 15.1.0, SVG Export Plug-In . SVG Version: 6.00 Build 0)  -->
<!DOCTYPE svg PUBLIC "-//W3C//DTD SVG 1.1//EN" "http://www.w3.org/Graphics/SVG/1.1/DTD/svg11.dtd">
<svg version="1.1" id="Layer_1" xmlns="http://www.w3.org/2000/svg" xmlns:xlink="http://www.w3.org/1999/xlink" x="0px" y="0px"
	 width="76.472px" height="100px" viewBox="0 0 76.472 100" enable-background="new 0 0 76.472 100" xml:space="preserve">
<path d="M58.825,0H17.647L0,11.765V70.59c0,2.938,2.941,5.881,5.883,5.881h64.706c2.941,0,5.884-2.942,5.884-5.881V11.765L58.825,0z
	 M17.647,64.706c-3.258,0-5.882-2.622-5.882-5.881c0-3.26,2.624-5.883,5.882-5.883c3.259,0,5.883,2.623,5.883,5.883
	C23.53,62.083,20.906,64.706,17.647,64.706z M58.825,64.706c-3.259,0-5.884-2.622-5.884-5.881c0-3.26,2.625-5.883,5.884-5.883
	c3.258,0,5.882,2.623,5.882,5.883C64.707,62.083,62.083,64.706,58.825,64.706z M64.707,29.412H11.765V17.647l11.765-5.882h29.411
	l11.766,5.882V29.412z"/>
<polygon points="38.236,82.353 5.883,100 70.588,100 "/>
</svg>
