<?xml version="1.0" encoding="utf-8"?>
<!-- Generator: Adobe Illustrator 15.1.0, SVG Export Plug-In . SVG Version: 6.00 Build 0)  -->
<!DOCTYPE svg PUBLIC "-//W3C//DTD SVG 1.1//EN" "http://www.w3.org/Graphics/SVG/1.1/DTD/svg11.dtd">
<svg version="1.1" id="Layer_1" xmlns="http://www.w3.org/2000/svg" xmlns:xlink="http://www.w3.org/1999/xlink" x="0px" y="0px"
	 width="100px" height="99.999px" viewBox="0 0 100 99.999" enable-background="new 0 0 100 99.999" xml:space="preserve">
<path id="path24859" d="M23.077,0L0,15.385v76.92c0,3.848,3.847,7.693,7.693,7.693h19.23h26.923h19.229h19.229
	c3.848,0,7.694-3.846,7.694-7.693v-76.92L76.924,0H23.077z M30.77,15.385h38.46l15.385,7.692v15.385H15.385V23.077L30.77,15.385z
	 M23.077,69.229c4.262,0,7.693,3.433,7.693,7.692c0,4.263-3.431,7.693-7.693,7.693c-4.261,0-7.692-3.431-7.692-7.693
	C15.385,72.662,18.816,69.229,23.077,69.229z M76.924,69.229c4.26,0,7.69,3.433,7.69,7.692c0,4.263-3.431,7.693-7.69,7.693
	c-4.262,0-7.694-3.431-7.694-7.693C69.229,72.662,72.662,69.229,76.924,69.229z"/>
</svg>
