<?xml version="1.0" encoding="utf-8"?>
<!-- Generator: Adobe Illustrator 15.1.0, SVG Export Plug-In . SVG Version: 6.00 Build 0)  -->
<!DOCTYPE svg PUBLIC "-//W3C//DTD SVG 1.1//EN" "http://www.w3.org/Graphics/SVG/1.1/DTD/svg11.dtd">
<svg version="1.1" id="Layer_1" xmlns="http://www.w3.org/2000/svg" xmlns:xlink="http://www.w3.org/1999/xlink" x="0px" y="0px"
	 width="100px" height="63.158px" viewBox="0 0 100 63.158" enable-background="new 0 0 100 63.158" xml:space="preserve">
<path id="rect9361" d="M48.684,63.158h46.051c2.633,0,5.265-2.633,5.265-5.263V42.106c0-5.265-2.531-7.795-5.265-10.527
	c0,0-3.508-3.509-5.262-5.263c-1.755-1.755-5.263-5.264-10.527-5.264H63.157V10.526H84.21h10.524c2.916,0,5.265-2.347,5.265-5.264
	C100,2.348,97.651,0,94.735,0H84.21H65.789h-5.262H36.842h-5.263h-5.263c-2.916,0-5.263,2.348-5.263,5.263
	c0,2.917,2.347,5.264,5.263,5.264h5.263h5.263h21.052v10.526H42.105H19.572c-1.821-3.141-5.154-5.263-9.046-5.263
	C4.712,15.789,0,20.502,0,26.315c0,5.813,4.712,10.526,10.526,10.526c3.037,0,5.645-1.396,7.566-3.453l18.75,19.242
	C42.105,58.033,46.052,63.158,48.684,63.158L48.684,63.158z M10.526,21.052c2.907,0,5.263,2.356,5.263,5.263
	c0,2.908-2.356,5.264-5.263,5.264c-2.907,0-5.263-2.356-5.263-5.264C5.263,23.409,7.619,21.052,10.526,21.052z"/>
</svg>
