<?xml version="1.0" encoding="utf-8"?>
<!-- Generator: Adobe Illustrator 15.1.0, SVG Export Plug-In . SVG Version: 6.00 Build 0)  -->
<!DOCTYPE svg PUBLIC "-//W3C//DTD SVG 1.1//EN" "http://www.w3.org/Graphics/SVG/1.1/DTD/svg11.dtd">
<svg version="1.1" id="Layer_1" xmlns="http://www.w3.org/2000/svg" xmlns:xlink="http://www.w3.org/1999/xlink" x="0px" y="0px"
	 width="99.998px" height="100px" viewBox="0 0 99.998 100" enable-background="new 0 0 99.998 100" xml:space="preserve">
<path id="path7712" d="M99.998,58.823v5.883l-41.176-5.883v23.528l11.766,11.766c0,2.942-2.941,5.883-5.884,5.883
	c-11.763,0-29.411,0-29.411,0c-2.941,0-5.883-2.94-5.883-5.883l11.765-11.766V58.823L0,64.705v-5.882l41.176-23.529
	c0,0,0-1.96,0-11.765C41.176,17.647,44.117,0,49.999,0s8.823,17.647,8.823,23.529c0,9.805,0,11.765,0,11.765L99.998,58.823z"/>
</svg>
