<?xml version="1.0" encoding="utf-8"?>
<!-- Generator: Adobe Illustrator 15.1.0, SVG Export Plug-In . SVG Version: 6.00 Build 0)  -->
<!DOCTYPE svg PUBLIC "-//W3C//DTD SVG 1.1//EN" "http://www.w3.org/Graphics/SVG/1.1/DTD/svg11.dtd">
<svg version="1.1" id="Layer_1" xmlns="http://www.w3.org/2000/svg" xmlns:xlink="http://www.w3.org/1999/xlink" x="0px" y="0px"
	 width="72.223px" height="100px" viewBox="0 0 72.223 100" enable-background="new 0 0 72.223 100" xml:space="preserve">
<path id="path4390-3" d="M72.223,47.223c0-5.945-3.777-11.039-9.028-13.021c2.192-2.455,3.472-5.651,3.472-9.201
	c0-7.67-6.218-13.889-13.889-13.889c-1.094,0-2.104,0.106-3.125,0.344C48.49,4.961,42.942-0.002,36.111,0
	c-6.83,0.001-12.379,4.964-13.542,11.46c-1.021-0.239-2.032-0.345-3.125-0.345c-7.671,0-13.889,6.218-13.889,13.889
	c0,3.551,1.28,6.746,3.472,9.202C3.777,36.187,0,41.278,0,47.223c0,7.671,5.556,13.892,13.889,13.892h2.777l11.111,19.444v13.887
	c0,2.777,2.778,5.555,5.556,5.555h5.556c2.776,0,5.555-2.777,5.555-5.555v-13.89l11.112-19.441l3.992-0.083
	C66.666,61.113,72.223,54.474,72.223,47.223L72.223,47.223z M27.778,61.113h16.667l-5.555,11.11h-5.556L27.778,61.113z"/>
</svg>
