<?xml version="1.0" encoding="utf-8"?>
<!-- Generator: Adobe Illustrator 15.1.0, SVG Export Plug-In . SVG Version: 6.00 Build 0)  -->
<!DOCTYPE svg PUBLIC "-//W3C//DTD SVG 1.1//EN" "http://www.w3.org/Graphics/SVG/1.1/DTD/svg11.dtd">
<svg version="1.1" id="Layer_1" xmlns="http://www.w3.org/2000/svg" xmlns:xlink="http://www.w3.org/1999/xlink" x="0px" y="0px"
	 width="94.443px" height="100px" viewBox="0 0 94.443 100" enable-background="new 0 0 94.443 100" xml:space="preserve">
<polygon points="47.222,0 11.11,27.777 83.334,27.777 "/>
<path d="M93.055,94.444l-9.721-16.667V38.889c0-3.078-2.479-5.555-5.558-5.555h-61.11c-3.078,0-5.121,2.509-5.556,5.555v38.89
	L1.389,94.444C0.564,95.856,0,96.426,0,97.222C0,100,3.509,100,5.555,100h83.333c1.971,0,5.555,0,5.555-2.778
	C94.443,96.409,93.963,96,93.055,94.444z M72.222,77.778c0,2.776-2.778,5.555-5.555,5.555c-2.778,0-5.558-2.778-5.558-5.556V55.555
	l-8.333,16.667c0,0-2.776,5.556-5.555,5.556c-2.778,0-5.555-5.556-5.555-5.556l-8.333-16.667v22.223
	c0,2.777-2.778,5.556-5.556,5.556c-2.777,0-5.556-2.778-5.556-5.556v-5.556V50c0-3.078,2.478-5.556,5.556-5.556
	c2.778,0,5.556,0,8.333,0c2.778,0,5.556,5.556,5.556,5.556l5.555,13.888L52.776,50c1.241-3.1,2.778-5.555,5.558-5.555
	c2.775,0,5.555,0,8.333,0c3.077,0,5.555,2.477,5.555,5.555V77.778z"/>
</svg>
