<?xml version="1.0" encoding="utf-8"?>
<!-- Generator: Adobe Illustrator 15.1.0, SVG Export Plug-In . SVG Version: 6.00 Build 0)  -->
<!DOCTYPE svg PUBLIC "-//W3C//DTD SVG 1.1//EN" "http://www.w3.org/Graphics/SVG/1.1/DTD/svg11.dtd">
<svg version="1.1" id="Layer_1" xmlns="http://www.w3.org/2000/svg" xmlns:xlink="http://www.w3.org/1999/xlink" x="0px" y="0px"
	 width="100px" height="76.47px" viewBox="0 0 100 76.47" enable-background="new 0 0 100 76.47" xml:space="preserve">
<circle cx="11.766" cy="11.765" r="11.765"/>
<path d="M29.413,11.765c0,9.747-7.901,17.647-17.647,17.647H2.942c-1.486,0-2.949,0-2.941,2.941c0.002,0.799,0,3.622,0,5.882
	c0,2.942,2.286,2.942,2.941,2.942H100V29.412c0-5.883,0-17.647-29.411-17.647H29.413z"/>
<path d="M5.883,47.059c-2.941,0-5.882,2.942-5.882,5.882c-0.001,5.829,0,12.614,0,17.646c0,2.942,2.941,5.883,5.882,5.883
	c2.941,0,5.883-2.94,5.883-5.883V58.824h76.471v11.763c0,2.942,2.94,5.883,5.881,5.883c2.942,0,5.883-2.94,5.883-5.883V52.94
	c0-2.939-2.94-5.882-5.883-5.882H5.883z"/>
</svg>
