<?xml version="1.0" encoding="utf-8"?>
<!-- Generator: Adobe Illustrator 14.0.0, SVG Export Plug-In . SVG Version: 6.00 Build 43363)  -->
<!DOCTYPE svg PUBLIC "-//W3C//DTD SVG 1.0//EN" "http://www.w3.org/TR/2001/REC-SVG-20010904/DTD/svg10.dtd">
<svg version="1.0" id="Layer_1" xmlns="http://www.w3.org/2000/svg" xmlns:xlink="http://www.w3.org/1999/xlink" x="0px" y="0px"
	 width="100px" height="100px" viewBox="0 0 100 100" enable-background="new 0 0 100 100" xml:space="preserve">
<path d="M67.205,57.564l0.021-11.474h13.853c2.365,0,3.844-3.257,1.275-5.921C82.32,40.134,71.32,29.135,71.32,29.135v-8.123
	L55.375,36.958l-8.787,0.003L67.205,57.564z"/>
<path d="M56.916,65.49v7.829c0,6.046,8.051,6.736,9.89,2.069L56.916,65.49z"/>
<path d="M28.406,36.956h-7.644c-6.567,0-6.506,9.207,0.157,9.207h4.66v27.156c0,6.826,10.358,6.826,10.358,0V60.882h16.374
	L28.406,36.956z"/>
<path d="M85.355,14.645C75.912,5.201,63.355,0,50,0S24.088,5.201,14.645,14.645C5.201,24.088,0,36.645,0,50
	s5.201,25.912,14.645,35.355C24.088,94.799,36.645,100,50,100s25.912-5.201,35.355-14.645C94.799,75.912,100,63.355,100,50
	S94.799,24.088,85.355,14.645z M88.853,50c0,8.456-2.717,16.287-7.321,22.672L27.322,18.473c6.386-4.606,14.22-7.325,22.678-7.325
	C71.423,11.148,88.853,28.577,88.853,50z M11.148,50c0-8.726,2.892-16.789,7.767-23.282L73.287,81.08
	C66.794,85.958,58.729,88.853,50,88.853C28.577,88.853,11.148,71.423,11.148,50z"/>
</svg>
