<?xml version="1.0" encoding="utf-8"?>
<!-- Generator: Adobe Illustrator 15.1.0, SVG Export Plug-In . SVG Version: 6.00 Build 0)  -->
<!DOCTYPE svg PUBLIC "-//W3C//DTD SVG 1.1//EN" "http://www.w3.org/Graphics/SVG/1.1/DTD/svg11.dtd">
<svg version="1.1" id="Layer_1" xmlns="http://www.w3.org/2000/svg" xmlns:xlink="http://www.w3.org/1999/xlink" x="0px" y="0px"
	 width="78.947px" height="100px" viewBox="0 0 78.947 100" enable-background="new 0 0 78.947 100" xml:space="preserve">
<path id="path10847-43-3-9" d="M63.158,0C52.631,15.789,43.241,26.343,31.579,36.842C20.438,46.871,0,43.428,0,57.895v5.263
	c0,5.264,5.263,10.271,5.263,15.789v5.264c0,7.896-2.631,7.896-5.263,15.79h5.263L15.79,84.21V100h5.263v-7.895V73.685
	c0,0,0-5.263,5.264-5.263c5.263,0,5.263,5.263,5.263,5.263V100h5.263V84.21v-7.895l5.265,7.895L47.368,100h5.263l-8.058-33.06
	c3.101-1.894,2.795-5.392,2.795-9.046c0-4.904,0-10.526,0-15.789L68.42,13.158l7.567,2.344c1.577,0.488,2.96,0.287,2.96-1.028
	c0-2.631-1.72-3.217-2.632-3.947L63.158,0z"/>
</svg>
