<?xml version="1.0" encoding="utf-8"?>
<!-- Generator: Adobe Illustrator 15.1.0, SVG Export Plug-In . SVG Version: 6.00 Build 0)  -->
<!DOCTYPE svg PUBLIC "-//W3C//DTD SVG 1.1//EN" "http://www.w3.org/Graphics/SVG/1.1/DTD/svg11.dtd">
<svg version="1.1" id="Layer_1" xmlns="http://www.w3.org/2000/svg" xmlns:xlink="http://www.w3.org/1999/xlink" x="0px" y="0px"
	 width="93.75px" height="100px" viewBox="0 0 93.75 100" enable-background="new 0 0 93.75 100" xml:space="preserve">
<path id="path6080-4" d="M20.625,0c-1.582,0-1.875,3.497-1.875,6.25v12.5c0,12.695,12.5,19.141,25,18.75v50
	c-6.25-12.501-25-31.251-43.75-25c0,0,15.625,37.5,46.875,37.5c31.251,0,46.875-37.5,46.875-37.5
	c-18.75-6.251-37.5,12.499-43.749,25v-50C62.499,37.887,75,31.445,75,18.75V6.25C75,3.497,74.707,0,73.125,0
	c-1.205,0-2.66,1.41-4.374,3.125L59.376,12.5L50.001,1.953C49.022,0.853,48.457,0,46.875,0c-1.581,0-2.146,0.853-3.125,1.953
	L34.375,12.5L25,3.125C23.285,1.41,21.831,0,20.625,0z"/>
</svg>
