<?xml version="1.0" encoding="utf-8"?>
<!-- Generator: Adobe Illustrator 15.1.0, SVG Export Plug-In . SVG Version: 6.00 Build 0)  -->
<!DOCTYPE svg PUBLIC "-//W3C//DTD SVG 1.1//EN" "http://www.w3.org/Graphics/SVG/1.1/DTD/svg11.dtd">
<svg version="1.1" id="Layer_1" xmlns="http://www.w3.org/2000/svg" xmlns:xlink="http://www.w3.org/1999/xlink" x="0px" y="0px"
	 width="100px" height="78.947px" viewBox="0 0 100 78.947" enable-background="new 0 0 100 78.947" xml:space="preserve">
<path id="path7698-1" d="M50,0c-19.076,0-34.97,13.591-38.651,31.579H5.263C2.631,31.579,0,34.21,0,36.841v5.265
	c0,2.63,2.631,5.262,5.263,5.262h6.085C15.029,65.355,30.924,78.947,50,78.947c19.075,0,34.971-13.592,38.651-31.579h6.084
	c2.633,0,5.265-2.632,5.265-5.262v-5.265c0-2.631-2.632-5.263-5.265-5.263h-6.084C84.97,13.591,69.075,0,50,0z M50,13.157
	c10.823,0,20.359,8.725,23.684,18.421H26.315C29.64,21.882,39.176,13.157,50,13.157L50,13.157z M26.315,47.368h47.368
	C70.359,57.063,60.823,65.79,50,65.79C39.176,65.79,29.64,57.063,26.315,47.368z"/>
</svg>
