<?xml version="1.0" encoding="utf-8"?>
<!-- Generator: Adobe Illustrator 15.1.0, SVG Export Plug-In . SVG Version: 6.00 Build 0)  -->
<!DOCTYPE svg PUBLIC "-//W3C//DTD SVG 1.1//EN" "http://www.w3.org/Graphics/SVG/1.1/DTD/svg11.dtd">
<svg version="1.1" id="Layer_1" xmlns="http://www.w3.org/2000/svg" xmlns:xlink="http://www.w3.org/1999/xlink" x="0px" y="0px"
	 width="100px" height="73.682px" viewBox="0 0 100 73.682" enable-background="new 0 0 100 73.682" xml:space="preserve">
<path d="M50,0L0,26.315L50,52.63l28.946-14.637c0,0,0,13.267,0,19.899c0,10.527,10.527,10.527,10.527,10.527v-5.263
	c0,0-5.263-0.301-5.263-5.265c0-7.895,0-22.861,0-22.861L100,26.315L50,0z"/>
<path d="M26.315,47.367v10.526c0,2.615,1.711,6.118,5.263,7.895L50,73.682l15.789-7.895c3.553-1.776,8.143-5.292,7.895-7.895V47.367
	L50,58.879L26.315,47.367z"/>
</svg>
