<?xml version="1.0" encoding="utf-8"?>
<!-- Generator: Adobe Illustrator 15.1.0, SVG Export Plug-In . SVG Version: 6.00 Build 0)  -->
<!DOCTYPE svg PUBLIC "-//W3C//DTD SVG 1.1//EN" "http://www.w3.org/Graphics/SVG/1.1/DTD/svg11.dtd">
<svg version="1.1" id="Layer_1" xmlns="http://www.w3.org/2000/svg" xmlns:xlink="http://www.w3.org/1999/xlink" x="0px" y="0px"
	 width="100px" height="73.684px" viewBox="0 0 100 73.684" enable-background="new 0 0 100 73.684" xml:space="preserve">
<path id="path5421" d="M65.789,0l-2.632,5.264l10.526,3.947v11.842H36.842V15.79h5.263v-2.631c0-1.295-1.337-2.632-2.632-2.632
	H26.315c-2.632,0-2.632,2.632-2.632,2.632v2.631h7.895v5.263l-5.592,11.184c-1.578-0.378-3.242-0.658-4.934-0.658
	C9.425,31.579,0,41.004,0,52.631c0,11.628,9.425,21.052,21.053,21.052c11.626,0,21.052-9.424,21.052-21.052c0,0,5.263,0,7.895,0
	S52.631,50,52.631,50c0.541-7.739,4.527-13.81,9.703-17.763c3.579-2.732,7.437-4.418,11.349-5.263v3.289v2.138
	c-9.075,2.34-15.789,10.423-15.789,20.23c0,11.628,9.426,21.053,21.052,21.053c11.627,0,21.054-9.425,21.054-21.053
	c0-9.621-6.48-17.553-15.296-20.065l-5.758-11.514V7.896c0-1.526-1.224-3.223-2.63-3.783L65.789,0z M36.842,26.316h23.685
	c-5.265,2.632-13.159,15.789-13.159,21.054l-6.085-0.002c-1.331-5.159-4.369-9.504-8.717-12.335L36.842,26.316z M21.053,39.473
	c7.267,0,13.157,5.892,13.157,13.158s-5.891,13.157-13.157,13.157c-7.267,0-13.158-5.891-13.158-13.157S13.786,39.473,21.053,39.473
	L21.053,39.473z M78.946,39.473c7.268,0,13.159,5.892,13.159,13.158s-5.892,13.157-13.159,13.157
	c-7.266,0-13.157-5.891-13.157-13.157S71.68,39.473,78.946,39.473L78.946,39.473z"/>
</svg>
