<?xml version="1.0" encoding="utf-8"?>
<!-- Generator: Adobe Illustrator 15.1.0, SVG Export Plug-In . SVG Version: 6.00 Build 0)  -->
<!DOCTYPE svg PUBLIC "-//W3C//DTD SVG 1.1//EN" "http://www.w3.org/Graphics/SVG/1.1/DTD/svg11.dtd">
<svg version="1.1" id="Layer_1" xmlns="http://www.w3.org/2000/svg" xmlns:xlink="http://www.w3.org/1999/xlink" x="0px" y="0px"
	 width="84.999px" height="100px" viewBox="0 0 84.999 100" enable-background="new 0 0 84.999 100" xml:space="preserve">
<path d="M75.001,40.312V10c0-2.77-2.231-5-5.002-5h-9.998c0-2.771-2.231-5-5.002-5H30c-2.77,0-5,2.23-5,5H15c-2.77,0-5,2.23-5,5
	v30.312L0,45.001l10,20v10.001l15.938,4.688c0.546,0.18,1.036,0.31,1.562,0.31s1.103-0.17,1.562-0.31L42.5,75l13.437,4.688
	c0.516,0.17,1.036,0.311,1.563,0.311s1.071-0.161,1.563-0.311L75.001,75V65l9.998-20L75.001,40.312z M65,35.625L47.499,27.5L42.5,25
	l-5,2.5L20,35.625V15h45V35.625z"/>
<path d="M10,85c-0.532,0-1.211,0.172-1.562,0.311L0,88.123V98.28l10-3.281l15.938,4.692c0.546,0.181,1.036,0.31,1.562,0.31
	s1.103-0.164,1.562-0.31L42.5,94.999l13.437,4.692c0.516,0.17,1.036,0.31,1.563,0.31s1.071-0.155,1.563-0.31l15.938-4.692
	l9.998,3.281V88.123l-8.438-2.812C76.065,85.145,75.528,85,75.001,85c-0.528,0-1.055,0.146-1.563,0.311L57.5,89.998L44.063,85.31
	C43.535,85.136,43.028,85,42.5,85c-0.528,0-1.084,0.161-1.562,0.311L27.5,89.998L11.562,85.31C10.917,85.066,10.532,85,10,85z"/>
</svg>
