<?xml version="1.0" encoding="utf-8"?>
<!-- Generator: Adobe Illustrator 15.1.0, SVG Export Plug-In . SVG Version: 6.00 Build 0)  -->
<!DOCTYPE svg PUBLIC "-//W3C//DTD SVG 1.1//EN" "http://www.w3.org/Graphics/SVG/1.1/DTD/svg11.dtd">
<svg version="1.1" id="Layer_1" xmlns="http://www.w3.org/2000/svg" xmlns:xlink="http://www.w3.org/1999/xlink" x="0px" y="0px"
	 width="100px" height="100.001px" viewBox="0 0 100 100.001" enable-background="new 0 0 100 100.001" xml:space="preserve">
<path id="path7602" d="M79.414,0C68.042,0,58.825,9.218,58.825,20.589c0,2.579,0.604,5.079,1.469,7.353l-48.529,48.53
	c0-5.881,0-17.646,0-23.529c0-8.824,5.883-11.765,5.883-11.765l5.882,5.882c0,0,0-15.687,0-23.529c0-5.883-2.941-2.941-5.882,0
	C0,41.178,0,41.015,0,52.942v23.529v17.647c0,2.941,2.941,5.882,5.882,5.882H23.53h23.529c11.928,0,21.569-9.803,29.412-17.647
	c2.942-2.939,5.882-5.807,0-5.882H52.943l5.882,5.882c0,0-2.942,5.885-11.766,5.885c-5.882,0-17.647,0-23.529,0l48.53-48.531
	c2.274,0.866,4.774,1.471,7.354,1.471c11.37,0,20.587-9.218,20.587-20.589S90.784,0,79.414,0L79.414,0z M79.414,11.765
	c4.872,0,8.823,3.951,8.823,8.824s-3.951,8.824-8.823,8.824c-4.874,0-8.823-3.951-8.823-8.824S74.54,11.765,79.414,11.765z"/>
</svg>
