<?xml version="1.0" encoding="utf-8"?>
<!-- Generator: Adobe Illustrator 15.1.0, SVG Export Plug-In . SVG Version: 6.00 Build 0)  -->
<!DOCTYPE svg PUBLIC "-//W3C//DTD SVG 1.1//EN" "http://www.w3.org/Graphics/SVG/1.1/DTD/svg11.dtd">
<svg version="1.1" id="Layer_1" xmlns="http://www.w3.org/2000/svg" xmlns:xlink="http://www.w3.org/1999/xlink" x="0px" y="0px"
	 width="100px" height="85.714px" viewBox="0 0 100 85.714" enable-background="new 0 0 100 85.714" xml:space="preserve">
<path d="M60.714,0c-4.615,0-8.332,3.716-8.332,8.333s3.717,8.333,8.332,8.333c4.616,0,8.333-3.716,8.333-8.333S65.33,0,60.714,0z"/>
<path d="M22.619,9.523c-4.616,0-8.333,3.716-8.333,8.333c0,4.617,3.717,8.333,8.333,8.333c4.617,0,8.334-3.716,8.334-8.333
	S27.235,9.523,22.619,9.523z"/>
<path d="M66.667,19.047c-1.775,0-4.698,0.641-7.143,2.381L44.047,32.44c-4.199,2.988-0.346,8.247,3.571,5.655l10.121-6.696
	c0,0,6.67,14.305,4.165,20.982c-0.083,0.224-0.154,0.425-0.147,0.595L51.339,80.654c-1.194,3.188,1.104,5.092,3.422,5.061
	c1.521-0.021,2.976-0.92,3.722-2.679L71.429,52.38c0,0,2.382,14.284,11.904,14.286c5.723,0.001,9.922,0,13.096,0
	c3.571,0,3.571-3.572,3.571-3.572s0-3.571-3.571-3.571c-2.382,0-8.333-0.001-10.715,0c-5.082,0-4.761-7.63-4.761-11.905
	c0-7.143-4.764-19.046-4.764-19.046l14.286,9.523c4.316,2.878,8.056-2.218,3.87-5.357L78.571,21.428
	c-2.874-2.047-3.795-2.38-7.143-2.381C71.429,19.047,69.047,19.047,66.667,19.047L66.667,19.047z"/>
<path d="M16.667,28.571c-2.381,0-3.507,1.126-4.762,2.38L1.786,41.071C0.483,42.374,0,43.54,0,45.238c0,2.38,3.64,3.503,5.655,1.487
	l8.631-8.63c4.762,0,6.547,11.905,4.762,16.667l-7.143,19.048c-1.979,5.275,5.449,6.898,7.143,2.381l7.143-19.047
	c0,0,2.381,4.761,7.143,4.761h14.286c4.763,0,4.763-7.143,0-7.143H35.714c-2.381,0-2.381-4.762-2.381-7.144
	c0-9.523-4.762-19.046-9.523-19.046H16.667z"/>
</svg>
