<?xml version="1.0" encoding="utf-8"?>
<!-- Generator: Adobe Illustrator 14.0.0, SVG Export Plug-In . SVG Version: 6.00 Build 43363)  -->
<!DOCTYPE svg PUBLIC "-//W3C//DTD SVG 1.0//EN" "http://www.w3.org/TR/2001/REC-SVG-20010904/DTD/svg10.dtd">
<svg version="1.0" id="Layer_1" xmlns="http://www.w3.org/2000/svg" xmlns:xlink="http://www.w3.org/1999/xlink" x="0px" y="0px"
	 width="100px" height="70.749px" viewBox="0 0 100 70.749" enable-background="new 0 0 100 70.749" xml:space="preserve">
<polygon points="0,70.749 0,57.025 85.669,57.025 85.669,70.749 0,70.749 "/>
<rect x="88.218" y="56.808" width="4.594" height="13.886"/>
<path d="M99.945,54.574v-8.44c0.005-5.036-1.84-10.027-5.053-13.694c-3.563-4.066-8.598-6.305-14.174-6.305
	c-0.004,0-0.006,0-0.006,0h-3.324c0.938-2.171,1.44-4.446,1.426-6.575c0.011-4.102-1.572-7.898-4.459-10.683
	c-2.879-2.779-6.88-4.335-11.288-4.411v4.593c6.495,0.144,11.172,4.516,11.156,10.512c0.017,2.396-0.965,5.208-2.621,7.526
	c-0.502,0.699-0.568,1.621-0.175,2.384c0.394,0.766,1.181,1.246,2.042,1.246h7.243c0.002,0,0.002,0,0.006,0
	c5.426,0,8.824,2.578,10.722,4.742c2.488,2.837,3.916,6.724,3.912,10.665v8.44H99.945z"/>
<rect x="95.409" y="56.808" width="4.591" height="13.886"/>
<path d="M80.559,37.083c-0.02,0-0.039,0-0.061,0c0,0-3.075-0.005-6.152-0.007c-1.539-0.003-3.079-0.003-4.234,0
	c-0.581,0-1.064,0.002-1.403,0.002c-0.159,0-0.333,0-0.517,0.012v-0.007c-2.773-0.007-4.254-1.583-5.009-2.905
	c-1.304-2.28-1.32-5.399-0.041-7.58c0.429-0.732,0.418-1.641-0.026-2.362c-0.442-0.722-1.252-1.142-2.096-1.09
	c-3.465,0.214-6.399-0.712-8.487-2.674c-1.813-1.705-2.853-4.082-2.855-6.524c0.002-3.179,1.861-9.144,8.816-9.349V0
	c-5.323,0.115-8.491,2.653-10.22,4.789c-2.024,2.5-3.185,5.838-3.187,9.157c0.002,3.706,1.57,7.303,4.301,9.872
	c1.684,1.581,4.421,3.354,8.5,3.83c-0.633,2.941-0.194,6.178,1.309,8.811c1.889,3.304,5.164,5.207,8.984,5.217
	c0.042,0.002,0.082,0,0.123-0.003c0.676-0.012,7.615-0.005,12.198,0.003c2.682-0.015,4.777,0.66,6.059,1.936
	c1.097,1.09,1.654,2.657,1.658,4.645v6.319h4.594V48.25c-0.008-3.21-1.049-5.941-3.015-7.895
	C87.647,38.213,84.451,37.083,80.559,37.083z M70.013,40.767c-0.061,0.084-0.128,0.161-0.197,0.232
	C69.885,40.925,69.953,40.849,70.013,40.767z"/>
</svg>
