<?xml version="1.0" encoding="utf-8"?>
<!-- Generator: Adobe Illustrator 15.1.0, SVG Export Plug-In . SVG Version: 6.00 Build 0)  -->
<!DOCTYPE svg PUBLIC "-//W3C//DTD SVG 1.1//EN" "http://www.w3.org/Graphics/SVG/1.1/DTD/svg11.dtd">
<svg version="1.1" id="Layer_1" xmlns="http://www.w3.org/2000/svg" xmlns:xlink="http://www.w3.org/1999/xlink" x="0px" y="0px"
	 width="94.443px" height="100px" viewBox="0 0 94.443 100" enable-background="new 0 0 94.443 100" xml:space="preserve">
<path d="M50,0.002c-5.556,0-11.111,5.556-22.223,5.556c-11.111,0-16.667-5.556-22.222-5.556V0C2.936,0,0,2.777,0,5.555v38.89
	c0,12.31,5.555,27.778,27.777,27.778c1.993,0,3.812-0.095,5.556-0.345V55.559H11.11c0,0,2.778-11.111,16.667-11.111
	c2.778,0,3.87,0.411,5.556,1.042V33.336c0-5.092,2.029-9.348,5.556-11.111c5.555-2.777,7.798-1.656,11.111,0
	c5.555,2.778,5.555,2.778,5.555,2.778V5.558C55.555,2.781,52.617,0.002,50,0.002z M15.277,33.333c-3.835,0-6.944-3.109-6.944-6.945
	s3.109-6.945,6.944-6.945c3.835,0,6.944,3.109,6.944,6.945S19.112,33.333,15.277,33.333z"/>
<path d="M88.889,27.777c-5.555,0-11.112,5.556-22.222,5.556c-11.112,0-16.667-5.556-22.223-5.556c-2.619,0-5.555,2.778-5.555,5.556
	v38.889c0,12.312,5.555,27.777,27.778,27.777c22.222,0,27.776-15.466,27.776-27.778V33.333
	C94.443,30.555,91.508,27.777,88.889,27.777z M47.222,54.167c0-3.836,3.109-6.945,6.945-6.945c3.835,0,6.942,3.109,6.942,6.945
	c0,3.836-3.107,6.945-6.942,6.945C50.331,61.112,47.222,58.003,47.222,54.167z M66.667,88.89C52.776,88.89,50,77.778,50,77.778
	h33.334C83.334,77.778,80.555,88.89,66.667,88.89z M79.167,61.112c-3.836,0-6.945-3.109-6.945-6.945
	c0-3.836,3.109-6.945,6.945-6.945c3.835,0,6.942,3.109,6.942,6.945C86.109,58.003,83.002,61.112,79.167,61.112z"/>
</svg>
