<?xml version="1.0" encoding="utf-8"?>
<!-- Generator: Adobe Illustrator 15.1.0, SVG Export Plug-In . SVG Version: 6.00 Build 0)  -->
<!DOCTYPE svg PUBLIC "-//W3C//DTD SVG 1.1//EN" "http://www.w3.org/Graphics/SVG/1.1/DTD/svg11.dtd">
<svg version="1.1" id="Layer_1" xmlns="http://www.w3.org/2000/svg" xmlns:xlink="http://www.w3.org/1999/xlink" x="0px" y="0px"
	 width="100px" height="78.947px" viewBox="0 0 100 78.947" enable-background="new 0 0 100 78.947" xml:space="preserve">
<path id="path6511" d="M42.105,0C15.789,0,0,21.052,0,31.579c0,10.525,5.263,18.42,15.789,18.42c10.526,0,15.79,2.632,15.79,10.526
	c0,10.527,7.895,18.422,18.421,18.422c34.211,0,50-18.422,50-36.843C100,10.526,73.683,0,42.105,0L42.105,0z M35.526,10.526
	c3.633,0,6.579,2.945,6.579,6.579c0,3.633-2.946,6.579-6.579,6.579c-3.634,0-6.579-2.945-6.579-6.579
	C28.947,13.471,31.892,10.526,35.526,10.526z M56.58,10.526c3.631,0,6.577,2.945,6.577,6.579c0,3.633-2.946,6.579-6.577,6.579
	c-3.635,0-6.58-2.945-6.58-6.579C50,13.471,52.945,10.526,56.58,10.526z M77.63,21.052c3.635,0,6.58,2.945,6.58,6.579
	c0,3.633-2.945,6.578-6.58,6.578c-3.634,0-6.579-2.945-6.579-6.578C71.051,23.998,73.997,21.052,77.63,21.052z M17.105,26.315
	c3.633,0,6.578,2.945,6.578,6.579s-2.945,6.579-6.578,6.579c-3.634,0-6.579-2.946-6.579-6.579S13.472,26.315,17.105,26.315z
	 M50,52.63c4.359,0,7.895,3.535,7.895,7.895c0,4.36-3.535,7.895-7.895,7.895c-4.36,0-7.895-3.534-7.895-7.895
	C42.105,56.166,45.64,52.63,50,52.63L50,52.63z"/>
</svg>
