<?xml version="1.0" encoding="utf-8"?>
<!-- Generator: Adobe Illustrator 15.1.0, SVG Export Plug-In . SVG Version: 6.00 Build 0)  -->
<!DOCTYPE svg PUBLIC "-//W3C//DTD SVG 1.1//EN" "http://www.w3.org/Graphics/SVG/1.1/DTD/svg11.dtd">
<svg version="1.1" id="Layer_1" xmlns="http://www.w3.org/2000/svg" xmlns:xlink="http://www.w3.org/1999/xlink" x="0px" y="0px"
	 width="100px" height="76.468px" viewBox="0 0 100 76.468" enable-background="new 0 0 100 76.468" xml:space="preserve">
<path d="M65.442,0c-0.931,0-2.552,0.547-3.309,0.919l-23.53,11.397c-3.132,1.483-4.272,6.041-2.206,8.824l7.169,9.743L17.279,51.288
	l12.133,3.86L45.221,50c0.563-0.188,1.218-0.364,1.838-0.364c0.621,0,1.218,0.164,1.838,0.364l15.808,5.148l8.272-2.758
	l-22.61-32.721L68.2,10.662c3.54-1.771,3.309-4.807,2.941-6.618C70.792,2.327,68.676,0,65.442,0z"/>
<circle cx="76.471" cy="29.412" r="11.764"/>
<path d="M11.765,58.824c-0.626,0-1.425,0.201-1.838,0.365L0,62.498V74.63l11.765-4.044l15.81,5.515
	c0.643,0.211,1.218,0.364,1.838,0.364c0.62,0,1.297-0.193,1.838-0.364l15.809-5.515l15.811,5.515
	c0.606,0.198,1.219,0.364,1.836,0.364c0.62,0,1.262-0.183,1.839-0.364l15.809-5.515L100,76.468V64.335l-15.809-5.146
	c-0.584-0.194-1.217-0.365-1.839-0.365c-0.62,0-1.238,0.171-1.837,0.365l-15.811,5.146l-15.808-5.146
	c-0.62-0.206-1.217-0.365-1.838-0.365c-0.62,0-1.274,0.188-1.838,0.365l-15.809,5.146l-15.809-5.146
	C12.843,58.901,12.391,58.824,11.765,58.824L11.765,58.824z"/>
</svg>
