<?xml version="1.0" encoding="utf-8"?>
<!-- Generator: Adobe Illustrator 15.1.0, SVG Export Plug-In . SVG Version: 6.00 Build 0)  -->
<!DOCTYPE svg PUBLIC "-//W3C//DTD SVG 1.1//EN" "http://www.w3.org/Graphics/SVG/1.1/DTD/svg11.dtd">
<svg version="1.1" id="Layer_1" xmlns="http://www.w3.org/2000/svg" xmlns:xlink="http://www.w3.org/1999/xlink" x="0px" y="0px"
	 width="100px" height="84.211px" viewBox="0 0 100 84.211" enable-background="new 0 0 100 84.211" xml:space="preserve">
<path d="M47.368,0c-5.263,0-10.526,2.631-10.526,10.526c0,2.825,0.23,3.306,0.822,5.757l3.619,14.966L21.71,43.257L3.947,32.895
	c-0.591-0.347-1.362-0.357-2.303-0.164c-0.94,0.195-1.646,1.31-1.645,2.467c0.001,1.158,0.507,1.828,1.316,2.302L77.63,82.237
	c2.398,1.384,4.562,1.941,6.58,1.974c1.411,0,2.798-0.185,3.947-0.658c2.79-1.147,4.534-3.22,5.756-4.441
	c0.611-0.611,0.821-1.356,0.821-2.138c0-1.113-0.677-2.295-2.137-2.466c-0.942-0.11-1.708,0.23-2.304,0.987
	c-1.235,1.565-2.777,2.741-4.11,3.288c-1.335,0.548-2.81,0.646-5.921-1.151L31.415,49.014l18.914-11.019
	c1.751-1.2,2.642-3.53,2.138-5.592l-2.138-8.717l18.818,11.079l3.551,13.529c0.405,1.515,1.525,2.821,2.96,3.454l12.008,5.264
	c8.452,3.704,9.656-4.348,4.275-6.68l-9.868-4.275l-8.389-32.892l-16.117-9.21C53.426,1.564,50,0.006,47.368,0.006V0z"/>
<circle cx="89.473" cy="21.052" r="10.526"/>
</svg>
