<?xml version="1.0" encoding="utf-8"?>
<!-- Generator: Adobe Illustrator 15.1.0, SVG Export Plug-In . SVG Version: 6.00 Build 0)  -->
<!DOCTYPE svg PUBLIC "-//W3C//DTD SVG 1.1//EN" "http://www.w3.org/Graphics/SVG/1.1/DTD/svg11.dtd">
<svg version="1.1" id="Layer_1" xmlns="http://www.w3.org/2000/svg" xmlns:xlink="http://www.w3.org/1999/xlink" x="0px" y="0px"
	 width="78.947px" height="100px" viewBox="0 0 78.947 100" enable-background="new 0 0 78.947 100" xml:space="preserve">
<path d="M73.685,10.526H52.631V2.631c0-1.458-1.173-2.631-2.63-2.631H28.947c-1.458,0-2.631,1.173-2.631,2.631v7.895H5.263
	C2.347,10.526,0,12.874,0,15.789c0,2.917,2.347,5.263,5.263,5.263h68.422c2.915,0,5.263-2.347,5.263-5.263
	C78.947,12.874,76.6,10.526,73.685,10.526z M47.368,10.526H31.579V5.263h15.789V10.526z"/>
<path d="M5.263,26.316c-2.916,0-5.66,2.387-5.181,5.263l10.444,63.158C11.002,97.613,12.874,100,15.79,100h47.369
	c2.916,0,4.783-2.387,5.262-5.264l10.446-63.158c0.475-2.876-2.267-5.263-5.182-5.263H5.263z"/>
</svg>
