<?xml version="1.0" encoding="utf-8"?>
<!-- Generator: Adobe Illustrator 15.1.0, SVG Export Plug-In . SVG Version: 6.00 Build 0)  -->
<!DOCTYPE svg PUBLIC "-//W3C//DTD SVG 1.1//EN" "http://www.w3.org/Graphics/SVG/1.1/DTD/svg11.dtd">
<svg version="1.1" id="Layer_1" xmlns="http://www.w3.org/2000/svg" xmlns:xlink="http://www.w3.org/1999/xlink" x="0px" y="0px"
	 width="68.421px" height="100px" viewBox="0 0 68.421 100" enable-background="new 0 0 68.421 100" xml:space="preserve">
<path id="rect9498-4" d="M5.264,0C2.348,0,0,2.347,0,5.263v5.263v5.263v31.579v47.367C0,97.368,2.632,100,5.264,100
	c2.631,0,5.263-2.632,5.263-5.265V40.789c1.797-0.763,3.547-1.316,5.263-1.316c10.526,0,26.057,13.158,36.843,13.158
	c4.603,0,11.186-1.812,15.789-5.264V10.526c-5.222,3.915-10.51,7.895-15.789,7.895c-10.527,0-26.28-13.158-36.843-13.158
	c-1.772,0-3.507,0.316-5.263,0.658V5.263C10.526,2.347,8.179,0,5.264,0z"/>
</svg>
