<?xml version="1.0" encoding="utf-8"?>
<!-- Generator: Adobe Illustrator 15.1.0, SVG Export Plug-In . SVG Version: 6.00 Build 0)  -->
<!DOCTYPE svg PUBLIC "-//W3C//DTD SVG 1.1//EN" "http://www.w3.org/Graphics/SVG/1.1/DTD/svg11.dtd">
<svg version="1.1" id="Layer_1" xmlns="http://www.w3.org/2000/svg" xmlns:xlink="http://www.w3.org/1999/xlink" x="0px" y="0px"
	 width="100px" height="82.354px" viewBox="0 0 100 82.354" enable-background="new 0 0 100 82.354" xml:space="preserve">
<path id="rect4496" d="M5.882,0C2.624,0,0,2.623,0,5.882v17.647v35.295v17.646c0,3.26,2.624,5.884,5.882,5.884
	c3.259,0,5.882-2.624,5.882-5.884V64.705h17.647v11.766c0,3.26,2.624,5.884,5.883,5.884c3.258,0,5.882-2.624,5.882-5.884V64.705
	h17.648v11.766c0,3.26,2.623,5.884,5.881,5.884c3.26,0,5.885-2.624,5.885-5.884V64.705h17.646v11.766
	c0,3.26,2.623,5.884,5.882,5.884c3.26,0,5.882-2.624,5.882-5.884V5.882C100,2.623,97.378,0,94.119,0
	c-3.259,0-5.882,2.623-5.882,5.882v11.765H70.59V5.882C70.59,2.623,67.965,0,64.706,0c-3.258,0-5.881,2.623-5.881,5.882v11.765
	H41.177V5.882C41.177,2.623,38.553,0,35.295,0c-3.259,0-5.883,2.623-5.883,5.882v11.765H11.765V5.882C11.765,2.623,9.141,0,5.882,0z
	 M11.765,29.412h17.647v23.53H11.765V29.412z M41.177,29.412h17.648v23.53H41.177V29.412z M70.59,29.412h17.646v23.53H70.59V29.412z
	"/>
</svg>
